<?xml version="1.0" encoding="utf-8"?>
<!-- Generator: Adobe Illustrator 25.2.1, SVG Export Plug-In . SVG Version: 6.00 Build 0)  -->
<svg version="1.1" id="Layer_1" xmlns="http://www.w3.org/2000/svg" xmlns:xlink="http://www.w3.org/1999/xlink" x="0px" y="0px"
	 viewBox="0 0 335.51 240" style="enable-background:new 0 0 335.51 240;" xml:space="preserve">
<style type="text/css">
	.st0{fill:#C7C8DF;}
	.st1{opacity:0.3;fill:url(#SVGID_1_);}
	.st2{fill:#56AEE2;}
	.st3{opacity:0.19;fill:url(#SVGID_2_);}
	.st4{fill:#FFFFFF;}
	.st5{opacity:0.3;fill:url(#SVGID_3_);}
	.st6{fill:#D85930;}
	.st7{opacity:0.19;}
	.st8{fill:url(#SVGID_4_);}
	.st9{fill:url(#SVGID_5_);}
	.st10{fill:url(#SVGID_6_);}
	.st11{fill:url(#SVGID_7_);}
	.st12{fill:url(#SVGID_8_);}
	.st13{fill:url(#SVGID_9_);}
	.st14{fill:url(#SVGID_10_);}
	.st15{fill:url(#SVGID_11_);}
	.st16{fill:url(#SVGID_12_);}
	.st17{fill:url(#SVGID_13_);}
	.st18{opacity:0.3;fill:url(#SVGID_14_);}
	.st19{fill:#EE9FA4;}
	.st20{fill:url(#SVGID_15_);}
	.st21{fill:url(#SVGID_16_);}
	.st22{fill:url(#SVGID_17_);}
	.st23{fill:url(#SVGID_18_);}
	.st24{fill:url(#SVGID_19_);}
	.st25{fill:url(#SVGID_20_);}
	.st26{fill:url(#SVGID_21_);}
	.st27{fill:url(#SVGID_22_);}
	.st28{fill:url(#SVGID_23_);}
	.st29{fill:url(#SVGID_24_);}
	.st30{fill:url(#SVGID_25_);}
	.st31{fill:url(#SVGID_26_);}
	.st32{fill:url(#SVGID_27_);}
	.st33{fill:url(#SVGID_28_);}
	.st34{fill:url(#SVGID_29_);}
	.st35{fill:url(#SVGID_30_);}
	.st36{fill:url(#SVGID_31_);}
	.st37{fill:url(#SVGID_32_);}
	.st38{fill:url(#SVGID_33_);}
	.st39{fill:url(#SVGID_34_);}
	.st40{fill:url(#SVGID_35_);}
	.st41{fill:url(#SVGID_36_);}
	.st42{fill:url(#SVGID_37_);}
	.st43{fill:url(#SVGID_38_);}
	.st44{fill:#414A8D;}
	.st45{fill:#F0AA6E;}
	.st46{opacity:0.5;fill:#D8DEE8;}
	.st47{fill:#20201E;}
	.st48{fill:none;stroke:#20201E;stroke-width:0.7269;stroke-linecap:round;stroke-linejoin:round;stroke-miterlimit:10;}
	.st49{fill:#233643;}
	.st50{fill:#DD796D;}
	.st51{fill:none;stroke:#DD796D;stroke-width:0.4137;stroke-linecap:round;stroke-linejoin:round;stroke-miterlimit:10;}
	.st52{fill:#5669A4;}
	.st53{fill:#292826;}
	.st54{fill:none;stroke:#233643;stroke-width:0.4137;stroke-linecap:round;stroke-linejoin:round;stroke-miterlimit:10;}
	.st55{fill:none;stroke:#020203;stroke-width:0.4137;stroke-linecap:round;stroke-linejoin:round;stroke-miterlimit:10;}
	.st56{fill:#F7C751;}
</style>
<g>
	<g>
		<path class="st0" d="M306.78,145.25c10.42-46.45-8.79-97.35-50.03-123.41C182.23-25.24,62.16,25.43,54.63,59.7
			c-3.35,15.27,15.35,28.63,6.51,43.1c-8.61,14.09-30.29,7.91-38.72,20.52c-12.51,18.71,13.3,65.07,52.87,82.75
			c11.9,5.32,95.07,17.66,151.92-55.91c7.75-10.03,22.6-8.66,35.11-6.59C274.82,145.64,294.87,149.6,306.78,145.25z"/>
		<g>
			<linearGradient id="SVGID_1_" gradientUnits="userSpaceOnUse" x1="205.3963" y1="122.77" x2="227.1964" y2="277.7072">
				<stop  offset="0" style="stop-color:#444C8D"/>
				<stop  offset="0.9964" style="stop-color:#26274F"/>
			</linearGradient>
			<path class="st1" d="M175.03,68.6v67.82c0,1.58,1.38,2.81,2.96,2.63l57.75-6.87c1.92-0.23,3.2-2.1,2.72-3.97
				c-1.61-6.21-4.69-19.29-4.7-28.39c0-0.24-0.13-0.46-0.34-0.57L176,68.02C175.56,67.79,175.03,68.1,175.03,68.6z"/>
			<path class="st2" d="M176.17,67.38l69.76-7.15c0.55-0.06,1.04,0.32,1.13,0.87c0.93,5.78,6.25,36.15,18.62,55.59
				c0.39,0.61,0.05,1.42-0.66,1.57l-62.41,13.38c-0.31,0.07-0.64-0.01-0.89-0.22c-2.6-2.2-17.12-16.25-26.46-62.79
				C175.13,68.02,175.56,67.45,176.17,67.38z"/>
			<g>
				<linearGradient id="SVGID_2_" gradientUnits="userSpaceOnUse" x1="223.4499" y1="111.74" x2="239.5037" y2="225.8373">
					<stop  offset="0" style="stop-color:#FFFFFF"/>
					<stop  offset="0.9964" style="stop-color:#EBEFF2"/>
				</linearGradient>
				<path class="st3" d="M243.42,98.67c-7.88-1.97-9.9-10.18-17.11-10.12c-7.13,0.06-8.67,8.12-15.03,7.74
					c-7.23-0.43-8.64-11.06-18.01-13.54c-3.23-0.86-6.37-0.47-9.07,0.33c5.26,24.66,17.36,41.8,17.36,41.8l57.28-11.78
					c-2.72-4.29-5.1-9.5-7.13-14.83C248.29,99.32,245.57,99.21,243.42,98.67z"/>
			</g>
			<g>
				<path class="st4" d="M182.56,74.69c-0.74,0-1.38-0.56-1.45-1.32c-0.08-0.8,0.51-1.52,1.31-1.59l59.22-5.73
					c0.8-0.08,1.52,0.51,1.59,1.31c0.08,0.8-0.51,1.52-1.31,1.59l-59.22,5.73C182.65,74.69,182.61,74.69,182.56,74.69z"/>
			</g>
			<g>
				<path class="st4" d="M204.89,78.26c-0.74,0-1.37-0.55-1.45-1.3c-0.09-0.8,0.49-1.52,1.29-1.61l37.94-4.17
					c0.81-0.09,1.52,0.49,1.61,1.29c0.09,0.8-0.49,1.52-1.29,1.61l-37.94,4.17C205,78.26,204.94,78.26,204.89,78.26z"/>
			</g>
		</g>
		<g>
			<linearGradient id="SVGID_3_" gradientUnits="userSpaceOnUse" x1="134.15" y1="130.9815" x2="115.3156" y2="177.3141">
				<stop  offset="0" style="stop-color:#444C8D"/>
				<stop  offset="0.9964" style="stop-color:#26274F"/>
			</linearGradient>
			<path class="st5" d="M92.47,122.44v57.03c0,1.94,1.57,3.51,3.51,3.51h59.83c1.94,0,3.51-1.57,3.51-3.51v-36.24L92.47,122.44z"/>
			<path class="st6" d="M173.83,178.18h-73.74c-4.85-10.53-8.62-31.91-7.62-55.74l74.41,3.51
				C165.26,148.18,168.11,168.99,173.83,178.18z"/>
			<g>
				<path class="st4" d="M162.95,133.09c-0.06-0.88-0.77-1.57-1.65-1.61l-63.74-2.85c-0.99-0.04-1.81,0.74-1.81,1.73v0.37
					c0,0.93,0.74,1.7,1.67,1.73l63.74,2.48C162.19,134.99,163.02,134.12,162.95,133.09z"/>
				<path class="st4" d="M134.24,137.07l-36.58-1.24c-1.04-0.04-1.9,0.8-1.9,1.84v0.22c0,1,0.79,1.81,1.79,1.84l36.58,1.02
					c1.07,0.03,1.94-0.85,1.89-1.92C135.98,137.87,135.2,137.1,134.24,137.07z"/>
				<g class="st7">
					<linearGradient id="SVGID_4_" gradientUnits="userSpaceOnUse" x1="103.1404" y1="159.3853" x2="108.6193" y2="159.3853">
						<stop  offset="0" style="stop-color:#FFFFFF"/>
						<stop  offset="0.9964" style="stop-color:#EBEFF2"/>
					</linearGradient>
					<polygon class="st8" points="108.62,169.32 104.98,169.31 103.14,149.45 106.72,149.5 					"/>
					<linearGradient id="SVGID_5_" gradientUnits="userSpaceOnUse" x1="110.4546" y1="164.3433" x2="115.0418" y2="164.3433">
						<stop  offset="0" style="stop-color:#FFFFFF"/>
						<stop  offset="0.9964" style="stop-color:#EBEFF2"/>
					</linearGradient>
					<polygon class="st9" points="115.04,169.34 111.44,169.33 110.45,159.35 114.03,159.38 					"/>
					<linearGradient id="SVGID_6_" gradientUnits="userSpaceOnUse" x1="115.5962" y1="158.5817" x2="121.4092" y2="158.5817">
						<stop  offset="0" style="stop-color:#FFFFFF"/>
						<stop  offset="0.9964" style="stop-color:#EBEFF2"/>
					</linearGradient>
					<polygon class="st10" points="121.41,169.35 117.83,169.34 115.6,147.81 119.11,147.87 					"/>
					<linearGradient id="SVGID_7_" gradientUnits="userSpaceOnUse" x1="122.1729" y1="160.2052" x2="127.7225" y2="160.2052">
						<stop  offset="0" style="stop-color:#FFFFFF"/>
						<stop  offset="0.9964" style="stop-color:#EBEFF2"/>
					</linearGradient>
					<polygon class="st11" points="127.72,169.36 124.18,169.36 122.17,151.05 125.67,151.1 					"/>
					<linearGradient id="SVGID_8_" gradientUnits="userSpaceOnUse" x1="129.8986" y1="166.9003" x2="133.9819" y2="166.9003">
						<stop  offset="0" style="stop-color:#FFFFFF"/>
						<stop  offset="0.9964" style="stop-color:#EBEFF2"/>
					</linearGradient>
					<polygon class="st12" points="133.98,169.38 130.47,169.37 129.9,164.42 133.4,164.44 					"/>
					<linearGradient id="SVGID_9_" gradientUnits="userSpaceOnUse" x1="135.3171" y1="163.632" x2="140.1886" y2="163.632">
						<stop  offset="0" style="stop-color:#FFFFFF"/>
						<stop  offset="0.9964" style="stop-color:#EBEFF2"/>
					</linearGradient>
					<polygon class="st13" points="140.19,169.39 136.7,169.38 135.32,157.87 138.77,157.91 					"/>
					<linearGradient id="SVGID_10_" gradientUnits="userSpaceOnUse" x1="140.817" y1="161.1771" x2="146.3429" y2="161.1771">
						<stop  offset="0" style="stop-color:#FFFFFF"/>
						<stop  offset="0.9964" style="stop-color:#EBEFF2"/>
					</linearGradient>
					<polygon class="st14" points="146.34,169.4 142.89,169.4 140.82,152.95 144.23,153 					"/>
					<linearGradient id="SVGID_11_" gradientUnits="userSpaceOnUse" x1="147.4452" y1="163.4186" x2="152.4455" y2="163.4186">
						<stop  offset="0" style="stop-color:#FFFFFF"/>
						<stop  offset="0.9964" style="stop-color:#EBEFF2"/>
					</linearGradient>
					<polygon class="st15" points="152.45,169.42 149.02,169.41 147.45,157.42 150.84,157.45 					"/>
					<linearGradient id="SVGID_12_" gradientUnits="userSpaceOnUse" x1="152.5841" y1="160.2189" x2="158.4973" y2="160.2189">
						<stop  offset="0" style="stop-color:#FFFFFF"/>
						<stop  offset="0.9964" style="stop-color:#EBEFF2"/>
					</linearGradient>
					<polygon class="st16" points="158.5,169.43 155.1,169.42 152.58,151.01 155.93,151.06 					"/>
					<linearGradient id="SVGID_13_" gradientUnits="userSpaceOnUse" x1="158.2423" y1="159.2653" x2="164.4987" y2="159.2653">
						<stop  offset="0" style="stop-color:#FFFFFF"/>
						<stop  offset="0.9964" style="stop-color:#EBEFF2"/>
					</linearGradient>
					<polygon class="st17" points="164.5,169.44 161.13,169.44 158.24,149.09 161.56,149.14 					"/>
				</g>
				<polygon class="st4" points="164.96,172.62 105.29,172.62 105.09,170.46 164.66,170.54 				"/>
			</g>
		</g>
		<g>
			<linearGradient id="SVGID_14_" gradientUnits="userSpaceOnUse" x1="115.608" y1="54.7136" x2="144.9507" y2="124.7121">
				<stop  offset="0" style="stop-color:#444C8D"/>
				<stop  offset="0.9964" style="stop-color:#26274F"/>
			</linearGradient>
			<path class="st18" d="M91.41,51.17v33.21c0,4.96,0.66,9.9,1.96,14.68l0.5,1.83c0.19,0.68,0.8,1.15,1.51,1.15h63.28
				c0.86,0,1.5-0.8,1.31-1.63c-0.76-3.38-2.4-11.22-2.4-15.76l-3.64-28.74c0-1.4,2.52-4.39,1.12-4.44l-62.04-1.86
				C92.14,49.59,91.41,50.29,91.41,51.17z"/>
			<path class="st19" d="M91.41,44.7v33.21c0,4.96,0.66,9.9,1.96,14.68l0.5,1.83c0.19,0.68,0.8,1.15,1.51,1.15h63.28
				c0.86,0,1.5-0.8,1.31-1.63c-0.76-3.38-2.4-11.22-2.4-15.76V47.6c0-1.4-1.11-2.55-2.52-2.59l-62.04-1.86
				C92.14,43.11,91.41,43.82,91.41,44.7z"/>
			<path class="st4" d="M151.74,55.58c-0.01,0-0.02,0-0.02,0l-54.37-1.37c-0.52-0.01-0.93-0.45-0.92-0.97
				c0.01-0.52,0.45-0.94,0.97-0.92l54.37,1.37c0.52,0.01,0.93,0.45,0.92,0.97C152.67,55.18,152.25,55.58,151.74,55.58z"/>
			<g class="st7">
				<linearGradient id="SVGID_15_" gradientUnits="userSpaceOnUse" x1="114.0042" y1="61.7838" x2="120.7482" y2="61.7838">
					<stop  offset="0" style="stop-color:#FFFFFF"/>
					<stop  offset="0.9964" style="stop-color:#EBEFF2"/>
				</linearGradient>
				<polygon class="st20" points="120.75,64.22 114,64.02 114,59.35 120.75,59.59 				"/>
				<linearGradient id="SVGID_16_" gradientUnits="userSpaceOnUse" x1="122.3353" y1="62.0519" x2="128.9247" y2="62.0519">
					<stop  offset="0" style="stop-color:#FFFFFF"/>
					<stop  offset="0.9964" style="stop-color:#EBEFF2"/>
				</linearGradient>
				<polygon class="st21" points="128.92,64.46 122.34,64.27 122.34,59.64 128.92,59.88 				"/>
				<linearGradient id="SVGID_17_" gradientUnits="userSpaceOnUse" x1="130.4757" y1="62.3138" x2="136.9158" y2="62.3138">
					<stop  offset="0" style="stop-color:#FFFFFF"/>
					<stop  offset="0.9964" style="stop-color:#EBEFF2"/>
				</linearGradient>
				<polygon class="st22" points="136.92,64.69 130.48,64.51 130.48,59.93 136.92,60.16 				"/>
				<linearGradient id="SVGID_18_" gradientUnits="userSpaceOnUse" x1="138.4318" y1="62.5699" x2="144.7276" y2="62.5699">
					<stop  offset="0" style="stop-color:#FFFFFF"/>
					<stop  offset="0.9964" style="stop-color:#EBEFF2"/>
				</linearGradient>
				<polygon class="st23" points="144.73,64.92 138.43,64.74 138.43,60.22 144.73,60.44 				"/>
				<linearGradient id="SVGID_19_" gradientUnits="userSpaceOnUse" x1="146.2098" y1="62.8202" x2="152.3661" y2="62.8202">
					<stop  offset="0" style="stop-color:#FFFFFF"/>
					<stop  offset="0.9964" style="stop-color:#EBEFF2"/>
				</linearGradient>
				<polygon class="st24" points="152.37,65.14 146.21,64.97 146.21,60.5 152.37,60.72 				"/>
				<linearGradient id="SVGID_20_" gradientUnits="userSpaceOnUse" x1="96.7423" y1="68.3633" x2="103.8122" y2="68.3633">
					<stop  offset="0" style="stop-color:#FFFFFF"/>
					<stop  offset="0.9964" style="stop-color:#EBEFF2"/>
				</linearGradient>
				<polygon class="st25" points="103.81,70.83 96.74,70.69 96.74,65.9 103.81,66.08 				"/>
				<linearGradient id="SVGID_21_" gradientUnits="userSpaceOnUse" x1="105.4755" y1="68.5601" x2="112.3796" y2="68.5601">
					<stop  offset="0" style="stop-color:#FFFFFF"/>
					<stop  offset="0.9964" style="stop-color:#EBEFF2"/>
				</linearGradient>
				<polygon class="st26" points="112.38,70.99 105.48,70.86 105.48,66.13 112.38,66.3 				"/>
				<linearGradient id="SVGID_22_" gradientUnits="userSpaceOnUse" x1="114.0042" y1="68.7523" x2="120.7482" y2="68.7523">
					<stop  offset="0" style="stop-color:#FFFFFF"/>
					<stop  offset="0.9964" style="stop-color:#EBEFF2"/>
				</linearGradient>
				<polygon class="st27" points="120.75,71.16 114,71.03 114,66.35 120.75,66.52 				"/>
				<linearGradient id="SVGID_23_" gradientUnits="userSpaceOnUse" x1="122.3353" y1="68.94" x2="128.9247" y2="68.94">
					<stop  offset="0" style="stop-color:#FFFFFF"/>
					<stop  offset="0.9964" style="stop-color:#EBEFF2"/>
				</linearGradient>
				<polygon class="st28" points="128.92,71.32 122.34,71.19 122.34,66.56 128.92,66.73 				"/>
				<linearGradient id="SVGID_24_" gradientUnits="userSpaceOnUse" x1="130.4757" y1="69.1234" x2="136.9158" y2="69.1234">
					<stop  offset="0" style="stop-color:#FFFFFF"/>
					<stop  offset="0.9964" style="stop-color:#EBEFF2"/>
				</linearGradient>
				<polygon class="st29" points="136.92,71.47 130.48,71.35 130.48,66.77 136.92,66.94 				"/>
				<linearGradient id="SVGID_25_" gradientUnits="userSpaceOnUse" x1="138.4318" y1="69.3027" x2="144.7276" y2="69.3027">
					<stop  offset="0" style="stop-color:#FFFFFF"/>
					<stop  offset="0.9964" style="stop-color:#EBEFF2"/>
				</linearGradient>
				<polygon class="st30" points="144.73,71.62 138.43,71.5 138.43,66.98 144.73,67.14 				"/>
				<linearGradient id="SVGID_26_" gradientUnits="userSpaceOnUse" x1="146.2098" y1="69.4781" x2="152.3661" y2="69.4781">
					<stop  offset="0" style="stop-color:#FFFFFF"/>
					<stop  offset="0.9964" style="stop-color:#EBEFF2"/>
				</linearGradient>
				<polygon class="st31" points="152.37,71.77 146.21,71.65 146.21,67.18 152.37,67.34 				"/>
				<linearGradient id="SVGID_27_" gradientUnits="userSpaceOnUse" x1="96.7423" y1="75.4981" x2="103.8122" y2="75.4981">
					<stop  offset="0" style="stop-color:#FFFFFF"/>
					<stop  offset="0.9964" style="stop-color:#EBEFF2"/>
				</linearGradient>
				<polygon class="st32" points="103.81,77.93 96.74,77.86 96.74,73.07 103.81,73.18 				"/>
				<linearGradient id="SVGID_28_" gradientUnits="userSpaceOnUse" x1="105.4755" y1="75.6107" x2="112.3796" y2="75.6107">
					<stop  offset="0" style="stop-color:#FFFFFF"/>
					<stop  offset="0.9964" style="stop-color:#EBEFF2"/>
				</linearGradient>
				<polygon class="st33" points="112.38,78.01 105.48,77.94 105.48,73.21 112.38,73.32 				"/>
				<linearGradient id="SVGID_29_" gradientUnits="userSpaceOnUse" x1="114.0042" y1="75.7207" x2="120.7482" y2="75.7207">
					<stop  offset="0" style="stop-color:#FFFFFF"/>
					<stop  offset="0.9964" style="stop-color:#EBEFF2"/>
				</linearGradient>
				<polygon class="st34" points="120.75,78.09 114,78.03 114,73.35 120.75,73.46 				"/>
				<linearGradient id="SVGID_30_" gradientUnits="userSpaceOnUse" x1="122.3353" y1="75.8281" x2="128.9247" y2="75.8281">
					<stop  offset="0" style="stop-color:#FFFFFF"/>
					<stop  offset="0.9964" style="stop-color:#EBEFF2"/>
				</linearGradient>
				<polygon class="st35" points="128.92,78.17 122.34,78.11 122.34,73.48 128.92,73.59 				"/>
				<linearGradient id="SVGID_31_" gradientUnits="userSpaceOnUse" x1="130.4757" y1="75.933" x2="136.9158" y2="75.933">
					<stop  offset="0" style="stop-color:#FFFFFF"/>
					<stop  offset="0.9964" style="stop-color:#EBEFF2"/>
				</linearGradient>
				<polygon class="st36" points="136.92,78.25 130.48,78.19 130.48,73.62 136.92,73.72 				"/>
				<linearGradient id="SVGID_32_" gradientUnits="userSpaceOnUse" x1="138.4318" y1="76.0356" x2="144.7276" y2="76.0356">
					<stop  offset="0" style="stop-color:#FFFFFF"/>
					<stop  offset="0.9964" style="stop-color:#EBEFF2"/>
				</linearGradient>
				<polygon class="st37" points="144.73,78.33 138.43,78.27 138.43,73.74 144.73,73.85 				"/>
				<linearGradient id="SVGID_33_" gradientUnits="userSpaceOnUse" x1="146.2098" y1="76.1359" x2="152.3661" y2="76.1359">
					<stop  offset="0" style="stop-color:#FFFFFF"/>
					<stop  offset="0.9964" style="stop-color:#EBEFF2"/>
				</linearGradient>
				<polygon class="st38" points="152.37,78.4 146.21,78.34 146.21,73.87 152.37,73.97 				"/>
				<linearGradient id="SVGID_34_" gradientUnits="userSpaceOnUse" x1="96.7423" y1="82.6329" x2="103.8122" y2="82.6329">
					<stop  offset="0" style="stop-color:#FFFFFF"/>
					<stop  offset="0.9964" style="stop-color:#EBEFF2"/>
				</linearGradient>
				<polygon class="st39" points="103.81,85.03 96.74,85.03 96.74,80.24 103.81,80.28 				"/>
				<linearGradient id="SVGID_35_" gradientUnits="userSpaceOnUse" x1="105.4755" y1="82.6613" x2="112.3796" y2="82.6613">
					<stop  offset="0" style="stop-color:#FFFFFF"/>
					<stop  offset="0.9964" style="stop-color:#EBEFF2"/>
				</linearGradient>
				<polygon class="st40" points="112.38,85.03 105.48,85.03 105.48,80.29 112.38,80.34 				"/>
				<linearGradient id="SVGID_36_" gradientUnits="userSpaceOnUse" x1="114.0042" y1="82.6891" x2="120.7482" y2="82.6891">
					<stop  offset="0" style="stop-color:#FFFFFF"/>
					<stop  offset="0.9964" style="stop-color:#EBEFF2"/>
				</linearGradient>
				<polygon class="st41" points="120.75,85.03 114,85.03 114,80.35 120.75,80.39 				"/>
				<linearGradient id="SVGID_37_" gradientUnits="userSpaceOnUse" x1="122.3353" y1="82.7162" x2="128.9247" y2="82.7162">
					<stop  offset="0" style="stop-color:#FFFFFF"/>
					<stop  offset="0.9964" style="stop-color:#EBEFF2"/>
				</linearGradient>
				<polygon class="st42" points="128.92,85.03 122.34,85.03 122.34,80.4 128.92,80.45 				"/>
				<linearGradient id="SVGID_38_" gradientUnits="userSpaceOnUse" x1="130.4757" y1="82.7426" x2="136.9158" y2="82.7426">
					<stop  offset="0" style="stop-color:#FFFFFF"/>
					<stop  offset="0.9964" style="stop-color:#EBEFF2"/>
				</linearGradient>
				<polygon class="st43" points="136.92,85.03 130.48,85.03 130.48,80.46 136.92,80.5 				"/>
			</g>
		</g>
		<g>
			<path class="st44" d="M299.68,208.47l-0.49,19.73c0,0,0.58,2.72-3.01,2.92c-3.6,0.19-15.83,0-15.83,0s-1.86-0.1-1.57-1.65
				s8.26-4.37,9.43-5.73c1.17-1.36,1.43-15.84,1.43-15.84L299.68,208.47z"/>
			<path class="st44" d="M324.95,200.02l7.19,26.04c0,0,1.75,3.69-1.17,5.15c-2.92,1.46-3.7,4.12-8.37,4.94
				c-4.66,0.82-8.07-1.42-8.75-2.87c-0.68-1.46,4.48-4.99,4.48-4.99s3.69-3.21,3.3-5.93c-0.39-2.72-6.71-19.82-6.71-19.82
				L324.95,200.02z"/>
			<path class="st6" d="M300.46,128c0,0,6.8,5.06,12.83,18.62c6.03,13.56,11.27,58.26,16.81,61.08c0,0-4.37,6.51-12.15,7.19
				l-17.49-43.45v44.9c0,0-9.72-0.91-14.48-2.14c0,0,2.62-7.97,2.04-11.08c-0.58-3.11-7.66-60.95-7.66-60.95L300.46,128z"/>
			<path class="st45" d="M244.58,95.66c0,0-1.66-0.83-2.55-2.18c-0.88-1.35-0.42-3.37,0.81-4.82c1.23-1.45,1.8-4.96,1.8-4.96
				s1.46,3.18,0.83,4.45c-0.64,1.27-1.87,3.86-1.87,3.86l2.03,2.22L244.58,95.66z"/>
			<path class="st4" d="M244.64,92.37l-1.8,2.65c0,0,4.53,13.36,19.06,17.96c14.54,4.61,20.07-7.24,20.07-7.24
				S260.87,104.49,244.64,92.37z"/>
			<path class="st46" d="M246.1,95.52c-1.33-0.39-2.49-0.48-3.27-0.49c0,0,4.53,13.36,19.06,17.96c14.54,4.61,20.07-7.24,20.07-7.24
				c-2.88-0.93-7.23-2.03-12.58-2.14c-7.69-0.17-9.62,1.87-13.24-0.05C252.03,101.37,251.44,97.09,246.1,95.52z"/>
			<path class="st47" d="M216.06,78.53l10.29,27.19c1.06,2.8,4.9,3.14,6.42,0.56l23-38.84c0.98-1.66,0.47-3.79-1.15-4.83l-1.37-0.88
				c-1.7-1.09-3.96-0.56-5,1.17l-17.21,28.73c-0.5,0.84-1.74,0.74-2.1-0.17l-6.22-15.53c-0.83-2.07-3.33-2.89-5.22-1.7l0,0
				C216.06,75.14,215.45,76.93,216.06,78.53z"/>
			<path class="st45" d="M229.34,99.63c0,0-1.38,0.37-2.03-2.29c-0.51-2.08-1.03-2.64-1.35-2.1c-0.31,0.54,0.1,1.7,0.1,1.7
				s-2.29-0.72-3.78-2.3c-1.49-1.58-1.26,0.19-1.01,1.19c0.25,1,2.63,3.43,3.5,3.7c0.87,0.27,2.83,2.26,2.83,2.26L229.34,99.63z"/>
			<path class="st4" d="M226.15,101.78c1.04-1.67,2.08-3.34,3.12-5c6.52,10.31,12.47,12.91,16.76,13.33
				c7.85,0.77,18.57-5.87,31.84-13.87c1.86-1.12,5.52-3.37,9.78-2.59c1.02,0.19,1.44-1.9,5.32,3.02
				c7.27,9.2,28.89,61.58,23.78,56.47c-0.74-0.74-5.18,5.75-19.45,7.19c-4.77,0.48-10.63,0.98-14.65-2.62
				c-2.01-1.8-2.77-3.9-4.66-12.79c-3.74-17.62-4.08-21.86-6.21-22.24c-0.78-0.14-12.85,4.77-23.29,2.62
				C242.4,124.03,234.06,119.17,226.15,101.78z"/>
			<path class="st45" d="M276.67,87.11c0,0,1.33,3.29,3.26,5.43c1.74,1.93,7.18,1.61,8.36,1.76c1.18,0.15-1.17,2.65-3.96,3.96
				c-2.79,1.31-11.26,3.57-13.14,3c-1.87-0.57,0.84-1.43,2.63-2.92c1.79-1.48,1.56-5.94,0.55-7.64
				C273.36,89,276.67,87.11,276.67,87.11z"/>
			<g>
				<path class="st48" d="M268.98,78.76c0.06-1.62,0.22-3.45,1.47-4.48c1.2-0.99,2.99-0.89,4.33-1.69c1.56-0.93,2.16-2.86,3.3-4.28
					c2.04-2.54,6.06-3.2,8.8-1.43"/>
				<path class="st48" d="M280.61,95.69c1.79,0.79,3.58,1.59,5.36,2.38c1.78,0.79,3.98,1.55,5.54,0.39
					c1.92-1.43,1.27-4.44,2.09-6.69c0.67-1.86,2.43-3.18,4.33-3.71c1.9-0.53,3.94-0.37,5.87,0.06c1.44,0.32,2.9,0.78,4.36,0.59
					c1.46-0.19,2.95-1.27,2.99-2.75c0.03-1.26-0.94-2.28-1.54-3.39c-1.83-3.36,0.41-8.18,4.15-8.96"/>
				<path class="st45" d="M272.18,92.6c-1.08-1.86-0.58-3.97-0.46-4.43c0.48-1.91,0.65-2.2,1.01-2.6l0.51-0.53
					c0,0,0.03-0.02,0.06-0.05c0.35-0.24,1.66-0.62,1.94-0.63c0.9-0.04,2.71,3.2,3.72,8.18c0.17,0.36,0.33,0.72,0.5,1.08
					c1.75-0.92,2.35-0.93,2.53-0.72c0.4,0.46,0.23,4.04-1.3,5.29c-1.93,1.56-5.06-3.26-5.07-3.74
					C275.21,94.37,272.97,93.97,272.18,92.6z"/>
				<path class="st47" d="M269.33,81.6c-0.61-1.75-0.85-3.94,0.47-5.24c1.33-1.31,3.54-1.03,5.21-1.87
					c3.43-1.71,3.65-7.46,7.36-8.45c1.25-0.33,2.57,0.01,3.85-0.12c2.4-0.23,4.34-2.05,5.83-3.95c1.49-1.9,2.77-4.04,4.75-5.42
					c1.98-1.39,4.96-1.75,6.66-0.03c1.03,1.04,1.34,2.57,1.92,3.91c0.58,1.34,1.73,2.7,3.19,2.57c2.42-0.21,2.58-3.63,3.66-5.81
					c1.14-2.31,4.1-3.5,6.55-2.7c0.72,0.24,1.41,0.65,1.78,1.31c0.84,1.5-0.37,3.32-1.71,4.41c-1.33,1.08-2.97,2.11-3.3,3.8
					c-0.67,3.5,4.88,6.36,3.46,9.63c-1.29,2.95-6.06,1.42-8.68,3.29c-2.89,2.06-1.96,7.35-5.07,9.08c-1.71,0.95-3.86,0.32-5.75,0.84
					c-2.11,0.58-3.53,2.46-5.07,4.02c-2.55,2.59-5.79,4.49-9.3,5.45c-2.1,0.58-4.75,0.63-6-1.14c-1.51-2.16-0.1-5.14-2.47-6.91
					c-0.82-0.61-1.71-0.62-2.67-0.77c-1.19-0.18-1.92-0.82-2.6-1.79C270.54,84.43,269.84,83.05,269.33,81.6z"/>
			</g>
		</g>
	</g>
	<g>
		<path class="st49" d="M12.1,94.46c0,0-1.05,1.9,0,3.96c1.05,2.07,9.27,9.5,13.1,8.03l1.58-2.76C26.78,103.7,18.7,91.06,12.1,94.46
			z"/>
		<path class="st45" d="M15.96,93.5l-4.48,8.34l-6.96-3.17l-1.91,6.48c0,0,0.99,12.88,14.67,12.07c0,0,3.03-0.76,4.83-4.55
			c1.79-3.79,5.86-13.51,5.86-13.51L15.96,93.5z"/>
		<path class="st50" d="M15.96,93.5l-2.92,5.43c3,0.89,7.75,2.91,11.89,7.35c1.56-3.62,3.03-7.12,3.03-7.12L15.96,93.5z"/>
		<path class="st51" d="M11.48,101.84c0,0,4.93,1.86,5.03,5.48"/>
		<path class="st45" d="M82.16,99.98c0,0,6.5,13.16,5.26,18.84c-1.24,5.67-8.46,9.61-13.17,9.3l3.83-8.53l-9.84-17.91L82.16,99.98z"
			/>
		<path class="st49" d="M25.75,121.63c0,0-2.72,4,8.55,4.41s34.75-1.93,34.75-1.93v-5.21C69.06,118.9,36.75,115.87,25.75,121.63z"/>
		<path class="st52" d="M28.87,117.25l-11.33,97.53c0,0-4.19,3.31-4.03,5.33s0.88,2.22,1.91,2.17s11.58,0,11.58,0
			s1.81-0.78,1.14-3.1c0,0,1.97-0.26,1.91-2.38s0.36-6.67,0.36-6.67l16.15-50.3c0,0,6.76,53.37,7.17,60.13h20.82
			c0,0,0.83-3.59-1.65-4.69c-2.48-1.1-6.07-2.9-6.07-2.9s2.1-83.85,2.21-93.46L28.87,117.25z"/>
		<path class="st53" d="M19.94,194.14l-2.4,20.64c0,0-4.19,3.31-4.03,5.33s0.88,2.22,1.91,2.17s11.58,0,11.58,0s1.81-0.78,1.14-3.1
			c0,0,1.97-0.26,1.91-2.38s0.36-6.67,0.36-6.67l4.96-15.46C30.59,193.17,23.94,193.64,19.94,194.14z"/>
		<path class="st53" d="M67.28,194.98c-5.56-0.76-12.6,0.04-16.27,0.57c1.37,11.34,2.57,21.67,2.74,24.4h20.82
			c0,0,0.83-3.59-1.65-4.69c-2.48-1.1-6.07-2.9-6.07-2.9S67.03,205.28,67.28,194.98z"/>
		<path class="st47" d="M27.97,125.06c4.82-0.59,23.54-2.61,41-0.96c0.05-2.41,0.08-4.2,0.09-5.2l-40.18-1.66L27.97,125.06z"/>
		<path class="st4" d="M44.03,70.84L25.2,76.53c0,0-4.41,1.93-6.34,7.17c-1.93,5.24-6.76,10.76-6.76,10.76s4-0.55,8.69,4.41
			c4.69,4.96,4.41,7.58,4.41,7.58l1.58-2.76l-1.31,18.72c0,0,13.91-5.17,43.59,1.69v-19.44l13.1-4.69l-8.55-16.82
			c0,0-2.21-4.96-7.58-7.03c-5.38-2.07-14.38-5.47-14.38-5.47L44.03,70.84z"/>
		<path class="st47" d="M51.8,45.88c-2.61-0.77-4.97,1.17-4.97,1.17c-3.79-1.77-5.61,1.6-5.61,1.6c-2.54-0.23-2.14,2.51-2.14,2.51
			c-2.41,0.93-0.25,5.89,0.66,6.72c-0.14,1.47,0.35,4.28,3.16,4.45c3.78,0.22,6.91-0.45,6.91-0.45l3.28-6.05
			c2.47-2.94,0.24-5.24,0.24-5.24C54.05,49.61,54.41,46.65,51.8,45.88z"/>
		<line class="st54" x1="26.78" y1="103.7" x2="28.87" y2="100.29"/>
		<line class="st55" x1="17.55" y1="214.78" x2="19.51" y2="213.37"/>
		<path class="st55" d="M28.15,219.18c0,0-1.5-3.36-2.95-4.91"/>
		<path class="st45" d="M41.88,59c-0.49,0.62-0.33,1.62,0.28,2.12c0.61,0.5,1.57,0.47,2.2-0.01c0.49,5.43-0.07,10.9-0.12,16.35
			c0,0.19,0,0.39,0.08,0.56c0.09,0.18,0.25,0.32,0.42,0.43c0.89,0.59,1.98,0.77,3.05,0.84c1.04,0.07,2.11,0.05,3.11-0.28
			c0.99-0.32,1.92-0.97,2.39-1.9c0.48-0.93,0.47-2.04,0.18-3.05c-0.28-1-0.81-1.91-1.36-2.8c-1.56-2.54-3.28-4.99-5.13-7.33
			c0.66,0.22,1.32,0.44,1.98,0.65c0.24,0.08,0.49,0.15,0.73,0.07c0.29-0.1,0.45-0.41,0.56-0.7c1.14-3.01,0.31-6.36-0.53-9.47
			c-0.06-0.22-0.13-0.46-0.33-0.58c-0.16-0.09-0.35-0.09-0.53-0.07c-1.27,0.14-2.44,0.79-3.31,1.71c-0.44,0.47-0.81,1-1.07,1.59
			c-0.13,0.28-0.23,0.58-0.31,0.88c-0.06,0.23-0.1,0.7-0.14,0.7c-0.17,0-0.85-0.26-1.19-0.23C42.46,58.54,42.1,58.71,41.88,59z"/>
		<line class="st55" x1="53.62" y1="218.4" x2="74.61" y2="218.4"/>
		<line class="st55" x1="13.51" y1="220.11" x2="28.21" y2="220.11"/>
		<g>
			<path class="st56" d="M7.52,87.92v33.21c0,4.96,0.66,9.9,1.96,14.68l0.5,1.83c0.19,0.68,0.8,1.15,1.51,1.15h63.28
				c0.86,0,1.5-0.8,1.31-1.63c-0.76-3.38-2.4-11.22-2.4-15.76V90.81c0-1.4-1.11-2.55-2.52-2.59L9.13,86.36
				C8.25,86.33,7.52,87.04,7.52,87.92z"/>
			<path class="st4" d="M67.85,98.8c-0.01,0-0.02,0-0.02,0l-54.37-1.37c-0.52-0.01-0.93-0.45-0.92-0.97
				c0.01-0.52,0.45-0.94,0.97-0.92l54.37,1.37c0.52,0.01,0.93,0.45,0.92,0.97C68.78,98.39,68.36,98.8,67.85,98.8z"/>
			<path class="st4" d="M67.48,104.37c-0.01,0-0.02,0-0.02,0l-54.37-1.37c-0.52-0.01-0.93-0.45-0.92-0.97
				c0.01-0.52,0.45-0.94,0.97-0.92l54.37,1.37c0.52,0.01,0.93,0.45,0.92,0.97C68.4,103.97,67.99,104.37,67.48,104.37z"/>
			<path class="st4" d="M67.1,109.95c-0.01,0-0.02,0-0.02,0l-54.37-1.37c-0.52-0.01-0.93-0.45-0.92-0.97
				c0.01-0.52,0.45-0.94,0.97-0.92l54.37,1.37c0.52,0.01,0.93,0.45,0.92,0.97C68.03,109.54,67.61,109.95,67.1,109.95z"/>
			<path class="st4" d="M67.48,127.04c-0.01,0-0.02,0-0.02,0l-54.37-1.37c-0.52-0.01-0.93-0.45-0.92-0.97
				c0.01-0.52,0.45-0.94,0.97-0.92l54.37,1.37c0.52,0.01,0.93,0.45,0.92,0.97C68.4,126.63,67.99,127.04,67.48,127.04z"/>
			<path class="st4" d="M66.92,115.52c-0.01,0-0.02,0-0.02,0l-54.37-1.37c-0.52-0.01-0.93-0.45-0.92-0.97
				c0.01-0.52,0.45-0.94,0.97-0.92l54.37,1.37c0.52,0.01,0.93,0.45,0.92,0.97C67.85,115.11,67.43,115.52,66.92,115.52z"/>
			<path class="st4" d="M53.88,120.81c-0.01,0-0.02,0-0.02,0l-40.95-1.09c-0.52-0.01-0.93-0.45-0.92-0.97
				c0.01-0.52,0.45-0.94,0.97-0.92l40.95,1.09c0.52,0.01,0.93,0.45,0.92,0.97C54.81,120.4,54.39,120.81,53.88,120.81z"/>
		</g>
		<g>
			<path class="st45" d="M3.43,105.72c-0.46,0.05-0.86-0.29-0.91-0.74c-0.21-2.18-0.63-8.14,0.88-8.77
				c1.84-0.78,5.88-0.72,6.14,1.14c0,0,0.62,6.72-2.43,7.6C5.37,105.44,4.15,105.64,3.43,105.72z"/>
			<path class="st51" d="M3.97,98.01c0,0,3.73-0.83,5.61,0.41"/>
			<path class="st51" d="M3.97,100.13c0,0,3.32,0.31,5.56,0"/>
			<path class="st51" d="M4.33,102.51c0,0,3.04,0.36,4.78,0"/>
		</g>
		<path class="st45" d="M79.53,126.76c0,0-3.74,1.86-6.69,1.29c-2.95-0.57-4.76-3.24-4.76-3.24s-1.27-0.4-0.28-1.45
			c0,0,3.02,0.94,3.79,0.53s2.64-2.35,2.64-2.35s-1.16-0.21-2.35-0.56c-0.69-0.21-0.51-1.23,0.21-1.2c0.9,0.05,1.75,0.05,2.09-0.08
			c0.43-0.16,1.09-0.39,1.83-0.48c1.19-0.15,3.37,0.01,3.98,1.04C81.04,121.99,81.9,125.11,79.53,126.76z"/>
		<path class="st51" d="M68.09,124.8l3.53,0.91c0.52,0.14,1.08,0.06,1.54-0.21l1.69-0.97"/>
		<path class="st51" d="M69.84,126.61c0,0,3.86,1.69,5.62-0.34"/>
	</g>
</g>
</svg>
