<?xml version="1.0" encoding="utf-8"?>
<!-- Generator: Adobe Illustrator 25.2.1, SVG Export Plug-In . SVG Version: 6.00 Build 0)  -->
<svg version="1.1" id="Layer_1" xmlns="http://www.w3.org/2000/svg" xmlns:xlink="http://www.w3.org/1999/xlink" x="0px" y="0px"
	 viewBox="0 0 352.52 240" style="enable-background:new 0 0 352.52 240;" xml:space="preserve">
<style type="text/css">
	.st0{fill:#C7C8DF;}
	.st1{fill:#1F519B;}
	.st2{fill:#1E1E1C;}
	.st3{fill:#D85930;}
	.st4{fill:#B84423;}
	.st5{fill:#F0AA6E;}
	.st6{fill:#414A8D;}
	.st7{fill:#FFFFFF;}
	.st8{fill:#20201E;}
	.st9{fill:#ECECEC;}
	.st10{fill:#A7A7A7;}
	.st11{fill:#D8925C;}
	.st12{fill:#EE9FA4;}
	.st13{fill:#F6CD55;}
	.st14{fill:#E85537;}
	.st15{fill:#F7C751;}
	.st16{fill:#EFA0B1;}
	.st17{fill:#56AEE2;}
</style>
<g>
	<path class="st0" d="M159,58.65c-19.92,0.09-40-9.82-59.13-4.26c-12.68,3.68-22.5,13.6-31.07,23.65
		c-8.25,9.66-15.91,19.81-23.57,29.94c-6.48,8.57-13.1,17.4-16.08,27.73c-3.91,13.52-1.04,28.39,5.58,40.81s16.74,22.65,27.64,31.56
		c17.64,14.41,38.61,26.08,61.35,27.48c19.13,1.18,38.11-5.04,54.89-14.31c16.77-9.27,31.67-21.52,46.65-33.48
		c24.2-19.32,48.86-38.07,73.95-56.21c15.99-11.56,32.95-23.84,40.45-42.09c8.35-20.32,2.44-45.05-12.52-61.14
		s-37.76-23.76-59.7-22.55c-36.26,1.99-61.62,29.52-63.83,32.09c-5.19,6.03-11.63,10.97-18.74,14.51
		C176.85,56.37,167.95,58.61,159,58.65z"/>
	<path class="st1" d="M148.39,151.52c-3.55,2.51-6.87,4.81-11.09,6.06c-1.35,0.4-2.72,0.71-4.11,0.92c1.29-1.42,2.54-2.86,3.78-4.32
		c3.19-3.75,6.26-7.59,9.26-11.49c1.17-1.52,0.23-3.98-1.27-4.86c-1.81-1.06-3.69-0.26-4.85,1.27c-2.74,3.66-5.54,7.29-8.4,10.86
		c-1.41,1.76-2.82,3.52-4.22,5.28c-0.03,0.03-0.06,0.07-0.08,0.1c0.19-1.15,0.35-2.31,0.54-3.43c0.43-2.53,0.88-5.07,1.31-7.6
		c0.86-5.07,1.95-10.12,2.71-15.2c0.28-1.88-0.47-3.79-2.45-4.34c-1.76-0.48-3.92,0.59-4.32,2.46c-1.12,5.14-1.84,10.41-2.66,15.62
		c-0.38,2.41-0.72,4.82-1.05,7.23c-0.41-1.33-0.83-2.67-1.22-4.01c-1.24-4.31-2.06-8.79-3.39-13.06c-0.51-1.64-2.08-2.76-3.81-2.49
		c-1.53,0.23-3.24,1.68-3.01,3.42c0.61,4.71,2.11,9.47,3.68,13.94c0.75,2.15,1.55,4.29,2.47,6.38c0.11,0.25,0.22,0.5,0.34,0.77
		c-0.82-0.67-1.58-1.43-2.25-2.31c-2.53-3.27-3.86-7.23-6.61-10.35c-1.15-1.3-2.94-0.14-3.1,1.29c-0.53,4.99,1.81,10.09,4.82,13.96
		c3.41,4.37,8.28,6.88,13.7,7.78c9.98,1.66,22.17-0.95,29.52-8.36C155.35,154.3,151.74,149.17,148.39,151.52z"/>
	<g>
		<path class="st2" d="M20.66,119.22c-6.35,1.71-5.86,9.7-6.22,14.85c-0.05,0.78-0.11,1.56-0.16,2.33c-0.09-0.07-0.16-0.12-0.2-0.15
			c-2.26-1.99-4.34-4.17-6.31-6.45c-2.17-2.51-6.4,0.11-4.93,3.17c1.8,3.74,4.21,7.07,7.25,9.9c2.9,2.7,7.43,4.2,10.32,0.49
			c2.44-3.13,1.97-8.11,2.24-11.86c0.02-0.23,0.38-3.08,0.55-4.35c0.05,0.01,0.09,0.02,0.14,0.03c0.51,0.45,1.24,0.77,1.8,1.18
			c5.82,4.26,9.54,10.81,15.14,15.37c1.52,1.24,3.22,2.42,5.25,2.52c2.55,0.13,4.64-1.55,5.56-3.84c0.81-2.01,0.85-4.15,0.99-6.28
			c0.03-0.42,0.07-1.62,0.28-2.35c1.58,1.01,3.14,2.68,4.24,3.78c2.07,2.08,3.89,4.37,5.49,6.82c1.19,1.82,4.16,1.76,5.68,0.48
			c1.83-1.55,1.67-3.85,0.48-5.68c-1.96-2.99-4.25-5.7-6.87-8.13c-2.24-2.08-4.92-4.71-7.92-5.58c-3.74-1.09-7.11,1.82-8.45,5.1
			c-0.76,1.87-0.69,3.96-0.86,5.96c-0.1-0.09-0.21-0.18-0.31-0.27c-1.02-0.95-1.97-1.98-2.9-3.02c-1.8-2-3.49-4.09-5.32-6.06
			C32.01,123.29,26.5,117.65,20.66,119.22z"/>
	</g>
	<path class="st0" d="M343.56,150.96c2.14-4.4,3.54-9.85,0.35-13.63c-1.73-2.05-4.56-3.2-7.43-3.51s-5.79,0.14-8.6,0.81
		c-7.67,1.81-15.2,5.51-19.29,11.6c-1.9,2.83-2.97,6.43-1.42,9.38c1.75,3.35,6.18,4.79,10.29,5.4c4.43,0.65,8.99,0.69,13.46,0.13
		c2.1-0.26,7.1-0.84,9.27-4.18C341.44,155.02,342.56,153.01,343.56,150.96z"/>
	<g>
		<g>
			<g>
				<g>
					<g>
						<path class="st3" d="M277.55,205.82h-97.24c-0.44-4,18.31-100.03,29.03-114c2.29-2.99,9.86-3.82,16.29-3.02
							c1.78,0.21,3.47,0.56,4.95,1.01c0.03,0.01,0.09,0.03,0.17,0.05c1.49,0.48,2.79,1.05,3.64,1.78
							C256.79,110.81,278.41,204.84,277.55,205.82z"/>
					</g>
				</g>
				<g>
					<path class="st3" d="M231.72,106.69c4.13,16.7,32.16,75.71,34.13,79.16c0,0,36.78,28.91,41.69,6.12
						c4.91-22.79-38.96-66.81-58.99-88.88C236.5,89.81,228.86,95.12,231.72,106.69z"/>
					<g>
						<path class="st4" d="M262.81,179.22c0,0-17.94-37.05-24.69-54.23"/>
						<path class="st4" d="M238.64,130.6c0,0,2.73,4.44,4.08,5.36"/>
					</g>
				</g>
				<g>
					<g>
						<path class="st5" d="M240.84,176.68c-5.03,2.26-25.09,36.45-16.98,36.73c38.17,1.29,73.76-8.89,79.39-13.93
							c7.38-6.6,4.92-18.72-0.03-22.9C296.04,170.52,245.83,174.43,240.84,176.68z"/>
						<g>
							<path class="st3" d="M240.84,176.68l-13.77,47.36c37.86-0.58,70.56-19.52,76.19-24.56c7.38-6.6,4.92-18.72-0.03-22.9
								C296.04,170.52,245.83,174.43,240.84,176.68z"/>
							<path class="st4" d="M244.81,198.32c1.03-3.45,2.08-6.9,3.15-10.33c1.07-3.42,2.02-6.93,3.33-10.27
								c0.06-0.15,0.31-0.11,0.28,0.06c-0.66,3.4-1.7,6.77-2.61,10.11c-0.96,3.55-1.95,7.1-2.94,10.64
								c-1.97,7.01-4.2,13.92-6.55,20.81c-0.06,0.17-0.29,0.08-0.25-0.09C240.93,212.23,242.73,205.25,244.81,198.32z"/>
						</g>
						<g>
							<path class="st4" d="M283.97,173.17c-21.16-0.96-41.78,2.95-41.82,2.95c-0.37,0.02-0.7,0.75-0.49,0.75
								c3.82-0.14,21.33-3.01,42.2-3.17C283.99,173.69,284.1,173.18,283.97,173.17z"/>
						</g>
					</g>
				</g>
				<g>
					<path class="st5" d="M222.46,66.71l-11.21,25.96c0,0-1.95,19.32,2.06,19.58c4.86,0.31,16.09-18.77,19.31-23.37l-2.69-30.47
						c0,0,10.98,2.83,9.29-8.07c0,0-1.46-5.63-6.41-4.69c0,0-3.7-0.48-8.54-6.25c0,0-6.96,0.34-5.95-1.62c0,0-6.25-0.78-7.24,15.75
						C211.09,53.51,208.39,78.64,222.46,66.71z"/>
					<g>
						<polygon class="st6" points="219.34,117.32 214.69,108.26 208.69,114.81 210.16,121.33 216.08,122.1 						"/>
						<polygon class="st6" points="218.92,188.74 209.23,205.82 205.13,205.82 199.49,188.87 210.16,121.34 216.08,122.09 						"/>
					</g>
					<g>
						<path class="st7" d="M209.97,90.61l5.4,14.95l18.92-17.85l4.93,6.15c0,0-18.93,28.78-19,27.45l-5.56-12.86l-9.05,8.46
							l1.55-22.04L209.97,90.61z"/>
					</g>
					<path class="st8" d="M230.79,45.67c-2.63,2.86-2.83,6.25-2.18,9.84c0.19,1.06,0.43,2.14,1.21,2.88
						c0.86,0.82,0.71,1.7,0.64,2.69c-0.51,7.27-3.26,13.72-7.17,19.76c-0.64,0.3-0.91,0.92-1.23,1.48
						c-2.48,4.25-6.3,6.81-10.86,8.26c-9.73,3.08-17.58-5.27-17.55-12.57c0.02-4.79,1.44-8.61,5.21-11.54
						c0.45-0.35,0.84-0.79,1.31-1.1c4.05-2.66,7.77-5.68,10.46-9.8c1.25,0.77,2.48,1.57,3.74,2.31c1.19,0.7,2.39,1.39,3.79,1.64
						c2.94,0.53,4.71-0.48,5.64-3.3c1.22-3.69,0.98-7.41,0.05-11.09c-0.68-2.72-3.03-4.06-5.8-3.6c-1.78,0.3-3.42,1.04-5.12,1.61
						c0.5-5.46,4.82-8.57,9.9-7.13c1.83,0.52,3.49,1.34,4.98,2.57C230.08,40.45,231.25,42.7,230.79,45.67z"/>
					<path class="st8" d="M231.12,41.49c-1.05-4.31-5.51-6.81-9.69-8.29c-4.18-1.48-8.8-2.61-11.72-5.96
						c-2.65-3.03-3.65-7.65-7.23-9.5c-5.01-2.58-10.73-0.34-12.98,4.76c-5.59,12.67,13.99,21.55,23.77,20.24
						c1.82-0.24,3.6-0.77,5.44-0.88c1.83-0.11,3.81,0.26,5.12,1.56c1.55,1.54,2.76,4.76,5.62,3.53
						C231.4,46.12,231.56,43.28,231.12,41.49z"/>
					<path class="st5" d="M219.39,62.09c-1,1.81-3.16,2.65-5.05,1.88c-1.9-0.78-2.84-2.89-2.29-4.88L219.39,62.09z"/>
				</g>
				<g>
					<g>
						<g>
							<rect x="203.23" y="198.24" class="st9" width="90.37" height="4.05"/>
							<rect x="203.23" y="198.24" class="st10" width="45.49" height="4.05"/>
						</g>
						<g>
							<polygon class="st9" points="243.82,202.29 155.75,202.29 144.23,142.47 232.31,142.47 							"/>
							<path class="st7" d="M199.39,172.38c0.26,2.96-1.93,5.36-4.89,5.36c-2.96,0-5.57-2.4-5.83-5.36
								c-0.26-2.96,1.93-5.36,4.89-5.36C196.52,167.02,199.13,169.42,199.39,172.38z"/>
						</g>
					</g>
					<g>
						<g>
							<path class="st5" d="M232.45,206.53c-6.3,3.41-13.92,11.56-19.16,12.47c-4.74,0.82-6.62-3.05-6.62-3.05s-2.35,5.4-7.25,5.45
								c-2.52,0.02-4.77-3.98-4.77-3.98s-2.07,4.25-6.43,4.02c-3.47-0.18-5.2-4.17-5.2-4.17s-3.89,3.15-7.36,1.83
								c-7.05-2.68-8.62-32.48,2.11-37.66c5-2.42,4.99,4.88,4.99,4.88s2.55-10.49,8.69-10.97c6.13-0.48,5.55,9,5.55,9
								s2.56-10.15,8.97-10c6.67,0.15,4.46,9.53,4.46,9.53s4.14-6.86,9.03-5.63c8.06,2.04-1.09,17.59,0.81,24.06h10.66
								L232.45,206.53z"/>
							<path class="st5" d="M223.38,212.35c6.25-2.71,9.23,1.75,15.76,0.9c7.24-0.94,4.89-9.45-7.83-10.96l-11.04,0L223.38,212.35z"
								/>
							<g>
								<path class="st11" d="M182.66,216.67c0.01,0.1-0.12,0.14-0.15,0.04c-2.91-9.68-3.13-21.2,0.21-30.79
									c0.11-0.31,0.67-0.27,0.61,0.1C181.77,196.56,181.24,206.05,182.66,216.67z"/>
								<path class="st11" d="M194.6,217.56c0.02,0.12-0.18,0.14-0.21,0.02c-2.94-9.99-2.84-22.97,2.32-33.58
									c0.18-0.36,0.7-0.51,0.53-0.08C194.34,191.24,193.27,208,194.6,217.56z"/>
								<path class="st11" d="M211.05,183.22c-4.55,10.36-5.32,21.14-4.52,32.33c0.01,0.15-0.2,0.15-0.24,0.03
									c-1.88-5.36-1.65-12.55-1-18.12c0.63-5.34,2.26-10.03,5.39-14.39C210.81,182.89,211.15,183,211.05,183.22z"/>
							</g>
						</g>
					</g>
				</g>
			</g>
		</g>
	</g>
	<path class="st12" d="M52.68,94.79c-4.17,6.53-13.54,10.6-20.78,6.54c-3.53-1.98-6.88-6.96-2.99-10.41
		c1.76-1.56,4.22-1.57,6.37-0.69c-0.34-0.29-0.68-0.58-0.99-0.89c-1.96-1.94-2.71-4.92-0.79-7.2c1.85-2.19,4.71-1.69,6.88-0.45
		c0.41,0.23,0.81,0.48,1.21,0.72c-0.48-0.54-1-1.06-1.47-1.6c-1.47-1.69-2.42-3.69-1.66-5.95c1.74-5.12,7.56-4.04,10.9-1.4
		C55.79,78.52,56.99,88.04,52.68,94.79z"/>
	<g>
		<path class="st3" d="M103.85,92.41c-2.14-7.92-7.24-14.37-14.81-17.69c-7.06-3.09-15.2-3.63-22.58-1.33
			c-8.07,2.52-14.14,8.13-16.96,16.12c-1.73,4.91-2.32,10.29-2.43,15.47c-0.12,5.27-0.03,10.94,1.24,16.07
			c1.04,4.17,6.83,2.96,7.14-0.97c0.31-3.9-0.25-7.84-0.32-11.75c-0.07-3.95,0.06-7.94,0.84-11.83c1.31-6.56,4.34-11.96,10.71-14.67
			c5.5-2.34,11.82-2.38,17.44-0.46c5.9,2.02,10.01,6.49,11.76,12.43c2.52,8.55,2.56,18.09,2.07,26.91c-0.29,5.18,7.77,5.17,8.06,0
			C106.51,111.43,106.3,101.46,103.85,92.41z"/>
		<path class="st13" d="M76.83,92.56c-5.31,0.63-8.95,5.24-9.82,10.3c-0.95,5.52-0.59,12.51,1.41,17.78c0.93,2.46,4.53,2.79,5.34,0
			c1.14-3.94,0.9-8.02,0.85-12.07c-0.03-2.19-0.13-7.26,2.84-7.96c3.98-0.94,2.91,15.23,2.74,17.4c-0.18,2.17,1.98,4.03,4.03,4.03
			c2.33,0,3.85-1.85,4.03-4.03C88.9,109.92,89.61,91.05,76.83,92.56z"/>
		<path class="st2" d="M58.77,116.56c-0.06-0.75-1.12-0.76-1.17,0c-0.07,1.06,0.28,2.14,0.83,3.04c0.11,0.18,0.42,0.11,0.41-0.11
			C58.82,118.51,58.85,117.52,58.77,116.56z"/>
		<path class="st2" d="M57.41,109.45c-0.03,1.1,0.08,2.19,0.3,3.27c0.1,0.48,0.88,0.48,0.98,0c0.22-1.08,0.34-2.17,0.3-3.27
			C58.96,108.43,57.44,108.43,57.41,109.45z"/>
		<path class="st2" d="M57.48,101.72c0.04,1.03,0.17,2.01,0.35,3.03c0.06,0.36,0.67,0.36,0.73,0c0.17-1.02,0.31-1.99,0.35-3.03
			C58.94,100.8,57.45,100.8,57.48,101.72z"/>
		<path class="st2" d="M59.4,93.8c-0.52,0.91-0.63,2.08-0.69,3.11c-0.03,0.61,0.91,0.73,1.06,0.14c0.23-0.95,0.69-1.76,0.99-2.68
			C61.02,93.56,59.81,93.07,59.4,93.8z"/>
		<path class="st2" d="M63.87,87.05c-0.54,0.36-0.85,0.92-1.2,1.45c-0.35,0.54-0.68,1.07-0.98,1.64c-0.28,0.53,0.38,1.03,0.82,0.63
			c0.48-0.43,0.92-0.88,1.36-1.35c0.44-0.47,0.89-0.91,1.12-1.52C65.22,87.3,64.41,86.69,63.87,87.05z"/>
		<path class="st2" d="M69.76,83.35c-1.08,0.5-2.28,1.06-3.18,1.84c-0.42,0.37,0.04,0.97,0.51,0.87c1.16-0.23,2.38-0.88,3.43-1.43
			C71.37,84.18,70.61,82.96,69.76,83.35z"/>
		<path class="st2" d="M78.87,82.64c-1.36-0.19-3.22-0.15-4.51,0.38c-0.57,0.23-0.51,1.04,0.15,1.09c0.69,0.05,1.39-0.07,2.08-0.09
			c0.7-0.02,1.4,0.05,2.1,0.03C79.44,84.01,79.7,82.75,78.87,82.64z"/>
		<path class="st2" d="M86.92,85.29c-0.4-0.72-1.1-1.14-1.88-1.37c-0.67-0.19-1.49-0.31-2.13,0.02c-0.51,0.27-0.43,0.97,0,1.26
			c0.41,0.28,0.91,0.34,1.33,0.62c0.42,0.29,0.79,0.65,1.23,0.91C86.4,87.3,87.42,86.19,86.92,85.29z"/>
		<path class="st2" d="M92.13,90.94c-0.36-0.54-0.81-0.89-1.28-1.33c-0.44-0.41-0.83-0.88-1.24-1.32c-0.48-0.52-1.39,0.16-0.99,0.77
			c0.33,0.5,0.69,0.99,0.99,1.51c0.31,0.56,0.55,1.08,0.99,1.56C91.32,92.94,92.75,91.86,92.13,90.94z"/>
		<path class="st2" d="M95.14,98.99c-0.26-1.06-0.86-2.23-1.42-3.16c-0.22-0.37-0.89-0.24-0.85,0.23c0.09,1.08,0.26,2.36,0.66,3.37
			C93.91,100.42,95.41,100.06,95.14,98.99z"/>
		<path class="st2" d="M95.23,104.06c-0.21-0.7-1.1-0.48-1.18,0.16c-0.16,1.18-0.29,2.44-0.07,3.61c0.21,1.1,1.86,0.79,1.89-0.26
			C95.91,106.42,95.55,105.16,95.23,104.06z"/>
		<path class="st2" d="M95.81,111.58c-0.23-0.6-0.99-0.6-1.22,0c-0.42,1.1-0.75,2.22-0.5,3.4c0.23,1.1,2,1.1,2.23,0
			C96.55,113.81,96.23,112.68,95.81,111.58z"/>
		<path class="st2" d="M96.3,119.97c-0.11-0.45-0.16-0.96-0.51-1.29c-0.22-0.21-0.56-0.21-0.78,0c-0.34,0.33-0.39,0.85-0.51,1.29
			c-0.14,0.54-0.36,1.14-0.14,1.68c0.42,1.01,1.66,1.02,2.07,0C96.67,121.11,96.44,120.51,96.3,119.97z"/>
		<path class="st2" d="M62,119.3c-0.21-0.56-1.18-0.72-1.31,0c-0.11,0.63-0.05,1.22,0.08,1.84c0.1,0.49,0.24,1.02,0.66,1.33
			c0.11,0.08,0.29,0.04,0.38-0.05c0.34-0.36,0.38-0.9,0.4-1.37C62.22,120.47,62.2,119.86,62,119.3z"/>
		<path class="st2" d="M60.55,112.59c-0.03,0.76,0.09,1.54,0.16,2.3c0.02,0.26,0.39,0.26,0.41,0c0.07-0.76,0.19-1.54,0.16-2.3
			C61.26,112.12,60.57,112.12,60.55,112.59z"/>
		<path class="st2" d="M60.62,106.31c0.06,0.82,0.16,1.6,0.32,2.41c0.08,0.39,0.72,0.39,0.79,0c0.16-0.81,0.25-1.59,0.32-2.41
			C62.11,105.4,60.55,105.4,60.62,106.31z"/>
		<path class="st2" d="M61.73,99.36c-0.44,0.95-0.58,2.15-0.66,3.18c-0.04,0.52,0.67,0.52,0.84,0.11c0.37-0.92,0.77-2.03,0.79-3.03
			C62.71,99.13,61.95,98.88,61.73,99.36z"/>
		<path class="st2" d="M63.48,93.19c-0.81,0.67-0.99,1.87-0.9,2.88c0.07,0.8,1.3,0.82,1.26,0c-0.04-0.87,0.31-1.54,0.54-2.35
			C64.53,93.16,63.87,92.87,63.48,93.19z"/>
		<path class="st2" d="M68.22,89.2c-0.21-0.35-0.65-0.44-0.99-0.26c-0.9,0.47-1.52,1.22-1.83,2.18c-0.2,0.62,0.72,1,1.04,0.44
			c0.35-0.61,0.88-1.08,1.52-1.36C68.32,90.04,68.4,89.51,68.22,89.2z"/>
		<path class="st2" d="M74.08,87.15c-1.2,0.13-2.31,0.4-3.44,0.84c-0.43,0.17-0.27,0.81,0.19,0.7c1.06-0.25,2.15-0.4,3.24-0.47
			C74.78,88.18,74.76,87.08,74.08,87.15z"/>
		<path class="st2" d="M81.16,87.67c-0.76-0.32-1.53-0.51-2.33-0.72c-0.62-0.16-1.07,0.77-0.45,1.07c0.79,0.38,1.56,0.76,2.4,1.03
			c0.37,0.12,0.78-0.14,0.88-0.5C81.77,88.14,81.52,87.82,81.16,87.67z"/>
		<path class="st2" d="M87.43,91.23c-0.78-0.6-1.59-1.17-2.39-1.74c-0.58-0.42-1.3,0.52-0.77,0.99c0.73,0.66,1.46,1.33,2.22,1.96
			C87.34,93.16,88.32,91.92,87.43,91.23z"/>
		<path class="st2" d="M90.4,94.86c-0.43-0.6-1.53-0.27-1.27,0.54c0.16,0.48,0.29,0.97,0.36,1.47c0.08,0.53,0.09,1.05,0.26,1.57
			c0.36,1.09,1.99,0.92,2.02-0.27C91.8,96.97,91.08,95.81,90.4,94.86z"/>
		<path class="st2" d="M92.73,103.63c-0.13-0.61-0.15-1.26-0.33-1.86c-0.16-0.57-0.91-0.51-1.1,0c-0.23,0.61-0.25,1.31-0.28,1.96
			c-0.04,0.69-0.03,1.35,0.31,1.97c0.34,0.6,1.43,0.54,1.56-0.2C93.01,104.84,92.87,104.27,92.73,103.63z"/>
		<path class="st2" d="M92.2,109.26c-0.15,0.86-0.47,1.84-0.34,2.71c0.05,0.35,0.47,0.6,0.79,0.6c0.39,0,0.66-0.26,0.79-0.6
			c0.15-0.39,0.12-0.86,0.15-1.28c0.02-0.41,0.05-0.82,0.07-1.23C93.7,108.63,92.35,108.42,92.2,109.26z"/>
		<path class="st2" d="M92.65,117.79c0.03-0.45,0.15-0.95-0.03-1.38c-0.14-0.34-0.48-0.53-0.84-0.34c-1.03,0.56-1.17,2.39-1.23,3.42
			c-0.04,0.66,0.63,1.15,1.24,1.07c0.7-0.09,1.01-0.71,0.91-1.36C92.62,118.73,92.61,118.26,92.65,117.79z"/>
	</g>
	<path class="st14" d="M154.38,78.82c-0.71,4.12-0.08,8.91,2.33,12.52c2.42,3.62,8.04,6.61,12.08,3.31
		c1.78-1.45,0.14-3.78-1.94-3.57c-2.22,0.22-4.11-0.44-5.34-2.22c-1.34-1.93-1.86-4.45-1.87-6.71c-0.01-4.11,1.64-9.34,6.11-10.99
		c3.54-1.31,7.96-0.16,9.84,3.05c1.83,3.12,1.42,7.65-2.13,9.54c-1.65,0.88-4.13,0.61-4.84-1.26c-0.29-0.76-0.09-3.89,1.16-2.32
		c0.89,1.12,2.85,1.1,3.9,0.24c1.19-0.98,1.12-2.5,0.22-3.62c-2.58-3.23-7.77-2.72-9.89,0.59c-1.96,3.06-1.26,7.43,1.57,9.86
		c3,2.58,7.61,2.76,10.98,0.78c3.3-1.94,5.29-5.28,5.6-8.88c0.59-6.95-5.03-13.19-12.55-13.59
		C161.06,65.07,155.64,71.55,154.38,78.82z"/>
	<path class="st12" d="M92.5,135.14c-1.61-0.95-3.19-1.07-4.62-0.65c-5.06-2.64-9.52,5.63-8.66,10.28c1.05,5.7,8.34,8.32,12.98,5.07
		C96.73,146.66,97.76,138.23,92.5,135.14z"/>
	<path class="st3" d="M117.6,110.09c-0.87,0.07-1.66,0.43-2.27,1.07c-0.33,0.35-0.62,0.82-0.74,1.29c0,0,0,0,0,0
		c-0.48,0.63-0.59,1.44-0.28,2.17c0.26,0.61,0.8,1.03,1.41,1.19c0.55,0.45,1.29,0.7,1.99,0.71c1.79,0.02,3.29-1.42,3.25-3.23
		C120.92,111.55,119.4,109.94,117.6,110.09z"/>
	<path class="st2" d="M76.21,59.74c-1.25,0.97-2.5,1.95-3.75,2.92c-0.39-1.83-0.74-3.66-1.03-5.51c-0.18-1.15-1.61-1.45-2.49-1.01
		c-1.74,0.87-3.43,1.82-5.08,2.85c-0.38-1.8-0.68-3.61-0.88-5.45c-0.13-1.21-1.36-2.2-2.55-1.46c-1.62,1.01-3.23,2.02-4.85,3.03
		c-0.85-1.94-1.7-3.87-2.6-5.79c-0.46-0.98-1.8-0.95-2.5-0.32c-1.55,1.41-3.02,2.98-4.12,4.78c-0.65,1.07,0.86,2.24,1.74,1.34
		c0.92-0.94,1.8-1.8,2.8-2.57c0.82,1.95,1.66,3.89,2.5,5.83c0.35,0.82,1.59,1.02,2.28,0.6c1.42-0.88,2.85-1.75,4.27-2.63
		c0.29,1.96,0.67,3.9,1.17,5.83c0.26,1,1.58,1.63,2.48,1.01c1.58-1.08,3.21-2.08,4.89-3c0.34,1.99,0.75,3.97,1.21,5.94
		c0.23,0.98,1.65,1.7,2.53,1.03c2.03-1.56,4.05-3.12,6.08-4.67C80.31,60.96,78.21,58.17,76.21,59.74z"/>
	<path class="st2" d="M25.16,78.51c-1.24-0.29-2.67-0.34-4.13-0.25c0.02-0.13,0.03-0.26,0.05-0.39c0.35-2.29-3.1-2.31-2.74,0
		c0.04,0.23,0.06,0.47,0.09,0.7c-1.18,0.2-2.32,0.46-3.32,0.75c-1.05,0.3-0.85,1.9,0.26,1.91c1.08,0.01,2.15-0.03,3.22-0.04
		c0.05,0.75,0.11,1.49,0.27,2.22c0.18,0.84,1.51,0.84,1.69,0c0.15-0.71,0.22-1.42,0.27-2.14c1.31,0.13,2.63,0.38,3.93,0.31
		C26.43,81.49,26.96,78.93,25.16,78.51z"/>
	<path class="st2" d="M155.35,43.23c-0.87,0.18-1.74,0.32-2.6,0.43c0.01-0.49,0.03-0.98,0.05-1.46c0.08-1.85-2.95-1.85-2.88,0
		c0.02,0.56,0.04,1.14,0.05,1.72c-0.54,0.04-1.08,0.07-1.63,0.11c-0.89,0.05-1.22,1.52-0.22,1.66c0.63,0.09,1.28,0.16,1.92,0.2
		c0.06,1.22,0.18,2.43,0.45,3.58c0.2,0.85,1.52,0.85,1.72,0c0.27-1.13,0.38-2.32,0.45-3.51c1.02-0.01,2.04-0.06,3.04-0.14
		C157.6,45.67,157.24,42.83,155.35,43.23z"/>
	<path class="st1" d="M99.94,57.16c0.02-6.13-0.01-12.16,2.55-17.89c2.32-5.18,6.12-10.06,11.47-12.31c4.76-2,10.27-1.85,15.18-0.56
		c3.03,0.8,5.92,2.06,8.7,3.49c2.94,1.52,5.79,3.68,9.19,3.83c1.39,0.06,2.53-1.51,2.09-2.81c-1.23-3.7-5.11-6.09-8.31-8.01
		c-3.41-2.05-7.22-3.62-11.09-4.54c-6.6-1.56-13.62-1.19-19.82,1.66c-13.95,6.4-19.03,23.83-15.83,37.98
		C94.83,61.39,99.93,60.48,99.94,57.16z"/>
	<g>
		<path class="st15" d="M145.52,47.02c-2.67-5.85-8.64-9.83-14.93-10.64c-6.7-0.86-13.79,1.61-18,7.02
			c-4.02,5.17-5.13,12.47-2.18,18.4c0.55,1.1,1.22,2.11,1.99,3.04c2.87,4.49,7.46,8.02,12.72,8.99c7.02,1.3,12.98-2.59,17.14-7.96
			C146.45,60.47,148.46,53.47,145.52,47.02z M126.95,70.05c-0.2-0.02-0.4-0.05-0.6-0.08c0.04-0.04,0.08-0.07,0.11-0.11
			c0.99,0.12,2,0.14,3.01,0.04c0.39-0.04,0.77-0.1,1.15-0.16C129.42,70.05,128.19,70.18,126.95,70.05z"/>
		<path class="st0" d="M146.84,75.32c-1.61-0.95-3.19-1.07-4.62-0.65c-5.06-2.64-9.52,5.63-8.66,10.28
			c1.05,5.7,8.34,8.32,12.98,5.07C151.08,86.83,152.1,78.41,146.84,75.32z"/>
		<path class="st16" d="M151.23,68.57c-0.24,0.65-0.74,1.09-1.45,1.11c-0.73,0.02-1.38-0.57-1.48-1.27
			c-0.09-0.69,0.32-1.43,1.02-1.6c0.47-0.12,1-0.03,1.35,0.32c0.03,0.02,0.05,0.03,0.08,0.05
			C151.14,67.48,151.41,68.08,151.23,68.57z"/>
		<path class="st15" d="M156.99,56.75c-0.09-0.38-0.24-0.76-0.47-1.1c-0.85-1.27-2.47-1.91-3.92-1.36
			c-1.43,0.54-2.35,1.93-2.37,3.45c-0.05,3.46,4.87,4.93,6.56,1.81C157.26,58.66,157.32,57.63,156.99,56.75z"/>
	</g>
	<path class="st17" d="M170.69,133.24c1.51-1.33,1.73-3.48,2.17-5.34c0.35-1.47,0.66-2.94,0.91-4.43c0.28-1.04,0.51-2.1,0.65-3.17
		c0.49-3.63,0.49-8.52-1.61-11.69c-1.86-2.81-5.7-3.44-7.97-0.75c-1.22,1.44-1.69,3.39-2.24,5.15c-0.07,0.22-0.13,0.44-0.2,0.65
		c-0.28-2.45-0.35-4.93-0.58-7.37c-0.32-3.45-0.55-8.81-4.42-10.23c-3.47-1.27-5.6,1.74-5.9,4.82c-0.24,2.56-0.29,5.18-0.29,7.79
		c-1.71-2.74-3.56-5.39-5.71-7.81c-2.73-3.06-7.45-8.03-12.05-6.01c-5.7,2.51-1.51,8.43,1.59,11.11c2.92,2.52,6.1,4.76,9.42,6.75
		c-2.63,0.28-5.25,0.67-7.85,1.18c-1.67,0.33-3.8,0.53-4.72,2.19c-0.84,1.52-0.09,3.17,1.26,4.06c3.12,2.05,8.18,1.99,11.78,2.01
		c1.2,0.01,2.39-0.01,3.59-0.02c-0.43,0.35-0.85,0.74-1.23,1.17c-1.96,2.19-3.34,5.82-1.53,8.5c1.97,2.9,5.92,2.4,8.95,2.31
		l13.74-0.42l0-0.01c0.17-0.01,0.35-0.03,0.54-0.06c0.11-0.02,0.21-0.05,0.31-0.08C169.73,133.69,170.24,133.63,170.69,133.24z"/>
	<path class="st2" d="M142.11,113.21c-0.44-0.81-0.84-1.63-1.21-2.45c0.54-0.07,1.07-0.17,1.58-0.32c1.38-0.41,1.24-2.74-0.32-2.63
		c-0.78,0.05-1.55,0.21-2.32,0.4c-0.43-1.09-0.83-2.2-1.26-3.32c-0.46-1.23-2.14-0.77-1.96,0.51c0.16,1.16,0.42,2.32,0.73,3.46
		c-1.5,0.38-3.05,0.68-4.46,1.32c-0.62,0.28-0.26,1.15,0.31,1.19c1.58,0.12,3.22-0.18,4.79-0.35c0.37,1.14,0.79,2.27,1.2,3.37
		C140.02,116.59,143.22,115.23,142.11,113.21z"/>
	<path class="st2" d="M123.96,158.22c-0.25-2.26-3.81-2.28-3.56,0c0.22,1.92,0.27,3.83,0.12,5.73c-2.3-1.41-4.62-2.79-6.97-4.13
		c-1.18-0.68-2.66,0.18-2.68,1.54c-0.02,1.53-0.04,3.06-0.07,4.59c0,0.31,0.06,1.48,0.08,2.38c-2.03-1.27-4.12-2.41-6.29-3.42
		c-1.3-0.6-2.53,0.14-2.68,1.54c-0.18,1.67-0.42,3.33-0.7,4.98c-1.81-1.05-3.62-2.1-5.42-3.15c-1.16-0.67-2.62,0.19-2.64,1.52
		c-0.02,2.67,0.08,5.37,0.57,8c0.2,1.1,1.97,1.07,2.19,0c0.34-1.64,0.53-3.32,0.64-5c1.68,0.99,3.36,1.97,5.04,2.96
		c0.93,0.55,2.37,0.07,2.6-1.06c0.38-1.84,0.69-3.69,0.94-5.55c1.95,1.02,3.85,2.14,5.68,3.38c0.49,0.33,1.31,0.34,1.8,0
		c1.4-0.98,1.67-2.26,1.71-3.9c0.04-1.39,0.05-2.79,0.07-4.18c2.23,1.31,4.45,2.63,6.64,4c0.9,0.56,2.42,0.07,2.61-1.07
		C124.17,164.33,124.31,161.31,123.96,158.22z"/>
	<path class="st2" d="M126.06,97.36c-1.49-2.72-5.13-3.47-6.51-6.26c-1.02-2.06,0.65-3.7,1.74-5.37c1.7-2.6,2.86-5.51,2.2-8.66
		c-0.68-3.21-3.03-5.59-5.58-7.47c-1.11-0.82-5.31-3.23-4.83-4.58c0.23-0.64,1.58-1.06,2.15-1.39c1.32-0.78,2.54-1.66,3.51-2.86
		c4.41-5.52,1.47-13.22-4.97-15.31c-4.95-1.6-7.07,6.18-2.14,7.77c1.78,0.57,1.29,2.31,0.05,3.14c-2.28,1.54-4.58,2.55-5.82,5.19
		c-1.49,3.16-0.63,6.83,1.41,9.53c1.93,2.56,4.82,3.81,7.12,5.93c1.84,1.7,1.21,2.73-0.02,4.66c-1.6,2.5-3.16,5.03-3.12,8.12
		c0.07,6.02,7.29,12.68,13.45,10.92C126.14,100.31,126.77,98.66,126.06,97.36z"/>
	<path class="st12" d="M141.11,84.27c-0.09-0.38-0.24-0.76-0.47-1.1c-0.85-1.27-2.47-1.91-3.92-1.36c-1.43,0.54-2.35,1.93-2.37,3.45
		c-0.05,3.46,4.87,4.93,6.56,1.81C141.39,86.18,141.44,85.15,141.11,84.27z"/>
</g>
</svg>
