<?xml version="1.0" encoding="utf-8"?>
<!-- Generator: Adobe Illustrator 25.2.1, SVG Export Plug-In . SVG Version: 6.00 Build 0)  -->
<svg version="1.1" id="Layer_1" xmlns="http://www.w3.org/2000/svg" xmlns:xlink="http://www.w3.org/1999/xlink" x="0px" y="0px"
	 viewBox="0 0 360.67 240" style="enable-background:new 0 0 360.67 240;" xml:space="preserve">
<style type="text/css">
	.st0{fill:#C7C8DF;}
	.st1{fill:#20201E;}
	.st2{fill:#FFFFFF;}
	.st3{fill:#D85930;}
	.st4{fill:#D4DEF2;}
	.st5{fill:#020203;}
	.st6{fill:#F4F6FC;}
	.st7{fill:#8AA2D4;}
	.st8{fill:#AFC1E5;}
	.st9{fill:#E6EBF8;}
	.st10{fill:#F0AA6E;}
	.st11{fill:#414A8D;}
	.st12{fill:#1D2545;}
	.st13{fill:#F8B486;}
	.st14{fill:#E29E85;}
	.st15{fill:#AF4425;}
	.st16{fill:#F7C751;}
	.st17{fill:#E49C31;}
	.st18{fill:#1E3D87;}
	.st19{fill:#5669A4;}
	.st20{fill:none;stroke:#20201E;stroke-width:0.7438;stroke-linecap:round;stroke-linejoin:round;stroke-miterlimit:10;}
</style>
<g>
	<g>
		<g>
			<g>
				<path class="st0" d="M328.19,124.18c-15.28-11.01-33.6-16.34-50.46-24.32c-16.22-7.67-27.76-20-42.27-30.15
					c-23.71-16.6-51.11-29.04-79-36.63c-28.2-7.68-62.65-11.93-88.35,5.09c-12.64,8.37-22.93,21.36-27.13,36.02
					c-4.99,17.45-0.11,35.28,2.29,52.71c1.94,14.17-7.15,21.99-17.87,30.04C0.31,175.79,1,209.9,16.51,234.35h322.98
					C358.67,199.6,367.1,152.22,328.19,124.18z"/>
			</g>
		</g>
		<g>
			<path class="st1" d="M298.95,62.46v158.52c0,2.21-1.8,4.01-4.01,4.01H69.65c-2.21,0-4.01-1.8-4.01-4.01V62.46
				c0-2.21,1.8-4.01,4.01-4.01h225.3C297.15,58.45,298.95,60.25,298.95,62.46z"/>
			<g>
				<g>
					<rect x="72.73" y="71.7" class="st2" width="219.14" height="132.85"/>
					<path class="st2" d="M292.18,204.86H72.41V71.39h219.77V204.86z"/>
				</g>
				<g>
					<rect x="72.73" y="63.44" class="st2" width="219.14" height="8.26"/>
					<path class="st0" d="M292.18,72.02H72.41v-8.89h219.77V72.02z"/>
				</g>
			</g>
			<g>
				<path class="st3" d="M83.03,69.48c-1.05,0-1.91-0.86-1.91-1.91c0-1.05,0.86-1.91,1.91-1.91c1.05,0,1.91,0.86,1.91,1.91
					C84.93,68.62,84.08,69.48,83.03,69.48z"/>
				<path class="st2" d="M89.4,69.48c-1.05,0-1.91-0.86-1.91-1.91c0-1.05,0.86-1.91,1.91-1.91s1.91,0.86,1.91,1.91
					C91.31,68.62,90.45,69.48,89.4,69.48z"/>
				<path class="st2" d="M95.77,69.48c-1.05,0-1.91-0.86-1.91-1.91c0-1.05,0.86-1.91,1.91-1.91s1.91,0.86,1.91,1.91
					C97.68,68.62,96.83,69.48,95.77,69.48z"/>
			</g>
			<g>
				<rect x="54.14" y="222.49" class="st4" width="256.32" height="11.89"/>
				<path class="st5" d="M310.81,234.73H53.78v-12.59h257.02V234.73z"/>
			</g>
			<g>
				<path class="st2" d="M192.94,216.84h-21.3c-1.76,0-3.2-1.44-3.2-3.2v-0.26c0-1.76,1.44-3.2,3.2-3.2h21.3
					c1.76,0,3.2,1.44,3.2,3.2v0.26C196.14,215.4,194.7,216.84,192.94,216.84z"/>
				<path class="st6" d="M193.23,217.16h-21.87c-1.78,0-3.22-1.45-3.22-3.22v-0.83c0-1.78,1.45-3.22,3.22-3.22h21.87
					c1.78,0,3.22,1.45,3.22,3.22v0.83C196.45,215.71,195.01,217.16,193.23,217.16z"/>
			</g>
			<g>
				<path class="st7" d="M260.8,130.27H103.79c-5.67,0-10.29-4.62-10.29-10.29v-0.69c0-5.67,4.62-10.29,10.29-10.29H260.8
					c5.67,0,10.29,4.62,10.29,10.29v0.69C271.09,125.66,266.47,130.27,260.8,130.27z M103.79,109.63c-5.33,0-9.66,4.33-9.66,9.66
					v0.69c0,5.33,4.33,9.66,9.66,9.66H260.8c5.33,0,9.66-4.33,9.66-9.66v-0.69c0-5.33-4.33-9.66-9.66-9.66H103.79z"/>
				<path class="st4" d="M121.9,123.48h-17.93c-2.03,0-3.7-1.66-3.7-3.7v-0.3c0-2.03,1.66-3.7,3.7-3.7h17.93
					c2.03,0,3.7,1.66,3.7,3.7v0.3C125.6,121.82,123.93,123.48,121.9,123.48z"/>
				<path class="st4" d="M152.7,123.48h-15.62c-2.03,0-3.7-1.66-3.7-3.7v-0.3c0-2.03,1.66-3.7,3.7-3.7h15.62
					c2.03,0,3.7,1.66,3.7,3.7v0.3C156.4,121.82,154.74,123.48,152.7,123.48z"/>
				<path class="st4" d="M188.25,123.48h-21.74c-2.03,0-3.7-1.66-3.7-3.7v-0.3c0-2.03,1.66-3.7,3.7-3.7h21.74
					c2.03,0,3.7,1.66,3.7,3.7v0.3C191.94,121.82,190.28,123.48,188.25,123.48z"/>
				<path class="st4" d="M237.32,123.44h-32.6c-2.03,0-3.7-1.66-3.7-3.7v-0.3c0-2.03,1.66-3.7,3.7-3.7h32.6c2.03,0,3.7,1.66,3.7,3.7
					v0.3C241.02,121.78,239.35,123.44,237.32,123.44z"/>
			</g>
			<rect x="155.83" y="93.04" class="st7" width="52.92" height="5.54"/>
			<g>
				<rect x="164.57" y="164.01" class="st8" width="9.38" height="17.96"/>
				<rect x="183.91" y="153.33" class="st4" width="9.38" height="28.64"/>
				<rect x="203.25" y="147.04" class="st8" width="9.38" height="34.93"/>
				<rect x="222.59" y="162.24" class="st4" width="9.38" height="19.73"/>
				<rect x="241.93" y="150.84" class="st8" width="9.38" height="31.12"/>
				<rect x="261.27" y="139.02" class="st4" width="9.38" height="42.95"/>
			</g>
			<g>
				<rect x="91.02" y="137.92" class="st9" width="52.92" height="3.38"/>
				<rect x="91.02" y="147.41" class="st9" width="52.92" height="34.55"/>
				<g>
					<path class="st7" d="M119.88,160.26c-1.99-0.79-4.04-0.17-5.51,1.26c-1.33,1.3-1.52,3.14-2.15,4.79
						c1.3,0.35,2.46,1.12,3.87,0.9c1.84-0.29,1.88-2,2.92-3.16c0.89-1,1.96-1.64,3.23-1.81
						C121.71,161.42,121.05,160.71,119.88,160.26z"/>
					<path class="st7" d="M134.87,158.46c-1.8,0.39-3.7,1.03-4.99,2.35c-1.11,1.13-1.07,3.1-1.87,4.29c0.91,0.6,1.93,0.89,2.93,0.35
						c0.97-0.53,1.57-1.71,2.62-2.23c0.84-0.42,2.06-0.68,2.98-0.84c0.21-0.04,0.43-0.06,0.64-0.09v-4.2
						C136.4,158.18,135.63,158.3,134.87,158.46z"/>
					<path class="st8" d="M136.53,162.38c-0.92,0.16-2.13,0.43-2.98,0.84c-1.05,0.52-1.64,1.7-2.62,2.23
						c-1,0.54-2.02,0.26-2.93-0.35c-0.36-0.24-0.7-0.52-1.01-0.83c-1.24-1.22-1.63-1.92-3.6-2.07c-0.4-0.03-0.78-0.02-1.14,0.03
						c-1.27,0.17-2.34,0.82-3.23,1.81c-1.04,1.17-1.09,2.88-2.92,3.16c-1.41,0.22-2.58-0.55-3.87-0.9
						c-0.52-0.14-1.05-0.22-1.64-0.14c-1.37,0.19-2.23,1.01-3.18,1.63c-0.66,0.43-1.37,0.77-2.32,0.73
						c-2.12-0.09-4.85-1.31-7.29-1.39v9.44h39.38v-14.28C136.96,162.32,136.74,162.34,136.53,162.38z"/>
					<path class="st7" d="M107.41,167.8c-0.15-0.14-0.3-0.28-0.43-0.45c-0.97-1.21-1.05-2.75-2.13-3.88
						c-2.1-2.21-4.97-1.33-7.04,0.54v3.12c2.44,0.08,5.17,1.3,7.29,1.39C106.04,168.57,106.74,168.23,107.41,167.8z"/>
				</g>
			</g>
		</g>
		<g>
			<path class="st10" d="M46.31,131.21l5.47,13.17c0,0-8.52,1.74-11.43-2.54l2.25-14.87c0,0-5.55,1.35-4.63-4.13
				c0,0,0.78-2.83,3.26-2.32c0,0,1.87-0.21,4.35-3.09c0,0,3.51,0.22,3.01-0.78c0,0,3.16-0.35,3.54,7.99
				C52.14,124.63,53.32,137.32,46.31,131.21z"/>
			<path class="st1" d="M39.36,120.71c-0.23-2.23,1.46-4.17,3.2-5.58c1.74-1.41,3.74-2.73,4.56-4.81c0.74-1.89,0.44-4.25,1.82-5.73
				c1.94-2.08,5.04-1.98,6.97,0.06c4.8,5.07-2.99,12.6-7.86,13.64c-0.91,0.19-1.84,0.24-2.73,0.5c-0.89,0.26-1.77,0.77-2.17,1.61
				c-0.48,0.99-0.5,2.73-2.07,2.63C40.01,122.96,39.45,121.64,39.36,120.71z"/>
			<g>
				<g>
					<path class="st11" d="M38.78,202.41l-11.97,5.13c0,0,9.86,25.12,12.76,26.7c2.89,1.58,1.45-12.36,3.42-16.57l2.5-9.86
						L38.78,202.41z"/>
					
						<rect x="39.76" y="214.88" transform="matrix(0.0694 -0.9976 0.9976 0.0694 -179.3757 242.694)" class="st2" width="1.26" height="5.21"/>
				</g>
				<path class="st3" d="M35.75,200.57l7.23,17.1c0,0,28.15-14.73,35.12-28.15l-11.05-14.47L35.75,200.57z"/>
				<path class="st12" d="M73.5,214.38c0,0,13.15,0.53,19.2-9.86l-13.42-1.97L73.5,214.38z"/>
				<g>
					<polygon class="st13" points="94.07,216.17 79.24,221.42 78.04,217.18 75.87,209.52 88.23,203.66 89.1,205.53 					"/>
					<polygon class="st11" points="112.83,234.37 96.58,221.55 94.08,216.18 79.24,221.41 82.9,234.37 					"/>
					
						<rect x="92.19" y="223.05" transform="matrix(0.6173 -0.7867 0.7867 0.6173 -139.66 160.2765)" class="st2" width="5.43" height="1.26"/>
					<polygon class="st14" points="89.1,205.53 78.04,217.18 75.87,209.52 88.23,203.66 					"/>
				</g>
				<path class="st3" d="M92.71,204.51c-6.99,1.76-13.39,5.06-19.2,9.87l-10-26.3c0,0-20.17,19.23-32.22,16.05
					c-11.45-3.02-6.45-21.97-6.45-21.97c15.72-11.01,40.73-25.79,51.68-14.08c0.06,0.05,0.1,0.09,0.14,0.14
					c2.24,2.46,4.78,7.33,7.16,12.73C88.57,191.68,92.71,204.51,92.71,204.51z"/>
				<path class="st1" d="M83.82,180.94c-10.9,2.56-22.12-9.55-22.12-9.55l11.27-3.7l3.55,0.37c0.06,0.05,0.1,0.09,0.14,0.14
					C78.9,170.68,81.43,175.55,83.82,180.94z"/>
				<path class="st15" d="M73.21,214.49l-9.83-25.86c-2.13,2.03-13.73,12.64-25.96,15.86l-0.16-0.61
					c13.31-3.51,25.9-15.91,26.02-16.03l0.34-0.34l10.17,26.76L73.21,214.49z"/>
			</g>
			<g>
				<path class="st16" d="M41.04,139.84l-4.42,14.28l-5.94,19.2c0,0-4.33,1.56-8.16,1.07c-3.38-0.43-6.36-2.46-5.55-8.59
					C18.75,152.29,41.04,139.84,41.04,139.84z"/>
				<path class="st17" d="M36.63,154.11l-5.94,19.2c0,0-4.33,1.56-8.16,1.07c3.21-19.71,13.82-28.11,13.82-28.11L36.63,154.11z"/>
				<polygon class="st16" points="84.25,153.97 80.96,166.49 69.86,156.02 74.26,148.64 80.22,151.81 				"/>
				<polygon class="st13" points="74.29,148.65 78.5,141.92 87.02,138.29 84.23,153.99 				"/>
				<g>
					<path class="st18" d="M115.65,135.77c-2.24-0.54-4.25-0.45-6.07,0.22c-1.2,0.44-2.32,1.14-3.36,2.09l-4.11-9.54
						c1.43-0.25,2.73-0.68,3.91-1.3c1.71-0.9,3.13-2.21,4.24-3.98L115.65,135.77z"/>
					<polygon class="st18" points="106.22,138.06 102.11,128.53 41.54,157.28 43.73,162.36 106.22,138.06 102.11,128.53 					"/>
					<path class="st12" d="M115.65,135.77c-2.24-0.54-4.25-0.45-6.07,0.22l-3.56-8.76c1.71-0.9,3.13-2.21,4.24-3.98L115.65,135.77z"
						/>
					<circle class="st18" cx="139.94" cy="117.88" r="32.36"/>
					<circle class="st2" cx="139.94" cy="117.88" r="26.96"/>
					<g>
						<path class="st7" d="M115.37,106.8h49.14c-0.11-0.24-0.21-0.47-0.32-0.7H115.7C115.59,106.33,115.47,106.56,115.37,106.8z"/>
						<path class="st7" d="M164.43,129.14h-48.97c0.11,0.24,0.21,0.47,0.33,0.7h48.3C164.2,129.61,164.32,129.38,164.43,129.14z"/>
						<path class="st4" d="M119.81,118.25v-0.55c0-2.21-1.81-4.02-4.02-4.02h-2.47c-0.45,2.81-0.45,5.7,0.03,8.59h2.45
							C118,122.27,119.81,120.46,119.81,118.25z"/>
						<path class="st4" d="M132.58,113.68c-2.24,0-4.07,1.83-4.07,4.07v0.44c0,2.24,1.83,4.07,4.07,4.07h17.56
							c2.24,0,4.07-1.83,4.07-4.07v-0.44c0-2.24-1.83-4.07-4.07-4.07H132.58z"/>
						<path class="st4" d="M166.58,113.68h-0.91c-2.36,0-4.29,1.93-4.29,4.29c0,2.36,1.93,4.29,4.29,4.29h0.86
							C167,119.46,167.03,116.56,166.58,113.68z"/>
					</g>
				</g>
				<path class="st13" d="M84.25,153.97l-4.03-2.15l2.46-5.34c0,0,3.42-6.18,5.13-5.92C89.51,140.82,84.25,153.97,84.25,153.97z"/>
				<path class="st16" d="M69.86,156.02l-0.84,1.4c-1.67-2.29-5.33-7.17-9.95-11.04v0c-4.15-3.48-9.78-8.89-14.7-8.14
					c-13.16,2-19.54,43.91-19.54,43.91l34.06-12.33l7.63,5.94c1.66,1.29,3.75,1.91,5.84,1.73h0c3.52-0.3,6.47-2.79,7.36-6.21
					l1.24-4.79L69.86,156.02z"/>
				
					<rect x="53.96" y="159.55" transform="matrix(0.6632 -0.7484 0.7484 0.6632 -105.7553 96.4276)" class="st17" width="0.63" height="12.35"/>
				
					<rect x="70.57" y="155.42" transform="matrix(0.8167 -0.5771 0.5771 0.8167 -79.482 70.2906)" class="st17" width="0.63" height="9.64"/>
			</g>
		</g>
		<g>
			<g>
				<path class="st14" d="M242.35,74.68c0,0-1.59,4.99-5.61,7.2c-4.02,2.22-9.35,4.57-7.55,5.33s6.62,0.28,6.62,0.28
					s-9.32,7.2-6.68,7.97c2.63,0.76,9.01-4.43,9.01-4.43s-0.87,1.94,0.45,2.36c1.32,0.42,3.84-0.07,3.84-0.07s-0.35,1.39,2.29,1.04
					c2.63-0.35,9.49-8.66,9.49-8.66l0.48-7.62L242.35,74.68z"/>
				<path class="st19" d="M234.25,31.87c0,0,10.39-2.7,25.98,7.07c14.03,8.79,14.96,17.46,8.31,28.26
					c-6.65,10.81-14.34,18.5-14.34,18.5l-11.85-11.01l10.39-16.21L234.25,31.87z"/>
				<path class="st19" d="M230.58,33.53c0,0-14.69,7.9-22.17,24.94h51.26l-14.13-22.44L230.58,33.53z"/>
				<path class="st14" d="M216.12,58.4c0,0,5.04,0.88,6.81,0c1.77-0.88-3.84-3.43-8.68-4.62c-4.83-1.19-10.49-3.33-15.17,3.33
					c-4.68,6.65-4.21,7.12-2.7,7.01c1.51-0.1,5.09-4.57,5.09-4.57s-3.84,4.83-2.03,5.35c1.82,0.52,6.18-6.08,6.18-6.08
					s-3.74,5.35-1.82,5.97c1.92,0.62,6.08-5.92,6.08-5.92s-4.21,6.6-1.66,6.44c1.66-0.1,3.55-3,4.68-5.01
					C213.55,59.13,214.78,58.4,216.12,58.4L216.12,58.4z"/>
			</g>
			<path class="st1" d="M230.66,6.84c1.06,0.17,1.82,1.1,2.37,2.03c0.29,0.49,0.61,1.04,1.16,1.19c0.54,0.15,1.09-0.14,1.62-0.34
				c1.56-0.59,3.4-0.32,4.73,0.68c0.62,0.47,1.14,1.13,1.22,1.9c0.18,1.87-2.28,3.45-1.65,5.22c0.93-0.19,1.82-0.6,2.76-0.7
				c2.49-0.26,4.8,1.86,5.38,4.29s-0.23,5.02-1.51,7.18c-1.83,3.08-4.81,5.65-8.35,6.24c-3.09,0.52-6.22-0.47-9.35-0.73
				c-3.54-0.29-7.07,0.36-10.61,0.63s-7.27,0.13-10.37-1.6c-0.54-0.3-1.14-0.89-0.86-1.45c0.14-0.29,0.47-0.43,0.79-0.53
				c1.11-0.34,2.6-0.69,2.65-1.85c0.05-1.19-1.49-1.67-2.67-1.8c-3.5-0.39-6.96-1.06-10.35-2c-1.5-0.42-3.07-0.94-4.05-2.14
				c-0.99-1.2-1.05-3.28,0.26-4.11c0.56-0.35,1.4-0.65,1.31-1.3c-0.05-0.38-0.43-0.62-0.78-0.8c-1.15-0.58-2.35-1.08-3.37-1.87
				c-1.02-0.79-1.84-1.95-1.87-3.23c-0.02-0.72,0.22-1.44,0.58-2.06c1.2-2.07,3.71-3.13,6.1-3.08c2.39,0.05,4.67,1.06,6.69,2.33
				s3.87,2.81,5.88,4.11c0.69,0.44,1.57,0.86,2.28,0.46c-0.04-1.23-2.29-1.74-1.91-2.91c0.24-0.73,1.28-0.73,2-0.47
				c2.63,0.93,4.98,3.28,7.73,2.81c-0.02-0.54-0.69-0.75-1.21-0.91c-1.42-0.43-2.72-1.9-2.24-3.3c0.44-1.27,2.09-1.72,3.4-1.41
				c1.31,0.32,2.41,1.17,3.61,1.77c0.65,0.33,1.36,0.57,2.08,0.63c0.51,0.04,1.08,0.08,1.57-0.09c0.49-0.17,0.9-0.55,1.3-0.87
				c0.54-0.45,1.05-0.94,1.63-1.34C229.24,7.01,229.92,6.72,230.66,6.84z"/>
			<path class="st14" d="M231.91,14.77c0.92,0.33,1.42,1.47,1.12,2.4c-0.31,0.93-1.32,1.54-2.3,1.45c3.1,5.98,7.31,11.3,10.99,16.95
				c0.13,0.2,0.26,0.4,0.29,0.63c0.03,0.25-0.05,0.5-0.15,0.73c-0.53,1.2-1.55,2.12-2.61,2.9c-1.04,0.77-2.17,1.45-3.42,1.78
				s-2.64,0.26-3.76-0.39c-1.11-0.65-1.84-1.82-2.22-3.05c-0.37-1.23-0.42-2.53-0.45-3.82c-0.06-3.68,0.1-7.37,0.48-11.04
				c-0.54,0.67-1.08,1.33-1.62,1.99c-0.2,0.24-0.42,0.49-0.71,0.56c-0.37,0.09-0.74-0.13-1.05-0.36c-3.19-2.37-4.55-6.42-5.74-10.21
				c-0.08-0.27-0.17-0.57-0.04-0.82c0.1-0.2,0.31-0.32,0.51-0.42c1.41-0.7,3.07-0.8,4.58-0.42c0.77,0.19,1.51,0.51,2.17,0.94
				c0.32,0.21,0.63,0.45,0.91,0.71c0.22,0.2,0.57,0.67,0.61,0.64c0.18-0.11,0.71-0.84,1.09-1.03
				C231,14.67,231.48,14.61,231.91,14.77z"/>
			<path class="st20" d="M211.79,13.69c-2.81-0.83-4.71-3.35-6.86-5.35c-1.31-1.22-2.8-2.28-4.49-2.87
				c-2.92-1.02-6.34-0.46-8.78,1.43c-1.12,0.86-2.07,2.06-2.26,3.46c-0.21,1.51,0.51,3.05,1.61,4.11"/>
		</g>
	</g>
	<path class="st0" d="M331.69,97.25c1.56-3.2,2.58-7.17,0.25-9.92c-1.26-1.49-3.32-2.33-5.41-2.55c-2.09-0.23-4.21,0.1-6.26,0.59
		c-5.58,1.32-11.06,4.01-14.04,8.44c-1.39,2.06-2.16,4.68-1.03,6.83c1.27,2.44,4.5,3.49,7.49,3.93c3.23,0.48,6.54,0.5,9.79,0.1
		c1.53-0.19,5.17-0.61,6.75-3.04C330.14,100.2,330.96,98.74,331.69,97.25z"/>
</g>
</svg>
