<?xml version="1.0" encoding="utf-8"?>
<!-- Generator: Adobe Illustrator 25.2.1, SVG Export Plug-In . SVG Version: 6.00 Build 0)  -->
<svg version="1.1" id="Layer_1" xmlns="http://www.w3.org/2000/svg" xmlns:xlink="http://www.w3.org/1999/xlink" x="0px" y="0px"
	 viewBox="0 0 545.76 240" style="enable-background:new 0 0 545.76 240;" xml:space="preserve">
<style type="text/css">
	.st0{fill:#C7C8DF;}
	.st1{fill:#5595CB;}
	.st2{fill:#D85930;}
	.st3{fill:#F0AA6E;}
	.st4{fill:#FAEBE5;}
	.st5{fill:#20201E;}
	.st6{fill:#437DA5;}
	.st7{fill:#EFC4B3;}
	.st8{fill:#B23D1D;}
	.st9{fill:none;stroke:#CF864F;stroke-width:0.5616;stroke-linecap:round;stroke-linejoin:round;stroke-miterlimit:10;}
	.st10{fill:#E29E85;}
	.st11{fill:#333C75;}
	.st12{fill:#F2AA3E;}
	.st13{fill:#5397D1;}
	.st14{fill:#E19438;}
	.st15{fill:#EFAB3E;}
	.st16{fill:#A93319;}
	.st17{fill:none;stroke:#E19438;stroke-width:1.6604;stroke-miterlimit:10;}
	.st18{fill:none;stroke:#C07661;stroke-width:0.5155;stroke-linecap:round;stroke-linejoin:round;stroke-miterlimit:10;}
	.st19{fill:none;stroke:#C07661;stroke-width:0.4374;stroke-linecap:round;stroke-linejoin:round;stroke-miterlimit:10;}
	.st20{fill:#FBEFE6;}
	.st21{fill:#F7DAC8;}
	.st22{fill:none;stroke:#20201E;stroke-width:0.6266;stroke-linecap:round;stroke-linejoin:round;stroke-miterlimit:10;}
	.st23{fill:#D7CDB4;}
	.st24{fill:#FEF7EF;}
	.st25{fill:#FFFBF2;}
	.st26{fill:#E0D9C6;}
	.st27{fill:#3999BF;}
	.st28{fill:#56AEE2;}
	.st29{fill:#E2B033;}
	.st30{fill:#FCE9BD;}
	.st31{fill:#E8D4AB;}
	.st32{fill:#F7C751;}
	.st33{fill:#FBEDE9;}
	.st34{opacity:0.55;fill:#FBEDE9;}
	.st35{fill:#4B5D8E;}
	.st36{fill:#5669A4;}
	.st37{opacity:0.34;fill:#C7C8DF;}
	.st38{fill:#E9E2D9;}
	.st39{fill:#D6CFC6;}
	.st40{fill:#FEFCF9;}
	.st41{fill:none;}
	.st42{fill:#46A7D8;}
	.st43{fill:#A4DBF8;}
	.st44{fill:none;stroke:#B84423;stroke-width:0.5978;stroke-linecap:round;stroke-linejoin:round;stroke-miterlimit:10;}
	.st45{fill:none;stroke:#C07661;stroke-width:0.4918;stroke-linecap:round;stroke-linejoin:round;stroke-miterlimit:10;}
	.st46{fill:none;stroke:#CF864F;stroke-width:0.5358;stroke-linecap:round;stroke-linejoin:round;stroke-miterlimit:10;}
	.st47{fill:#D44F28;}
	.st48{fill:none;stroke:#20201E;stroke-width:0.5978;stroke-linecap:round;stroke-linejoin:round;stroke-miterlimit:10;}
	.st49{fill:none;stroke:#C07661;stroke-width:0.4519;stroke-linecap:round;stroke-linejoin:round;stroke-miterlimit:10;}
</style>
<path class="st0" d="M16.64,51.24c-2.14,3-3.87,6.87-1.98,10.08c1.02,1.74,2.98,2.95,5.08,3.54s4.32,0.63,6.49,0.49
	c5.93-0.38,11.99-2.17,15.8-6.18c1.77-1.86,3.02-4.4,2.24-6.79c-0.88-2.71-3.99-4.34-6.96-5.31c-3.21-1.05-6.59-1.65-9.98-1.8
	c-1.59-0.07-5.38-0.27-7.41,1.93C18.73,48.49,17.64,49.84,16.64,51.24z"/>
<g>
	<path class="st0" d="M158.49,92.46c-6.68-4.45-15.45-5.33-24.73-0.2c-10.23,5.65-17.76,11.43-30.08,9.19
		c-19.36-3.52-35.03-14.5-55.5-13.45c-10.78,0.55-21.94,4.34-28.84,12.72c-5.45,6.62-7.72,15.72-6.36,24.22
		c1.36,8.5,6.26,16.3,13.08,21.47c5.23,3.96,11.7,6.43,18.23,6.14c5.94-0.27,11.52-2.75,17.06-4.92
		c13.35-5.23,28.32-8.84,41.85-4.13c8.26,2.88,15.18,8.75,23.96,10.01c8.67,1.24,17.77-0.5,25.3-5.01
		c9.77-5.86,17.19-16.57,18.21-28.05C171.73,108.75,166.69,97.92,158.49,92.46z"/>
</g>
<g>
	<path class="st0" d="M323.26,31.19c-1.69-4.66-5.19-8.76-10.02-9.95c-8.93-0.73-13.59,1.54-18.21,6
		c-4.62,4.45-7.27,10.51-9.84,16.39c-2.57,5.88-5.31,11.92-10.04,16.25c-8.07,7.4-20.52,8.57-28.37,16.2
		c-7.86,7.63-9.04,20.67-4.04,30.42c5,9.75,15.23,16.18,25.99,18.2c3.5,0.66,7.1,0.9,10.63,0.42c10.38-1.4,19.22-9.06,23.97-18.39
		c4.75-9.33,5.87-20.14,5.31-30.6c-0.27-5.1-0.88-10.45,1.22-15.1c4.16-9.22,14.81-12.39,14.53-24.02
		C324.34,35.09,323.95,33.09,323.26,31.19z"/>
</g>
<g>
	<path class="st0" d="M424.85,73.68c-4.4-6.98-15.07-11.27-23.47-9.38c-12.65,2.85-13.06,16.11-14.6,26.12
		c-1.19,7.68-3.85,15.6-9.97,20.78c-3.53,2.99-7.94,4.84-12.23,6.75c-10.87,4.86-21.57,10.55-29.89,18.75
		c-8.32,8.2-14.08,19.27-13.39,30.61c0.17,2.85,0.76,5.7,1.97,8.32c2.65,5.72,8.12,9.9,14,12.77c8.26,4.04,17.69,5.9,26.96,5.34
		c8.64-0.52,17.4-3.31,23.49-9.11c8.73-8.32,10.46-20.96,11.53-32.62c1.06-11.67,2.3-24.24,10.45-33.08
		c2.52-2.73,5.59-4.97,8.15-7.67c7.64-8.1,11.42-20.34,9.48-31.05C426.86,77.68,426.01,75.52,424.85,73.68z"/>
</g>
<g>
	<path class="st0" d="M487.84,156.63c-4.44,1.23-7.06,6.65-2.68,12.66c2.22,3.04,5.7,5.54,9.46,5.27c8.17-0.59,6.31-9.85,2.5-14.34
		C494.17,156.75,490.64,155.85,487.84,156.63z"/>
</g>
<g>
	<g>
		<path class="st1" d="M493.23,201.45c0.42-1.35,0.94-2.65,1.25-4.04c0.72-3.29,0.78-6.5-0.78-9.6c0.41-0.19,0.82-0.39,1.23-0.57
			c1.81-0.79,3.59-0.39,4.99,1.02c1.41,1.43,1.99,3.12,1.8,5.09c-0.14,1.51-0.27,3.02-0.45,4.52c-0.38,3.16-0.45,6.33-0.32,9.51
			c0.03,0.8-0.07,1.61-0.13,2.42c-0.03,0.41-0.14,0.79-0.34,1.16c-0.65,1.19-1.67,1.45-2.75,0.66c-1.42-1.04-2.14-2.51-2.53-4.18
			c-0.36-1.57-0.7-3.15-1.26-4.67C493.77,202.28,493.57,201.84,493.23,201.45z"/>
		<g>
			<path class="st1" d="M529.32,53.13c-1.07-1.06-2.45-1.81-4.08-2.36c-3.13-1.05-6.63-1-9.69,0.26c-4.83,1.99-8.15,6.54-12.78,8.97
				c-4.52,2.37-10.06,2.59-14.2,5.58c-2.46,1.77-4.31,4.45-7.15,5.53c-1.9,0.72-4.02,0.62-6.02,0.28
				c-5.53-0.92-11.13-3.94-13.24-9.12c-1.44-3.54-1.13-7.73-3.16-10.97c-1.28-2.04-3.41-3.55-4.25-5.81
				c-1.18-3.2,0.6-6.64,1.26-9.99c0.75-3.86-0.11-8.04-2.46-11.2c-2.35-3.16-6.17-5.21-10.11-5.26c0,0-2.84-0.3-7.19,2.09
				c-5.4,3.73-7.22,11.14-6.08,17.6c1.14,6.46,4.7,12.2,8.28,17.69c3.57,5.5,7.3,11.09,8.84,17.46c0.25,1.02,0.43,2.13,0.04,3.11
				c-0.45,1.09-1.51,1.78-2.45,2.5c-8.26,6.38-8.6,18.8-14.73,27.24c-1.99,2.74-4.56,5.01-6.56,7.74c-2.43,3.32-3.81,7.6-1.93,11.51
				c1.53,3.21,4.99,5.51,8.58,5.46c0.14,0,0.29-0.01,0.43-0.02c1.47-0.09,2.91-0.54,4.38-0.56c1.48-0.03,2.93,0.37,4.35,0.76
				c5.79,1.6,11.59,3.2,17.17,5.42c5.83,2.32,11.41,5.32,17.47,6.96c6.05,1.64,12.86,1.79,18.26-1.41
				c4.65-2.76,7.73-7.79,8.69-13.11c0.95-5.32-0.09-10.88-2.34-15.8c-1.63-3.57-3.88-6.86-5.07-10.6
				c-1.19-3.73-1.11-8.23,1.54-11.11c1.52-1.65,3.65-2.56,5.6-3.66c2.88-1.63,5.47-3.77,7.61-6.3c1.16-1.37,2.19-2.85,3.53-4.04
				c2.5-2.2,5.82-3.16,8.75-4.74c3.46-1.87,6.41-4.65,8.5-7.98c2.04-3.26,3.66-7.23,1.31-10.78
				C530.1,53.98,529.73,53.54,529.32,53.13z"/>
			<path class="st2" d="M493.23,201.45c-0.25,0.38-0.51,0.75-0.74,1.13c-2.68,4.42-7.48,6.34-12.49,5
				c-1.03-0.28-2.08-0.57-2.95-1.13c-1.69-1.1-3.33-0.83-5.03-0.15c-1.65,0.43-3.3,0.87-4.95,1.27c-0.55,0.13-0.73,0.46-0.72,0.97
				c0.05,2.49-0.8,4.72-2.03,6.84c-0.04,0.03-0.1,0.05-0.12,0.09c-3.56,5.33-10.95,4.56-14.94,0.83c-1.22-1.14-2.33-2.38-3.51-3.56
				c-0.85-0.86-1.7-1.73-2.6-2.54c-2.1-1.9-4.34-3.59-6.95-4.8c-4.68-2.17-9.24-4.57-13.52-7.47c-3.17-2.15-5.87-4.77-8.07-7.91
				c-3.2-4.57-3.82-9.57-2.49-14.9c0.85-3.37,2.36-6.44,4.31-9.3c1.77-2.59,3.5-5.21,5.41-7.68c3.89-5.02,7.05-10.48,9.82-16.16
				c1.71-3.5,3.48-6.95,5.45-10.31c0.18-0.3,0.31-0.63,0.47-0.95c1.29-1.76,2.22-3.72,3.09-5.71c0.85-1.94,1.63-3.92,3.06-5.54
				c0.43,0.35,0.87,0.69,1.3,1.04c3.27,2.68,6.85,4.84,10.9,6.06c5.7,1.72,11.45,3.22,17.41,3.74c0.64,0.06,1.33-0.01,1.85,0.5
				c0,0.2-0.03,0.41,0,0.6c0.79,4.33,1.61,8.66,1.98,13.06c0.23,6.04-1.36,11.71-3.62,17.22c-0.86,2.1-1.92,4.12-2.83,6.2
				c-1.02,2.35-1.39,4.76-0.99,7.26c0.57,3.58,0.7,7.14,0.06,10.72c-0.16,0.88-0.07,0.88,0.87,0.85c4.02-0.15,7.93-0.85,11.73-2.19
				c1.15-0.41,2.36-0.54,3.58-0.61c3.03-0.19,5.41,0.98,7.23,3.36c0.15,0.2,0.33,0.37,0.5,0.56c1.55,3.09,1.5,6.31,0.78,9.6
				C494.18,198.8,493.65,200.11,493.23,201.45z M443.68,170.5c-1.05,1.01-1.8,1.75-2.56,2.47c-0.74,0.69-1.52,1.33-2.23,2.04
				c-1.22,1.2-1.21,2.61-0.02,3.78c1.07,1.07,2.14,2.14,3.22,3.2c0.99,0.98,1.19,0.94,1.72-0.33c0.09-0.22,0.17-0.49,0.15-0.72
				C443.64,177.6,443.42,174.25,443.68,170.5z"/>
			<path class="st3" d="M482.97,64.7c-0.12-0.5-0.45-0.93-0.95-1.04c-0.1-0.02-0.21-0.03-0.31,0c-0.15,0.05-0.26,0.19-0.35,0.33
				c-0.34,0.53-0.6,1.15-1.1,1.54c-0.5,0.39-1.37,0.42-1.66-0.15c-0.06-0.13-0.12-0.3-0.26-0.32c-0.11-0.02-0.21,0.06-0.29,0.13
				c-1.85,1.66-3.9,3.1-6.1,4.26c-0.08,0.04-0.17,0.1-0.17,0.19c0,0.08,0.06,0.14,0.11,0.2c0.27,0.33,0.13,0.83-0.04,1.23
				c-0.49,1.16-1.25,2.41-2.49,2.65c-0.19,0.04-0.4,0.05-0.56,0.17c-0.16,0.12-0.24,0.31-0.3,0.51c-0.68,2.11,0.09,4.53,1.67,6.04
				c0.85,0.82,2.04,1.34,3.21,1.19c0.75-0.1,1.44-0.46,2.04-0.93c1.52-1.2,3.73-3.48,2.36-4.75c-2.26-2.1-0.76-7.12,1.95-8.48
				c0.32-0.16,0.69-0.2,1.05-0.28c0.86-0.18,1.73-0.63,2.1-1.42C483.03,65.45,483.05,65.06,482.97,64.7z"/>
			<path class="st1" d="M464.31,215.39c1.24-2.11,2.08-4.34,2.03-6.84c-0.01-0.51,0.17-0.84,0.72-0.97c1.66-0.4,3.3-0.85,4.95-1.27
				c1.52,1.17,1.89,2.84,1.81,4.6c-0.08,1.71-0.34,3.41-0.6,5.1c-0.28,1.83-0.2,3.72-0.22,5.58c-0.01,1.21,0.09,2.42,0.11,3.63
				c0.01,0.82-0.12,1.61-0.62,2.3c-0.63,0.85-1.49,1.02-2.37,0.42c-1.33-0.91-2.06-2.28-2.35-3.77c-0.57-2.97-1.45-5.77-3.32-8.2
				C464.34,215.83,464.35,215.59,464.31,215.39z"/>
			<path class="st4" d="M483.97,92.34c0.64-1.16,0.68-2.24-0.04-3.42c-1.12-1.84-1.67-3.85-1.85-6.02
				c-0.12-1.53,0.05-3.02,0.11-4.53c0.06-1.5-0.5-2.12-2-2.28c-0.8-0.08-1.61-0.09-2.41-0.13c-0.06,2.12-1.03,3.78-2.7,5.01
				c-1.29,0.95-2.86,0.9-4.13,0.08c-2.51-1.63-3.36-5.13-2.19-7.19c-1.74-0.75-2.68-0.52-3.86,1.15c-2.2,3.11-4.84,5.81-7.73,8.27
				c-0.01,0.01-0.02,0.02-0.04,0.03c-0.15,0.11-0.29,0.23-0.42,0.35c-0.16,0.13-0.32,0.27-0.48,0.4c0.01,0.02,0.01,0.05,0.02,0.07
				c-0.58,0.68-0.97,1.47-1.02,2.27c-0.34,5.23,0.85,10.92-1.82,15.43c-1.29,2.18-3.32,3.78-5.24,5.43
				c-1.92,1.65-3.83,3.47-4.69,5.85c-0.69,1.91-0.5,4.26,0.71,5.81c0.02,0.33,0.07,0.67,0.13,1.01c0.24,0.19,0.48,0.37,0.71,0.57
				c3.27,2.68,6.85,4.84,10.9,6.06c5.7,1.72,11.45,3.22,17.41,3.74c0.64,0.06,1.33-0.01,1.85,0.5c1.1-0.54,1.81-1.44,2.25-2.55
				c0.96-2.42,1.47-4.94,1.26-7.55c-0.34-4.08-0.36-8.16,0.07-12.24c0.3-2.81,0.72-5.58,1.65-8.28
				C481.37,97.45,482.58,94.86,483.97,92.34z M448.56,113.1c-0.32,0.24-0.66,0.48-1.01,0.73c0.72-0.68,1.52-1.26,2.33-1.84
				C449.46,112.38,449.02,112.75,448.56,113.1z"/>
			<path class="st3" d="M480.73,63.48c-1.06,4.81-4.34,8.2-7.33,7.52c-4.27-0.97-4.56-5.09-3.5-9.9c1.06-4.81,4.34-8.18,7.33-7.52
				C480.21,54.24,481.78,58.67,480.73,63.48z"/>
			<path class="st5" d="M473.45,55.82c-1.1-0.36-2.21-0.7-3.31-1.08c-5.35-1.81-8.99-5.24-9.87-10.97
				c-0.64-4.14,0.41-7.85,3.8-10.61c1.85-1.5,3.98-2.18,6.37-1.69c4.86,1,6.13,4.99,5.64,8.33c-0.23,1.6-0.78,3.13-1.4,4.63
				c-0.15,0.38-0.31,0.72-0.24,1.15c0.53,3.17,1.69,5.92,4.71,7.53c0.8,0.43,1.57,0.92,2.22,1.58c0.77,0.77,1.13,1.69,0.88,2.76
				c-0.17,0.72-0.11,1.37,0.06,2.07c0.35,1.45-0.24,2.78-0.72,4.11c-0.38,0.64-0.71,1.34-1.29,1.84c-0.71,0.61-1.21,0.55-1.77-0.21
				c-0.56-0.76-0.77-1.63-0.65-2.56c0.17-1.38,0.74-2.59,1.6-3.68c0.76-0.96,0.73-1.05-0.39-1.6
				C477.3,56.57,475.36,56.24,473.45,55.82z"/>
			<path class="st3" d="M483.54,65.73c-0.89,1.78-2.41,2.81-3.4,2.32c-0.98-0.49-1.05-2.33-0.16-4.11c0.89-1.78,2.41-2.81,3.4-2.32
				C484.36,62.12,484.43,63.96,483.54,65.73z"/>
		</g>
		<g>
			<path class="st6" d="M466.83,70.75c-3.23,6.39-8.49,11.43-15.02,14.37c-5.39,2.43-12.4,4.71-13.24,11.53
				c-0.07,0.59,0.85,0.58,0.92,0c0.94-7.68,10.49-9.14,15.97-12.38c5.22-3.08,9.42-7.66,12.15-13.06
				C467.89,70.69,467.1,70.23,466.83,70.75L466.83,70.75z"/>
		</g>
		<g>
			<path class="st6" d="M438.53,99.51c-0.44,1.57-1.07,3.05-1.88,4.46c-0.3,0.51,0.5,0.98,0.8,0.46c0.85-1.48,1.51-3.03,1.97-4.68
				C439.58,99.19,438.69,98.94,438.53,99.51L438.53,99.51z"/>
		</g>
		<g>
			<path class="st6" d="M481.96,74.2c0.86,2.74-0.16,5.41-0.14,8.19c0.02,2.06,0.63,4.04,1.42,5.93c1.67,4.02,4.32,7.91,3.78,12.46
				c-0.07,0.59,0.85,0.58,0.92,0c0.51-4.3-1.74-8.06-3.43-11.83c-1.02-2.28-1.86-4.66-1.75-7.2c0.12-2.66,0.92-5.16,0.09-7.78
				C482.68,73.39,481.79,73.63,481.96,74.2L481.96,74.2z"/>
		</g>
		<g>
			<path class="st6" d="M487.96,106.05c-0.1,1.19,0.05,2.36,0.45,3.49c0.2,0.55,1.09,0.32,0.89-0.24c-0.38-1.06-0.52-2.13-0.42-3.25
				C488.93,105.46,488.01,105.46,487.96,106.05L487.96,106.05z"/>
		</g>
		<g>
			<path class="st6" d="M479.95,142.11c4.66-0.08,9.88-2.74,11.56-7.28c1.9-5.15-0.24-10.48-2.25-15.24
				c-0.23-0.54-1.02-0.08-0.8,0.47c1.78,4.22,3.7,8.86,2.48,13.5c-1.24,4.73-6.29,7.55-10.99,7.63
				C479.35,141.2,479.35,142.12,479.95,142.11L479.95,142.11z"/>
		</g>
		<g>
			<path class="st6" d="M434.93,110.25c-3.5,2.5-6.31,6.45-6.76,10.82c-0.19,1.86,0.28,3.92,1.95,4.99c2.05,1.33,4.67-0.3,6.62,1.08
				c0.49,0.34,0.95-0.46,0.47-0.8c-1.11-0.78-2.26-0.72-3.57-0.64c-1.27,0.08-2.62,0.14-3.58-0.88c-1-1.07-1.12-2.64-0.92-4.01
				c0.56-3.95,3.06-7.49,6.25-9.77C435.87,110.71,435.41,109.91,434.93,110.25L434.93,110.25z"/>
		</g>
		<g>
			<path class="st7" d="M465.58,75.87c-0.46,3.59,1.4,7.08,4.84,8.4c3.87,1.48,6.56-0.65,8.37-3.91c0.29-0.52-0.51-0.98-0.8-0.46
				c-0.68,1.22-1.38,2.56-2.62,3.31c-1.53,0.93-3.54,0.74-5.11,0c-2.84-1.35-4.16-4.32-3.77-7.34
				C466.58,75.28,465.65,75.29,465.58,75.87L465.58,75.87z"/>
		</g>
		<g>
			<path class="st4" d="M469.87,128.48c4.62,10.08,1.89,21.43-3.55,30.59c-0.96,1.61-2.77,3.41-2.85,5.37
				c-0.09,2.16,1,4.58,1.34,6.73c0.82,5.32,0.27,11.11-3.77,15.04c-0.26,0.25-0.12,0.67,0.2,0.77c2.43,0.75,3.88,3,3.65,5.51
				c-0.03,0.36,0.41,0.56,0.69,0.4c4.75-2.75,10.65-2.54,15.2,0.52c0.18,0.12,0.41,0.06,0.56-0.07c3.59-3.09,8.79-3.54,12.88-1.15
				c0.51,0.3,0.98-0.5,0.46-0.8c-2.25-1.31-4.82-1.88-7.41-1.59c-1.14,0.13-2.27,0.41-3.33,0.85c-1.04,0.43-2.37,1.81-3.38,1.52
				c-1.23-0.35-2.36-1.22-3.64-1.57c-1.28-0.36-2.61-0.55-3.94-0.57c-2.78-0.04-5.46,0.69-7.86,2.08c0.23,0.13,0.46,0.27,0.69,0.4
				c0.27-2.92-1.53-5.54-4.33-6.4c0.07,0.26,0.14,0.51,0.2,0.77c3.43-3.33,4.61-8.11,4.36-12.78c-0.15-2.79-0.84-5.44-1.4-8.15
				c-0.39-1.86,0.32-2.98,1.29-4.47c0.76-1.17,1.48-2.38,2.15-3.6c4.99-9.12,7.06-20.09,2.59-29.83
				C470.42,127.48,469.63,127.94,469.87,128.48L469.87,128.48z"/>
		</g>
		<g>
			<path class="st8" d="M444.06,170.02c-2.34-2.72-4.7-5.62-4.29-9.44c0.06-0.59-0.86-0.58-0.92,0c-0.44,4.04,2.07,7.21,4.56,10.09
				C443.79,171.12,444.44,170.47,444.06,170.02L444.06,170.02z"/>
		</g>
		<g>
			<path class="st8" d="M443.63,170.17c-0.99,8.44-1.57,17.1,3.74,24.3c0.35,0.47,1.15,0.01,0.8-0.47
				c-5.22-7.07-4.58-15.56-3.61-23.83C444.62,169.59,443.7,169.59,443.63,170.17L443.63,170.17z"/>
		</g>
		<g>
			<path class="st8" d="M452.8,200.25c1.3,1.51,2.65,3.05,4.39,4.06c1.85,1.07,4.02,1.61,6.06,2.19c1.86,0.54,3.85,1.26,5.82,0.92
				c2.02-0.34,5.48-2.41,7.34-0.96c0.46,0.36,1.12-0.29,0.65-0.65c-1.26-0.98-2.66-0.71-4.13-0.4c-2.58,0.55-4.56,1.49-7.25,0.81
				c-2.18-0.55-4.41-1.16-6.5-1.99c-2.41-0.96-4.08-2.72-5.73-4.64C453.06,199.15,452.41,199.81,452.8,200.25L452.8,200.25z"/>
		</g>
		<g>
			<path class="st8" d="M439.85,165.6c-2.85,3.66-6.11,6.93-9.76,9.8c-0.16,0.13-0.16,0.39-0.07,0.56
				c2.05,3.94,2.53,8.37,1.41,12.66c-0.15,0.57,0.74,0.82,0.89,0.24c0.55-2.12,0.78-4.28,0.57-6.47c-0.2-2.09-1.04-3.83-1.53-5.81
				c-0.2-0.82-0.31-0.62,0.37-1.32c0.36-0.37,0.82-0.68,1.21-1.01c0.87-0.76,1.73-1.54,2.55-2.35c1.8-1.77,3.46-3.66,5.02-5.65
				C440.86,165.79,440.21,165.13,439.85,165.6L439.85,165.6z"/>
		</g>
		<g>
			<path class="st8" d="M432.34,189.91c14.03,2.04,17.06,24.62,32.73,22.24c0.58-0.09,0.34-0.98-0.24-0.89
				c-8.21,1.25-13.74-6.19-18.15-11.88c-3.62-4.68-7.92-9.46-14.1-10.35C432,188.94,431.75,189.83,432.34,189.91L432.34,189.91z"/>
		</g>
		<g>
			<path class="st8" d="M451.89,124.96c-2.02-4.12-6.38-8.78-11.3-8.99c-2.25-0.1-3.98,1.14-5.68,2.44
				c-1.02,0.78-2.09,1.66-3.38,1.92c-1.96,0.4-3.9-0.61-5.59-1.46c-1.06-0.53-1.99,1.06-0.93,1.59c2.16,1.08,4.54,2.2,7.01,1.65
				c2.05-0.46,3.52-2,5.2-3.15c5.14-3.5,10.93,2.53,13.09,6.92C450.82,126.95,452.41,126.02,451.89,124.96L451.89,124.96z"/>
		</g>
		<g>
			<path class="st8" d="M459.71,126.44c-1.6-1.69-4.07-1.66-5.63,0.06c-2.19,2.4-2.69,5.85-4.32,8.58
				c-0.86,1.44-2.14,2.91-3.83,3.35c-1.8,0.47-3.52-0.57-5.27-0.81c-2.48-0.34-4.77,0.94-5.93,3.12c-0.56,1.05,1.03,1.98,1.59,0.93
				c0.67-1.27,1.76-2.13,3.22-2.25c1.53-0.12,2.97,0.69,4.47,0.91c1.91,0.28,3.67-0.37,5.12-1.61c1.67-1.42,2.67-3.35,3.49-5.35
				c0.72-1.75,2.93-8.67,5.8-5.64C459.22,128.61,460.52,127.3,459.71,126.44L459.71,126.44z"/>
		</g>
		<g>
			<path class="st3" d="M526.84,61.02l8.89-2.22c0,0,1.64,0.04,1.73-1.02c0,0,0.62-2.13-1.07-2.31l-2.76-0.27l5.38-2.98
				c0,0,1.38-0.31,0.98-1.51c0,0-0.36-2.84-2.22-2.22l-4.13,2.27l4.22-3.33c0,0,1.2-0.4,0.67-1.56c0,0-1.25-2.4-2.49-1.69l-3.2,1.96
				l1.42-1.96c0,0,0.04-0.76-0.62-1.42c0,0-1.42-1.6-2.53-0.49c0,0-9.37,6.97-11.55,10.66"/>
			<line class="st9" x1="533.58" y1="45.51" x2="530.08" y2="47.96"/>
			<path class="st9" d="M531.28,55.82c-1.97,0.15-3.99-0.84-5.09-2.48"/>
		</g>
		<g>
			<path class="st3" d="M434.34,23.92l-6.58-6.37c0,0-1.45-0.78-0.99-1.75c0,0,0.53-2.16,2.08-1.47l2.52,1.15l-3.16-5.27
				c0,0-1.04-0.96-0.09-1.8c0,0,1.73-2.28,3.04-0.81l2.44,4.03l-1.99-5c0,0-0.84-0.95,0.2-1.68c0,0,2.28-1.45,3-0.22l1.79,3.3
				l-0.25-2.4c0,0,0.34-0.68,1.25-0.92c0,0,2.03-0.67,2.44,0.85c0,0,4.62,10.73,4.66,15.01"/>
			<line class="st9" x1="436.27" y1="7.12" x2="438.07" y2="10.98"/>
			<path class="st9" d="M433.1,17.19c1.63,1.11,3.87,1.27,5.65,0.4"/>
		</g>
	</g>
	<g>
		<path class="st4" d="M466.3,127.55c4.16,9.39,2.57,20.33-3.6,28.43c-1.39,1.83-2.61,3.65-2.66,6.02c-0.06,2.82,0.68,5.7,0.83,8.52
			c0.3,5.68-0.61,11.62-4.65,15.9c-0.48,0.51-0.27,1.34,0.41,1.54c3.29,0.99,5.39,4.1,5.2,7.51c-0.07,1.18,1.77,1.18,1.84,0
			c0.24-4.23-2.51-8.07-6.55-9.29c0.14,0.51,0.27,1.03,0.41,1.54c3.77-3.99,5.19-9.38,5.25-14.77c0.03-3.26-0.54-6.42-0.82-9.65
			c-0.29-3.38,1.58-5.22,3.37-7.79c5.85-8.39,6.68-19.62,2.57-28.9C467.41,125.54,465.83,126.47,466.3,127.55L466.3,127.55z"/>
	</g>
	<g>
		<path class="st4" d="M463.81,196.5c6.16-2.33,13.21-1.24,18.29,2.98c0.91,0.75,2.22-0.54,1.3-1.3
			c-5.57-4.63-13.28-6.03-20.08-3.46C462.22,195.13,462.69,196.92,463.81,196.5L463.81,196.5z"/>
	</g>
	<g>
		<path class="st4" d="M484.1,198.92c0.55-1.64,2.55-2.03,4.05-2.27c2.28-0.37,4.59-0.46,6.84,0.11c1.15,0.29,1.64-1.48,0.49-1.78
			c-2.83-0.72-5.89-0.58-8.73,0.06c-1.97,0.44-3.76,1.38-4.43,3.39C481.94,199.56,483.72,200.04,484.1,198.92L484.1,198.92z"/>
	</g>
	<g>
		<path class="st4" d="M497.82,187.96c1.24,1.59,1.22,3.59,1.17,5.51c-0.06,2.07-0.14,4.15-0.2,6.22c-0.06,1.95-0.13,3.9-0.19,5.85
			c-0.06,1.74,0.38,4.68-1.03,5.96c-0.44,0.4,0.21,1.05,0.65,0.65c1.18-1.07,1.16-2.57,1.21-4.05c0.1-2.8,0.18-5.61,0.28-8.41
			c0.08-2.54,0.27-5.1,0.22-7.64c-0.03-1.75-0.36-3.34-1.46-4.74C498.1,186.84,497.46,187.5,497.82,187.96L497.82,187.96z"/>
	</g>
	<g>
		<path class="st4" d="M470.83,206.99c1.6,3.42,0.63,7.08,0.28,10.65c-0.33,3.4,0.86,7.38-1.32,10.32c-0.35,0.48,0.45,0.94,0.8,0.47
			c2.32-3.12,1.1-7.2,1.45-10.79c0.37-3.78,1.28-7.51-0.4-11.11C471.38,205.99,470.59,206.46,470.83,206.99L470.83,206.99z"/>
	</g>
</g>
<g>
	<g>
		<g>
			<path class="st10" d="M239.68,30.55c-1.47-0.04-7.12-0.46-8.59-0.55c-0.32,1.39,1.97,19.31,2.51,23.97
				c0.09,0.79-2.48,8.62-4.45,11.99c-0.35,0.61,5.13,7.99,6.37,10.71c0.04,0.08,0.71,3.14,0.79,3.21c1.3-1.11,2.09-2.58,2.82-4.08
				c1.24-2.55,5.22-13.67,5.46-16.78C244.79,56.37,241.85,36.22,239.68,30.55z"/>
			<g>
				<path class="st11" d="M265.63,165.97c-0.5-4.38-2.71-8.91-7.53-9.57c-2.66-0.36-5.37,0.5-7.68,1.87
					c-5.31,3.17-13.91,13.29-19.13,4.36c-1.78-3.04-2.66-6.76-3.4-10.18c-1.67-7.67-3.17-15.38-5.05-23
					c-0.26-0.73-0.51-1.47-0.76-2.2c-6.21,1.16-12.49,1.57-18.79,1.83c-5.91,0.24-11.69-0.62-17.33-2.44
					c-1.01-0.33-2.03-0.6-3.05-0.9c-8.62,10.61-14.49,22.62-20.75,34.67c-5.68,10.93-14.35,19.87-21.12,30.09
					c-6,9.05-13.43,22.82-5.58,32.96c1.1,1.24,2.12,2.55,3.4,3.62c1.32,1.1,2.75,2.01,4.34,2.67c0.75,0.11,1.49,0.28,2.25,0.33
					c7.52,0.52,13.36-2.74,17.89-8.41c2.91-3.63,5.11-7.74,6.98-12.03c3.46-7.93,6.34-16.08,9.48-24.13
					c2.13-5.46,4.87-10.54,8.52-15.13c1.25-1.58,2.72-2.84,4.48-3.78c4.64-2.48,8.4,0.77,10.09,5.02
					c3.49,8.81,6.28,18.1,13.13,25.03c3.87,3.91,9.06,6.77,14.56,6.91c11.57,0.3,23.59-10.23,30.47-18.63
					C264.01,181.31,266.41,172.78,265.63,165.97z"/>
				<path class="st12" d="M228.38,67.54c-0.15,0.12-0.32,0.27-0.49,0.45c-0.71,0.71-1.41,1.44-2.19,2.07
					c-1.73,1.4-3.3,2.95-4.75,4.63c-0.42,0.49-0.87,0.59-1.45,0.6c-1.81,0.04-3.62,0.07-5.43,0.22c-1,0.08-2.62-0.87-3.21,0.21
					c-0.07,0.13,0.25,0.99,0.06,1.06c-0.17,2.42-1.94,4.05-4.36,4.03c-2.26-0.02-3.78-1.71-3.87-4.28
					c-0.32-0.66-0.88-0.72-1.53-0.63c-2.81,0.39-5.64,0.12-8.45,0.29c-1.78,0.11-3.58-1.71-4.83-2.77
					c-2.59-2.19-5.01-2.76-7.74-4.75c-0.27-0.2-0.51-0.52-1.03-0.32c-0.43,1.69-0.88,3.45-1.33,5.2c-0.61,3.11-1.21,6.23-1.82,9.34
					c-0.41,1.38,0.26,2.31,1.29,3.09c0.44,0.33,0.89,0.66,1.35,0.97c2.4,1.65,5.05,2.75,7.84,3.53c0.85,0.24,1.11,0.63,1.07,1.49
					c-0.12,2.37-0.27,4.74-0.6,7.1c-0.59,4.15-1.24,8.29-2.75,12.24c-1.37,3.58-2.49,7.25-4.2,10.7c-0.65,1.31-0.36,2.02,0.94,2.73
					c0.66,0.36,1.35,0.68,2.02,1.01c1.02,0.3,2.04,0.57,3.05,0.9c5.64,1.82,11.41,2.68,17.33,2.44c6.77-0.28,13.52-0.73,20.18-2.1
					c3.47-1.68,3.78-2.39,2.83-6.17c-1.1-4.37-1.92-8.78-2.06-13.3c-0.15-4.9,0.27-9.79,0.28-14.69c0-1.27,0.49-1.9,1.56-2.42
					c1.41-0.67,2.8-1.39,4.06-2.35c2.62-1.98,4.24-4.69,5.72-7.53c0.48-0.92,0.68-1.81,0.41-2.68
					C233.86,74.26,231.17,70.85,228.38,67.54z"/>
				<path class="st10" d="M168.45,53.39c-0.14-3.59-4.05-21.06-3.62-22.26c-1.35,0.51-3.11,3.45-4.44,3.17
					c0.02,0.41,0,0.82-0.08,1.26c-0.8,4.37-1.63,8.74-2.08,13.17c-0.49,4.79-0.26,9.49,1.71,13.97c1.02,2.31,2.07,4.61,3.13,6.91
					c0.23,0.5,0.54,0.97,0.85,1.43c3.23,4.74,7.43,8.51,12.05,11.84c0.61-3.11,4.06-10.14,4.67-13.25
					C179.91,69.2,168.48,54.18,168.45,53.39z"/>
				<path class="st10" d="M210.92,76.78c-0.17,2.42-1.94,4.05-4.36,4.03c-2.26-0.02-3.78-1.71-3.87-4.28c1.47-0.78,2.26-2.38,1.98-4
					c-0.07-0.4-0.3-0.61-0.61-0.8c-0.78-0.49-1.42-1.13-1.9-1.9c-0.56-0.89-0.81-1.97-2.22-2.12c-0.77-0.09-1.03-1.05-1-1.84
					c0.03-1.02,0.35-1.89,1.49-2.17c0.73,0.48,1.26,0.3,1.49-0.53c0.19-0.69,0.57-0.99,1.3-0.97c0.44,0.01,0.89-0.21,1.34-0.23
					c2.07-0.09,3.4-1.1,4.03-3.06c0.02-0.07,0.16-0.09,0.29-0.16c0.86,0.38,1.17,1.18,1.35,2.03c0.23,1.09,0.37,2.19,0.61,3.27
					c0.3,1.38,0.71,1.59,2.15,1.19c1.14,0.63,1.24,1.64,0.93,2.73c-0.29,1.02-1.02,1.62-2.12,1.58c-0.58-0.02-0.95,0.18-1.21,0.68
					c-0.14,0.26-0.35,0.49-0.52,0.74c-0.35,0.52-1.15,0.75-1.05,1.55c0.14,1.14,0.26,2.31,1.03,3.25
					C210.32,76.11,210.62,76.44,210.92,76.78z"/>
				<path class="st13" d="M135.47,223.46c1.1,1.23,2.12,2.55,3.4,3.62c1.32,1.1,2.75,2.01,4.34,2.67c-0.39,0.08-0.59,0.31-0.63,0.73
					c-0.07,0.75-0.14,1.51-0.3,2.25c-0.65,3.05-2.62,4.3-5.56,2.91c-1.64-0.77-2.78-2.17-4.08-3.35c-1.41-1.27-2.88-2.36-4.6-3.16
					c-1.47-0.69-2.91-1.42-4.22-2.38c-0.58-0.42-1.12-0.87-1.48-1.5c-0.91-1.6-0.02-3.4,1.81-3.63c0.7-0.09,1.41-0.03,2.11,0.12
					c2.42,0.52,4.84,1.01,7.26,1.53C134.16,223.42,134.81,223.44,135.47,223.46z"/>
				<path class="st13" d="M265.22,166.02c-0.22-1.08-0.4-2.17-0.68-3.24c-1.08-4.09-3.43-6.47-7.88-6.48c-0.2,0-0.4-0.06-0.59-0.09
					c1.39-1.8,3.22-2.7,5.49-2.55c1.42,0.09,2.76,0.56,3.96,1.36c1.09,0.73,2.13,1.52,3.18,2.31c1.86,1.41,4.03,2.29,6.05,3.44
					c0.79,0.45,1.61,0.86,2.27,1.49c1.64,1.56,1.63,3.22-0.11,4.66c-1.17,0.97-2.56,1.34-4.1,1.08
					C270.22,167.56,267.65,167.07,265.22,166.02z"/>
				<path class="st10" d="M212.34,64.79c-0.18,0-0.36,0.05-0.52,0.11c-0.07-4.37-2.53-7.89-5.55-7.89c-2.72,0-4.97,2.83-5.46,6.57
					c-0.09-0.02-0.18-0.04-0.28-0.04c-1,0-1.82,1.16-1.82,2.58s0.81,2.58,1.82,2.58c0.25,0,0.49-0.07,0.7-0.2
					c0.73,3.22,2.81,4.68,5.04,4.68c1.98,0,3.71-1.5,4.69-3.76c0.35,0.51,0.84,0.84,1.38,0.84c1.07,0,1.93-1.23,1.93-2.74
					S213.41,64.79,212.34,64.79z"/>
			</g>
			<path class="st5" d="M212.92,64.95c-0.64-0.18-1.39,0.17-1.68,0.77c-0.41-1.54-0.72-3.11-0.92-4.7
				c-0.54,0.96-1.69,1.45-2.79,1.48c-1.1,0.03-2.17-0.32-3.22-0.66c0.13,0.76-0.02,1.59-0.49,2.21c-0.47,0.62-1.27,1-2.03,0.88
				c-0.73-0.11-1.36-0.66-1.65-1.35c-0.29-0.68-0.25-1.48,0.02-2.17c-1.09-0.08-2.07-0.84-2.56-1.82s-0.52-2.15-0.23-3.2
				c0.1-0.37,0.25-0.75,0.51-1.03c0.5-0.54,1.29-0.65,2.02-0.72c-1.07-0.77-1.62-2.15-1.31-3.44c0.3-1.28,1.43-2.33,2.74-2.53
				c0.49-0.08,1.01-0.04,1.46,0.16c0.45,0.21,0.83,0.6,0.96,1.07c-0.23-0.83-0.43-1.8-0.4-2.66s0.29-1.74,0.87-2.38
				c0.51-0.56,1.24-0.9,1.99-1.05c1.87-0.36,3.92,0.57,4.89,2.21c1.03,1.75,0.82,3.94,0.48,5.94c-0.21,1.22-0.46,2.43-0.74,3.64
				c0.27-0.58,1.09-0.64,1.61-0.28c0.52,0.36,0.77,1,0.95,1.61C214.18,59.63,213.94,62.34,212.92,64.95z"/>
		</g>
		<g>
			<g>
				<path class="st1" d="M191.92,128.39c-2.43,4.73-3.13,9.9-3.55,15.14c-0.46,5.66-0.46,11.35-0.06,17.02
					c0.04,0.59,0.96,0.59,0.92,0c-0.38-5.34-0.4-10.71-0.02-16.05c0.39-5.39,1-10.78,3.5-15.65
					C192.99,128.32,192.19,127.86,191.92,128.39L191.92,128.39z"/>
			</g>
		</g>
		<g>
			<g>
				<path class="st1" d="M197.06,129.27c-2.5,10.91-2.38,22.42-0.49,33.41c0.1,0.58,0.99,0.34,0.89-0.24
					c-1.85-10.82-1.97-22.19,0.49-32.92C198.08,128.94,197.2,128.69,197.06,129.27L197.06,129.27z"/>
			</g>
		</g>
		<g>
			<g>
				<path class="st1" d="M185.96,161.47c2.9-0.35,6.1-0.46,8.89,0.55c2.01,0.73,3.65,2.21,4.92,3.89c2.5,3.32,3.85,7.43,4.82,11.43
					c0.14,0.58,1.03,0.33,0.89-0.24c-1.03-4.26-2.51-8.66-5.28-12.13c-1.3-1.63-2.93-3-4.89-3.76c-2.9-1.12-6.32-1.03-9.35-0.66
					C185.38,160.62,185.37,161.54,185.96,161.47L185.96,161.47z"/>
			</g>
		</g>
		<g>
			<g>
				<path class="st1" d="M209.23,129.8c1.73,3.85,3.53,7.79,6.41,10.93c2.69,2.94,6.93,5.58,11.02,4.08
					c0.55-0.2,0.31-1.09-0.24-0.89c-4.06,1.49-8.13-1.47-10.64-4.43c-2.53-2.98-4.16-6.62-5.75-10.15
					C209.78,128.79,208.99,129.26,209.23,129.8L209.23,129.8z"/>
			</g>
		</g>
		<g>
			<g>
				<path class="st1" d="M187.48,127.56c-1.75,3.35-3.53,6.79-6.25,9.46c-1.24,1.22-2.66,2.26-4.25,2.98
					c-0.8,0.36-1.65,0.63-2.52,0.8c-0.78,0.15-1.5,0.23-2.1,0.8c-0.43,0.41,0.22,1.06,0.65,0.65c0.63-0.6,1.83-0.55,2.64-0.78
					c0.81-0.23,1.59-0.55,2.34-0.93c1.51-0.77,2.87-1.84,4.07-3.04c2.68-2.71,4.47-6.13,6.22-9.48
					C188.55,127.5,187.75,127.03,187.48,127.56L187.48,127.56z"/>
			</g>
		</g>
		<g>
			<g>
				<path class="st1" d="M191.43,161.74c-8.59,6.84-14.33,16.4-19.06,26.16c-5.06,10.43-9.05,21.92-17.61,30.12
					c-4.36,4.17-11.2,8.81-17.53,7.05c-0.57-0.16-0.82,0.73-0.24,0.89c5.38,1.49,11.12-1.45,15.31-4.63c4.27-3.24,7.7-7.46,10.51-12
					c3.38-5.47,5.9-11.41,8.6-17.23c2.37-5.14,4.9-10.21,7.92-15.01c3.48-5.53,7.64-10.62,12.76-14.7
					C192.55,162.02,191.89,161.37,191.43,161.74L191.43,161.74z"/>
			</g>
		</g>
		<g>
			<g>
				<path class="st1" d="M221.79,144.77c0.76,3.92,1.52,7.83,2.28,11.75c0.39,2,0.78,4,1.16,6c0.26,1.34,0.27,2.97,1.51,3.8
					c1.23,0.83,2.64,1.38,3.87,2.24c1.3,0.9,2.51,1.95,3.57,3.12c2.21,2.44,3.7,5.45,3.78,8.78c0.02,0.59,0.94,0.59,0.92,0
					c-0.15-5.98-4.44-10.81-9.39-13.71c-0.64-0.37-1.34-0.66-1.97-1.05c-1.07-0.66-1.1-1.85-1.31-2.96
					c-0.4-2.08-0.81-4.16-1.21-6.23c-0.78-4-1.55-7.99-2.33-11.99C222.57,143.94,221.68,144.19,221.79,144.77L221.79,144.77z"/>
			</g>
		</g>
		<g>
			<g>
				<path class="st1" d="M238.07,175.43c4.01-4.57,8.68-8.52,13.88-11.68c4.6-2.79,12.51-7.58,17.25-2.59
					c0.41,0.43,1.06-0.22,0.65-0.65c-4.71-4.96-12.11-1.14-16.91,1.59c-5.84,3.32-11.09,7.63-15.52,12.68
					C237.03,175.22,237.68,175.88,238.07,175.43L238.07,175.43z"/>
			</g>
		</g>
		<g>
			<g>
				<path class="st4" d="M121.98,224.05c3.79,1.49,7.4,3.4,10.76,5.72c1.58,1.09,3.03,2.32,4.55,3.48c1.37,1.04,2.84,1.83,4.6,1.58
					c0.58-0.08,0.34-0.97-0.24-0.89c-2.05,0.28-3.73-1.36-5.2-2.54c-1.41-1.14-2.87-2.2-4.38-3.19c-3.1-2.02-6.4-3.7-9.84-5.05
					C121.67,222.95,121.44,223.84,121.98,224.05L121.98,224.05z"/>
			</g>
		</g>
		<g>
			<g>
				<path class="st4" d="M128.78,220.5c0.53,1.46,0.88,2.99,1.02,4.54c0.02,0.25,0.2,0.46,0.46,0.46c0.23,0,0.48-0.21,0.46-0.46
					c-0.15-1.63-0.49-3.24-1.05-4.79c-0.08-0.23-0.31-0.39-0.57-0.32C128.88,220,128.7,220.27,128.78,220.5L128.78,220.5z"/>
			</g>
		</g>
		<g>
			<g>
				<path class="st4" d="M130.74,220.5c0.35,1.91,0.95,3.76,1.78,5.51c0.11,0.23,0.43,0.28,0.63,0.17c0.23-0.13,0.27-0.4,0.17-0.63
					c-0.79-1.68-1.35-3.46-1.68-5.29c-0.04-0.24-0.34-0.38-0.57-0.32C130.81,220.01,130.7,220.26,130.74,220.5L130.74,220.5z"/>
			</g>
		</g>
		<g>
			<g>
				<path class="st4" d="M258.7,154.31c1.92,0.05,3.4,1.3,4.79,2.5c1.35,1.17,2.69,2.24,4.28,3.05c3.25,1.67,6.98,2.58,9.66,5.19
					c0.43,0.41,1.08-0.24,0.65-0.65c-2.83-2.75-6.71-3.66-10.11-5.46c-1.77-0.94-3.17-2.26-4.71-3.51
					c-1.34-1.09-2.79-1.99-4.57-2.03C258.11,153.37,258.11,154.29,258.7,154.31L258.7,154.31z"/>
			</g>
		</g>
		<g>
			<g>
				<path class="st4" d="M180.19,71.44c3.7,2.07,7.16,4.53,10.34,7.34c0.44,0.39,1.1-0.26,0.65-0.65
					c-3.23-2.86-6.76-5.37-10.52-7.48C180.14,70.36,179.68,71.15,180.19,71.44L180.19,71.44z"/>
			</g>
		</g>
		<g>
			<g>
				<path class="st4" d="M190.77,79c4.36-0.26,8.73-0.19,13.08,0.19c0.59,0.05,0.59-0.87,0-0.92c-4.35-0.39-8.72-0.45-13.08-0.19
					C190.18,78.11,190.18,79.03,190.77,79L190.77,79z"/>
			</g>
		</g>
		<g>
			<g>
				<path class="st4" d="M180.63,69.47c3.65,1.78,7,4.09,9.96,6.87c0.43,0.41,1.09-0.24,0.65-0.65c-3.02-2.83-6.44-5.2-10.15-7.01
					C180.56,68.41,180.1,69.21,180.63,69.47L180.63,69.47z"/>
			</g>
		</g>
		<g>
			<g>
				<path class="st4" d="M191.14,76.44c3.75,0,7.49,0,11.24,0c0.59,0,0.59-0.92,0-0.92c-3.75,0-7.49,0-11.24,0
					C190.55,75.51,190.55,76.44,191.14,76.44L191.14,76.44z"/>
			</g>
		</g>
		<g>
			<g>
				<path class="st4" d="M210.85,76.19c3.21-0.14,6.41-0.17,9.62-0.11c-0.08-0.29-0.16-0.57-0.23-0.86
					c-0.07,0.06-0.15,0.11-0.22,0.17c-0.46,0.36,0,1.16,0.47,0.8c0.07-0.06,0.15-0.11,0.22-0.17c0.34-0.26,0.26-0.85-0.23-0.86
					c-3.21-0.07-6.42-0.03-9.62,0.11C210.26,75.29,210.26,76.21,210.85,76.19L210.85,76.19z"/>
			</g>
		</g>
		<g>
			<g>
				<path class="st4" d="M220.69,75.87c2.24-3.04,5.05-5.64,8.24-7.65c0.5-0.32,0.04-1.11-0.47-0.8c-3.33,2.1-6.23,4.81-8.57,7.98
					C219.54,75.88,220.34,76.34,220.69,75.87L220.69,75.87z"/>
			</g>
		</g>
		<g>
			<g>
				<path class="st4" d="M210.49,78.47c3.75-0.23,7.5-0.47,11.24-0.7c0.59-0.04,0.59-0.96,0-0.92c-3.75,0.23-7.5,0.47-11.24,0.7
					C209.9,77.59,209.9,78.51,210.49,78.47L210.49,78.47z"/>
			</g>
		</g>
		<g>
			<g>
				<path class="st4" d="M221.55,77.81c2.46-3.05,5.48-5.59,8.91-7.49c0.52-0.29,0.05-1.08-0.47-0.8c-3.49,1.93-6.59,4.53-9.09,7.63
					C220.53,77.62,221.18,78.27,221.55,77.81L221.55,77.81z"/>
			</g>
		</g>
		<g>
			<g>
				<path class="st4" d="M201.71,75.75c0.18,0.68,0.16,1.39,0.28,2.08c0.11,0.68,0.4,1.34,0.9,1.83c0.98,0.97,2.46,1.16,3.77,1.21
					c1.54,0.05,3.04-0.31,4.01-1.58c0.98-1.29,1.08-2.93,1.11-4.5c0.02-1.19-1.82-1.19-1.84,0c-0.02,1.13-0.01,2.41-0.71,3.37
					c-0.64,0.86-1.72,0.9-2.7,0.86c-0.81-0.04-1.87-0.1-2.41-0.74c-0.26-0.3-0.34-0.79-0.37-1.21c-0.06-0.6-0.09-1.21-0.25-1.8
					C203.18,74.12,201.4,74.61,201.71,75.75L201.71,75.75z"/>
			</g>
		</g>
		<g>
			<g>
				<path class="st14" d="M177.54,66.96c-0.97,5.85-2.41,11.6-4.32,17.21c-0.77,2.25,2.79,3.22,3.55,0.98
					c1.91-5.61,3.35-11.36,4.32-17.21c0.16-0.98-0.26-1.98-1.29-2.27C178.93,65.43,177.7,65.97,177.54,66.96L177.54,66.96z"/>
			</g>
		</g>
		<g>
			<g>
				<path class="st14" d="M227.31,66.82c2.76,4.4,5.52,8.81,8.28,13.21c0.96-0.74,1.93-1.49,2.89-2.23
					c-0.12-0.12-0.24-0.23-0.35-0.35c-1.7-1.66-4.31,0.95-2.61,2.61c0.12,0.12,0.24,0.23,0.35,0.35c1.47,1.43,4.03-0.42,2.89-2.23
					c-2.76-4.4-5.52-8.81-8.28-13.21c-0.53-0.84-1.64-1.17-2.52-0.66C227.13,64.79,226.78,65.97,227.31,66.82L227.31,66.82z"/>
			</g>
		</g>
	</g>
	<g>
		<g>
			<path class="st4" d="M269.3,163.13c0,1.64,0,3.28,0,4.91c0,0.59,0.92,0.59,0.92,0c0-1.64,0-3.28,0-4.91
				C270.22,162.54,269.3,162.54,269.3,163.13L269.3,163.13z"/>
		</g>
	</g>
	<g>
		<g>
			<path class="st4" d="M272.66,165.93c-0.22,0.89-0.38,1.79-0.5,2.7c-0.03,0.24,0.23,0.47,0.46,0.46c0.28-0.01,0.43-0.2,0.46-0.46
				c-0.01,0.06,0.01-0.09,0.01-0.1c0.01-0.05,0.01-0.1,0.02-0.15c0.02-0.11,0.03-0.22,0.05-0.32c0.03-0.21,0.07-0.41,0.11-0.62
				c0.08-0.42,0.17-0.84,0.27-1.26c0.06-0.23-0.07-0.51-0.32-0.57C272.99,165.56,272.72,165.68,272.66,165.93L272.66,165.93z"/>
		</g>
	</g>
</g>
<g>
	<path class="st5" d="M389.76,28.62c-4.85-6.36-11.91-7.46-17.98-4.06c-2,1.12-3.67,2.6-5.2,4.27c-0.78,0.85-1.58,1.68-2.48,2.39
		c-1.09,0.86-2.22,1.65-3.59,2.01c-2.19,0.58-3.96-0.34-4.73-2.46c-0.2-0.56-0.35-1.14-0.5-1.72c-0.41-1.53-1.28-2.74-2.53-3.68
		c-2.85-2.16-6.64-2.05-9.73,0.31c-1.88,1.44-3.17,3.32-4.01,5.51c-0.68,1.76-1.3,3.54-1.95,5.31c-0.62,1.69-1.64,3.07-3.1,4.13
		c-1.01,0.73-2.05,0.98-3.23,0.39c-0.82-0.42-1.67-0.78-2.51-1.15c-1.42-0.63-2.91-0.86-4.45-0.65c-2.73,0.38-4.6,2.31-4.81,5.06
		c-0.23,2.98,0.75,5.6,2.53,7.97c3.03,4.04,6.58,4.2,7.15,4.22c1.09,0.04,2.24-0.25,3.11-0.88c0.47,0.17,0.97,0.29,1.48,0.35
		c0.13,0.2,2.75,7.19,2.12,8.02c0.86,1.25,1.66,2.54,2.77,3.6c2.02,1.93,4.44,1.99,6.54,0.12c0.51-0.46,0.96-0.99,1.45-1.48
		c1.05-1.07,1.62-1.18,2.94-0.51c0.99,0.5,1.88,1.15,2.76,1.83c1.24,0.96,2.44,1.96,3.73,2.84c2.61,1.78,5.47,1.65,7.93-0.31
		c2.6-2.07,4.2-4.73,4.6-8.05c0.2-1.64,0.32-3.3,0.48-4.95c0.27-2.77,1.54-4.88,4.09-6.12c0.5-0.24,1-0.48,1.51-0.68
		c3.2-1.29,6.41-2.56,9.6-3.86c1.64-0.66,3.08-1.62,4.39-2.81C391.45,40.55,393.66,33.74,389.76,28.62z"/>
	<path class="st3" d="M339.22,59.96c0.54,0.69,0.37,1.8-0.31,2.36s-1.75,0.53-2.44-0.01c-0.54,6.03,0.08,12.1,0.13,18.16
		c0,0.21,0,0.43-0.09,0.62c-0.09,0.2-0.28,0.35-0.47,0.48c-0.99,0.65-2.2,0.86-3.38,0.94c-1.16,0.08-2.34,0.05-3.45-0.31
		c-1.11-0.36-2.13-1.08-2.66-2.11c-0.53-1.03-0.52-2.27-0.2-3.38c0.31-1.11,0.9-2.13,1.51-3.11c1.74-2.82,3.64-5.54,5.7-8.14
		c-0.73,0.25-1.46,0.49-2.2,0.73c-0.26,0.08-0.55,0.17-0.81,0.08c-0.32-0.12-0.5-0.46-0.62-0.78c-1.27-3.34-0.34-7.07,0.59-10.52
		c0.07-0.24,0.15-0.51,0.37-0.65c0.17-0.11,0.39-0.1,0.59-0.07c1.41,0.16,2.71,0.87,3.68,1.9c0.49,0.52,0.9,1.12,1.19,1.77
		c0.14,0.32,0.26,0.65,0.35,0.98c0.07,0.26,0.11,0.78,0.15,0.78c0.19,0,0.95-0.29,1.33-0.25C338.58,59.45,338.97,59.64,339.22,59.96
		z"/>
	<path class="st3" d="M327.25,72.21c-3.59-0.21-13.04,1.26-16.52,2.05c2.92,3.72,15.48,9.31,20.07,9.91
		c9.16,1.2,17.12-1.8,22.01-3.84c-2.5-1.42-12.74-6-15.49-6.86"/>
	<path class="st15" d="M292.41,205.74c3.04-0.44,6.07-1.02,9.15-0.27c0.05,0.27,0.04,0.57,0.18,0.81c1.39,2.58,0.4,4.68-1.77,6.62
		c-1.31,1.17-2.71,2.23-4.25,3.18c-3.68,2.24-7.34,4.5-10.53,7.25c-1.11,0.95-2.42,1.7-3.95,2.1c-0.98,0.26-1.98,0.28-2.77-0.42
		c-0.81-0.72-0.97-1.58-0.64-2.51c0.29-0.83,0.95-1.45,1.65-2.05c1.74-1.48,3.45-3,5.27-4.4
		C288.46,213.2,290.47,209.5,292.41,205.74z"/>
	<path class="st2" d="M293.01,207.58c-1.53-0.37-1.66-0.5-1.84-1.78c-0.86-6.26-7.11-40.93-3.75-53.31c0.7-2.73,1.99-5.19,3.62-7.46
		c1.63-2.26,12.35-13.61,15.38-16.53c2.64-2.55,5.08-5.35,7.32-8.28c0.5-0.01,1.01-0.05,1.51-0.03c2.52,0.09,5.05,0.31,7.57,0.29
		c6.17-0.06,12.32,0.43,18.48,0.64c0.29,0.01,0.58,0.13,0.88,0.21c1.86,4.16,3.45,8.39,3.64,13.03c0.08,1.89-0.31,3.72-0.56,5.56
		c-0.4,2.95-0.88,5.89-1.69,8.76c-0.3,1.07-0.14,1.26,1.01,1.09c1.7-0.26,3.41-0.48,5.06-0.91c5.32-1.39,10.77-2.25,15.95-4.15
		c0.48-0.17,0.96-0.32,1.38-0.61c0.4,0.27,0.56,0.69,0.69,1.13c0.52,1.78,1.04,3.56,1.56,5.34c-0.09,0.37-0.36,0.58-0.67,0.77
		c-4.96,3.03-9.84,6.2-14.89,9.08c-5,2.84-9.87,5.98-15.32,7.95c-2.62,0.95-5.71,2.17-8.49,1.24c-5.96-1.99-5-12.87-5.44-17.78
		c-0.2-2.22-0.81-8.21-1.29-8.97c-0.63,0.25-1.02,0.73-1.47,1.13c-5.89,5.34-12.17,10.19-18.61,14.83c-2.89,2.08-2.9,2.04-2.98,5.6
		c-0.22,9.6-0.15,19.2,0.03,28.81c0.08,4.24,0.14,8.49-0.09,12.73c-0.07,1.23-0.1,1.23-1.42,1.45
		C296.7,206.84,294.86,207.26,293.01,207.58z"/>
	<path class="st3" d="M287.96,61.22c-2.58-1.96-4.98-4.13-7.44-6.24c-4.42-3.78-18.05-15.65-17.9-16.23
		c-2.08,0.82-4.54,6.41-6.59,7.29c13.92,24.23,34.54,36.86,36.6,37.63c0.73-3.12,2.41-14.41,3.14-17.53
		C293.04,64.7,290.42,63.09,287.96,61.22z"/>
	<path class="st3" d="M409.9,82.26c-0.29,0.82-38.92,0.38-40.97,0.13c-0.29,3.13-1.35,12.83-1.03,15.98
		c0.09,0.93,37.88-6.54,43.56-9.02C412.33,87.97,411.09,84.33,409.9,82.26z"/>
	<g>
		<g>
			<path class="st16" d="M338.97,121.75c3.26,4.99,2.53,11.81,2.48,17.49c-0.07,6.49-0.48,12.99-2.16,19.29
				c-0.15,0.57,0.74,0.82,0.89,0.24c1.74-6.52,2.15-13.28,2.2-20.01c0.05-5.73,0.68-12.45-2.61-17.48
				C339.45,120.79,338.65,121.25,338.97,121.75L338.97,121.75z"/>
		</g>
	</g>
	<g>
		<g>
			<path class="st16" d="M340.43,156.43c9.4-2.31,18.37-6,27.59-8.9c0.56-0.18,0.32-1.07-0.24-0.89c-9.22,2.9-18.19,6.59-27.59,8.9
				C339.61,155.68,339.85,156.57,340.43,156.43L340.43,156.43z"/>
		</g>
	</g>
	<g>
		<g>
			<path class="st16" d="M323.7,144.04c-0.46-3.01-1.38-5.92-2.68-8.66c-0.26-0.53-1.05-0.07-0.8,0.47
				c1.27,2.67,2.14,5.52,2.59,8.44C322.9,144.87,323.79,144.62,323.7,144.04L323.7,144.04z"/>
		</g>
	</g>
	<g>
		<g>
			<path class="st16" d="M322.12,140.24c-6.85,4.73-13.92,9.03-20.44,14.22c-3.05,2.42-5.2,5.27-5.17,9.33
				c0.01,0.88,0.04,1.76,0.07,2.63c0.26,10.16,0.52,20.33,0.78,30.49c0.08,3.15,0.16,6.31,0.24,9.46c0.02,0.59,0.94,0.59,0.92,0
				c-0.2-7.77-0.39-15.53-0.59-23.3c-0.12-4.92-0.25-9.83-0.38-14.75c-0.09-3.7-0.55-7.4,1.9-10.56c1.79-2.3,4.58-4.02,6.91-5.74
				c2.15-1.59,4.34-3.13,6.56-4.63c3.2-2.16,6.5-4.17,9.67-6.36C323.07,140.7,322.61,139.9,322.12,140.24L322.12,140.24z"/>
		</g>
	</g>
	<line class="st17" x1="278.48" y1="225" x2="302.42" y2="208.3"/>
	<g>
		<path class="st3" d="M260.95,49.63c0,0-14.52-10.02-14.4-11.65c0,0,0.9-2.22,2.18-1.89l2.66,1.05l-3.72-6.78
			c0,0-0.22-0.88,0.71-1.38c0,0,1.62-0.94,2.13-0.54l-0.48-1.88c0,0-0.13-1.03,1.06-1.6c0,0,1.59-0.54,2.13-0.01l1.81-0.73
			c0,0,0.81-0.47,1.5,0.68l7.61,15.72"/>
		<line class="st18" x1="256.76" y1="32.59" x2="253.23" y2="24.97"/>
		<line class="st18" x1="254.11" y1="35.79" x2="250.39" y2="27.95"/>
	</g>
	<g>
		<path class="st3" d="M405.55,89.79c0,0,14.69,2.92,15.61,1.88c0,0,0.82-1.86-0.14-2.44l-2.22-1l6.32-1.74c0,0,0.66-0.38,0.42-1.25
			c0,0-0.38-1.55-0.93-1.61l1.42-0.82c0,0,0.7-0.53,0.35-1.59c0,0-0.61-1.29-1.25-1.3l-0.63-1.53c0,0-0.19-0.77-1.3-0.51
			l-14.07,4.66"/>
		<line class="st19" x1="418.4" y1="82.27" x2="425.13" y2="79.92"/>
		<line class="st19" x1="418.02" y1="85.78" x2="424.99" y2="83.41"/>
	</g>
	<path class="st15" d="M368.67,151.72c-0.68-2.34-0.48-3.82-1.16-6.15c-0.17-0.57-0.38-1.13-0.91-1.49c0.4-0.84,0.71-1.72,1.2-2.5
		c1.56-2.43,3.98-2.62,5.96-0.52c1.02,1.08,1.84,2.34,2.13,3.76c0.73,3.67,3.12,6.21,5.65,8.67c1.19,1.16,2.36,2.32,3.26,3.72
		c0.63,0.98,0.94,2.04,0.73,3.21c-0.27,1.48-1.26,2.16-2.73,1.84c-0.87-0.19-1.6-0.64-2.15-1.34c-0.53-0.67-1.08-1.35-1.52-2.09
		c-0.8-1.34-1.87-2.42-3.19-3.2C373.91,154.44,371.16,151.99,368.67,151.72z"/>
	<g>
		<g>
			<path class="st14" d="M369.6,140.53c1.75,1.2,2.49,3.22,3.17,5.14c0.7,1.95,1.44,3.82,2.63,5.53c1.23,1.76,2.73,3.31,4.31,4.75
				c1.46,1.33,4.39,3.13,3.92,5.44c-0.16,0.76,1.01,1.09,1.17,0.32c0.45-2.19-1.09-3.87-2.62-5.21c-1.98-1.73-3.96-3.49-5.52-5.63
				c-1.44-1.97-2.19-4.15-3.04-6.41c-0.73-1.95-1.65-3.78-3.41-4.98C369.56,139.05,368.96,140.09,369.6,140.53L369.6,140.53z"/>
		</g>
	</g>
	<path class="st20" d="M368.14,81.82c-0.21-0.12-0.43-0.2-0.66-0.27c-0.38-0.11-0.79-0.16-1.18-0.24c-1.98-0.39-3.96-0.77-5.93-1.19
		c-2.65-0.56-5.14-1.56-7.6-2.63c-0.03,0.02-0.06,0.04-0.09,0.06c-7.39,4.73-15.95,6.55-24.62,5.05
		c-6.52-1.13-13.51-4.44-15.83-10.88c-0.03,0-0.06,0-0.09-0.01c-0.55-0.02-1.11-0.12-1.66-0.13c-2.14-0.05-4-0.87-5.77-2.02
		c-2.03-1.33-3.92-2.84-5.83-4.32c-1.63-1.26-2.36-1.04-3.11,0.91c-0.73,3.12-1.46,6.23-2.19,9.35c0.03,0.76-1.21,7.83-1.35,10.66
		c-0.08,1.53,0.09,1.83,1.63,2.23c3.57,0.91,7.15,1.8,10.81,2.27c1.19,0.15,1.22,0.17,1.32,1.39c0.04,0.5-0.64,20.7-1.1,25.74
		c-0.13,1.37-0.04,1.5,1.32,1.58c8.25,1.53,43.58,2.71,45.3,1.98c1.44-0.08,2.1-0.7,2.24-2.13c0.21-2.11,1.36-17.27,1.37-18.07
		c0-0.66,0.33-1.05,1.03-1c2.83,0.22,10.44-0.33,11.52-1.95C367.37,92.74,367.55,87.27,368.14,81.82z"/>
	<g>
		<g>
			<path class="st21" d="M367.37,81.02c-0.84,5.87-1.2,11.78-1.02,17.71c0.06,2.03,3.22,2.04,3.16,0
				c-0.17-5.63,0.11-11.29,0.91-16.87c0.12-0.84-0.21-1.7-1.1-1.94C368.57,79.71,367.49,80.17,367.37,81.02L367.37,81.02z"/>
		</g>
	</g>
	<g>
		<g>
			<path class="st21" d="M295.58,62.57c-2.51,8.32-3.98,16.93-4.41,25.61c-0.1,2.03,3.06,2.03,3.16,0
				c0.41-8.41,1.86-16.71,4.29-24.77C299.22,61.46,296.17,60.63,295.58,62.57L295.58,62.57z"/>
		</g>
	</g>
	<g>
		<path class="st14" d="M338.47,70.24c-0.48-0.31-2.3-0.93-2.5-0.93c0.07,0.41,0.21,0.98,0.21,0.98s0.23,0.07,0.31,0.09
			c3.29,0.81,5.06,4.55,2.96,7.48c-1.47,2.06-4.52,2.62-6.59,3.95c-4.33,2.79-7.11,9.29-12.56,10.03c-6.34,0.86-11-7.12-10.72-12.63
			c0.14-2.76,1.52-5.39,3.78-7.01c2.46-1.75,5.08-1.41,7.86-0.85c2.09,0.42,4.29,0.81,6.2-0.38c0.69-0.43,1.2-0.99,1.95-1.32
			c0.54-0.24,1.06-0.32,1.59-0.32c0.16-0.31,0.31-0.62,0.46-0.93c-0.94-0.06-1.88,0.02-2.72,0.48c-1.62,0.89-2.53,2.06-4.59,1.99
			c-1.7-0.06-3.35-0.62-5.03-0.84c-5.78-0.78-10.42,4.06-10.44,9.72c-0.01,5.51,4.26,12.73,10.3,13.08
			c3.03,0.18,5.66-1.65,7.69-3.71c2.65-2.68,4.77-5.63,8.21-7.39c2.8-1.43,5.94-2.38,6.38-5.99
			C341.52,73.43,340.34,71.37,338.47,70.24z"/>
	</g>
	<path class="st22" d="M338.86,31.7c1.47-4.8,5.48-8.75,10.3-10.16c1.89-0.55,4.04-0.69,5.71,0.34c2.55,1.57,3.28,5.41,6.11,6.4
		c2.42,0.84,4.9-0.88,7-2.35c2.01-1.4,4.18-2.66,6.6-3.06c2.41-0.39,5.11,0.23,6.69,2.09"/>
</g>
<g>
	<g>
		<path class="st23" d="M278.17,89.09l-0.29-0.72c0,0-7.44,2.98-7.97,4.68c-0.53,1.7-0.63,2.34-0.63,2.34L278.17,89.09z"/>
		<polygon class="st24" points="278.47,88.89 278.25,88.32 270.1,92.88 269.62,93.45 		"/>
		<path class="st23" d="M259.41,94.99l-0.08-0.46c0,0,8.71-1.83,9.28-1.1l0.14,1.43l-8.99,2.09L259.41,94.99z"/>
		<polygon class="st25" points="259.07,96.3 258.99,94.84 268,93.58 		"/>
		<polygon class="st26" points="258.83,96.41 258.59,95.18 268,93.58 		"/>
		<polygon class="st24" points="258.26,96.24 258.17,95.43 268,93.58 		"/>
		<polygon class="st27" points="274.52,107.79 272.5,108.43 268,93.58 269.9,92.98 		"/>
		<polygon class="st28" points="268,93.58 272.53,108.42 262.13,109.69 257.79,95.93 		"/>
		<polygon class="st28" points="269.9,92.98 274.52,107.79 282.72,102.43 278.68,88.53 		"/>
	</g>
</g>
<g>
	<polygon class="st29" points="140.7,130.77 129.96,126.18 130.52,125.25 133.05,120.03 140.31,124.63 141.58,128.85 141.1,130.32 	
		"/>
	<g>
		<path class="st30" d="M141.1,130.22l-11.04-5.03c0,0,2.55-3.28-1.77-7.25l9.65,5.16l2.61,2.76l1.02,2.4l-0.14,1.43L141.1,130.22z"
			/>
		<g>
			<path class="st31" d="M130.8,122.43c3.43,1.7,6.92,3.37,10.4,4.97l-0.09-0.2c-0.08-0.05-0.17-0.11-0.26-0.16
				c-3.37-1.55-6.75-3.17-10.08-4.82C130.79,122.28,130.8,122.36,130.8,122.43z"/>
			<path class="st31" d="M130.77,123.35l10.78,5.11l0.02-0.2l0,0l-10.78-5.11C130.79,123.22,130.78,123.28,130.77,123.35z"/>
			<path class="st31" d="M140.99,126.89c-3.45-2.18-7.02-4.26-10.62-6.19c0.04,0.09,0.08,0.18,0.11,0.27
				c3.52,1.89,7,3.93,10.38,6.06c0.08,0.04,0.16,0.07,0.23,0.11L140.99,126.89z"/>
			<path class="st31" d="M141.43,129.7l0.01-0.06c-1.99-0.56-3.86-1.56-5.67-2.52c-1.72-0.92-3.5-1.86-5.39-2.44
				c-0.03,0.06-0.06,0.12-0.09,0.17c1.89,0.57,3.67,1.52,5.39,2.43c1.81,0.96,3.68,1.96,5.68,2.53L141.43,129.7z"/>
			<path class="st31" d="M129.7,119.53c0.08,0.11,0.15,0.21,0.21,0.32c3.74,1.92,7.38,4.1,10.84,6.49l-0.13-0.32
				C137.14,123.63,133.47,121.45,129.7,119.53z"/>
			<path class="st31" d="M130.64,123.96c-0.02,0.06-0.04,0.12-0.05,0.18l10.9,4.94l0.02-0.2L130.64,123.96z"/>
		</g>
	</g>
	<path class="st29" d="M139,124.66c0,0,3.89,3.09,1.71,6.11c0,0,4.85-5.64,7.08-7.71c2.23-2.07,5.65-5.39,5.65-5.39
		s0.71-3.75-2.55-4.58L139,124.66z"/>
	<path class="st32" d="M127.71,117.86c3.89,1.97,7.77,4.22,11.29,6.8l11.88-11.58c-3.57-1.9-7.34-3.4-10.12-5.37
		C136.57,111.29,132.21,114.68,127.71,117.86z"/>
	<path class="st33" d="M131.98,117.5l6.11,3.72c1.31-1.41,3.04-3.24,3.04-3.24c-3.45-1.19-5.98-3.37-5.98-3.37
		C134.26,115.73,131.98,117.5,131.98,117.5z"/>
	<path class="st34" d="M140.99,127.2c2.06-2.31,4.52-4.33,6.79-6.42c1.86-1.72,3.72-3.43,5.59-5.14c-0.05-0.2-0.11-0.39-0.19-0.59
		c-2.01,1.85-4.02,3.69-6.03,5.55c-2.15,1.99-4.46,3.9-6.44,6.07C140.81,126.83,140.91,127.01,140.99,127.2z"/>
</g>
<g>
	<path class="st35" d="M202.81,16.07c0,0-9.86-7.23-12.14-9.1l0.07,1.99c0,0-1.79,6.06-1.61,6.06c0.17,0,11.19,5.82,11.19,5.82
		l2.58-2.07L202.81,16.07z"/>
	<g>
		<path class="st30" d="M202.8,16.62l-12.78-8.82c0,0,0.5,3.57-3.12,5.08l12.17,6.15l3,0.56L202.8,16.62z"/>
		<g>
			<g>
				<path class="st31" d="M201.99,18.72c-4.3-2.52-8.76-4.89-13.27-7.06c-0.04,0.04-0.09,0.09-0.13,0.13
					c4.52,2.17,9,4.55,13.31,7.07c0.02,0.01,0.04,0.01,0.06,0.01c0.03,0,0.05-0.02,0.06-0.04C202.04,18.8,202.03,18.74,201.99,18.72
					z"/>
				<path class="st31" d="M200.87,18.89c-4-2.59-8.25-4.86-12.66-6.77c-0.05,0.04-0.11,0.08-0.16,0.12c4.43,1.9,8.7,4.18,12.72,6.79
					c0.02,0.01,0.04,0.02,0.06,0.01c0.02,0,0.05-0.02,0.06-0.04C200.92,18.97,200.91,18.91,200.87,18.89z"/>
				<path class="st31" d="M189.98,9.04c1.96,1.05,3.92,2.14,5.8,3.33c1.39,0.88,2.77,1.84,4.11,2.76l2.8,1.95l0.05-0.19l-2.74-1.9
					c-1.33-0.92-2.71-1.88-4.11-2.76c-1.9-1.2-3.89-2.31-5.88-3.37C190,8.91,189.99,8.97,189.98,9.04z"/>
				<path class="st31" d="M189.29,10.92c-0.03,0.05-0.06,0.1-0.1,0.15l13.12,7.48l0.04-0.18L189.29,10.92z"/>
				<path class="st31" d="M202.57,17.56l-4.93-3.31c-2.46-1.66-5-3.36-7.82-4.5c-0.02,0.06-0.03,0.11-0.05,0.17
					c2.79,1.14,5.31,2.83,7.76,4.48l4.96,3.34c-2.95-1.26-5.66-3.02-8.31-4.74c-1.47-0.95-2.97-1.93-4.51-2.82
					c-0.02,0.05-0.05,0.11-0.07,0.17c1.53,0.89,3.02,1.86,4.48,2.8c2.67,1.73,5.41,3.51,8.4,4.78L202.57,17.56z"/>
			</g>
		</g>
	</g>
	<path class="st35" d="M199.38,18.59c0,0,3.17,0.49,3.43-2.52l5.2,11.38c0,0-0.07,2.94-3.18,2.26L199.38,18.59z"/>
	<path class="st36" d="M185.6,12.26c0,0,7.07,9.11,9.36,15.03c0,0,6.45,1.15,9.87,2.43l-5.45-11.13
		C199.38,18.59,192.44,13.88,185.6,12.26z"/>
	<g>
		<g>
			<path class="st37" d="M200.26,20.38l1.59,3.24c0.81-0.2,1.58-0.5,2.3-0.93c0.46-0.27,0.88-0.59,1.26-0.94l-1.64-3.59
				c-0.36,0.68-0.91,1.25-1.62,1.65C201.57,20.13,200.93,20.31,200.26,20.38z"/>
			<path class="st37" d="M207.45,26.23c-0.3,0.82-0.76,1.62-1.5,2.02c-0.53,0.29-1.09,0.37-1.66,0.35l0.26,0.53
				c0.58,0,1.16-0.12,1.69-0.42c0.7-0.4,1.18-1.07,1.52-1.81L207.45,26.23z"/>
		</g>
	</g>
</g>
<g>
	<path class="st38" d="M400.4,142.22l0.91-1.76l-5.2-6.97C396.12,133.5,394.49,138.32,400.4,142.22z"/>
	<path class="st39" d="M397.97,133.54c-0.1,0.27-0.99,0.18-1.98-0.21s-1.71-0.91-1.61-1.18c0.1-0.27,0.99-0.18,1.98,0.21
		S398.07,133.27,397.97,133.54z"/>
	<path class="st39" d="M384.39,129.32c-0.08,0.06-0.45,1.2-0.45,1.2l5.14,2.18l3.95,1.2l1.98-0.46l0.41-2.13L384.39,129.32z"/>
	<path class="st39" d="M404.95,141.01l-0.78,1.6l-1.45-0.7l-3.6-2.62c0,0-2.51-5.02-2.51-5.01s0.67-1.09,0.67-1.09L404.95,141.01z"
		/>
	<path class="st40" d="M395.03,132.89c-0.01,0-0.33,0.23-1.32,0.34c-1.24,0.13-2.18,0.06-3.46-0.42c-1.02-0.39-4.68-1.83-4.71-1.85
		c0,0,0,0,0,0l-1.6-0.44c-0.02,0-0.03,0.02-0.02,0.03l0.98,1.01c0,0,0,0,0,0c0.15,0.15,6.25,2.68,7.01,2.87
		c0.73,0.18,1.5,0.18,2.24,0.09c0.32-0.04,0.65-0.09,0.95-0.21c0.47-0.18,0.86-0.56,1.08-1.02c0-0.01,0-0.02-0.01-0.03
		L395.03,132.89z"/>
	<path class="st40" d="M397.26,133.67c0,0,0.28,2.28,1.22,3.62c0.95,1.34,2.32,2.77,3.47,3.69c1.17,0.93,2.3,1.63,2.3,1.63
		l-1.57-0.34c0,0-4.78-2.12-6.26-6.28c-0.25-0.71-0.4-1.59-0.37-2.07c0.03-0.47,0.13-0.67,0.13-0.67L397.26,133.67z"/>
	<path class="st36" d="M389.63,121.03l10.51,2.24l-5.53,9.78l-11.29-2.69c-0.32-0.08-0.46-0.46-0.27-0.73l6.1-8.42
		C389.26,121.07,389.45,121,389.63,121.03z"/>
	<path class="st36" d="M402.58,124.34l7.39,7.84c0.16,0.17,0.21,0.42,0.12,0.64c-0.65,1.62-3.28,8.1-4,9.84
		c-0.08,0.21-0.35,0.26-0.51,0.1c-1.57-1.6-8.14-8.49-8.14-8.49L402.58,124.34z"/>
	<path class="st35" d="M400.01,123.26c0,0,0.17,0.02,0.33-0.11s0.56-0.03,1.19,0.26c0.63,0.29,0.9,0.41,0.84,0.63
		c-0.06,0.22,0.2,0.29,0.2,0.29l-5.07,9.95c0,0-0.23-0.24-0.21-0.41c0.02-0.17-0.52-0.67-1.09-0.86c-0.57-0.19-0.97-0.26-1.17-0.13
		s-0.27,0.08-0.38,0.08c-0.1-0.01-0.12-0.09-0.12-0.09L400.01,123.26z"/>
	<path class="st37" d="M395.62,132.63l0.1,0c0.09,0,0.18-0.05,0.23-0.13l4.75-8.78c0.09-0.16-0.02-0.35-0.2-0.37l0,0
		c-0.1-0.01-0.19,0.04-0.24,0.13l-4.84,8.78C395.32,132.43,395.43,132.63,395.62,132.63z"/>
	<g>
		<g>
			<path class="st38" d="M396.6,134.46c0.02,0.6,0.1,1.19,0.31,1.74c0.17,0.57,0.47,1.08,0.82,1.57c-0.45-0.4-0.74-0.96-0.96-1.52
				C396.6,135.67,396.49,135.05,396.6,134.46z"/>
		</g>
		<g>
			<path class="st41" d="M398.36,138.06"/>
		</g>
		<g>
			<path class="st38" d="M397.61,136.68c0.55,1.11,1.26,2.15,2.15,3.01c0.85,0.9,1.88,1.62,2.96,2.22
				c-1.15-0.49-2.17-1.25-3.07-2.12C398.79,138.89,398.04,137.85,397.61,136.68z"/>
		</g>
		<g>
			<path class="st38" d="M391.84,133.58c1.1,0.22,2.23,0.09,3.26-0.37c-0.46,0.33-1.02,0.49-1.58,0.58
				C392.95,133.84,392.37,133.8,391.84,133.58z"/>
		</g>
		<g>
			<path class="st38" d="M394.73,133.73c-0.61,0.51-1.46,0.59-2.22,0.51c-0.77-0.14-1.5-0.42-2.18-0.77
				c0.73,0.23,1.44,0.54,2.2,0.62C393.27,134.22,394.06,134.12,394.73,133.73z"/>
		</g>
		<g>
			<path class="st38" d="M385.48,131.53c0.41,0.1,0.79,0.28,1.19,0.42c0.38,0.19,0.77,0.34,1.13,0.56c-0.41-0.1-0.79-0.28-1.19-0.42
				C386.24,131.9,385.84,131.75,385.48,131.53z"/>
		</g>
	</g>
	<path class="st40" d="M396.12,133.5c-0.85,2.05-0.04,4.48,1.49,6.39c0.73,0.92,1.66,1.81,2.8,2.34
		C400.4,142.22,395.1,138.82,396.12,133.5z"/>
</g>
<g>
	<path class="st42" d="M497.76,29.98c0,0-5.7,9.74-7.21,12.02l1.85-0.3c0,0,5.85,0.86,5.84,0.7c-0.02-0.16,4.25-10.76,4.25-10.76
		l-2.21-2.07L497.76,29.98z"/>
	<g>
		<path class="st30" d="M498.27,29.93l-6.87,12.56c0,0,3.28-0.88,5.07,2.18l4.45-11.68l0.2-2.77L498.27,29.93z"/>
		<g>
			<g>
				<path class="st31" d="M500.31,30.4c-1.9,4.17-3.64,8.46-5.18,12.78c0.05,0.03,0.09,0.07,0.14,0.1
					c1.54-4.33,3.29-8.64,5.19-12.82c0.01-0.02,0.01-0.04,0-0.06c-0.01-0.02-0.02-0.04-0.05-0.05
					C500.38,30.34,500.33,30.36,500.31,30.4z"/>
				<path class="st31" d="M500.59,31.38c-2,3.91-3.66,8.01-4.97,12.2c0.04,0.04,0.09,0.08,0.13,0.13c1.31-4.21,2.98-8.33,4.99-12.25
					c0.01-0.02,0.01-0.04,0.01-0.06c-0.01-0.02-0.02-0.04-0.04-0.05C500.66,31.33,500.61,31.34,500.59,31.38z"/>
				<path class="st31" d="M492.55,42.37c0.77-1.89,1.58-3.79,2.49-5.62c0.68-1.36,1.42-2.71,2.14-4.03l1.52-2.76l-0.18-0.02
					l-1.49,2.7c-0.72,1.31-1.47,2.66-2.15,4.03c-0.92,1.85-1.74,3.78-2.52,5.69C492.43,42.37,492.49,42.37,492.55,42.37z"/>
				<path class="st31" d="M494.38,42.75c0.05,0.02,0.1,0.04,0.15,0.07l5.59-12.7l-0.17-0.02L494.38,42.75z"/>
				<path class="st31" d="M499.17,30.02l-2.57,4.83c-1.28,2.41-2.6,4.9-3.37,7.57c0.05,0.01,0.11,0.02,0.16,0.03
					c0.77-2.65,2.08-5.12,3.35-7.52l2.59-4.87c-0.86,2.8-2.22,5.46-3.54,8.04c-0.73,1.43-1.48,2.9-2.15,4.4
					c0.05,0.01,0.11,0.03,0.16,0.04c0.66-1.48,1.41-2.94,2.14-4.36c1.34-2.61,2.71-5.29,3.57-8.13L499.17,30.02z"/>
			</g>
		</g>
	</g>
	<path class="st42" d="M500.47,32.75c0,0,0.12-2.91-2.72-2.77l10.08-6.06c0,0,2.75-0.3,2.45,2.58L500.47,32.75z"/>
	<path class="st28" d="M496.02,45.91c0,0,7.76-7.46,13.05-10.25c0,0,0.39-5.93,1.22-9.17l-9.81,6.26
		C500.47,32.75,496.81,39.56,496.02,45.91z"/>
	<g>
		<g>
			<path class="st43" d="M502.05,31.74l2.86-1.82c-0.27-0.7-0.64-1.36-1.11-1.95c-0.3-0.38-0.65-0.72-1.01-1.02l-3.18,1.91
				c0.67,0.24,1.27,0.67,1.71,1.25C501.68,30.6,501.91,31.16,502.05,31.74z"/>
			<path class="st43" d="M506.75,24.57c0.8,0.17,1.59,0.48,2.05,1.1c0.32,0.44,0.47,0.94,0.5,1.45l0.47-0.3
				c-0.07-0.52-0.23-1.02-0.57-1.47c-0.44-0.58-1.12-0.93-1.85-1.14L506.75,24.57z"/>
		</g>
	</g>
</g>
<g>
	<g>
		<path class="st2" d="M41.63,136.74c0,0,0.2-13.78,5.3-14.7c0,0-4.15-4.61-8.77-0.46c0,0-18.59,15.92-13.28,23.85
			C24.88,145.43,31.84,152.9,41.63,136.74z"/>
		<path class="st44" d="M41.04,120.37c0,0-17.33,14.95-16.23,23.92"/>
	</g>
	<path class="st3" d="M48.67,123.97c0,0-2.69-4.49-5.84-2.02c0,0-11.45,6.51-0.22,15.49L48.67,123.97z"/>
	<path class="st36" d="M66.4,141.7c0,0-11.22-18.85-17.73-17.73c0,0-8.47,6.02-7.04,12.77c0,0,4.57,15.06,26.79,32.56L66.4,141.7z"
		/>
	<path class="st5" d="M62.35,150.72c0.58-2.01,0.98-4.06,1.28-6.13c0.24-1.69,0.38-3.4,0.7-5.08c0.05-0.27,0.11-0.53,0.17-0.8
		c1.18,1.78,1.9,2.99,1.9,2.99l2.02,27.61c-4.14-3.26-7.66-6.43-10.66-9.44C59.91,157.21,61.4,154.01,62.35,150.72z"/>
	<g>
		<polygon class="st3" points="100.06,205.44 97.15,216.89 83.01,216.89 85.48,202.07 		"/>
		<path class="st2" d="M98.49,215.76c0,0-13.69,1.57-15.26-3.37c0,0-4.04,4.71,0.67,8.75c0,0,18.18,16.38,25.36,10.1
			C109.27,231.25,115.78,223.39,98.49,215.76z"/>
		<path class="st44" d="M82.33,218.46c0,0,17.06,15.26,25.81,13.02"/>
	</g>
	<g>
		<path class="st3" d="M29.27,117.84c0,0-15.94,5.43-17.12,4.42c0,0-1.19-1.95-0.2-2.74l2.32-1.44l-7.31-1c0,0-0.8-0.33-0.65-1.33
			c0,0,0.2-1.78,0.79-1.94l-1.71-0.7c0,0-0.86-0.49-0.62-1.72c0,0,0.49-1.53,1.2-1.63l0.47-1.8c0,0,0.1-0.89,1.38-0.76l16.37,3.1"/>
		<line class="st45" x1="13.83" y1="111.37" x2="5.98" y2="109.74"/>
		<line class="st45" x1="14.78" y1="115.22" x2="6.66" y2="113.61"/>
	</g>
	<path class="st3" d="M112.64,35.93l-7.65-4.24c0,0-1.53-0.36-1.35-1.37c0,0-0.05-2.12,1.55-1.87l2.61,0.43l-4.22-4.07
		c0,0-1.19-0.63-0.53-1.63c0,0,1.03-2.53,2.6-1.5l3.25,3.11l-3.07-4.11c0,0-1.01-0.66-0.23-1.6c0,0,1.74-1.91,2.71-0.94l2.47,2.59
		l-0.83-2.15c0,0,0.15-0.71,0.92-1.16c0,0,1.7-1.12,2.46,0.17c0,0,6.92,8.73,8.02,12.67"/>
	<line class="st46" x1="110.24" y1="19.97" x2="112.86" y2="23.09"/>
	<path class="st46" d="M109.82,30.05c1.78,0.62,3.88,0.21,5.3-1.04"/>
	<path class="st2" d="M112.86,35.54c0,0,6.96,30.97-14.36,32.99l-8.53,0.45c0,0-5.39-1.35-10.1,0c0,0-41.75,18.85-56.11,41.3
		l3.14,8.53c0,0,31.42-2.47,42.87-13.24l-2.02,17.95l44.21-6.06l-0.45-21.32c0,0,41.3-26.26,10.1-66.21L112.86,35.54z"/>
	<path class="st47" d="M128.37,40.41c17.3,34-16.86,55.72-16.86,55.72l-3.37-6.28C108.14,89.85,139,76.36,128.37,40.41z"/>
	<path class="st36" d="M32.15,118.23c-3.22,0.41-5.25,0.58-5.25,0.58l-3.14-8.53c0.75-1.17,1.58-2.34,2.47-3.49
		C28.49,109.36,31.87,113.89,32.15,118.23z"/>
	<path class="st36" d="M125.32,82.64c-1.22-13.54-11.57-19.25-15.1-20.82c0.93-1.42,1.65-2.99,2.2-4.64
		c10.96,5.49,14.69,15.04,15.96,20.62C127.43,79.53,126.39,81.14,125.32,82.64z"/>
	<path class="st35" d="M123.96,76.34c0.91-1.3,1.77-2.71,2.55-4.23c0.9,2.1,1.49,4.06,1.86,5.69c-0.02,0.05-0.05,0.09-0.07,0.14
		c-0.44,0.79-0.89,1.56-1.36,2.3c-0.04,0.06-0.08,0.12-0.12,0.18c-0.47,0.74-0.96,1.46-1.46,2.15c-0.01,0.02-0.03,0.04-0.04,0.06
		C125.11,80.31,124.63,78.22,123.96,76.34z"/>
	<path class="st36" d="M54.93,82.63c0.89-0.56,1.77-1.11,2.64-1.64c1.48,4.81,6.95,22.32,9.46,26.76c-0.76,0.52-1.56,1.02-2.41,1.5
		C62.76,104.96,57.41,92.31,54.93,82.63z"/>
	<polygon class="st5" points="74.7,101.52 69.77,105.56 69.09,110.95 	"/>
	<path class="st5" d="M98.95,50.46c0.51-1.44,0.7-3.24-0.39-4.31c-1.1-1.07-2.91-0.85-4.28-1.54c-2.82-1.41-3.01-6.13-6.05-6.95
		c-1.02-0.27-2.11,0.01-3.17-0.1c-1.98-0.19-3.57-1.68-4.79-3.25c-1.22-1.56-2.28-3.32-3.9-4.46c-1.63-1.14-4.08-1.44-5.47-0.03
		c-0.84,0.86-1.1,2.11-1.58,3.22c-0.47,1.11-1.43,2.22-2.63,2.12c-1.99-0.17-2.13-2.99-3.01-4.78c-0.94-1.9-3.38-2.88-5.39-2.22
		c-0.59,0.19-1.16,0.53-1.47,1.07c-0.69,1.23,0.31,2.73,1.4,3.62c1.1,0.89,2.45,1.74,2.71,3.12c0.55,2.88-4.01,5.23-2.84,7.92
		c1.06,2.43,4.99,1.17,7.14,2.71c2.38,1.7,1.61,6.04,4.17,7.47c1.4,0.78,3.18,0.27,4.73,0.69c1.73,0.48,2.9,2.02,4.17,3.3
		c2.1,2.13,4.77,3.69,7.65,4.48c1.72,0.47,3.9,0.52,4.93-0.94c1.25-1.77,0.09-4.23,2.03-5.68c0.67-0.5,1.4-0.51,2.2-0.63
		c0.98-0.15,1.58-0.67,2.14-1.47C97.95,52.78,98.53,51.65,98.95,50.46z"/>
	<path class="st3" d="M87.24,53.63c-0.48,0.62-0.33,1.61,0.28,2.11c0.61,0.5,1.56,0.47,2.18-0.01c0.48,5.39-0.07,10.82-0.12,16.23
		c0,0.19,0,0.38,0.08,0.55c0.08,0.18,0.25,0.31,0.42,0.43c0.88,0.58,1.97,0.77,3.02,0.84c1.04,0.07,2.1,0.05,3.08-0.27
		c0.99-0.32,1.9-0.96,2.38-1.89c0.47-0.92,0.46-2.03,0.18-3.03c-0.28-1-0.81-1.9-1.35-2.78c-1.55-2.52-3.25-4.95-5.09-7.28
		c0.65,0.22,1.31,0.44,1.96,0.65c0.24,0.08,0.49,0.15,0.72,0.07c0.29-0.1,0.44-0.41,0.55-0.7c1.13-2.99,0.31-6.32-0.53-9.4
		c-0.06-0.22-0.13-0.46-0.33-0.58c-0.15-0.09-0.35-0.09-0.53-0.07c-1.26,0.14-2.42,0.78-3.29,1.69c-0.44,0.46-0.8,1-1.06,1.58
		c-0.13,0.28-0.23,0.58-0.31,0.88c-0.06,0.23-0.1,0.7-0.14,0.7c-0.17,0-0.85-0.26-1.19-0.23C87.82,53.17,87.46,53.34,87.24,53.63z"
		/>
	<path class="st48" d="M99.23,48.12c-0.05-1.33-0.18-2.83-1.21-3.69c-0.99-0.82-2.46-0.73-3.56-1.39c-1.28-0.77-1.78-2.35-2.71-3.52
		c-1.67-2.09-4.99-2.63-7.24-1.18"/>
	<path class="st48" d="M89.67,62.05c-1.47,0.65-2.94,1.31-4.41,1.96c-1.46,0.65-3.27,1.27-4.56,0.32c-1.58-1.17-1.04-3.65-1.72-5.5
		c-0.55-1.53-2-2.62-3.56-3.06c-1.56-0.44-3.24-0.3-4.83,0.05c-1.19,0.26-2.38,0.64-3.59,0.48c-1.2-0.15-2.43-1.05-2.46-2.26
		c-0.03-1.03,0.77-1.88,1.27-2.78c1.5-2.76-0.33-6.73-3.41-7.37"/>
	<path class="st36" d="M111.96,117.46c0,0-1.12,65.54-11.9,87.98c0,0-17.95,0.22-19.97-2.02l4.49-37.93c0,0-12.91,12.04-21.43-0.75
		c0,0-1.35-15.12,4.6-41.22L111.96,117.46z"/>
	<path class="st35" d="M91.99,130.7l3.37-0.45L86.81,205c-3.24-0.29-6-0.78-6.72-1.58l4.49-37.93
		C91.76,160.78,91.99,130.7,91.99,130.7z"/>
	<path class="st5" d="M91.99,130.7c-0.01-0.71-1.8,30.3-7.41,34.79l-0.65,5.76C83.93,171.25,92.43,168.86,91.99,130.7z"/>
	<polygon class="st5" points="111.96,117.46 67.75,123.52 66.83,127.35 	"/>
	<path class="st36" d="M113.51,39.55c-0.3-2.45-0.65-4.01-0.65-4.01l8.75-5.61c1.08,1.38,2.06,2.75,2.98,4.1
		C121.95,36.13,117.8,38.88,113.51,39.55z"/>
</g>
<g>
	<path class="st10" d="M166.65,45.46c0,0,3.23-15.13,2.17-16.1c0,0-1.91-0.88-2.53,0.11l-1.06,2.28l-1.71-6.56
		c0,0-0.39-0.69-1.29-0.45c0,0-1.6,0.37-1.68,0.94l-0.83-1.48c0,0-0.54-0.74-1.64-0.38c0,0-1.34,0.62-1.36,1.28l-1.59,0.63
		c0,0-0.8,0.19-0.55,1.34l4.61,14.6"/>
	<line class="st49" x1="159.07" y1="32.07" x2="156.73" y2="25.09"/>
	<line class="st49" x1="162.68" y1="32.52" x2="160.34" y2="25.28"/>
</g>
<g>
	<path class="st10" d="M231.76,35.78c0,0-3.23-15.13-2.17-16.1c0,0,1.91-0.88,2.53,0.11l1.06,2.28l1.71-6.56
		c0,0,0.39-0.69,1.29-0.45c0,0,1.6,0.37,1.68,0.94l0.83-1.48c0,0,0.54-0.74,1.64-0.38c0,0,1.34,0.62,1.36,1.28l1.59,0.63
		c0,0,0.8,0.19,0.55,1.34l-4.61,14.6"/>
	<line class="st49" x1="239.34" y1="22.4" x2="241.68" y2="15.41"/>
	<line class="st49" x1="235.73" y1="22.84" x2="238.07" y2="15.61"/>
</g>
</svg>
