<svg xmlns="http://www.w3.org/2000/svg" xmlns:xlink="http://www.w3.org/1999/xlink" viewBox="0 0 330.78 227.65"><defs><style>.cls-1{isolation:isolate;}.cls-2{fill:#c6c8df;}.cls-3{fill:#41498c;}.cls-4{fill:#20201d;}.cls-38,.cls-5{fill:#fff;}.cls-6{fill:#d85930;}.cls-7{fill:#d3dfff;}.cls-8{fill:#f4f6fc;}.cls-9{fill:#adc3ff;}.cls-10{fill:#f7971e;}.cls-11{fill:#ffd800;}.cls-12{fill:#648be2;}.cls-13{fill:#5468a3;}.cls-14{fill:#fffbf3;opacity:0.6;}.cls-15{fill:#e29e84;}.cls-16{fill:#5397d1;}.cls-17{fill:#b74121;}.cls-18{fill:#f9ebe5;}.cls-19{fill:#e19337;}.cls-20,.cls-27,.cls-32,.cls-57,.cls-58,.cls-59,.cls-60{fill:none;stroke-linecap:round;stroke-linejoin:round;}.cls-20{stroke:#bf7660;stroke-width:0.24px;}.cls-21{fill:#fcc753;}.cls-22{fill:#c7943f;}.cls-23{fill:#a0867c;}.cls-24{fill:#c8b89c;}.cls-25{opacity:0.72;}.cls-26{fill:#fde5c5;}.cls-27{stroke:#ffce4a;stroke-width:1.03px;}.cls-28{fill:#ffc800;}.cls-29{fill:#28326b;}.cls-30{fill:#52afe7;}.cls-31{fill:#3795c4;}.cls-32{stroke:#20201d;stroke-width:0.43px;}.cls-33{fill:#eb9481;}.cls-34{fill:#1a2e35;}.cls-35{opacity:0.12;}.cls-36{fill:#d18169;}.cls-37{opacity:0.3;mix-blend-mode:multiply;fill:url(#linear-gradient);}.cls-38{mix-blend-mode:soft-light;}.cls-39{opacity:0.19;}.cls-40{fill:url(#linear-gradient-2);}.cls-41{fill:url(#linear-gradient-3);}.cls-42{fill:url(#linear-gradient-4);}.cls-43{fill:url(#linear-gradient-5);}.cls-44{fill:url(#linear-gradient-6);}.cls-45{fill:url(#linear-gradient-7);}.cls-46{fill:url(#linear-gradient-8);}.cls-47{fill:url(#linear-gradient-9);}.cls-48{fill:url(#linear-gradient-10);}.cls-49{fill:url(#linear-gradient-11);}.cls-50{fill:#f3dfc1;}.cls-51{fill:#e2b034;}.cls-52{fill:#ed9ea3;}.cls-53{fill:#687175;}.cls-54{fill:#223542;}.cls-55{fill:#dc926c;}.cls-56{fill:#c17452;}.cls-57{stroke:#c17452;}.cls-57,.cls-58,.cls-59{stroke-width:0.24px;}.cls-58{stroke:#223542;}.cls-59{stroke:#dc926c;}.cls-60{stroke:#d85930;stroke-width:0.41px;}</style><linearGradient id="linear-gradient" x1="613.97" y1="964.89" x2="604.19" y2="988.94" gradientTransform="translate(-639.51 -725.02) rotate(-9.24)" gradientUnits="userSpaceOnUse"><stop offset="0" stop-color="#444b8c"/><stop offset="1" stop-color="#26264f"/></linearGradient><linearGradient id="linear-gradient-2" x1="597.87" y1="979.63" x2="600.72" y2="979.63" gradientTransform="translate(-643.96 -728.03) rotate(-9.24)" gradientUnits="userSpaceOnUse"><stop offset="0" stop-color="#fff"/><stop offset="1" stop-color="#ebeff2"/></linearGradient><linearGradient id="linear-gradient-3" x1="601.67" y1="982.2" x2="604.05" y2="982.2" xlink:href="#linear-gradient-2"/><linearGradient id="linear-gradient-4" x1="604.34" y1="979.21" x2="607.35" y2="979.21" xlink:href="#linear-gradient-2"/><linearGradient id="linear-gradient-5" x1="607.75" y1="980.06" x2="610.63" y2="980.06" xlink:href="#linear-gradient-2"/><linearGradient id="linear-gradient-6" x1="611.76" y1="983.53" x2="613.88" y2="983.53" xlink:href="#linear-gradient-2"/><linearGradient id="linear-gradient-7" x1="614.57" y1="981.83" x2="617.1" y2="981.83" xlink:href="#linear-gradient-2"/><linearGradient id="linear-gradient-8" x1="617.43" y1="980.56" x2="620.29" y2="980.56" xlink:href="#linear-gradient-2"/><linearGradient id="linear-gradient-9" x1="620.87" y1="981.72" x2="623.46" y2="981.72" xlink:href="#linear-gradient-2"/><linearGradient id="linear-gradient-10" x1="623.53" y1="980.06" x2="626.6" y2="980.06" xlink:href="#linear-gradient-2"/><linearGradient id="linear-gradient-11" x1="626.47" y1="979.57" x2="629.72" y2="979.57" xlink:href="#linear-gradient-2"/></defs><g class="cls-1"><g id="Layer_1" data-name="Layer 1"><path class="cls-2" d="M297.05,139.58c-12.84-8.91-28.22-13.23-42.39-19.69-13.62-6.21-23.31-16.19-35.5-24.42a220.36,220.36,0,0,0-66.29-30.32c-23.69-6.22-52.62-9.67-74.21,4.12C68,76.05,59.33,87.22,55.81,99.1c-4.2,14.13,2.91,18.8,4.92,32.92,1.63,11.48-18.23,18.1-27.23,24.62C12.42,171.9,22.22,209,35.25,228.8H306.54C322.65,200.66,329.73,162.29,297.05,139.58Z" transform="translate(-4.45 -3.01)"/><path class="cls-3" d="M263.75,67.25l10.37-2.41a3.16,3.16,0,0,1,2.59,2c1.21,2.48,2.5,4.93,3.72,7.41a1.19,1.19,0,0,0,1,.75c1.41.19,2.81.44,4.21.71a1.12,1.12,0,0,0,1.14-.33c1.76-1.73,3.55-3.44,5.33-5.16a2.58,2.58,0,0,1,3.75-.39l7.32,4.57c1.56,1,1.88,1.86,1.32,3.6-.75,2.33-1.49,4.66-2.27,7a1.18,1.18,0,0,0,.23,1.24c.87,1.13,1.7,2.28,2.5,3.45a1.13,1.13,0,0,0,1,.57c2.9,0,5.79.07,8.69.12a2.54,2.54,0,0,1,2.8,2.23c.68,2.88,1.34,5.77,2,8.65a2.56,2.56,0,0,1-1.54,3.3c-2.59,1.32-5.18,2.61-7.75,4a1.43,1.43,0,0,0-.63.88c-.29,1.4-.48,2.81-.76,4.2a1.1,1.1,0,0,0,.36,1.13c1.69,1.72,3.37,3.47,5.05,5.21,1.24,1.29,1.34,2.24.41,3.75-1.52,2.44-3,4.89-4.57,7.33a2.64,2.64,0,0,1-3.61,1.33c-2.25-.73-4.5-1.44-6.74-2.2a1.22,1.22,0,0,0-1.3.25c-1.16.91-2.36,1.77-3.58,2.6a1.13,1.13,0,0,0-.56,1.05q0,4.35-.11,8.7a2.54,2.54,0,0,1-2.25,2.79l-8.64,2A2.56,2.56,0,0,1,280,146c-1.32-2.58-2.61-5.18-4-7.75a1.42,1.42,0,0,0-.88-.62c-1.45-.3-2.91-.49-4.36-.79a1.11,1.11,0,0,0-1.13.34c-1.69,1.66-3.39,3.29-5.1,4.93a2.59,2.59,0,0,1-3.69.39l-7.4-4.61a2.61,2.61,0,0,1-1.29-3.55c.71-2.21,1.4-4.41,2.15-6.6a1.26,1.26,0,0,0-.26-1.36c-.85-1.1-1.67-2.24-2.45-3.4a1.24,1.24,0,0,0-1.16-.64c-2.79,0-5.59-.09-8.38-.09a3.11,3.11,0,0,1-2.86-1.42l-2.41-10.38a3.09,3.09,0,0,1,1.94-2.53c2.51-1.23,5-2.54,7.48-3.77a1.24,1.24,0,0,0,.76-1.09c.14-1.2.33-2.4.57-3.58a1.08,1.08,0,0,0-.32-1.13c-1.86-1.9-3.7-3.82-5.55-5.73-1.25-1.31-1.37-2.31-.43-3.82q2.28-3.67,4.57-7.32c1-1.54,1.86-1.86,3.61-1.3,2.43.78,4.86,1.55,7.28,2.36A1.16,1.16,0,0,0,258,82.3c1.19-.91,2.4-1.8,3.64-2.65a1.27,1.27,0,0,0,.64-1.17c0-2.79.09-5.58.09-8.37A3.09,3.09,0,0,1,263.75,67.25Zm31,35.26a16.94,16.94,0,1,0-12.73,20.3A17,17,0,0,0,294.79,102.51Z" transform="translate(-4.45 -3.01)"/><path class="cls-3" d="M314.87,136.3,320,137a1.52,1.52,0,0,1,.83,1.34c.14,1.33.31,2.65.45,4a.57.57,0,0,0,.33.51c.6.32,1.19.67,1.78,1a.51.51,0,0,0,.57,0l3.27-1.43a1.24,1.24,0,0,1,1.76.45l2.55,3.29a1.26,1.26,0,0,1,0,1.85c-.73.93-1.46,1.86-2.2,2.77a.58.58,0,0,0-.1.6c.2.66.39,1.32.55,2a.54.54,0,0,0,.38.43l3.91,1.51a1.23,1.23,0,0,1,.89,1.48l-.54,4.24a1.24,1.24,0,0,1-1.25,1.24c-1.39.16-2.78.31-4.17.49a.74.74,0,0,0-.43.29c-.37.58-.69,1.19-1,1.77a.53.53,0,0,0,0,.57c.47,1.07.94,2.13,1.4,3.2a1.24,1.24,0,0,1-.44,1.77l-3.29,2.54a1.26,1.26,0,0,1-1.85,0c-.9-.7-1.8-1.41-2.68-2.12a.59.59,0,0,0-.63-.11c-.68.22-1.37.41-2.06.58a.54.54,0,0,0-.42.38c-.5,1.31-1,2.61-1.51,3.91a1.22,1.22,0,0,1-1.48.88c-1.42-.17-2.83-.35-4.25-.54a1.23,1.23,0,0,1-1.23-1.25c-.16-1.39-.31-2.78-.49-4.16a.73.73,0,0,0-.29-.44c-.61-.37-1.24-.71-1.84-1.08a.54.54,0,0,0-.57,0c-1,.47-2.08.92-3.13,1.38a1.25,1.25,0,0,1-1.73-.45c-.86-1.1-1.72-2.21-2.57-3.32a1.25,1.25,0,0,1,0-1.82c.69-.88,1.37-1.76,2.07-2.62a.62.62,0,0,0,.12-.66c-.21-.64-.38-1.29-.54-2a.59.59,0,0,0-.42-.48c-1.26-.47-2.51-1-3.77-1.45a1.49,1.49,0,0,1-1.06-1.12l.65-5.09a1.5,1.5,0,0,1,1.31-.82c1.34-.14,2.67-.31,4-.45a.6.6,0,0,0,.52-.37c.27-.52.55-1,.86-1.52a.52.52,0,0,0,0-.56c-.53-1.17-1-2.35-1.55-3.52a1.28,1.28,0,0,1,.45-1.8l3.28-2.55a1.27,1.27,0,0,1,1.85,0c1,.76,1.94,1.52,2.9,2.29a.54.54,0,0,0,.59.1c.7-.21,1.39-.41,2.09-.59a.61.61,0,0,0,.49-.41c.47-1.27,1-2.51,1.44-3.77A1.49,1.49,0,0,1,314.87,136.3ZM323,157.44a8.17,8.17,0,1,0-9.15,7A8.19,8.19,0,0,0,323,157.44Z" transform="translate(-4.45 -3.01)"/><rect class="cls-4" x="82.44" y="93.7" width="195.1" height="124.26" rx="3.35"/><rect class="cls-5" x="88.37" y="104.78" width="183.25" height="96.09"/><path class="cls-5" d="M276.33,204.14H92.56V107.52H276.33Z" transform="translate(-4.45 -3.01)"/><rect class="cls-5" x="88.37" y="97.87" width="183.25" height="6.91"/><path class="cls-2" d="M276.33,108.05H92.56v-7.44H276.33Z" transform="translate(-4.45 -3.01)"/><path class="cls-6" d="M101.43,105.93a1.6,1.6,0,1,1,1.6-1.6A1.6,1.6,0,0,1,101.43,105.93Z" transform="translate(-4.45 -3.01)"/><path class="cls-5" d="M106.76,105.93a1.6,1.6,0,1,1,1.6-1.6A1.6,1.6,0,0,1,106.76,105.93Z" transform="translate(-4.45 -3.01)"/><path class="cls-5" d="M112.09,105.93a1.6,1.6,0,1,1,1.6-1.6A1.6,1.6,0,0,1,112.09,105.93Z" transform="translate(-4.45 -3.01)"/><rect class="cls-7" x="72.82" y="215.87" width="214.34" height="9.94"/><path d="M291.91,229.11H77V218.58H291.91Z" transform="translate(-4.45 -3.01)"/><rect class="cls-5" x="168.41" y="205.59" width="23.16" height="5.56" rx="2.78"/><path class="cls-8" d="M193.59,214.42H175.3a2.7,2.7,0,0,1-2.7-2.7V211a2.7,2.7,0,0,1,2.7-2.7h18.29a2.7,2.7,0,0,1,2.7,2.7v.69A2.7,2.7,0,0,1,193.59,214.42Z" transform="translate(-4.45 -3.01)"/><path class="cls-2" d="M27.05,147.86c1.3-2.68,2.16-6,.22-8.29a6.91,6.91,0,0,0-4.53-2.14,15.69,15.69,0,0,0-5.23.49C12.84,139,8.26,141.28,5.77,145c-1.16,1.72-1.81,3.91-.87,5.71,1.07,2,3.77,2.92,6.27,3.29a30.35,30.35,0,0,0,8.19.08c1.27-.16,4.32-.52,5.64-2.55A33.65,33.65,0,0,0,27.05,147.86Z" transform="translate(-4.45 -3.01)"/><path class="cls-9" d="M176.32,77.25s-3.68,104.78-17.81,127h24.22V74.37Z" transform="translate(-4.45 -3.01)"/><path class="cls-9" d="M101.16,174.82a21.53,21.53,0,0,0-8.6,1.76v27.69h22.37a16.21,16.21,0,0,0,5.78-12.22C120.71,182.53,112,174.82,101.16,174.82Z" transform="translate(-4.45 -3.01)"/><path class="cls-9" d="M126.5,181.15c-9.45,0-17.11,6.75-17.11,15.07a13.75,13.75,0,0,0,2.64,8.05H141a13.75,13.75,0,0,0,2.64-8.05C143.61,187.9,136,181.15,126.5,181.15Z" transform="translate(-4.45 -3.01)"/><path class="cls-9" d="M155.15,163.35c-14.42,0-26.11,10.31-26.11,23,0,7.24,3.79,13.69,9.71,17.91h32.79c5.93-4.22,9.72-10.67,9.72-17.91C181.26,173.66,169.57,163.35,155.15,163.35Z" transform="translate(-4.45 -3.01)"/><path class="cls-9" d="M189.14,77.25s4,104.78,18.13,127H182.73V74.37Z" transform="translate(-4.45 -3.01)"/><path class="cls-9" d="M267.79,174.82a21.56,21.56,0,0,1,8.6,1.76v27.69H254a16.23,16.23,0,0,1-5.77-12.22C248.24,182.53,257,174.82,267.79,174.82Z" transform="translate(-4.45 -3.01)"/><path class="cls-9" d="M242.45,181.15c9.45,0,17.11,6.75,17.11,15.07a13.75,13.75,0,0,1-2.64,8.05H228a13.75,13.75,0,0,1-2.64-8.05C225.33,187.9,233,181.15,242.45,181.15Z" transform="translate(-4.45 -3.01)"/><path class="cls-9" d="M213.8,163.35c14.42,0,26.11,10.31,26.11,23,0,7.24-3.79,13.69-9.72,17.91H197.4c-5.92-4.22-9.71-10.67-9.71-17.91C187.69,173.66,199.38,163.35,213.8,163.35Z" transform="translate(-4.45 -3.01)"/><path class="cls-6" d="M194.59,113.47l-11.18-4.56-11.18,4.56s-13.64,18.15,11.18,41.87C208.23,131.62,194.59,113.47,194.59,113.47Z" transform="translate(-4.45 -3.01)"/><path class="cls-10" d="M190.93,115.54l-7.52-3.07-7.53,3.07s-9.18,12.22,7.53,28.18C200.11,127.76,190.93,115.54,190.93,115.54Z" transform="translate(-4.45 -3.01)"/><path class="cls-11" d="M186.63,111.27l-3.22-2.36-3.23,2.36s-3.93,9.4,3.23,21.69C190.56,120.67,186.63,111.27,186.63,111.27Z" transform="translate(-4.45 -3.01)"/><path class="cls-12" d="M198.62,108.91s14.78-2.09,20.32,14h0a32,32,0,0,0-.08-16.54c-1.82-6.61-5.23-15.54-11.48-23.14C195.85,69.19,198.62,108.91,198.62,108.91Z" transform="translate(-4.45 -3.01)"/><path class="cls-12" d="M168.19,108.91s-14.78-2.09-20.32,14h0a32,32,0,0,1,.09-16.54c1.82-6.61,5.23-15.54,11.47-23.14C171,69.19,168.19,108.91,168.19,108.91Z" transform="translate(-4.45 -3.01)"/><path class="cls-13" d="M207.29,65.79C206.1,31.52,193,15.39,183.4,3c-9.55,12.38-22.68,28.51-23.87,62.78s9.28,50.63,9.28,50.63H198S208.48,100.06,207.29,65.79Z" transform="translate(-4.45 -3.01)"/><path class="cls-12" d="M183.41,122.89V83.21S174.91,106.48,183.41,122.89Z" transform="translate(-4.45 -3.01)"/><path class="cls-12" d="M203.1,38.39C198.18,21.74,190,11.49,183.4,3c-6.5,8.41-14.64,18.57-19.57,35A58.28,58.28,0,0,0,203.1,38.39Z" transform="translate(-4.45 -3.01)"/><path class="cls-12" d="M183.41,83.21v39.68C191.9,106.48,183.41,83.21,183.41,83.21Z" transform="translate(-4.45 -3.01)"/><ellipse class="cls-5" cx="180.04" cy="55.9" rx="8.96" ry="8.83"/><path class="cls-14" d="M92.56,204.27h96a19.81,19.81,0,0,0-15.07-6.74h-.4v-.37c0-9.92-8.64-18-19.3-18a19.3,19.3,0,0,0-18,11.58,18.06,18.06,0,0,0-9.22-2.49,17.73,17.73,0,0,0-12.51,5,12.9,12.9,0,0,0-11.52-6.73A13.16,13.16,0,0,0,92.56,191Z" transform="translate(-4.45 -3.01)"/><path class="cls-14" d="M276.39,204.27v-15a13.34,13.34,0,0,0-8.05-2.66,12.87,12.87,0,0,0-11.67,7,17.54,17.54,0,0,0-14.22-7,18.07,18.07,0,0,0-8.8,2.26c-1.85-6.94-8.59-12.07-16.61-12.07-9.45,0-17.11,7.13-17.11,15.93a15.17,15.17,0,0,0,.4,3.46,5.79,5.79,0,0,0-5,5.56,5.36,5.36,0,0,0,.65,2.54Z" transform="translate(-4.45 -3.01)"/><path class="cls-15" d="M34.77,123.44c.76,0,3.71-.25,4.48-.29.17.72-1,10.06-1.31,12.5a26.6,26.6,0,0,0,2.31,6.24c.19.32-2.67,4.17-3.32,5.59,0,0-.37,1.64-.4,1.67A6.17,6.17,0,0,1,35.06,147c-.65-1.32-2.73-7.12-2.85-8.75C32.1,136.9,33.64,126.39,34.77,123.44Z" transform="translate(-4.45 -3.01)"/><path class="cls-6" d="M21.24,194c.26-2.29,1.41-4.65,3.92-5a6.3,6.3,0,0,1,4,1c2.76,1.65,7.25,6.93,10,2.27A18.06,18.06,0,0,0,40.91,187c.87-4,1.66-8,2.64-12l.39-1.15a68.47,68.47,0,0,0,9.8,1,26.13,26.13,0,0,0,9-1.27c.53-.17,1.06-.32,1.59-.47,4.49,5.53,7.55,11.79,10.82,18.07,3,5.7,7.48,10.36,11,15.69,3.12,4.71,7,11.89,2.91,17.18a18.66,18.66,0,0,1-1.77,1.89,8.5,8.5,0,0,1-2.26,1.39,11.78,11.78,0,0,1-1.17.17,10.56,10.56,0,0,1-9.33-4.38,27.29,27.29,0,0,1-3.64-6.28c-1.81-4.13-3.31-8.38-4.94-12.58a30.22,30.22,0,0,0-4.44-7.89,7.51,7.51,0,0,0-2.34-2c-2.42-1.29-4.38.4-5.26,2.62-1.82,4.59-3.28,9.44-6.85,13.05a11.37,11.37,0,0,1-7.59,3.6c-6,.16-12.3-5.33-15.88-9.71C22.08,202,20.83,197.59,21.24,194Z" transform="translate(-4.45 -3.01)"/><path class="cls-5" d="M40.66,142.72l.26.24A14.55,14.55,0,0,0,42.06,144a19.47,19.47,0,0,1,2.48,2.41.89.89,0,0,0,.75.32c1,0,1.89,0,2.83.11.53,0,1.37-.45,1.68.11,0,.07-.14.52,0,.55a2.17,2.17,0,0,0,2.27,2.1,2.06,2.06,0,0,0,2-2.23c.17-.35.46-.38.8-.33,1.46.2,2.94.06,4.41.15.93.06,1.86-.89,2.52-1.44,1.34-1.14,2.61-1.45,4-2.48.14-.11.27-.27.54-.17.22.88.46,1.8.69,2.71.32,1.62.63,3.25.95,4.87a1.41,1.41,0,0,1-.68,1.61l-.7.51a14,14,0,0,1-4.09,1.84.64.64,0,0,0-.55.77c.06,1.24.14,2.48.31,3.7a29.61,29.61,0,0,0,1.43,6.38c.72,1.87,1.3,3.79,2.2,5.58.33.69.18,1.06-.5,1.43-.34.19-.7.35-1,.53-.53.15-1.06.3-1.59.47a26.13,26.13,0,0,1-9,1.27,65.18,65.18,0,0,1-10.52-1.1c-1.81-.87-2-1.25-1.48-3.22a32.37,32.37,0,0,0,1.07-6.93c.08-2.55-.14-5.1-.14-7.66a1.24,1.24,0,0,0-.81-1.26,11.77,11.77,0,0,1-2.12-1.22,11,11,0,0,1-3-3.93,1.8,1.8,0,0,1-.22-1.39A64.91,64.91,0,0,1,40.66,142.72Z" transform="translate(-4.45 -3.01)"/><path class="cls-15" d="M71.9,135.34c.07-1.87,2.11-11,1.89-11.6.7.26,1.62,1.79,2.31,1.65a3.63,3.63,0,0,0,.05.65c.41,2.29.85,4.56,1.08,6.87a14.07,14.07,0,0,1-.89,7.29c-.53,1.2-1.08,2.4-1.63,3.6a5,5,0,0,1-.44.74A25.26,25.26,0,0,1,68,150.72c-.32-1.62-2.12-5.29-2.44-6.91A89.87,89.87,0,0,0,71.9,135.34Z" transform="translate(-4.45 -3.01)"/><path class="cls-15" d="M49.76,147.54a2.17,2.17,0,0,0,2.28,2.1,2.06,2.06,0,0,0,2-2.23,2,2,0,0,1-1-2.08.59.59,0,0,1,.31-.42,3.26,3.26,0,0,0,1-1c.29-.47.42-1,1.15-1.11.4,0,.54-.55.53-1s-.18-1-.78-1.13c-.38.25-.65.16-.77-.28a.6.6,0,0,0-.68-.5c-.23,0-.46-.11-.7-.12a2.13,2.13,0,0,1-2.1-1.6s-.08-.05-.15-.09a1.32,1.32,0,0,0-.7,1.06c-.12.57-.19,1.14-.32,1.71-.16.72-.37.82-1.12.62a1.1,1.1,0,0,0-.48,1.42,1,1,0,0,0,1.1.82.6.6,0,0,1,.63.36c.08.14.19.25.28.38s.6.39.54.81a3.06,3.06,0,0,1-.54,1.7C50.08,147.19,49.92,147.36,49.76,147.54Z" transform="translate(-4.45 -3.01)"/><path class="cls-16" d="M89.1,224a18.66,18.66,0,0,1-1.77,1.89,8.5,8.5,0,0,1-2.26,1.39.38.38,0,0,1,.32.38,11.35,11.35,0,0,0,.16,1.17c.34,1.6,1.36,2.24,2.9,1.52a9.38,9.38,0,0,0,2.13-1.74A9.28,9.28,0,0,1,93,227a13.31,13.31,0,0,0,2.21-1.24A2.72,2.72,0,0,0,96,225a1.23,1.23,0,0,0-.94-1.89,3.13,3.13,0,0,0-1.1.06l-3.79.8A5.86,5.86,0,0,1,89.1,224Z" transform="translate(-4.45 -3.01)"/><path class="cls-16" d="M21.45,194.06c.12-.56.21-1.13.36-1.68.56-2.13,1.78-3.37,4.1-3.38a1.54,1.54,0,0,0,.31-.05,3.2,3.2,0,0,0-2.86-1.33,4.31,4.31,0,0,0-2.07.71c-.57.38-1.11.8-1.65,1.21a27.37,27.37,0,0,1-3.16,1.8,5.45,5.45,0,0,0-1.18.77,1.45,1.45,0,0,0,0,2.43,2.58,2.58,0,0,0,2.14.56A17,17,0,0,0,21.45,194.06Z" transform="translate(-4.45 -3.01)"/><path class="cls-15" d="M49,141.29a.6.6,0,0,1,.27.06c0-2.28,1.32-4.11,2.9-4.11,1.42,0,2.59,1.47,2.85,3.42l.14,0c.53,0,1,.61,1,1.35s-.42,1.35-1,1.35a.66.66,0,0,1-.36-.11,2.74,2.74,0,0,1-2.63,2.44,2.86,2.86,0,0,1-2.45-2,.89.89,0,0,1-.72.44c-.55,0-1-.64-1-1.43S48.47,141.29,49,141.29Z" transform="translate(-4.45 -3.01)"/><path class="cls-4" d="M48.72,141.37a.78.78,0,0,1,.87.4,20,20,0,0,0,.48-2.45,1.67,1.67,0,0,0,1.46.77,4.93,4.93,0,0,0,1.68-.34,1.46,1.46,0,0,0,.25,1.15,1.14,1.14,0,0,0,1.06.46,1.16,1.16,0,0,0,.86-.7,1.57,1.57,0,0,0,0-1.13,1.69,1.69,0,0,0,1.33-.95,2.4,2.4,0,0,0,.12-1.67,1.2,1.2,0,0,0-.27-.54,1.61,1.61,0,0,0-1-.38,1.73,1.73,0,0,0,.68-1.79,1.8,1.8,0,0,0-1.42-1.32A1.39,1.39,0,0,0,54,133a.94.94,0,0,0-.51.56,4.62,4.62,0,0,0,.21-1.38,1.91,1.91,0,0,0-.45-1.24,1.89,1.89,0,0,0-1-.55,2.52,2.52,0,0,0-2.55,1.15,4.57,4.57,0,0,0-.25,3.1c.11.64.24,1.27.39,1.9a.57.57,0,0,0-.84-.15,1.5,1.5,0,0,0-.49.84A6.39,6.39,0,0,0,48.72,141.37Z" transform="translate(-4.45 -3.01)"/><path class="cls-17" d="M59.25,174.69a21,21,0,0,1,1.83,8.24,60.21,60.21,0,0,1,0,8.28c0,.31.45.31.48,0a59.16,59.16,0,0,0,0-8.93,20.55,20.55,0,0,0-1.84-7.84c-.14-.27-.56,0-.42.25Z" transform="translate(-4.45 -3.01)"/><path class="cls-17" d="M56.52,175a44.29,44.29,0,0,1,.26,17.17c-.05.3.41.43.46.13A45,45,0,0,0,57,174.9c-.07-.3-.54-.17-.47.13Z" transform="translate(-4.45 -3.01)"/><path class="cls-17" d="M62.77,191.21a10.3,10.3,0,0,0-4.87.35,6,6,0,0,0-2.55,2,16,16,0,0,0-2.76,6.32.24.24,0,0,0,.47.13,16,16,0,0,1,2.51-6,5.8,5.8,0,0,1,2.57-2,10.2,10.2,0,0,1,4.63-.29c.31,0,.31-.44,0-.48Z" transform="translate(-4.45 -3.01)"/><path class="cls-17" d="M50.23,174.94a22,22,0,0,1-3,5.29c-1.3,1.54-3.43,3.09-5.54,2.31-.29-.11-.42.36-.13.46,2.13.79,4.34-.59,5.74-2.12a20.67,20.67,0,0,0,3.34-5.7c.13-.28-.28-.53-.41-.24Z" transform="translate(-4.45 -3.01)"/><path class="cls-17" d="M61.57,174.25a19.62,19.62,0,0,0,3.24,4.94,8.47,8.47,0,0,0,2.12,1.59,6.72,6.72,0,0,0,1.22.48c.42.12,1,.1,1.37.41s.57-.13.34-.34a2,2,0,0,0-1.09-.41,6.81,6.81,0,0,1-1.26-.39,7.82,7.82,0,0,1-2.27-1.59A18.78,18.78,0,0,1,62,174c-.14-.27-.55,0-.41.24Z" transform="translate(-4.45 -3.01)"/><path class="cls-17" d="M59.58,192.17c6.51,5.23,9.47,13,13,20.28a30.18,30.18,0,0,0,6.49,9.41c2.4,2.18,5.87,4.31,9.23,3.45a.24.24,0,0,0-.12-.46c-3.88,1-7.88-2.16-10.29-4.87-2.66-3-4.41-6.65-6.06-10.27-3-6.55-6.17-13.26-11.91-17.88-.24-.19-.58.15-.34.34Z" transform="translate(-4.45 -3.01)"/><path class="cls-17" d="M43.63,182.86l-1.24,6.4-.61,3.12a2.05,2.05,0,0,1-1,1.67c-.36.19-.72.38-1.07.6-2.44,1.54-4.45,3.95-4.55,6.94,0,.31.47.31.48,0a7.18,7.18,0,0,1,2-4.63,10.64,10.64,0,0,1,1.94-1.66c.63-.43,1.41-.69,2-1.16s.51-1.06.62-1.64l.61-3.11L44.09,183c.06-.3-.4-.43-.46-.12Z" transform="translate(-4.45 -3.01)"/><path class="cls-17" d="M36,198.63a31.67,31.67,0,0,0-6.08-5.36c-2-1.35-4.28-2.84-6.74-3-.31,0-.31.46,0,.48a8.65,8.65,0,0,1,3.39,1.12,30.88,30.88,0,0,1,3.28,2A31.41,31.41,0,0,1,35.61,199c.2.23.54-.11.34-.34Z" transform="translate(-4.45 -3.01)"/><path class="cls-18" d="M96,223.86a27.91,27.91,0,0,0-5.13,2.63c-.76.5-1.5,1-2.21,1.61s-1.69,1.53-2.78,1.38c-.3,0-.44.42-.13.46a3.12,3.12,0,0,0,2.33-.77c.82-.62,1.6-1.28,2.44-1.87a28.18,28.18,0,0,1,5.61-3c.28-.11.16-.58-.13-.46Z" transform="translate(-4.45 -3.01)"/><path class="cls-18" d="M92.12,222.34a10.16,10.16,0,0,0-.55,2.5.24.24,0,1,0,.48,0,10.05,10.05,0,0,1,.53-2.37.24.24,0,0,0-.16-.3.26.26,0,0,0-.3.17Z" transform="translate(-4.45 -3.01)"/><path class="cls-18" d="M91.1,222.34a11.24,11.24,0,0,1-.88,2.76.25.25,0,0,0,.09.33.25.25,0,0,0,.33-.09,11.58,11.58,0,0,0,.92-2.87.25.25,0,0,0-.17-.3.24.24,0,0,0-.29.17Z" transform="translate(-4.45 -3.01)"/><path class="cls-18" d="M24.85,187.48a3.83,3.83,0,0,0-2.32,1A16.93,16.93,0,0,1,20,190.37c-1.77.94-3.8,1.41-5.27,2.85-.22.21.12.55.34.34,1.4-1.36,3.34-1.84,5-2.71a10.74,10.74,0,0,0,2.18-1.54A4.19,4.19,0,0,1,24.85,188c.31,0,.31-.49,0-.48Z" transform="translate(-4.45 -3.01)"/><path class="cls-18" d="M65.54,144.34a31.58,31.58,0,0,0-5.49,3.9c-.23.21.11.55.34.34a31.3,31.3,0,0,1,5.39-3.82.24.24,0,0,0-.24-.42Z" transform="translate(-4.45 -3.01)"/><path class="cls-18" d="M60.27,148.21a45.79,45.79,0,0,0-6.83.11c-.3,0-.3.5,0,.48a45.79,45.79,0,0,1,6.83-.11c.3,0,.3-.46,0-.48Z" transform="translate(-4.45 -3.01)"/><path class="cls-18" d="M65.31,143.31A21.46,21.46,0,0,0,60,147c-.23.21.11.55.34.34a21.07,21.07,0,0,1,5.19-3.58c.28-.14,0-.55-.24-.42Z" transform="translate(-4.45 -3.01)"/><path class="cls-18" d="M60.07,146.88H54.21a.24.24,0,0,0,0,.48h5.86a.24.24,0,0,0,0-.48Z" transform="translate(-4.45 -3.01)"/><path class="cls-18" d="M49.8,146.75c-1.68-.07-3.35-.09-5-.06a.24.24,0,0,0-.12.45l.11.09c.25.19.49-.23.25-.41l-.12-.09-.12.44c1.67,0,3.34,0,5,.06.3,0,.3-.47,0-.48Z" transform="translate(-4.45 -3.01)"/><path class="cls-18" d="M45.08,146.82a16.56,16.56,0,0,0-4.47-4.16c-.26-.17-.5.25-.24.41a16,16,0,0,1,4.3,4c.18.25.6,0,.41-.24Z" transform="translate(-4.45 -3.01)"/><path class="cls-18" d="M50,147.94l-5.87-.36c-.3,0-.3.46,0,.48l5.87.36c.3,0,.3-.46,0-.48Z" transform="translate(-4.45 -3.01)"/><path class="cls-18" d="M44.56,147.74a16.06,16.06,0,0,0-4.74-4c-.27-.15-.51.26-.24.41a15.86,15.86,0,0,1,4.64,3.91c.19.24.53-.1.34-.34Z" transform="translate(-4.45 -3.01)"/><path class="cls-18" d="M53.64,146.75a4.84,4.84,0,0,0-.13.94,1.21,1.21,0,0,1-.2.63,1.72,1.72,0,0,1-1.26.38,1.5,1.5,0,0,1-1.4-.44,3,3,0,0,1-.37-1.76.48.48,0,0,0-1,0,3.84,3.84,0,0,0,.54,2.3,2.37,2.37,0,0,0,2.12.87,2.9,2.9,0,0,0,2-.61,1.74,1.74,0,0,0,.49-1c.06-.36,0-.73.14-1.09a.48.48,0,0,0-.92-.25Z" transform="translate(-4.45 -3.01)"/><path class="cls-19" d="M65.31,142.93a57.43,57.43,0,0,0,2.25,9c.4,1.17,2.26.67,1.86-.51a56.36,56.36,0,0,1-2.26-9,1,1,0,0,0-1.18-.67,1,1,0,0,0-.67,1.18Z" transform="translate(-4.45 -3.01)"/><path class="cls-19" d="M39.56,141.37l-4.32,6.89a1,1,0,0,0,1.51,1.16l.18-.18c.89-.86-.47-2.22-1.36-1.35l-.18.18,1.51,1.16,4.32-6.89a1,1,0,0,0-1.66-1Z" transform="translate(-4.45 -3.01)"/><path class="cls-18" d="M18.84,192.56v2.56a.24.24,0,0,0,.48,0v-2.56a.24.24,0,0,0-.48,0Z" transform="translate(-4.45 -3.01)"/><path class="cls-18" d="M17.11,194.15c.05.21.1.43.14.65l.06.33a.77.77,0,0,1,0,.15v.13s0,0,0,0a.26.26,0,0,0,.24.24c.12,0,.26-.11.24-.24a11,11,0,0,0-.26-1.41.24.24,0,0,0-.29-.17.25.25,0,0,0-.17.3Z" transform="translate(-4.45 -3.01)"/><path class="cls-15" d="M72.84,131.21s-1.68-7.89-1.13-8.39c0,0,1-.46,1.32.05l.55,1.19.89-3.42a.57.57,0,0,1,.67-.23s.84.19.88.49l.43-.78a.75.75,0,0,1,.85-.2s.7.32.71.67l.83.32s.42.1.29.7l-2.4,7.62" transform="translate(-4.45 -3.01)"/><line class="cls-20" x1="72.34" y1="121.22" x2="73.56" y2="117.58"/><line class="cls-20" x1="70.46" y1="121.46" x2="71.68" y2="117.68"/><path class="cls-15" d="M38.9,126.16s1.68-7.89,1.13-8.39c0,0-1-.46-1.32.06L38.16,119l-.89-3.42a.6.6,0,0,0-.68-.24s-.83.2-.87.49l-.43-.77a.73.73,0,0,0-.85-.2s-.7.32-.71.66l-.83.33s-.42.1-.29.7l2.4,7.61" transform="translate(-4.45 -3.01)"/><line class="cls-20" x1="30.49" y1="116.18" x2="29.27" y2="112.54"/><line class="cls-20" x1="32.37" y1="116.41" x2="31.15" y2="112.64"/><path class="cls-21" d="M54.43,120.72s-6.61-7.16-5.41-13.94,6.08-7.06,8.76-7.06,9,2.32,8.81,8.08S61.12,121,61.12,121,55.38,121.86,54.43,120.72Z" transform="translate(-4.45 -3.01)"/><path class="cls-22" d="M58.07,111.81a2,2,0,0,1,.79.24,1.91,1.91,0,0,1,.36-.13,1.7,1.7,0,0,1,1.78,1c1,1.66.73,4.75-2.06,7.88a.34.34,0,0,1-.47,0,.33.33,0,0,1,0-.46c2.95-3.29,2.64-6,2-7.11a1.14,1.14,0,0,0-1-.69,2.05,2.05,0,0,1,.33.6,1.4,1.4,0,0,1-.39,1.52.7.7,0,0,1-.82.12,1.51,1.51,0,0,1-.57-1.51,1.59,1.59,0,0,1,.29-.77l-.28-.05a3.38,3.38,0,0,0-1.44.15,1.62,1.62,0,0,1,.71,1.19,1,1,0,0,1-.83,1.17c-.47,0-1-.31-1.19-1.21a1.78,1.78,0,0,1,0-.61,2,2,0,0,0-.62,1c-.7,2.11,2.11,6.2,2.14,6.24a.33.33,0,0,1-.54.38c-.12-.18-3-4.41-2.22-6.83.46-1.37,1.24-1.59,1.69-1.59h0a2.94,2.94,0,0,1,1.88-.55A3.24,3.24,0,0,1,58.07,111.81Zm.9,2.36a.75.75,0,0,0,.19-.82,1.31,1.31,0,0,0-.31-.49,1.08,1.08,0,0,0,0,1.35,0,0,0,0,0,0,0A.15.15,0,0,0,59,114.17Zm-2.59.15c.13,0,.26-.17.25-.48a1,1,0,0,0-.63-.79.87.87,0,0,0-.09.61c.07.44.27.66.45.66Z" transform="translate(-4.45 -3.01)"/><ellipse class="cls-23" cx="53.32" cy="122.59" rx="2.18" ry="0.95"/><path class="cls-24" d="M54.43,120.72a34.4,34.4,0,0,0,0,4.69c.21.8,6.22.51,6.57.09s.19-4.26.12-4.55C61.12,121,59.14,120.38,54.43,120.72Z" transform="translate(-4.45 -3.01)"/><path class="cls-23" d="M61.35,122.23c-.8.9-6.64.17-7.06-.29s-.33-1.38.7-.8a11.65,11.65,0,0,0,5.57.4C61.4,121.19,61.71,121.83,61.35,122.23Z" transform="translate(-4.45 -3.01)"/><path class="cls-23" d="M61.35,123.65c-.8.89-6.64.17-7.06-.29s-.33-1.38.7-.81a11.66,11.66,0,0,0,5.57.41C61.4,122.61,61.71,123.25,61.35,123.65Z" transform="translate(-4.45 -3.01)"/><path class="cls-23" d="M61.35,125.07c-.8.89-6.64.17-7.06-.29s-.33-1.39.7-.81a11.52,11.52,0,0,0,5.57.4C61.4,124,61.71,124.66,61.35,125.07Z" transform="translate(-4.45 -3.01)"/><g class="cls-25"><circle class="cls-26" cx="54.38" cy="99.06" r="0.73"/></g><g class="cls-25"><path class="cls-26" d="M60.7,102.51a.44.44,0,1,0-.87,0,.44.44,0,0,0,.87,0Z" transform="translate(-4.45 -3.01)"/></g><path class="cls-26" d="M57,103.49c-.37.64-1.25.74-1.87,1.15-1,.67-1.22,2.09-1.91,3.12a1,1,0,0,1-.77.56,1,1,0,0,1-.79-.59,3,3,0,0,1-.29-1.46,4.84,4.84,0,0,1,3.09-4.33c.87-.33,2.37-.34,2.64.8A1.09,1.09,0,0,1,57,103.49Z" transform="translate(-4.45 -3.01)"/><path class="cls-27" d="M44.75,103.83A7.27,7.27,0,0,0,42,102.37" transform="translate(-4.45 -3.01)"/><path class="cls-27" d="M45.47,115.11a3.61,3.61,0,0,0-2.91,2" transform="translate(-4.45 -3.01)"/><path class="cls-27" d="M55.72,95a2.62,2.62,0,0,0-.9-3.32" transform="translate(-4.45 -3.01)"/><path class="cls-27" d="M68.86,95.75l-1.88,2" transform="translate(-4.45 -3.01)"/><path class="cls-27" d="M75.08,109.74a4,4,0,0,0-3-1.28" transform="translate(-4.45 -3.01)"/><path class="cls-27" d="M71.77,118.84a6.16,6.16,0,0,0-3.34-3.33" transform="translate(-4.45 -3.01)"/><path class="cls-28" d="M84.64,100.45c.18-.68,10.55-16.54,11.33-16.9.29-.13,2.89,1.23,5.45,3.21L94.73,97s-6.56,4.1-7.46,4.4S84.47,101.12,84.64,100.45Z" transform="translate(-4.45 -3.01)"/><path class="cls-29" d="M85.43,100.63C87.23,98,94.26,87.3,95.84,84.57c0,0,0,0,0,0C94,87.12,87,97.89,85.38,100.61,85.35,100.66,85.39,100.69,85.43,100.63Z" transform="translate(-4.45 -3.01)"/><path class="cls-29" d="M88.51,100.73a2.53,2.53,0,0,0,.39-2,2.49,2.49,0,0,0-1-1.53s0,0,0,0a3,3,0,0,1,.63,3.48S88.49,100.75,88.51,100.73Z" transform="translate(-4.45 -3.01)"/><path class="cls-29" d="M93.91,97.64a4.38,4.38,0,0,0,.71-3.76,0,0,0,0,0-.09,0,17.11,17.11,0,0,1-.76,3.67A.08.08,0,0,0,93.91,97.64Z" transform="translate(-4.45 -3.01)"/><path class="cls-29" d="M93.06,98.25a4.41,4.41,0,0,0,.7-3.76s-.08,0-.09,0a17.2,17.2,0,0,1-.76,3.68A.08.08,0,0,0,93.06,98.25Z" transform="translate(-4.45 -3.01)"/><path class="cls-29" d="M92.2,98.87a4.44,4.44,0,0,0,.7-3.77s-.08,0-.09,0a17.81,17.81,0,0,1-.75,3.68A.08.08,0,0,0,92.2,98.87Z" transform="translate(-4.45 -3.01)"/><path class="cls-29" d="M91.34,99.48a4.47,4.47,0,0,0,.71-3.77,0,0,0,0,0-.09,0,17.69,17.69,0,0,1-.76,3.68A.08.08,0,0,0,91.34,99.48Z" transform="translate(-4.45 -3.01)"/><path class="cls-29" d="M97.92,86.9a1.11,1.11,0,0,0-1.86-1.21A1.11,1.11,0,0,0,97.92,86.9Z" transform="translate(-4.45 -3.01)"/><path class="cls-29" d="M96,100.65c.8-.25.81-1.21.56-1.85a6.65,6.65,0,0,0-2.09-2.74s0,0,0,0a.15.15,0,0,0-.21.14,10.92,10.92,0,0,0,.29,3.33C94.71,100.16,95.25,100.88,96,100.65Zm-1.41-2.79c0-.54,0-1.08-.07-1.62.4.54.83,1.06,1.18,1.64a7,7,0,0,1,.47.85c.2.46.4,2.09-.82,1.44C94.67,99.81,94.63,98.51,94.59,97.86Z" transform="translate(-4.45 -3.01)"/><path class="cls-29" d="M95.81,93.15a11.42,11.42,0,0,0-1.57,3,.16.16,0,0,0,.15.21s0,0,0,0a6.77,6.77,0,0,0,3-1.72c.47-.49.84-1.38.2-1.92S96.24,92.67,95.81,93.15Zm1-.24c1.39-.13.56,1.29.2,1.64a7.51,7.51,0,0,1-.76.61,16.87,16.87,0,0,1-1.73,1c.26-.48.47-1,.7-1.46S96.07,93,96.83,92.91Z" transform="translate(-4.45 -3.01)"/><path class="cls-30" d="M108.22,81.83S123,74.93,129.66,75c7.88,0,14.07,9.36,4.44,16.17-8.5,6-35.43,5.75-35.43,5.75l6.22-11.34a57.56,57.56,0,0,1,17.16-3.3L108.48,85.1Z" transform="translate(-4.45 -3.01)"/><path class="cls-31" d="M108.51,84.08c1.17-.3,2.35-.51,3.53-.73s2.39-.42,3.58-.61c2.39-.37,4.8-.64,7.21-.78l.68,0,.14,0,.35-.1.64-.16c.45-.1.91-.18,1.36-.3,0,0,0,0,0,0-.45.14-.89.3-1.34.43l-.39.12q1.34,0,2.67,0s0,0,0,0c-1.21,0-2.42.1-3.62.2s-2.38.22-3.57.37c-2.4.31-4.79.7-7.17,1.13-1.34.23-2.68.5-4,.65C108.43,84.32,108.38,84.11,108.51,84.08Z" transform="translate(-4.45 -3.01)"/><path class="cls-4" d="M101.41,96.36c.38-.72.69-1.48,1-2.22l1-2.23c.7-1.48,3.2-6.46,3.45-6.82a0,0,0,0,1,0,0c-.11.38-1.65,3.67-2,4.41-.72,1.47-1.48,2.91-2.23,4.37l-.65,1.24c-.21.41-.45.82-.64,1.24C101.43,96.41,101.39,96.39,101.41,96.36Z" transform="translate(-4.45 -3.01)"/><path class="cls-15" d="M136.5,100.05c-.2-.65-11.26-16-12-16.31-.09,0-5.28,3.47-5.28,3.47-.22.27-9.87-2-9.87-2l-.38,11.7,17.69,0s2.35,1.46,4.51,2.65h0a29,29,0,0,0,2.84,1.47C134.86,101.31,136.7,100.7,136.5,100.05Z" transform="translate(-4.45 -3.01)"/><path class="cls-28" d="M136.6,100.07c-.21-.66-11.32-16-12.11-16.33-.3-.12-2.84,1.36-5.3,3.47l7.17,9.89s6.75,3.78,7.66,4S136.81,100.74,136.6,100.07Z" transform="translate(-4.45 -3.01)"/><path class="cls-29" d="M135.83,100.3c-1.93-2.53-9.46-12.9-11.17-15.55,0,0,0,0,0,0,2,2.46,9.41,12.9,11.19,15.53C135.91,100.32,135.87,100.35,135.83,100.3Z" transform="translate(-4.45 -3.01)"/><path class="cls-29" d="M132.75,100.54a2.53,2.53,0,0,1-.48-2,2.47,2.47,0,0,1,.95-1.57s0,0,0,0a3,3,0,0,0-.46,3.51S132.77,100.56,132.75,100.54Z" transform="translate(-4.45 -3.01)"/><path class="cls-29" d="M127.21,97.72a4.43,4.43,0,0,1-.88-3.73s.08,0,.08,0a17.55,17.55,0,0,0,.94,3.64A.08.08,0,0,1,127.21,97.72Z" transform="translate(-4.45 -3.01)"/><path class="cls-29" d="M128.09,98.29a4.43,4.43,0,0,1-.88-3.73s.08,0,.09,0a17.6,17.6,0,0,0,.93,3.63A.08.08,0,0,1,128.09,98.29Z" transform="translate(-4.45 -3.01)"/><path class="cls-29" d="M129,98.86a4.43,4.43,0,0,1-.88-3.73s.08,0,.09,0a17,17,0,0,0,.93,3.63A.08.08,0,0,1,129,98.86Z" transform="translate(-4.45 -3.01)"/><path class="cls-29" d="M129.86,99.43A4.43,4.43,0,0,1,129,95.7a0,0,0,0,1,.09,0,18.26,18.26,0,0,0,.93,3.63A.08.08,0,0,1,129.86,99.43Z" transform="translate(-4.45 -3.01)"/><path class="cls-29" d="M122.69,87.18a1.11,1.11,0,0,1,1.8-1.3A1.11,1.11,0,0,1,122.69,87.18Z" transform="translate(-4.45 -3.01)"/><path class="cls-29" d="M126.72,99.64a11.05,11.05,0,0,0,.12-3.35c0-.11-.12-.15-.21-.12s0,0-.06,0A6.68,6.68,0,0,0,124.62,99c-.22.65-.16,1.61.65,1.82S126.53,100.27,126.72,99.64Zm-.82.67c-1.2.71-1.07-.93-.89-1.4a7.85,7.85,0,0,1,.42-.88,18.76,18.76,0,0,1,1.11-1.68c0,.54,0,1.08,0,1.62S126.56,99.92,125.9,100.31Z" transform="translate(-4.45 -3.01)"/><path class="cls-29" d="M123.27,93c-.61.56-.2,1.44.29,1.9a6.74,6.74,0,0,0,3.07,1.58,0,0,0,0,0,0,0,.15.15,0,0,0,.14-.21,11.36,11.36,0,0,0-1.71-2.89C124.64,92.86,123.85,92.44,123.27,93Zm2.47,1.9c.26.48.49,1,.77,1.43a18.83,18.83,0,0,1-1.77-1,7.56,7.56,0,0,1-.79-.57c-.38-.33-1.27-1.71.12-1.65C124.83,93.16,125.43,94.31,125.74,94.88Z" transform="translate(-4.45 -3.01)"/><path class="cls-30" d="M108.87,81.6s-15-4.5-23-3.55c-7.82.93-11,10.75-3.4,16.07,8.33,5.8,39.71,3.77,39.71,3.77l-6.7-12a99.56,99.56,0,0,0-20.43-2.42l13.69,2.2Z" transform="translate(-4.45 -3.01)"/><path class="cls-31" d="M116,86.67s0,0,0-.06v0l0-.12c0-.08-.05-.15-.07-.23a2.29,2.29,0,0,0-.1-.23,2.25,2.25,0,0,0-.12-.21h-.07c-1.17-.24-9.17-1.58-10.36-1.75s-2.4-.3-3.61-.43a70,70,0,0,0-7.23-.43c-.23,0-.45,0-.68,0l-.15,0L93.16,83l-.65-.12c-.45-.08-.91-.14-1.36-.23a0,0,0,0,0,0,0c.46.11.9.25,1.36.36l.39.1c-.88,0-1.77.07-2.65.13,0,0,0,0,0,0,1.21,0,2.42,0,3.62,0s2.4.1,3.59.2c2.41.19,4.82.47,7.22.78,1.35.17,9.5,1.56,10.86,1.65h0a.42.42,0,0,0,0,.1,2.26,2.26,0,0,0,.11.22,2.12,2.12,0,0,0,.11.21.86.86,0,0,1,.07.1l0,0s0,0,0,.06S116,86.7,116,86.67Z" transform="translate(-4.45 -3.01)"/><path class="cls-31" d="M119.71,97.11c-.42-.7-.77-1.45-1.15-2.17l-1.14-2.17c-.76-1.44-3.5-6.3-3.77-6.65,0,0-.06,0-.05,0,.13.37,1.83,3.59,2.23,4.31.78,1.43,1.61,2.84,2.42,4.26l.72,1.2c.23.41.48.8.7,1.22C119.68,97.16,119.72,97.14,119.71,97.11Z" transform="translate(-4.45 -3.01)"/><path class="cls-32" d="M99.76,55.34a5.62,5.62,0,0,0-5.06,1.32A3,3,0,0,0,93.89,58a3.47,3.47,0,0,0,.18,2,8.07,8.07,0,0,0,3.09,3.1,6.71,6.71,0,0,0,3.54.81" transform="translate(-4.45 -3.01)"/><path class="cls-4" d="M104.1,48A2.21,2.21,0,0,0,103,49.42a1.3,1.3,0,0,1-.54.81,1.51,1.51,0,0,1-1,0,2.88,2.88,0,0,0-2.63.9,1.68,1.68,0,0,0-.5,1.23c.09,1.1,1.65,1.75,1.47,2.84-.55,0-1.1-.15-1.65-.11a3.19,3.19,0,0,0-2.63,3.06,5.82,5.82,0,0,0,1.58,4,7.22,7.22,0,0,0,5.4,2.73c1.82,0,3.5-.94,5.26-1.42a37.93,37.93,0,0,1,6.12-.77,10.58,10.58,0,0,0,5.75-2c.28-.24.56-.64.35-.93a.67.67,0,0,0-.5-.22c-.67-.08-1.56-.13-1.71-.79s.68-1.12,1.34-1.33a36.85,36.85,0,0,0,5.71-2.26,4.49,4.49,0,0,0,2.09-1.67,1.7,1.7,0,0,0-.56-2.35c-.36-.15-.87-.23-.89-.61,0-.23.19-.41.37-.55a12.59,12.59,0,0,0,1.73-1.44,2.63,2.63,0,0,0,.74-2.07,2.37,2.37,0,0,0-.54-1.14A3.92,3.92,0,0,0,124,44.14a7.81,7.81,0,0,0-3.58,2.06c-1,1-1.93,2-2.94,3-.35.33-.81.66-1.26.51-.1-.72,1.13-1.26.8-1.89-.21-.4-.8-.29-1.19-.06-1.41.82-2.51,2.43-4.13,2.45,0-.32.32-.51.6-.66a1.7,1.7,0,0,0,.94-2.14,1.62,1.62,0,0,0-2.08-.46,10.15,10.15,0,0,0-1.88,1.41,3.26,3.26,0,0,1-1.12.59,2.18,2.18,0,0,1-.91.12,2.58,2.58,0,0,1-.83-.37c-.35-.2-.69-.43-1.07-.6A1.64,1.64,0,0,0,104.1,48Z" transform="translate(-4.45 -3.01)"/><path class="cls-33" d="M103.82,64.74c2,5.58,5.49,12.13,6.78,13.11,1.63,1.24,10.48,2.25,11,2.25,1.22,0,2.13-8.16.83-8.19-2-.06-7.43,0-7.91-.35s-3.91-3.83-7.48-7.73C104.55,61.13,102.59,61.28,103.82,64.74Z" transform="translate(-4.45 -3.01)"/><path class="cls-33" d="M121.11,80.1a25.9,25.9,0,0,0,3.42,1c.92.16,3.58.53,3.85-.46.19-.68-1.35-1.09-2.43-1.4-.57-.16-1.31-.66-1.19-1,.21-.65,1.68-.2,2.67.23,1.89.83,4.48,2.42,5.46,1.39.38-.39-.17-.95-.94-1.48,1.21.58,2.49,1,2.92.61a.62.62,0,0,0,0-.83.8.8,0,0,0,.86-.24c.32-.42.07-1-.4-1.51a.44.44,0,0,0,.31-.26c.65-1.28-3.65-4.24-5-4.41a34.48,34.48,0,0,0-8.24.18C121,73.33,121.11,80.1,121.11,80.1Z" transform="translate(-4.45 -3.01)"/><path class="cls-34" d="M126.53,75.77a6.89,6.89,0,0,1,2.77.71,19,19,0,0,1,2.77,1.94,0,0,0,1,1,0,0c-.44-.33-2.27-1.53-2.74-1.8a6.34,6.34,0,0,0-2.77-.87S126.52,75.77,126.53,75.77Z" transform="translate(-4.45 -3.01)"/><path class="cls-34" d="M127.07,74a16,16,0,0,1,3.21.71,11,11,0,0,1,3,2c.55.45,1.08.92,1.61,1.39,0,0,0,.06,0,0-.92-.78-1.88-1.53-2.85-2.25a8.53,8.53,0,0,0-3-1.45c-.62-.16-1.25-.27-1.89-.38C127.06,74,127.06,74,127.07,74Z" transform="translate(-4.45 -3.01)"/><path class="cls-34" d="M128,72.4a8.21,8.21,0,0,1,2.9.6,15.13,15.13,0,0,1,3,2c.5.42,1,.86,1.46,1.31,0,0,0,0,0,0a33.14,33.14,0,0,0-3.45-2.71,6.62,6.62,0,0,0-1.86-.93,12.82,12.82,0,0,0-2-.36Z" transform="translate(-4.45 -3.01)"/><path class="cls-5" d="M122.37,71.3l-1.9,9.82s-8.36-1.38-10-2.81S105.1,69,103.83,65.06s.77-4,2.92-1.73,7.47,7.87,7.74,8S122.37,71.3,122.37,71.3Z" transform="translate(-4.45 -3.01)"/><path class="cls-34" d="M119.21,77c.23-1.16.48-2.32.67-3.49.1-.66.22-1.32.32-2,0,0,0,0,0,0-.28,1.15-.56,2.31-.78,3.48s-.47,2.32-.68,3.48c-.12.67-.22,1.33-.3,2,0,0,0,0,0,0C118.74,79.33,119,78.16,119.21,77Z" transform="translate(-4.45 -3.01)"/><path class="cls-35" d="M120.66,80.14l-.19,1s-8.36-1.38-10-2.81S105.1,69,103.83,65.06c-.92-2.86-.08-3.7,1.27-3C109,66.49,116.4,75,120.66,80.14Z" transform="translate(-4.45 -3.01)"/><path class="cls-5" d="M94.42,81.34l17.59.33-1-6.23a3.59,3.59,0,0,0,.66-4A37.89,37.89,0,0,0,107,64.1c-3.37-4-5.7-1.78-6.64-.74C96.79,67.33,94.42,81.34,94.42,81.34Z" transform="translate(-4.45 -3.01)"/><path class="cls-34" d="M105.16,75.39a16.68,16.68,0,0,1,2.55,0c.42,0,.84.08,1.26.14l.62.07a2.92,2.92,0,0,0,.66,0s0,0,0,0c-.21,0-.41.08-.62.1a4.16,4.16,0,0,1-.61,0c-.42,0-.85-.07-1.28-.1-.86-.06-1.72-.12-2.59-.12C105.12,75.46,105.12,75.39,105.16,75.39Z" transform="translate(-4.45 -3.01)"/><path class="cls-34" d="M103.23,76.5a17.94,17.94,0,0,1,2-.48c.35-.06.69-.09,1-.12l.51,0c.18,0,.37,0,.55,0,0,0,0,0,0,0a4.34,4.34,0,0,0-.52.09l-.52.08-1,.16q-1,.15-2.07.33S103.2,76.51,103.23,76.5Z" transform="translate(-4.45 -3.01)"/><path class="cls-15" d="M99.77,63.7C96.55,66.53,88.3,77.63,90.33,80s14.75.72,18.42-.59c1.08-.39-2.22-7.27-3.42-7.54-1-.23-6.45,1.63-6.57,1.31s.94-2.77,2.65-7.16C103.37,61,101.19,62.46,99.77,63.7Z" transform="translate(-4.45 -3.01)"/><path class="cls-15" d="M110.7,70.3c2.56-.09,3.24.27,5.35-1,1.39-.81,2.51-.26,1.62,1.15-1.46,2.32-4.73,3.14-6,3.1Z" transform="translate(-4.45 -3.01)"/><path class="cls-15" d="M103.75,72.06a25.85,25.85,0,0,1,5.71-1.66A10,10,0,0,1,119,74.47c.83,1,1.27,3.15-.71,1.92-1.42-.87-2-1.85-3-2.2,0,0,.24,2.72-.84,3.52a26.22,26.22,0,0,1-3,1.87,4.45,4.45,0,0,1-.41-.52,4.46,4.46,0,0,1-3,.27Z" transform="translate(-4.45 -3.01)"/><path class="cls-15" d="M111.3,70.44A14.9,14.9,0,0,1,115,73.63c1.21,1.63,3.1,5.1,1.89,6-.89.64-1.73-.62-1.73-.62s.48,1.6-.45,2-1.43-.64-1.43-.64.12,1-.76,1.22c-1.07.24-1.16-1.94-2.45-2.62C109.75,78.8,111.3,70.44,111.3,70.44Z" transform="translate(-4.45 -3.01)"/><path class="cls-36" d="M113,74.63A8,8,0,0,1,115.14,79s0,.06,0,0a20,20,0,0,0-2.1-4.35S113,74.62,113,74.63Z" transform="translate(-4.45 -3.01)"/><path class="cls-36" d="M111.42,75.89a9.15,9.15,0,0,1,1.85,4.45s0,.07,0,0a20.88,20.88,0,0,0-1.83-4.47S111.41,75.89,111.42,75.89Z" transform="translate(-4.45 -3.01)"/><path class="cls-5" d="M103.75,72.06l3.14,8.78s-15.93,1.93-17-.91,6-12.85,9.08-15.67c3.52-3.26,3.8-2,2.78,1.1s-3,7.92-3,7.92Z" transform="translate(-4.45 -3.01)"/><path class="cls-35" d="M93.84,75a19.44,19.44,0,0,1,2.41-1.11,18.41,18.41,0,0,1,2.51-.72c.49-.11,1-.2,1.47-.28,0,0,0,0,0,0a25,25,0,0,0-2.53.7c-.83.28-1.65.57-2.47.87-.46.17-.91.37-1.37.55C93.84,75.07,93.83,75,93.84,75Z" transform="translate(-4.45 -3.01)"/><path class="cls-35" d="M103.71,72c-.08,0-4.48,1-4.63,1l1.16-2.57a.93.93,0,0,1,.05-.1l.27-.42.33-.56s0,0,0,0l-.35.53-.16.26c.1-.23.2-.46.29-.69s.29-.73.43-1.1c0,0,0,0,0,0-.29.63-.6,1.26-.89,1.9s-1.42,3-1.41,3l5-1.22S103.75,72,103.71,72Z" transform="translate(-4.45 -3.01)"/><path class="cls-35" d="M103.45,77.53c-.35-1-.68-2-1.06-2.93-.22-.55-.43-1.1-.66-1.65,0,0,0,0,0,0,.3,1,.61,2,1,3s.69,2,1,2.93c.21.56.43,1.1.67,1.64,0,0,0,0,0,0C104.14,79.5,103.79,78.51,103.45,77.53Z" transform="translate(-4.45 -3.01)"/><path class="cls-35" d="M107.08,81c-.13-.27-.29-.67-.43-.93,0-.07-.09-.07-.07,0,.1.24.17.52.26.77l-.67.06-.77.08c-.5.06-1,.1-1.51.15-1,.08-2.06.14-3.08.19a60.86,60.86,0,0,1-6.19,0c-.57,0-1.15-.09-1.72-.15s-1.21-.15-1.69-.26c0,0,0,0,0,0a10.51,10.51,0,0,0,1.45.34c.52.08,1,.14,1.56.19,1,.09,2.08.13,3.12.14q3.09,0,6.18-.21l1.73-.15.87-.09A5.74,5.74,0,0,0,107.08,81Z" transform="translate(-4.45 -3.01)"/><rect class="cls-4" x="103.09" y="79.29" width="20.05" height="0.9"/><polygon class="cls-4" points="123.14 79.29 123.14 80.19 109.51 80.19 110.2 79.29 123.14 79.29"/><polygon class="cls-4" points="112.27 80.19 129.82 80.19 132.36 67.81 114.81 67.81 112.27 80.19"/><polygon class="cls-4" points="113.09 80.19 130.64 80.19 133.18 67.81 115.63 67.81 113.09 80.19"/><path class="cls-5" d="M129.17,76.54a1.25,1.25,0,0,1-.88,1.25.82.82,0,0,1-.94-.87,1.23,1.23,0,0,1,.88-1.25A.81.81,0,0,1,129.17,76.54Z" transform="translate(-4.45 -3.01)"/><path class="cls-15" d="M104.19,52.71a1.18,1.18,0,0,0-.39,1.51,1.28,1.28,0,0,0,1.45.6c-1.16,3.79-3.06,6.29-4.59,9.95a1.12,1.12,0,0,0-.1.4.83.83,0,0,0,.16.4,4.42,4.42,0,0,0,1.79,1.4,5.76,5.76,0,0,0,2.13.67,2.89,2.89,0,0,0,2.1-.63c.57-.49.06-7.49-.53-9.57l1.13,1a.84.84,0,0,0,.46.25.79.79,0,0,0,.57-.33c1.57-1.71,1.94-4.2,2.24-6.52a.71.71,0,0,0-.06-.48.55.55,0,0,0-.34-.19,3.85,3.85,0,0,0-2.65.24,4.49,4.49,0,0,0-1.15.78,5.47,5.47,0,0,0-.45.51,4,4,0,0,1-.28.44,4.61,4.61,0,0,0-.73-.48A1,1,0,0,0,104.19,52.71Z" transform="translate(-4.45 -3.01)"/><path class="cls-32" d="M115.56,49.94c1.52-.77,2.35-2.44,3.38-3.82A7.47,7.47,0,0,1,121.21,44a5.44,5.44,0,0,1,5.15-.11A3.18,3.18,0,0,1,128,45.63a3,3,0,0,1-.5,2.56" transform="translate(-4.45 -3.01)"/><path class="cls-37" d="M99.42,127.81,104.18,157a1.83,1.83,0,0,0,2.09,1.51l30.65-5a1.82,1.82,0,0,0,1.5-2.09l-3-18.56Z" transform="translate(-4.45 -3.01)"/><path class="cls-6" d="M145.75,149.57,108,155.72c-3.37-5-7.08-15.62-8.56-27.91l38.41-4.41C138.86,134.92,142.06,145.34,145.75,149.57Z" transform="translate(-4.45 -3.01)"/><path class="cls-38" d="M136.42,127.38a.91.91,0,0,0-1-.68l-32.89,3.85a.9.9,0,0,0-.78,1l0,.19a.91.91,0,0,0,1,.75l32.85-4.05A.9.9,0,0,0,136.42,127.38Z" transform="translate(-4.45 -3.01)"/><path class="cls-38" d="M122,131.81l-18.84,2.42a1,1,0,0,0-.82,1.1v.11a1,1,0,0,0,1.07.79l18.83-2.52a1,1,0,0,0-.25-1.9Z" transform="translate(-4.45 -3.01)"/><g class="cls-39"><polygon class="cls-40" points="107.15 147.47 105.29 147.77 102.69 137.74 104.53 137.47 107.15 147.47"/><polygon class="cls-41" points="110.44 146.94 108.6 147.24 107.26 142.21 109.1 141.93 110.44 146.94"/><polygon class="cls-42" points="113.71 146.41 111.88 146.71 108.93 135.87 110.74 135.6 113.71 146.41"/><polygon class="cls-43" points="116.94 145.9 115.13 146.19 112.57 136.98 114.37 136.71 116.94 145.9"/><polygon class="cls-44" points="120.15 145.38 118.35 145.67 117.65 143.18 119.44 142.9 120.15 145.38"/><polygon class="cls-45" points="123.33 144.87 121.55 145.16 119.88 139.38 121.65 139.11 123.33 144.87"/><polygon class="cls-46" points="126.48 144.37 124.71 144.65 122.28 136.4 124.03 136.13 126.48 144.37"/><polygon class="cls-47" points="129.61 143.86 127.86 144.15 126.05 138.13 127.79 137.87 129.61 143.86"/><polygon class="cls-48" points="132.71 143.37 130.97 143.65 128.15 134.42 129.87 134.17 132.71 143.37"/><polygon class="cls-49" points="135.79 142.87 134.06 143.15 130.89 132.96 132.59 132.72 135.79 142.87"/></g><polygon class="cls-38" points="136.29 144.46 105.72 149.44 105.44 148.34 135.96 143.42 136.29 144.46"/><polygon class="cls-50" points="330.78 216.52 316.41 208.25 301.98 212.75 304.4 222.21 314.98 226.66 330.78 216.52"/><polygon class="cls-4" points="322.15 222.06 330.78 216.52 322.12 211.53 322.15 222.06"/><polygon class="cls-28" points="221.78 208.08 316.41 208.25 310.31 212.74 315.03 216.75 308.45 221.82 314.98 226.66 220.97 226.56 221.78 208.08"/><polygon class="cls-51" points="308.45 221.82 223.46 220.4 233.64 226.51 314.98 226.66 308.45 221.82"/><path class="cls-52" d="M238.57,211.1l-.48,18.41-12.67.06s-4-11,.81-18.48Z" transform="translate(-4.45 -3.01)"/><path class="cls-53" d="M264.54,210l4.88-.34a2.61,2.61,0,0,1,2.52,1.12c1.12,1.44,4.63,1.68,5.19,3.64s-1.64,2.48-2.72,2.28a19.55,19.55,0,0,0-5.83-.52h-1.72Z" transform="translate(-4.45 -3.01)"/><path class="cls-54" d="M248.94,172.79s.55-.1,1.11.78l-1.88,1.32s-.46-1.28,0-1.59Z" transform="translate(-4.45 -3.01)"/><path class="cls-54" d="M262.28,192.16s6.87-1.45,7.92.68l.23,2.19S262.28,197.2,262.28,192.16Z" transform="translate(-4.45 -3.01)"/><path class="cls-55" d="M240.88,178.79s-1.23.51,0,3.18,2.73,5.93,4.62,5.12l1.14-.49-4.22-8.52Z" transform="translate(-4.45 -3.01)"/><path class="cls-15" d="M242.86,178.85l-3.6,2.25L234,179.51l-1.7,3.26,4.61,3.6s2.4,1.77,4.35,1.41,5.64-3.6,5.64-3.6S246.85,179.72,242.86,178.85Z" transform="translate(-4.45 -3.01)"/><path class="cls-56" d="M246.85,184.18s0-4.46-4-5.33l-1.31.82c1.43,1.52,1.88,5.26,2,7A32.61,32.61,0,0,0,246.85,184.18Z" transform="translate(-4.45 -3.01)"/><path class="cls-28" d="M240.88,178.79a37.74,37.74,0,0,0,5.34-2.79c.93-.84,2.42-2.94,3.5-3.21a20.1,20.1,0,0,1,4.11,0l5.52,1,4.24,2a2.77,2.77,0,0,1,1.18,1,17.14,17.14,0,0,1,2,6.11c1,5.4,2.31,11.46,2.31,11.46l-17.45,2-2.34-10.94-3.83,1.65S244.9,181.1,240.88,178.79Z" transform="translate(-4.45 -3.01)"/><path class="cls-3" d="M249.15,180.26a5,5,0,0,0-1.74,4,3.12,3.12,0,0,0,.43,1.23,1.87,1.87,0,0,0,1,.83l1.59,6.63-9.11-1.14a4.93,4.93,0,0,0-3.37.75c-1.19.79-2.28,2.27-1.76,5a5.13,5.13,0,0,0,1.13,2.3l6.7,7.82s-4.86,5.27-1.86,10.49,17.33-1,20.86-1.38l5.52-.66s1.08-4.8-2.64-6.36l-3.24.18s8.1-5.81,8-11.93l-.54-5.19s-6.8,3.45-9.49-3.14l-1.9-7.26S251.43,182,249.15,180.26Z" transform="translate(-4.45 -3.01)"/><path class="cls-3" d="M253.83,182.76s3.53-7,8.86-7.83a.78.78,0,0,1,.52.1l1.53.91a11.26,11.26,0,0,0-8.17,7.27Z" transform="translate(-4.45 -3.01)"/><path class="cls-55" d="M262.58,189.44a4.13,4.13,0,0,1,2.13,1.4c.51.93-6.9-.93-10-3.24A35.75,35.75,0,0,1,262.58,189.44Z" transform="translate(-4.45 -3.01)"/><path class="cls-15" d="M254.71,187.6s5.16.52,7.87,1.84l-4.43,8.07a9,9,0,0,1-5.12,2.75c-3,.33-13.23.29-13.23.29s-3.36,1.44-5.57.54-1.62-1.38-1.14-1.5,2.57-.74,3.14-2L236.1,196a6.58,6.58,0,0,1,2.56,1,10.29,10.29,0,0,0,5.55-.87c3.32-1.34,7.55-2.69,7.55-2.69Z" transform="translate(-4.45 -3.01)"/><path class="cls-56" d="M254.56,187.9a40.51,40.51,0,0,1,7.3,2.86l.72-1.32c-2.71-1.32-7.87-1.84-7.87-1.84Z" transform="translate(-4.45 -3.01)"/><path class="cls-15" d="M244.76,195.92l-.55.22a10.29,10.29,0,0,1-5.55.87,6.58,6.58,0,0,0-2.56-1l.13,1.58c-.57,1.28-2.66,1.9-3.14,2s-1.08.6,1.14,1.5,5.57-.54,5.57-.54,2.49,0,5.36,0A7.16,7.16,0,0,0,244.76,195.92Z" transform="translate(-4.45 -3.01)"/><path class="cls-57" d="M234.23,201.09s1.42-.12,2.51-.34" transform="translate(-4.45 -3.01)"/><line class="cls-58" x1="258.25" y1="206.96" x2="247.78" y2="213.13"/><line class="cls-58" x1="239.6" y1="204.68" x2="246.14" y2="198.86"/><line class="cls-58" x1="244.7" y1="198.1" x2="250.55" y2="200.34"/><path class="cls-57" d="M239.42,181.15a3.19,3.19,0,0,1,1.64,2.73" transform="translate(-4.45 -3.01)"/><path class="cls-28" d="M254.71,187.6l2.88-6.79a5.26,5.26,0,0,1,5-2.28c3.23.5,3.4,5.7,2.72,8.69,0,0-.45,2.17-.5,3.09A35,35,0,0,0,254.71,187.6Z" transform="translate(-4.45 -3.01)"/><path class="cls-59" d="M265.3,187.22s-.54,2.7-.59,3.62" transform="translate(-4.45 -3.01)"/><path class="cls-3" d="M249.51,180.81s-.93-7-.57-8l-1.05.71a1.4,1.4,0,0,0-.64,1.24,28.66,28.66,0,0,0,1.12,7.11Z" transform="translate(-4.45 -3.01)"/><path class="cls-58" d="M252.26,193.8a2.72,2.72,0,0,1,2,.69" transform="translate(-4.45 -3.01)"/><path class="cls-15" d="M238,180.7l-4.1-1.22c0-.19-1.72-1.78-2.93-1.57l-2.54.68a.79.79,0,0,0-.16,1.13,3.53,3.53,0,0,0,.39,1.72,5.66,5.66,0,0,0,2.59,1.27l.7-.14,4.42,3.45A5.9,5.9,0,0,0,238,180.7Z" transform="translate(-4.45 -3.01)"/><path class="cls-15" d="M233.14,180.48c.08-.18.5-1.18-.06-1.78a11.69,11.69,0,0,1-1.74-2.5c-.07-.35-.77.76-.15,1.75" transform="translate(-4.45 -3.01)"/><path class="cls-57" d="M231,178.05s-.3,1.83,1.05,2.38" transform="translate(-4.45 -3.01)"/><line class="cls-57" x1="223.95" y1="176.64" x2="226.53" y2="176.02"/><line class="cls-57" x1="224.26" y1="178.17" x2="227.02" y2="177.03"/><line class="cls-57" x1="225.45" y1="179.11" x2="227.53" y2="178.09"/><path class="cls-57" d="M232.92,200.4a10.11,10.11,0,0,0,3.42-.78" transform="translate(-4.45 -3.01)"/><path class="cls-6" d="M260.1,159.93a2,2,0,0,1,.5,1.63,1.23,1.23,0,0,0,.18.89,1.48,1.48,0,0,0,.85.32,2.77,2.77,0,0,1,2,1.7,1.59,1.59,0,0,1,0,1.23c-.47.92-2.07.92-2.29,1.92.48.19,1,.26,1.47.49a2.94,2.94,0,0,1,1.22,3.56,5.38,5.38,0,0,1-2.8,2.85,6.86,6.86,0,0,1-5.68.43c-1.57-.67-2.72-2-4.08-3.08a36.32,36.32,0,0,0-5.07-2.83,9.94,9.94,0,0,1-4.3-3.78c-.16-.3-.26-.74,0-.92a.64.64,0,0,1,.51,0c.61.17,1.4.45,1.77-.07s-.2-1.2-.7-1.61a36.39,36.39,0,0,1-4.18-4,4.21,4.21,0,0,1-1.23-2.17,1.57,1.57,0,0,1,1.33-1.82c.36,0,.83.11,1-.21a.67.67,0,0,0-.12-.6,10,10,0,0,1-1-1.85,2.4,2.4,0,0,1,.08-2,2.21,2.21,0,0,1,.88-.78,3.76,3.76,0,0,1,3.71.37,7.3,7.3,0,0,1,2.39,3c.56,1.18,1,2.43,1.5,3.61.19.41.47.86.92.88.34-.57-.54-1.47,0-1.9.33-.26.8,0,1.06.37.94,1.2,1.33,3,2.73,3.56.15-.25-.09-.54-.28-.77a1.56,1.56,0,0,1-.06-2.17,1.54,1.54,0,0,1,2,.35,9.08,9.08,0,0,1,1.14,1.87,3.06,3.06,0,0,0,.78.9,2,2,0,0,0,.74.42,2.26,2.26,0,0,0,.86,0c.38,0,.76-.12,1.14-.13A1.49,1.49,0,0,1,260.1,159.93Z" transform="translate(-4.45 -3.01)"/><path class="cls-15" d="M258.35,164a1.07,1.07,0,0,1-.19,1.43,1.22,1.22,0,0,1-1.48,0c-.33,3.67.05,7.35.08,11a.78.78,0,0,1-.06.37.61.61,0,0,1-.28.29,4.15,4.15,0,0,1-2.05.57,5.51,5.51,0,0,1-2.1-.19,2.68,2.68,0,0,1-1.61-1.28,2.84,2.84,0,0,1-.12-2,7.84,7.84,0,0,1,.91-1.89,52.71,52.71,0,0,1,3.46-4.94l-1.33.44a.83.83,0,0,1-.49.05.75.75,0,0,1-.38-.48c-.77-2-.21-4.29.36-6.38a.61.61,0,0,1,.22-.39.56.56,0,0,1,.36-.05,3.69,3.69,0,0,1,2.23,1.15,3.8,3.8,0,0,1,.72,1.07,3.57,3.57,0,0,1,.21.6,3.08,3.08,0,0,0,.1.47,5.24,5.24,0,0,1,.8-.15A.93.93,0,0,1,258.35,164Z" transform="translate(-4.45 -3.01)"/><path class="cls-60" d="M249.41,157.55c-1-1.21-1.18-2.93-1.59-4.48a7.2,7.2,0,0,0-1.22-2.63,5.19,5.19,0,0,0-4.46-1.92,3,3,0,0,0-2.06.93,2.71,2.71,0,0,0-.46,2.36" transform="translate(-4.45 -3.01)"/></g></g></svg>