<?xml version="1.0" encoding="utf-8"?>
<!-- Generator: Adobe Illustrator 25.2.1, SVG Export Plug-In . SVG Version: 6.00 Build 0)  -->
<svg version="1.1" id="Layer_1" xmlns="http://www.w3.org/2000/svg" xmlns:xlink="http://www.w3.org/1999/xlink" x="0px" y="0px"
	 viewBox="0 0 330.78 240" style="enable-background:new 0 0 330.78 240;" xml:space="preserve">
<style type="text/css">
	.st0{fill:#C7C8DF;}
	.st1{fill:#F0AA6E;}
	.st2{fill:#5669A4;}
	.st3{fill:none;stroke:#3A4D7B;stroke-width:0.6994;stroke-linecap:round;stroke-linejoin:round;stroke-miterlimit:10;}
	.st4{fill:#D85930;}
	.st5{fill:#20201E;}
	.st6{fill:#FFFEFE;}
	.st7{fill:#556AA2;}
	.st8{fill:#566AA3;}
	.st9{fill:#BB401F;}
	.st10{fill:#FFFFFF;}
	.st11{fill:#F7C751;}
	.st12{fill:none;stroke:#20201E;stroke-width:1.7305;stroke-miterlimit:10;}
	.st13{fill:#56AEE2;}
	.st14{fill:none;stroke:#C07661;stroke-width:0.5753;stroke-linecap:round;stroke-linejoin:round;stroke-miterlimit:10;}
</style>
<g>
	<path class="st0" d="M165.92,68.37c-17.49-2.6-33.77-14.01-51.3-11.71c-11.63,1.52-21.57,8.9-30.45,16.56
		c-8.54,7.37-16.63,15.23-24.72,23.09c-6.84,6.65-13.84,13.5-17.85,22.16c-5.25,11.34-4.74,24.77-0.6,36.56s11.63,22.13,20,31.42
		c13.54,15.02,19.33,34.12,39.09,38.42c16.62,3.61,47.04,1.29,66.46-10.36c14.59-8.75,21.5-21.73,36.25-30.21
		c23.84-13.69,51.85-20.52,76.31-33.06c15.59-7.99,32.12-16.48,41.16-31.48c10.07-16.71,8.22-39.19-2.74-55.33
		c-10.96-16.13-29.93-25.94-49.34-27.84c-32.08-3.14-58.05,17.59-60.33,19.55c-5.37,4.59-11.68,8.05-18.4,10.21
		C181.9,68.77,173.79,69.54,165.92,68.37z"/>
	<g>
		<polygon class="st1" points="229.77,66.71 221.79,85.26 230.2,82.03 242.91,76.96 		"/>
		<g>
			<polygon class="st1" points="218.68,205.06 217.15,218.79 232.63,224.62 236.03,207.38 			"/>
			<path class="st2" d="M216.14,217.01c0,0,14.34,7.36,18.1,2.6c0,0,2.48,6.82-4.34,9.31c0,0-26.66,10.45-31.93,0.61
				C197.96,229.52,194.08,218.24,216.14,217.01z"/>
			<path class="st3" d="M232.72,226.62c0,0-24.96,9.68-33.62,3.61"/>
		</g>
		<g>
			<polygon class="st1" points="264.27,203.94 268.41,217.12 284.92,216.23 281.1,199.08 			"/>
			<path class="st2" d="M266.76,215.9c0,0,16.09,0.97,17.61-4.9c0,0,5.02,5.25-0.23,10.27c0,0-20.2,20.29-28.99,13.4
				C255.16,234.67,247.06,225.9,266.76,215.9z"/>
			<path class="st3" d="M285.81,218.02c0,0-18.96,18.91-29.33,16.84"/>
		</g>
		<polygon class="st4" points="237.1,211.49 215.74,207.82 226.32,109.64 249.62,101.88 244.66,169.63 		"/>
		<path class="st5" d="M243.15,140.71c-3.24,9.28-13.38,69.76-13.38,69.76l7.34,1.01l11.87-61.13L243.15,140.71z"/>
		<path class="st4" d="M277.67,108.78c0,0-6.54,43.87-5.83,52.22c0.72,8.34,9.71,38.19,14.46,41.86l-24.6,11
			c0,0-16.83-39.92-18.56-44.66c0,0-3.02-13.59,0.65-34.95l1.08-25.46H277.67z"/>
		<polygon class="st5" points="225.89,114.82 273.79,122.45 242.43,112.95 226.1,108.35 		"/>
		<path class="st6" d="M228.04,67.21l7.48,12.37l4.32-8.06l-16.76,38.55l53.01,12.95l10.07-72.79c0,0-21.58-9.21-39.41-2.3
			C246.74,47.94,234.08,52.54,228.04,67.21z"/>
		<path class="st7" d="M282.85,55.91c-0.75-0.44-1.63-0.67-2.5-0.66c-0.78,0.01-1.62,0.25-2.06,0.9s-0.22,1.72,0.53,1.93
			c1.03,0.28,1.81-1.13,2.88-1.19c0.38-0.02,0.76,0.13,1.12,0.01s0.5-0.75,0.13-0.81"/>
		<path class="st8" d="M269.22,68.28c-0.43,0.39-0.84,0.86-0.93,1.44s0.31,1.25,0.89,1.26c0.45,0.01,0.8-0.35,1.1-0.68
			c0.79-0.91,1.52-1.89,2.15-2.91c0.22-0.37,0.33-0.95-0.29-0.89c-0.49,0.05-1.01,0.42-1.42,0.67
			C270.19,67.48,269.68,67.86,269.22,68.28z"/>
		<path class="st8" d="M246.91,73.97c-0.16,0.16-0.32,0.33-0.39,0.55c-0.07,0.21-0.04,0.48,0.14,0.62c0.21,0.16,0.52,0.09,0.77,0
			c1.84-0.68,3.47-1.92,4.61-3.51c0.06-0.09-0.51-0.15-0.55-0.14c-0.13,0.01-0.26,0.02-0.38,0.05c-0.37,0.08-0.74,0.23-1.09,0.37
			c-0.74,0.31-1.44,0.71-2.08,1.19C247.57,73.35,247.22,73.65,246.91,73.97z"/>
		<circle class="st8" cx="290.25" cy="63.7" r="0.61"/>
		<circle class="st8" cx="237.58" cy="68.46" r="1.44"/>
		<circle class="st8" cx="259.76" cy="77.57" r="1.23"/>
		<circle class="st8" cx="247.36" cy="107.88" r="1.44"/>
		<path class="st8" d="M263.67,96.11c-0.21,0.21-0.41,0.43-0.5,0.71s-0.02,0.63,0.23,0.78c0.19,0.12,0.43,0.1,0.65,0.05
			c0.88-0.19,1.62-0.76,2.28-1.37c0.66-0.61,1.26-1.27,1.86-1.93c0.12-0.14,0.25-0.28,0.31-0.45s0.02-0.39-0.14-0.5
			c-0.21-0.14-0.6,0.16-0.8,0.24c-0.35,0.13-0.7,0.28-1.04,0.45c-0.67,0.33-1.31,0.73-1.89,1.19
			C264.29,95.53,263.97,95.81,263.67,96.11z"/>
		<path class="st8" d="M267.25,83.49c-0.11,0.31-0.17,0.65-0.07,0.96c0.1,0.31,0.42,0.57,0.74,0.52c0.41-0.06,0.6-0.52,0.73-0.91
			c0.22-0.67,0.46-1.36,0.95-1.87c0.38-0.4,0.88-0.64,1.3-0.99c0.31-0.26,0.05-0.38-0.26-0.41c-0.88-0.07-1.86,0.67-2.45,1.25
			C267.78,82.45,267.45,82.94,267.25,83.49z"/>
		<path class="st8" d="M233.29,103.17c-0.44,0.25-0.84,0.57-1.18,0.95c-0.17,0.19-0.33,0.41-0.33,0.66
			c-0.01,0.34,0.28,0.63,0.61,0.73c0.33,0.1,0.68,0.04,1.01-0.06c1.34-0.38,2.47-1.26,3.37-2.3c0.19-0.22,0.9-0.85,0.35-1.03
			c-0.44-0.15-1.05,0.02-1.47,0.16C234.86,102.54,234.02,102.76,233.29,103.17z"/>
		<path class="st8" d="M259.71,60.34c-0.44,0.25-0.84,0.57-1.18,0.95c-0.17,0.19-0.33,0.41-0.33,0.66
			c-0.01,0.34,0.28,0.63,0.61,0.73c0.33,0.1,0.68,0.04,1.01-0.06c1.34-0.38,2.47-1.26,3.37-2.3c0.19-0.22,0.9-0.85,0.35-1.03
			c-0.44-0.15-1.05,0.02-1.47,0.16C261.27,59.71,260.44,59.93,259.71,60.34z"/>
		<path class="st5" d="M283.49,68.86c-0.65,1.29-18.56,28.27-18.56,28.27l16.61-5.18l1.94-23.73V68.86z"/>
		<path class="st1" d="M268.28,34.88l-8.85,13.05c0,0,8.85,3.78,12.95-0.22l0.86-16.61c0,0,5.72,2.7,5.93-3.45
			c0,0-0.22-3.24-3.02-3.24c0,0-1.98-0.65-4.03-4.32c0,0-3.85-0.54-3.09-1.51c0,0-3.34-1.08-5.61,7.88
			C263.43,26.47,259.33,39.95,268.28,34.88z"/>
		<path class="st1" d="M283.81,82.62c0,0-22.67,15.51-35.7,8.04l-11.22,7.12c0,0,40.31,29.22,61.79-6.11L283.81,82.62z"/>
		<path class="st6" d="M299.45,93.93l-24.15-8.24c0,0,11.16-13.39,6.13-21.75l3.58-14.28C285.01,49.66,308.74,60.02,299.45,93.93z"
			/>
		<path class="st5" d="M275.04,24.22c-1.74,1.29-2.2,3.13-2.22,5.16c-0.01,0.6,0.01,1.22,0.36,1.71c0.39,0.54,0.21,1.01,0.07,1.54
			c-1.04,3.93-3.22,7.18-5.99,10.08c-0.38,0.1-0.59,0.41-0.83,0.68c-1.8,2.07-4.16,3.08-6.81,3.39c-5.65,0.67-9.08-4.72-8.3-8.72
			c0.51-2.62,1.69-4.56,4.06-5.78c0.28-0.15,0.54-0.35,0.83-0.47c2.5-1.04,4.85-2.3,6.75-4.28c0.6,0.55,1.19,1.12,1.81,1.66
			c0.58,0.51,1.16,1.01,1.91,1.29c1.56,0.6,2.63,0.23,3.43-1.22c1.06-1.89,1.31-3.96,1.18-6.07c-0.09-1.56-1.24-2.54-2.81-2.57
			c-1.01-0.02-1.98,0.21-2.97,0.35c0.84-2.94,3.53-4.19,6.17-2.87c0.95,0.48,1.77,1.1,2.46,1.92
			C275.19,21.29,275.6,22.64,275.04,24.22z"/>
		<path class="st5" d="M275.66,21.97c-0.13-2.47-2.31-4.31-4.45-5.55c-2.14-1.24-4.55-2.35-5.8-4.48c-1.13-1.94-1.2-4.57-2.97-5.96
			c-2.47-1.94-5.85-1.3-7.61,1.25c-4.38,6.36,5.42,13.27,10.91,13.57c1.02,0.06,2.05-0.05,3.07,0.08c1.02,0.13,2.06,0.54,2.64,1.39
			c0.69,1,1.02,2.89,2.71,2.52C275.33,24.53,275.71,23,275.66,21.97z"/>
		<path class="st1" d="M267.08,32.03c-0.74,0.89-2.01,1.13-2.96,0.5c-0.96-0.62-1.26-1.88-0.75-2.91L267.08,32.03z"/>
		<path class="st8" d="M267.53,113.53c-0.36,0.2-0.74,0.42-0.95,0.78c-0.2,0.36-0.13,0.91,0.25,1.08c0.27,0.12,0.59,0.01,0.86-0.11
			c1.43-0.64,2.68-1.6,3.93-2.55c0.26-0.2,0.6-0.58,0.25-0.88c-0.24-0.21-0.7,0.01-0.95,0.1c-0.75,0.25-1.48,0.58-2.18,0.94
			C268.32,113.09,267.93,113.31,267.53,113.53z"/>
		<path class="st8" d="M290.96,76.6c-1.1,0.78-2.24,1.61-2.81,2.83c-0.2,0.42-0.31,0.96-0.01,1.31c0.22,0.26,0.62,0.33,0.95,0.25
			c0.33-0.09,0.62-0.3,0.88-0.54c0.64-0.58,1.15-1.27,1.67-1.95c0.84-1.13,1.69-2.26,2.53-3.39c0.14-0.19,0.37-0.55,0.07-0.71
			c-0.23-0.13-0.37,0.04-0.5,0.19c-0.22,0.25-0.54,0.42-0.81,0.62c-0.3,0.22-0.61,0.43-0.91,0.65
			C291.66,76.1,291.31,76.35,290.96,76.6z"/>
		<path class="st8" d="M247.01,56.05c-1.26,0.46-2.58,0.96-3.46,1.97c-0.3,0.35-0.55,0.84-0.36,1.26c0.14,0.31,0.51,0.49,0.85,0.49
			c0.35,0.01,0.68-0.13,0.99-0.28c0.77-0.38,1.45-0.91,2.13-1.44c1.11-0.86,2.23-1.73,3.34-2.59c0.18-0.14,0.5-0.43,0.26-0.67
			c-0.19-0.18-0.36-0.06-0.53,0.05c-0.28,0.18-0.63,0.27-0.95,0.38c-0.35,0.13-0.7,0.26-1.06,0.38
			C247.82,55.75,247.41,55.9,247.01,56.05z"/>
		<circle class="st8" cx="254.86" cy="87" r="0.61"/>
		<circle class="st8" cx="290.54" cy="64.33" r="0.61"/>
	</g>
	<g>
		<g>
			<path class="st9" d="M162.01,77.49c35,40.96,42.29,88.47-0.75,128.95c-33.93,31.91-97.99,23.16-132.98-17.81
				c-35-40.96-29.17-100.29,6.25-130.54C69.94,27.84,127.02,36.53,162.01,77.49z"/>
			
				<ellipse transform="matrix(0.7603 -0.6496 0.6496 0.7603 -57.0055 97.3704)" class="st4" cx="103.44" cy="125.93" rx="84.33" ry="96.33"/>
			
				<ellipse transform="matrix(0.7603 -0.6496 0.6496 0.7603 -57.0053 97.3694)" class="st10" cx="103.44" cy="125.93" rx="71.89" ry="82.12"/>
			
				<ellipse transform="matrix(0.7603 -0.6496 0.6496 0.7603 -57.0055 97.3701)" class="st4" cx="103.44" cy="125.93" rx="60.44" ry="69.04"/>
			
				<ellipse transform="matrix(0.7603 -0.6496 0.6496 0.7603 -57.0053 97.3695)" class="st10" cx="103.44" cy="125.93" rx="48.55" ry="55.45"/>
			
				<ellipse transform="matrix(0.7603 -0.6496 0.6496 0.7603 -57.0056 97.3707)" class="st4" cx="103.44" cy="125.93" rx="36.53" ry="41.73"/>
			
				<ellipse transform="matrix(0.7603 -0.6496 0.6496 0.7603 -57.0054 97.3699)" class="st10" cx="103.44" cy="125.93" rx="24.37" ry="27.83"/>
			<path class="st4" d="M111.46,119.07c4.33,5.06,4.24,12.24-0.19,16.02c-4.43,3.79-11.53,2.75-15.86-2.31
				c-4.33-5.06-4.24-12.24,0.19-16.02C100.04,112.97,107.14,114.01,111.46,119.07z"/>
		</g>
		<g>
			<path class="st11" d="M193,38.27c0,0,9.5-32.62,14.4-32.62c4.9,0,6.92,10.96,6.92,10.96L193,38.27z"/>
			<path class="st11" d="M193.85,39.12c0,0,32.62-9.5,32.62-14.4c0-4.9-10.96-6.92-10.96-6.92L193.85,39.12z"/>
			<line class="st12" x1="215.2" y1="17.14" x2="103.44" y2="125.93"/>
		</g>
		<g>
			<path class="st13" d="M215.01,88.11c0,0,22.42-25.53,26.86-23.45c4.44,2.08,1.63,12.86,1.63,12.86L215.01,88.11z"/>
			<path class="st13" d="M215.41,89.24c0,0,33.58,5.21,35.65,0.77c2.08-4.44-7-10.91-7-10.91L215.41,89.24z"/>
			<line class="st12" x1="244.06" y1="78.37" x2="103.44" y2="125.93"/>
		</g>
		<g>
			<path class="st2" d="M225.83,152.89c0,0,32.5-9.91,35.19-5.81c2.68,4.1-5.38,11.79-5.38,11.79L225.83,152.89z"/>
			<path class="st2" d="M225.58,154.06c0,0,25.81,22.1,29.91,19.41c4.1-2.68-0.21-12.96-0.21-12.96L225.58,154.06z"/>
			<line class="st12" x1="255.66" y1="159.89" x2="103.44" y2="125.93"/>
		</g>
	</g>
	<path class="st0" d="M293.12,162.62c-1.44,3.42-2.27,7.61,0.3,10.34c1.39,1.48,3.59,2.23,5.78,2.35s4.38-0.35,6.48-0.97
		c5.74-1.69,11.29-4.81,14.14-9.59c1.33-2.23,1.98-4.99,0.69-7.17c-1.47-2.47-4.89-3.38-8.02-3.66c-3.39-0.31-6.84-0.15-10.2,0.46
		c-1.58,0.29-5.35,0.94-6.85,3.56C294.56,159.45,293.79,161.02,293.12,162.62z"/>
	<g>
		<path class="st1" d="M252.18,94.47c0,0-13.69-14.16-15.46-13.73c0,0-2.29,1.4-1.68,2.75l1.65,2.74l-8.14-2.85
			c0,0-1-0.08-1.39,1.04c0,0-0.74,1.96-0.21,2.44l-2.15-0.18c0,0-1.16,0.05-1.57,1.46c0,0-0.3,1.85,0.38,2.34l-0.47,2.13
			c0,0-0.37,0.98,1.03,1.53l18.7,5.5"/>
		<line class="st14" x1="232.65" y1="92.97" x2="223.61" y2="90.48"/>
		<line class="st14" x1="235.69" y1="89.47" x2="226.38" y2="86.81"/>
	</g>
</g>
</svg>
