<?xml version="1.0" encoding="utf-8"?>
<!-- Generator: Adobe Illustrator 25.2.1, SVG Export Plug-In . SVG Version: 6.00 Build 0)  -->
<svg version="1.1" id="Layer_1" xmlns="http://www.w3.org/2000/svg" xmlns:xlink="http://www.w3.org/1999/xlink" x="0px" y="0px"
	 viewBox="0 0 330.47 240" style="enable-background:new 0 0 330.47 240;" xml:space="preserve">
<style type="text/css">
	.st0{fill:#C7C8DF;}
	.st1{fill:#F0AA6E;}
	.st2{fill:#20201E;}
	.st3{fill:#5669A4;}
	.st4{fill:none;stroke:#3A4D7B;stroke-width:0.5902;stroke-linecap:round;stroke-linejoin:round;stroke-miterlimit:10;}
	.st5{fill:#D85930;}
	.st6{fill:#FFFEFE;}
	.st7{fill:#56AEE2;}
	.st8{fill:none;stroke:#CF864F;stroke-width:0.5413;stroke-linecap:round;stroke-linejoin:round;stroke-miterlimit:10;}
	.st9{fill:#DD9965;}
	.st10{fill:#331832;}
	.st11{fill:#FFFFFF;}
	.st12{fill:#566AA3;}
</style>
<g>
	<path class="st0" d="M177.3,164.99c18.63,4.24,35.24,17.87,54.31,16.84c12.65-0.68,23.97-7.81,34.17-15.34
		c9.8-7.24,19.17-15.04,28.53-22.85c7.92-6.6,16.02-13.41,21.05-22.41c6.59-11.79,7.15-26.29,3.66-39.34
		c-3.49-13.04-10.71-24.8-18.96-35.49c-13.35-17.29-30.4-32.76-51.34-39.01c-17.61-5.26-36.7-3.58-54.39,1.43
		s-34.27,13.22-50.86,21.14C116.67,42.76,89.56,54.91,62.17,66.4c-17.45,7.32-35.96,15.11-46.94,30.53
		c-12.22,17.17-12.08,41.55-1.6,59.84s30.11,30.4,50.87,34.05c34.31,6.02,63.99-14.18,66.61-16.1c6.16-4.5,13.25-7.72,20.66-9.48
		C160.13,163.25,168.93,163.09,177.3,164.99z"/>
	<path class="st0" d="M108.95,22.6c1.46-3.93,2.2-8.7-0.84-11.66c-1.65-1.61-4.16-2.35-6.64-2.37c-2.48-0.02-4.93,0.6-7.27,1.4
		c-6.39,2.19-12.51,5.98-15.5,11.51c-1.39,2.58-2,5.73-0.43,8.13c1.77,2.71,5.68,3.58,9.23,3.75c3.84,0.19,7.73-0.16,11.5-1.01
		c1.77-0.4,5.99-1.31,7.56-4.34C107.48,26.24,108.27,24.43,108.95,22.6z"/>
	<g>
		<g>
			<polygon class="st1" points="101.99,91.22 115.83,122.29 108.55,121.56 90.1,99.23 			"/>
			<polygon class="st2" points="90.58,91.95 108.3,123.02 101.02,122.29 82.57,99.96 			"/>
			<g>
				<polygon class="st1" points="112.02,207.54 113.3,219.13 100.24,224.05 97.37,209.5 				"/>
				<path class="st3" d="M114.16,217.63c0,0-12.1,6.21-15.27,2.2c0,0-2.09,5.76,3.67,7.85c0,0,22.49,8.81,26.94,0.51
					C129.5,228.19,132.78,218.66,114.16,217.63z"/>
				<path class="st4" d="M100.17,225.73c0,0,21.07,8.17,28.37,3.05"/>
			</g>
			<g>
				<polygon class="st1" points="73.54,206.59 70.05,217.72 56.12,216.97 59.34,202.5 				"/>
				<path class="st3" d="M71.44,216.69c0,0-13.58,0.82-14.86-4.13c0,0-4.23,4.43,0.2,8.66c0,0,17.05,17.12,24.46,11.31
					C81.23,232.53,88.07,225.13,71.44,216.69z"/>
				<path class="st4" d="M55.37,218.48c0,0,16,15.95,24.75,14.21"/>
			</g>
			<polygon class="st5" points="96.47,212.97 114.49,209.87 113.95,126.66 85.91,120.47 90.1,177.64 			"/>
			<path class="st2" d="M93.01,153.61c0.49,4.37,7.28,58.51,7.28,58.51l-3.82,0.85l-10.01-51.59L93.01,153.61z"/>
			<path class="st5" d="M62.24,126.3c0,0,5.52,37.02,4.92,44.06s-3.46,25.13-12.2,35.32l20.76,9.29c0,0,14.93-32.59,16.39-36.6
				c0,0,4.19-8.19,1.09-26.22l-3.28-25.85H62.24z"/>
			<polygon class="st2" points="97.86,133.22 63.88,137.83 90.34,129.82 94.71,127.88 			"/>
			<path class="st2" d="M35.7,85.65c-1.96,1.52-4.55,3.09-4.46,5.57c0.1,2.47,2.88,3.97,3.64,6.32c0.68,2.11-0.39,4.37-0.32,6.58
				c0.08,2.37,1.54,4.57,3.55,5.84s4.47,1.68,6.83,1.46c1.49-0.14,2.96-0.52,4.46-0.45c5.21,0.25,9.52,5.83,14.62,4.72
				c3.89-0.84,5.83-5.07,7.55-8.65c2.64-5.54,6.1-10.77,10.78-14.74c2.3-1.95,4.88-3.59,6.87-5.86c1.74-1.98,2.95-4.34,4.14-6.69
				c1.48-2.9,3-6.15,2.12-9.28c-0.84-3-3.68-5-6.56-6.18c-3.41-1.39-7.15-1.96-10.82-1.66c0.45-1.94,0.91-3.92,0.67-5.9
				c-0.23-1.97-1.3-3.97-3.12-4.77c0.12-1.84,0.05-3.89-1.19-5.25c-1.25-1.36-4.04-1.22-4.49,0.57c-1.86-2.11-4.89-3.36-7.57-2.5
				s-4.47,4.19-3.18,6.69c-1.76,0.35-3.57,0.9-4.86,2.16c-1.28,1.26-1.85,3.4-0.86,4.9c-2.34,0.34-4.18,2.25-5.25,4.37
				s-1.53,4.47-2.3,6.71c-0.94,2.72-2.41,5.02-3.99,7.4c-1.13,1.7-1.85,3.62-3.04,5.3C38,83.57,36.92,84.7,35.7,85.65z"/>
			<path class="st6" d="M102.48,91.22l-6.31,10.44l-3.64-6.8l12.62,32.53l-43.21,10.92l-8.5-61.42c0,0,18.21-7.77,33.26-1.94
				C86.7,74.95,97.38,78.84,102.48,91.22z"/>
			<path class="st1" d="M68.52,63.94l7.47,11.02c0,0-7.47,3.19-10.92-0.18l-0.73-14.02c0,0-4.83,2.28-5.01-2.91
				c0,0,0.18-2.73,2.55-2.73c0,0,4.01,1.55,5.74-1.55c0,0,0.91-2.55,0.27-3.37c0,0,2.82-0.91,4.73,6.65
				C72.62,56.84,76.08,68.22,68.52,63.94z"/>
			<path class="st1" d="M54.95,104.81c0,0,14.81,16.83,27.01,13.37l6.55,9.65c0,0-37.2,14.67-47.58-18.65L54.95,104.81z"/>
			<path class="st6" d="M39.84,110.88l18.21-4.86c0,0-3.16-10.2,2.67-16.02l-7.28-13.11C53.44,76.89,30.86,80.29,39.84,110.88z"/>
		</g>
		<g>
			<path class="st5" d="M176.89,55.46c11.99,0.01,23.78,0.03,35.66,0.04c-0.37-2.81-0.7-5.59-1.12-8.36
				c-0.74-4.91,0.6-9.05,4.7-11.96c3.97-2.82,8.3-3.07,12.54-0.63c4.25,2.45,6.23,6.3,5.82,11.22c-0.22,2.62-0.66,5.23-1,7.84
				c-0.08,0.63-0.14,1.25-0.22,1.93c8.16-0.02,16.26-0.03,24.39-0.05c-0.02,12.88-0.03,25.67-0.05,38.61
				c2.27-0.29,4.28-0.57,6.28-0.81c2.12-0.25,4.24-0.64,6.36-0.66c6.68-0.07,12.16,6.27,11.28,12.89
				c-0.9,6.82-6.58,11.16-13.41,10.26c-3.4-0.45-6.81-0.88-10.29-1.34c0.02,7.3,0.04,14.58,0.06,21.83
				c-7.24-0.01-14.29-0.02-21.41-0.03c0.28-2.19,0.58-4.46,0.85-6.74c1.06-8.91-6.85-16.9-15.76-15.92
				c-6.75,0.74-11.86,5.36-13.03,12.06c-0.31,1.76-0.03,3.64,0.1,5.46c0.13,1.72,0.43,3.43,0.65,5.09
				c-10.77-0.01-21.48-0.01-32.24-0.02c0.03-10.24,0.05-20.64,0.08-31.1c-3.14,0.42-6.02,0.8-8.89,1.18
				c-5.01,0.66-9.07-1.05-11.79-5.29c-2.61-4.06-2.55-8.35-0.02-12.48c2.46-4.01,7.13-6,11.8-5.28c2.86,0.44,5.74,0.76,8.67,1.14
				C176.92,74.73,176.91,65.2,176.89,55.46z"/>
		</g>
		<path class="st7" d="M122,58.7c-0.48-3.65-0.93-7.12-1.39-10.59c-0.75-5.57,2.51-10.87,7.78-12.66c5.38-1.82,11.35,0.49,14.07,5.5
			c1.15,2.13,1.63,4.44,1.31,6.87c-0.43,3.34-0.87,6.68-1.3,10.02c-0.03,0.26-0.06,0.52-0.1,0.83c6.75,0,13.45-0.01,20.11-0.01
			c0,6.47,0,12.88,0.01,19.33c-1.79-0.17-3.6-0.46-5.42-0.48c-11.31-0.18-19.55,11.13-15.98,21.87c2.55,7.67,10,12.38,18.02,11.38
			c1.12-0.14,2.24-0.3,3.3-0.44c0.01,9.71,0.01,19.39,0.02,29.09c-9.71-0.01-19.5-0.02-29.42-0.04c0.29,2.36,0.47,4.55,0.85,6.69
			c0.64,3.57,0.72,7.01-1.31,10.24c-2.62,4.17-7.64,6.35-12.34,5.28c-5.02-1.14-8.66-5.09-9.12-10.13c-0.15-1.67,0.1-3.38,0.27-5.07
			c0.24-2.25,0.59-4.49,0.89-6.77c-9.59,0.01-19.14,0.03-28.71,0.04c0.01-12,0.02-23.79,0.03-35.72c-1.21,0.14-2.25,0.26-3.29,0.39
			c-1.85,0.24-3.7,0.49-5.55,0.76c-5.9,0.85-10.91-1.97-13.1-7.39c-3.15-7.79,3.66-16.73,12-15.73c2.95,0.35,5.89,0.76,8.83,1.14
			c0.33,0.04,0.65,0.07,1.08,0.11c-0.01-8.17-0.02-16.27-0.03-24.53c6.39,0,12.78-0.01,19.16-0.01
			C109.07,58.69,115.47,58.7,122,58.7z"/>
		<g>
			<path class="st1" d="M81.48,118.61l6.99-5.4c0,0,0.95-1.27,1.81-0.7c0,0,1.99,0.8,1.11,2.19l-1.44,2.25l5.46-2.3
				c0,0,1.06-0.86,1.73,0.16c0,0,1.94,1.97,0.36,3.01l-4.18,1.78l5.04-1.21c0,0,1.02-0.67,1.58,0.42c0,0,1.07,2.37-0.21,2.89
				l-3.39,1.26l2.33,0.09c0,0,0.6,0.42,0.71,1.32c0,0,0.36,2.03-1.14,2.21c0,0-10.87,2.94-14.96,2.39"/>
			<line class="st8" x1="97.25" y1="122.76" x2="93.31" y2="123.95"/>
			<path class="st8" d="M88.07,118.35c-1.29,1.41-1.75,3.52-1.16,5.33"/>
		</g>
		<g>
			<g>
				<path class="st9" d="M217.85,134.43c0,0-5.35,6.63-11.57,6.91c-3.69,0.17-9.04-5.16-9.04-5.16l17.96-0.97L217.85,134.43z"/>
			</g>
			<g>
				<path class="st10" d="M256.54,223.24c0,0-0.65,5.22-4.34,6.35c-3.69,1.12-14.08,1.43-10.58,5.18c2.01,2.15,12.5,1.94,15.43,2.23
					c2.93,0.29,5.55,1.84,7.92,0.1c2.61-1.92,1.28-12.89,1.28-12.89s-2.66,1.06-4.92,0.78
					C258.06,224.58,256.54,223.24,256.54,223.24z"/>
			</g>
			<g>
				<path class="st3" d="M251.2,125.95c-0.07,7.38-5.36,28.45-5.83,43.48c-0.96,30.34,8.09,60.6,15.16,60.96l2.04,0.29
					c4.1,0.57,7.79-2.63,7.9-6.86c0,0-1.47-29.2-1.41-37.97c0.12-17.7,10.82-48.88,10.82-48.88S251.31,113.85,251.2,125.95z"/>
			</g>
			<g>
				<path class="st10" d="M280.05,222.06c0,0,0.46,5.34-2.91,7.24c-3.37,1.9-13.47,4.4-9.26,7.39c2.42,1.72,12.63-0.7,15.56-1.03
					c2.92-0.33,5.81,0.67,7.77-1.57c2.15-2.46-1.46-13.11-1.46-13.11s-2.37,1.62-4.65,1.81
					C281.81,223.07,280.05,222.06,280.05,222.06z"/>
			</g>
			<g>
				<path class="st3" d="M272.11,123.6c-0.07,7.38-5.36,28.45-5.83,43.48c-0.96,30.34,8.09,60.6,15.16,60.96l2.04,0.29
					c4.1,0.57,7.79-2.63,7.9-6.86c0,0-1.47-29.2-1.41-37.97c0.07-9.5,3.18-22.89,6.05-33.25c2.86-10.31,0.36-26.22-8.95-31.48
					C280.44,115,272.17,117.96,272.11,123.6z"/>
			</g>
			<g>
				<path class="st11" d="M305.44,98.75c-8.11-19.79-34.49-25.28-34.49-25.28s4.11,13.38,8.45,25.19
					c0.39,1.07,11.43-1.21,11.71-0.75c0.73,1.21-7.53,3.64-8.39,9.28c-0.96,6.24,4.57,11.38,5.72,10.62
					C294.67,113.73,308.1,104.46,305.44,98.75z"/>
			</g>
			<g>
				<path class="st9" d="M259.54,72.31l-2.75-4.23l-0.8-1.23l-4.71-7.24l1.71,7.98l1.03,4.79l0.32,1.52
					c0.22,1.03-0.39,1.42-0.97,2.51c-0.24,0.44-1.78,3.17,0.87,3.52c3.3,0.45,8.39-2.86,9.87-5.83
					C264.08,74.1,260.43,73.68,259.54,72.31z"/>
			</g>
			<g>
				<path class="st9" d="M244.67,63.51c-0.55-4.83,2.47-9.21,6.76-9.78s8.22,2.87,8.77,7.7c0.55,4.83-4.73,9.8-9.02,10.38
					C246.9,72.38,245.23,68.33,244.67,63.51z"/>
			</g>
			<g>
				<path class="st10" d="M247.4,60.62c-4.3,1.28-7.01-0.5-7.62-2.64c-0.78-2.74,0.45-5.68,2.9-5.22c2.45,0.46,0.86-1.81,2.88-2.63
					c3.79-1.52,5.2,0.88,8.44,0.17c4.27-0.94,10.8,4.35,8.5,10.05C262.49,60.35,250.79,59.6,247.4,60.62z"/>
			</g>
			<g>
				<path class="st10" d="M242.8,58.84c0,0,5.72,2.94,5.71,5.43c0,2.49,0.39,3.37,3.42,3.91c3.03,0.54,1.17,3.18,4.82,2.39
					c3.65-0.79,7.04-5.91,5.34-12.42c-0.95-3.63-3.81-5.42-3.81-5.42L242.8,58.84z"/>
			</g>
			<g>
				<path class="st9" d="M246.15,64.78c0.35-0.83,1.26-1.29,2.04-1.03c0.78,0.26,1.13,1.15,0.79,1.98
					c-0.35,0.83-1.26,1.29-2.04,1.03C246.16,66.49,245.81,65.6,246.15,64.78z"/>
			</g>
			<g>
				<path class="st10" d="M248.76,142.33c7.02-1.78,33.19-6.15,47.78-7.69c0,0,1.04-1.74,0.18-3.5c-2.55-5.23-22.81-2.65-22.81-2.65
					l-16.81,4.82l-4.91,2.46l-4.7,6.44C247.5,142.21,247.75,142.58,248.76,142.33z"/>
			</g>
			<g>
				<path class="st11" d="M280.57,80.51c0,0-5.86-11.35-22.82-6.93c-29.54,7.7-17.5,29.61-10.25,68.63c0,0,20.48-8.91,49.47-10.59
					c0,0-2.72-21.45-10.76-38.08C284.09,89.14,282.98,84.19,280.57,80.51z"/>
			</g>
			<g>
				<path class="st11" d="M254.34,74.62c0,0-9.44,2.61-14.76,11.09c-5.31,8.49-4.27,15.76-9.88,23.66
					c-4.13,5.82,2.71,14.61,8.29,13.3c5.58-1.31,9.5-6.62,9.5-6.62L254.34,74.62z"/>
			</g>
			<g>
				<path class="st9" d="M217.32,133.19c0,0-3.8-2.94-7.95-0.32c-1.49,0.94-5.26-0.76-4.76,0.74c0.5,1.5,4.87,3.7,4.4,5.02
					C208.54,139.95,217.32,133.19,217.32,133.19z"/>
			</g>
			<g>
				<path class="st10" d="M269.36,203.38c-2.05-13.31,1.23-26.81,4.34-35.78c3.37-9.72,7.28-16.39,7.32-16.45l0.32,0.19
					c-0.04,0.07-3.93,6.71-7.29,16.39c-3.1,8.93-6.36,22.36-4.32,35.6L269.36,203.38z"/>
			</g>
			<g>
				<path class="st11" d="M215.15,137.84c3.84,2.12,30.81-7.62,34.66-20.57c4.1-13.77-20.11-7.89-20.11-7.89l-17.9,22.21
					C211.8,131.58,211.26,135.69,215.15,137.84z"/>
			</g>
			<path class="st10" d="M243.62,125.58c0,0,3.7-3.89,7.05-12.93l-4.52,21.91L243.62,125.58z"/>
			<path class="st12" d="M271.86,83.16c-0.12,0.57-0.19,1.19,0.08,1.7s0.98,0.83,1.45,0.5c0.36-0.25,0.45-0.75,0.49-1.19
				c0.11-1.2,0.14-2.41,0.05-3.6c-0.03-0.43-0.28-0.97-0.75-0.56c-0.37,0.32-0.58,0.93-0.77,1.37
				C272.18,81.96,271.99,82.55,271.86,83.16z"/>
			<path class="st12" d="M288.27,89.3c0.34,0.47,0.76,0.93,1.32,1.08c0.56,0.15,1.27-0.16,1.35-0.74c0.06-0.44-0.25-0.83-0.55-1.16
				c-0.81-0.88-1.69-1.72-2.64-2.46c-0.34-0.26-0.91-0.44-0.91,0.18c0,0.49,0.3,1.05,0.5,1.49C287.6,88.26,287.91,88.8,288.27,89.3z
				"/>
			<path class="st12" d="M254.1,99.17c-0.04,0.22-0.07,0.45,0,0.67s0.25,0.41,0.48,0.42c0.27,0.01,0.47-0.23,0.62-0.45
				c1.1-1.61,1.7-3.56,1.7-5.51c0-0.11-0.5,0.18-0.53,0.2c-0.1,0.08-0.2,0.17-0.28,0.26c-0.26,0.28-0.47,0.61-0.67,0.93
				c-0.42,0.68-0.76,1.41-1,2.17C254.28,98.29,254.17,98.73,254.1,99.17z"/>
			<path class="st12" d="M241.58,118.55c-0.04,0.22-0.07,0.45,0,0.67s0.25,0.41,0.48,0.42c0.27,0.01,0.47-0.23,0.62-0.45
				c1.1-1.61,1.7-3.56,1.7-5.51c0-0.11-0.5,0.18-0.53,0.2c-0.1,0.08-0.2,0.17-0.28,0.26c-0.26,0.28-0.47,0.61-0.67,0.93
				c-0.42,0.68-0.76,1.41-1,2.17C241.76,117.67,241.65,118.1,241.58,118.55z"/>
			<circle class="st12" cx="296.63" cy="106.36" r="0.61"/>
			<circle class="st12" cx="243.35" cy="100.11" r="1.44"/>
			<circle class="st12" cx="266.6" cy="94.65" r="1.22"/>
			<circle class="st12" cx="257.11" cy="113.68" r="1.22"/>
			<circle class="st12" cx="274.09" cy="126.39" r="1.44"/>
			<path class="st12" d="M280.5,107.41c-0.05,0.29-0.09,0.59,0,0.86c0.09,0.28,0.35,0.52,0.64,0.5c0.22-0.01,0.41-0.17,0.55-0.34
				c0.6-0.66,0.88-1.55,1.06-2.43c0.18-0.87,0.29-1.76,0.39-2.65c0.02-0.18,0.04-0.37-0.01-0.55c-0.06-0.17-0.21-0.33-0.4-0.32
				c-0.26,0.01-0.39,0.47-0.51,0.66c-0.21,0.31-0.4,0.63-0.58,0.96c-0.35,0.66-0.64,1.35-0.85,2.06
				C280.67,106.58,280.57,106.99,280.5,107.41z"/>
			<path class="st12" d="M276.1,95.11c0.09,0.31,0.24,0.63,0.5,0.82s0.67,0.22,0.9-0.01c0.29-0.28,0.19-0.77,0.07-1.16
				c-0.21-0.67-0.41-1.37-0.31-2.06c0.08-0.54,0.35-1.03,0.48-1.55c0.1-0.39-0.18-0.34-0.44-0.18c-0.75,0.45-1.12,1.62-1.27,2.43
				C275.93,93.97,275.94,94.55,276.1,95.11z"/>
			<path class="st12" d="M298.81,100.59c-0.09,0.31-0.24,0.63-0.5,0.82c-0.26,0.19-0.67,0.22-0.9-0.01
				c-0.29-0.28-0.19-0.77-0.07-1.16c0.21-0.67,0.41-1.37,0.31-2.06c-0.08-0.54-0.35-1.03-0.48-1.55c-0.1-0.39,0.18-0.34,0.44-0.18
				c0.75,0.45,1.12,1.62,1.27,2.43C298.98,99.45,298.97,100.04,298.81,100.59z"/>
			<path class="st12" d="M228.79,130.31c0.11-0.31,0.18-0.65,0.07-0.96s-0.41-0.57-0.73-0.52c-0.4,0.06-0.61,0.51-0.74,0.9
				c-0.23,0.66-0.47,1.35-0.96,1.85c-0.38,0.39-0.88,0.63-1.3,0.97c-0.31,0.26-0.06,0.38,0.25,0.41c0.88,0.08,1.86-0.65,2.46-1.22
				C228.25,131.34,228.59,130.85,228.79,130.31z"/>
			<path class="st12" d="M259.97,130.72c-0.22,0.46-0.35,0.95-0.41,1.45c-0.03,0.25-0.03,0.52,0.11,0.73
				c0.19,0.28,0.6,0.35,0.92,0.24c0.32-0.11,0.57-0.36,0.78-0.63c0.86-1.08,1.27-2.45,1.4-3.81c0.03-0.29,0.23-1.21-0.32-1.04
				c-0.45,0.14-0.84,0.62-1.1,0.98C260.87,129.31,260.32,129.97,259.97,130.72z"/>
			<path class="st12" d="M258.32,81.2c-0.22,0.46-0.35,0.95-0.41,1.45c-0.03,0.25-0.03,0.52,0.11,0.73c0.19,0.28,0.6,0.35,0.92,0.24
				c0.32-0.11,0.57-0.36,0.78-0.63c0.86-1.08,1.27-2.45,1.4-3.81c0.03-0.29,0.23-1.21-0.32-1.04c-0.45,0.14-0.84,0.62-1.1,0.98
				C259.22,79.79,258.67,80.45,258.32,81.2z"/>
			<path class="st12" d="M288.61,121.59c-0.18,0.37-0.36,0.77-0.32,1.18c0.05,0.41,0.42,0.81,0.82,0.73
				c0.29-0.06,0.49-0.33,0.64-0.59c0.78-1.35,1.25-2.85,1.71-4.34c0.1-0.31,0.15-0.82-0.31-0.86c-0.32-0.03-0.56,0.41-0.72,0.63
				c-0.47,0.64-0.86,1.33-1.23,2.03C289.01,120.77,288.81,121.18,288.61,121.59z"/>
			<path class="st12" d="M230.55,118.27c-1.14,0.7-2.33,1.46-2.98,2.63c-0.22,0.4-0.37,0.93-0.09,1.3c0.2,0.28,0.59,0.37,0.93,0.31
				c0.34-0.07,0.64-0.26,0.91-0.48c0.67-0.53,1.23-1.19,1.78-1.83c0.91-1.07,1.82-2.14,2.73-3.2c0.15-0.18,0.4-0.52,0.12-0.7
				c-0.22-0.14-0.37,0.01-0.51,0.15c-0.24,0.23-0.56,0.39-0.85,0.56c-0.32,0.2-0.63,0.39-0.95,0.59
				C231.28,117.82,230.92,118.05,230.55,118.27z"/>
			<path class="st12" d="M243.52,85.98c-0.64,0.79-1.29,1.62-1.39,2.58c-0.03,0.33,0.04,0.72,0.38,0.88
				c0.25,0.12,0.59,0.08,0.82-0.06s0.4-0.35,0.53-0.57c0.33-0.54,0.54-1.13,0.74-1.72c0.34-0.96,0.67-1.93,1.01-2.89
				c0.06-0.16,0.13-0.46-0.15-0.5c-0.22-0.03-0.28,0.11-0.34,0.25c-0.1,0.22-0.3,0.42-0.46,0.61c-0.18,0.22-0.35,0.44-0.53,0.66
				C243.93,85.47,243.72,85.72,243.52,85.98z"/>
			<path class="st12" d="M268.49,114.25c-0.76,1.1-1.54,2.27-1.67,3.6c-0.04,0.46,0.04,1,0.44,1.23c0.3,0.17,0.69,0.1,0.98-0.1
				s0.48-0.5,0.64-0.8c0.4-0.76,0.65-1.58,0.89-2.4c0.4-1.34,0.81-2.69,1.21-4.03c0.07-0.22,0.15-0.64-0.17-0.69
				c-0.26-0.04-0.33,0.16-0.41,0.35c-0.12,0.31-0.36,0.58-0.55,0.86c-0.21,0.31-0.42,0.61-0.63,0.92
				C268.98,113.54,268.73,113.89,268.49,114.25z"/>
			<circle class="st12" cx="268.09" cy="105.13" r="0.61"/>
			<circle class="st12" cx="236.01" cy="112.57" r="0.61"/>
		</g>
	</g>
</g>
</svg>
