<?xml version="1.0" encoding="utf-8"?>
<!-- Generator: Adobe Illustrator 25.2.1, SVG Export Plug-In . SVG Version: 6.00 Build 0)  -->
<svg version="1.1" id="Layer_1" xmlns="http://www.w3.org/2000/svg" xmlns:xlink="http://www.w3.org/1999/xlink" x="0px" y="0px"
	 viewBox="0 0 328.79 240" style="enable-background:new 0 0 328.79 240;" xml:space="preserve">
<style type="text/css">
	.st0{fill:#C7C8DF;}
	.st1{fill:#ECECEC;}
	.st2{fill:#FFFFFF;}
	.st3{fill-rule:evenodd;clip-rule:evenodd;fill:#FFFFFF;}
	.st4{fill:#263239;}
	.st5{fill:none;}
	.st6{fill:#56AEE2;}
	.st7{fill:#DCDCDC;}
	.st8{fill:#C9C8C8;}
	.st9{fill:#F7C751;}
	.st10{fill:#20201E;}
	.st11{fill:#5669A4;}
	.st12{fill:#F0AA6E;}
	.st13{opacity:0.1;fill:#020203;}
	.st14{fill:#D19C26;}
	.st15{fill:#D3874D;}
	.st16{fill:#D85930;}
	.st17{fill:#A13A20;}
</style>
<g>
	<path class="st0" d="M135.87,62.34c-19.74-0.55-39.56-11.89-58.45-6.13C-12.22,83.57,2.79,162.6,8.96,175.12
		c6.16,12.52,15.85,22.98,26.37,32.16c17.02,14.84,37.41,27.08,59.89,29.2c18.91,1.78,37.92-3.76,54.84-12.41
		c16.92-8.64,32.07-20.3,47.29-31.67c24.6-18.37,49.63-36.14,75.08-53.31c16.21-10.94,33.41-22.56,41.43-40.4
		c8.93-19.87,3.87-44.55-10.43-60.98c-14.31-16.42-36.65-24.75-58.42-24.27c-35.99,0.8-62,27.26-64.28,29.74
		c-5.34,5.81-11.87,10.49-19.04,13.78C153.63,60.65,144.75,62.59,135.87,62.34z"/>
	<path class="st0" d="M323.25,165.1c0.08-7.32-1.51-15.6-8.26-18.68c-3.65-1.67-8.22-1.41-12.31,0.01c-4.08,1.42-7.75,3.9-11.13,6.6
		c-9.22,7.36-17.05,17.2-18.69,28.06c-0.76,5.05,0.1,10.6,4.09,13.61c4.52,3.41,11.45,2.53,17.39,0.72
		c6.42-1.96,12.61-4.82,18.31-8.44c2.67-1.7,9.07-5.69,9.87-11.6C322.98,171.95,323.22,168.52,323.25,165.1z"/>
	<g>
		<path class="st1" d="M45.85,102.47c-3.23-8.7,1.2-18.37,9.89-21.6c8.7-3.23,18.37,1.2,21.6,9.9c3.23,8.7-1.2,18.37-9.89,21.6
			C58.76,115.6,49.09,111.17,45.85,102.47z"/>
		<path class="st2" d="M70.36,97.71c-1.93,5.38-7.57,9.1-7.57,9.1s-6.35-2.32-9.46-7.11c-2.6-4-1.8-8.74,1.4-10.12
			c4.58-1.99,6.77,6.14,6.77,6.14s0.25-8.42,5.18-7.54C70.1,88.79,71.97,93.22,70.36,97.71z"/>
	</g>
	<g>
		<path class="st1" d="M251.73,127.64c-1.53,0.78-3.21,1.33-5,1.61c-4.64,0.72-9.12-0.52-12.6-3.13c-3.41-2.54-5.87-6.37-6.58-10.9
			c-1.42-9.17,4.86-17.76,14.03-19.18c9.17-1.43,17.75,4.86,19.18,14.03C261.9,117.45,258.05,124.45,251.73,127.64z"/>
		<g>
			<path class="st2" d="M249.41,111.17c-0.24,2.81-2.72,4.9-5.53,4.66c-2.81-0.24-4.9-2.72-4.66-5.53c0.24-2.81,2.72-4.9,5.53-4.66
				C247.56,105.88,249.65,108.35,249.41,111.17z"/>
			<path class="st2" d="M251.91,125.54l-0.18,2.1c-1.53,0.78-3.21,1.33-5,1.61c-4.64,0.72-9.12-0.52-12.6-3.13l0.18-2.09
				c0.42-4.85,4.69-8.46,9.56-8.05C248.73,116.39,252.32,120.69,251.91,125.54z"/>
		</g>
	</g>
	<g>
		
			<ellipse transform="matrix(0.92 -0.3919 0.3919 0.92 -0.8537 107.0814)" class="st1" cx="261.88" cy="55.63" rx="18.46" ry="18.46"/>
		<g id="xsrjP0_1_">
			<g>
				<path class="st3" d="M259.36,62.97c-0.49-0.31-0.91-0.75-1.57-0.69c-0.25,0.02-0.2-0.18-0.2-0.32c0-2.46,0-4.92-0.01-7.37
					c0-0.18,0.01-0.33,0.21-0.42c1.88-0.95,2.69-2.81,3.84-4.4c1.23-1.7,1.65-3.54,1.36-5.58c-0.08-0.55,0.18-0.8,0.68-0.91
					c0.6-0.14,1.2,0.03,1.4,0.44c0.51,1.02,0.94,2.09,1.07,3.22c0.11,0.93-0.23,1.84-0.34,2.76c-0.09,0.68-0.24,1.34-0.37,2.03
					c0.16,0.12,0.36,0.06,0.53,0.06c2.08,0,4.15,0,6.23,0c0.88,0,1.3,0.25,1.43,0.83c0.15,0.72-0.23,1.46-0.9,1.8
					c-0.16,0.08-0.44,0.01-0.46,0.25c-0.02,0.25,0.27,0.22,0.41,0.32c0.75,0.52,0.61,1.58-0.26,2.19c-0.21,0.15-0.62,0.08-0.63,0.39
					c0,0.24,0.37,0.24,0.55,0.41c0.61,0.6,0.31,1.72-0.6,2.17c-0.12,0.06-0.26,0.07-0.36,0.14c-0.1,0.07-0.2,0.15,0,0.29
					c0.9,0.64,0.88,1.54-0.03,2.19c-0.09,0.06-0.18,0.13-0.27,0.19c-0.33,0.24-0.72,0.24-1.09,0.24c-3.26,0.01-6.51,0-9.77,0
					C259.91,63.21,259.6,63.2,259.36,62.97z"/>
				<path class="st3" d="M250.1,58.64c0-1.56,0.01-3.12-0.01-4.69c0-0.32,0.03-0.47,0.42-0.47c1.91,0.02,3.81,0.02,5.71,0
					c0.37,0,0.43,0.12,0.43,0.46c-0.01,3.14-0.01,6.29,0,9.43c0,0.4-0.11,0.51-0.51,0.51c-1.85-0.02-3.7-0.03-5.54,0
					c-0.46,0.01-0.52-0.15-0.52-0.56C250.11,61.76,250.1,60.2,250.1,58.64z"/>
			</g>
		</g>
	</g>
	<g>
		<path class="st1" d="M76.54,189.16c0.95,6.19-2.54,12.72-2.54,12.72s-7.33,1.09-12.82-1.9c-4.59-2.49-6.3-7.47-3.94-10.48
			c3.37-4.31,9.72,2.38,9.72,2.38s-4.15-8.24,1.05-9.96C71.63,180.72,75.74,184.01,76.54,189.16z"/>
		<path class="st1" d="M89.32,173.94c-2.77,3.68-8,5.2-8,5.2s-4.34-3.3-5.59-7.73c-1.04-3.7,0.7-7.16,3.49-7.46
			c4-0.44,3.75,6.34,3.75,6.34s2.2-6.42,5.78-4.57C91.25,167.01,91.63,170.87,89.32,173.94z"/>
	</g>
	<g>
		<g>
			<path class="st4" d="M204.73,6.21h-97.98c-5.47,0-9.91,4.51-9.91,10.1V218c0,5.57,4.44,10.1,9.91,10.1h97.98
				c5.48,0,9.92-4.53,9.92-10.1V16.31C214.65,10.73,210.2,6.21,204.73,6.21z M208.45,211.77c0,5.31-3.98,9.6-8.88,9.6h-87.65
				c-4.91,0-8.89-4.29-8.89-9.6V23.95c0-10.81,3.98-11.34,8.89-11.34h17.56c1.02,0,1.85,1.16,1.85,2.6v0.62
				c0,3.37,1.84,3.38,4.11,3.38h40.6c2.28,0,4.11-0.01,4.11-3.38v-0.62c0-1.44,0.82-2.6,1.86-2.6h17.56c4.9,0,8.88,1.44,8.88,11.34
				V211.77z"/>
			<path class="st2" d="M161.28,15h-11.08c-0.38,0-0.68-0.31-0.68-0.68l0,0c0-0.38,0.31-0.68,0.68-0.68h11.08
				c0.38,0,0.68,0.31,0.68,0.68l0,0C161.97,14.7,161.66,15,161.28,15z"/>
			<line class="st5" x1="103.03" y1="199.86" x2="102.7" y2="199.86"/>
			<g>
				<path class="st2" d="M208.45,23.95v187.81c0,5.31-3.98,9.6-8.88,9.6h-87.65c-4.91,0-8.89-4.29-8.89-9.6V23.95
					c0-10.81,3.98-11.34,8.89-11.34h17.56c1.02,0,1.85,1.16,1.85,2.6v0.62c0,3.37,1.84,3.38,4.11,3.38h40.6
					c2.28,0,4.11-0.01,4.11-3.38v-0.62c0-1.44,0.82-2.6,1.86-2.6h17.56C204.48,12.61,208.45,14.05,208.45,23.95z"/>
				<path class="st6" d="M208.45,23.95v14.01H103.03V23.95c0-10.81,3.98-11.34,8.89-11.34h17.56c1.02,0,1.85,1.16,1.85,2.6v0.62
					c0,3.37,1.84,3.38,4.1,3.38h40.6c2.28,0,4.11-0.01,4.11-3.38v-0.62c0-1.44,0.82-2.6,1.86-2.6h17.56
					C204.48,12.61,208.45,14.05,208.45,23.95z"/>
				<g>
					<polygon class="st2" points="113.02,31.13 109.91,28.21 113.02,25.29 113.5,25.8 110.94,28.21 113.5,30.61 					"/>
					<path class="st2" d="M198.89,31.33h-2.08v-0.72c0-0.06-0.04-0.12-0.1-0.15c-0.08-0.04-0.16-0.09-0.23-0.13
						c-0.06-0.04-0.13-0.04-0.18-0.01l-0.63,0.36l-1.04-1.8l0.63-0.36c0.05-0.03,0.09-0.09,0.08-0.16c0-0.04,0-0.09,0-0.13
						c0-0.04,0-0.09,0-0.13c0-0.07-0.03-0.13-0.08-0.16l-0.63-0.36l1.04-1.8l0.63,0.36c0.06,0.03,0.13,0.03,0.18-0.01
						c0.08-0.05,0.15-0.09,0.23-0.14c0.06-0.03,0.1-0.09,0.1-0.15v-0.72h2.08v0.72c0,0.06,0.04,0.12,0.1,0.15
						c0.08,0.04,0.16,0.09,0.23,0.14c0.06,0.04,0.13,0.04,0.18,0.01l0.63-0.36l1.04,1.8l-0.63,0.36c-0.06,0.03-0.09,0.09-0.08,0.16
						c0,0.05,0,0.09,0,0.13c0,0.04,0,0.09,0,0.13c0,0.07,0.03,0.13,0.08,0.17l0.63,0.36l-1.04,1.8l-0.63-0.36
						c-0.05-0.03-0.13-0.03-0.18,0.01c-0.07,0.05-0.15,0.09-0.23,0.13c-0.06,0.03-0.1,0.09-0.1,0.15V31.33z M197.24,30.9h1.22v-0.29
						c0-0.23,0.13-0.44,0.33-0.54c0.07-0.03,0.13-0.07,0.19-0.11c0.19-0.13,0.44-0.14,0.64-0.02l0.25,0.14l0.61-1.05l-0.25-0.15
						c-0.2-0.11-0.31-0.33-0.3-0.56l0-0.11l0-0.11c-0.01-0.23,0.1-0.45,0.3-0.56l0.25-0.14l-0.61-1.05l-0.25,0.14
						c-0.2,0.11-0.44,0.11-0.64-0.02c-0.06-0.04-0.13-0.08-0.19-0.11c-0.21-0.11-0.34-0.31-0.34-0.54v-0.29h-1.22v0.29
						c0,0.23-0.13,0.44-0.34,0.54c-0.07,0.03-0.13,0.07-0.19,0.11c-0.2,0.13-0.44,0.13-0.64,0.02l-0.25-0.14l-0.61,1.05l0.25,0.14
						c0.2,0.11,0.31,0.33,0.3,0.56c0,0.04,0,0.07,0,0.11c0,0.04,0,0.07,0,0.11c0.01,0.23-0.1,0.45-0.3,0.56l-0.25,0.14l0.61,1.05
						l0.25-0.14c0.2-0.12,0.44-0.11,0.64,0.02c0.06,0.04,0.13,0.08,0.19,0.11c0.21,0.11,0.34,0.31,0.34,0.54V30.9z M197.84,29.78
						c-0.86,0-1.57-0.7-1.57-1.57c0-0.87,0.7-1.57,1.57-1.57c0.86,0,1.57,0.7,1.57,1.57C199.41,29.07,198.71,29.78,197.84,29.78z
						 M197.84,27.07c-0.62,0-1.13,0.51-1.13,1.13c0,0.62,0.51,1.13,1.13,1.13c0.63,0,1.13-0.51,1.13-1.13
						C198.98,27.58,198.47,27.07,197.84,27.07z"/>
				</g>
				<g>
					<g id="u5Zjqx_2_">
						<g>
							<path class="st2" d="M126.45,16.83c-0.06,0.06-0.11,0.11-0.17,0.17c-0.03,0.03-0.06,0.06-0.1,0.1
								c-0.46-0.44-1-0.68-1.63-0.68c-0.64,0-1.18,0.24-1.64,0.68c-0.03-0.03-0.06-0.06-0.09-0.1c-0.06-0.06-0.11-0.11-0.17-0.17
								c0,0,0,0-0.01,0c0,0,0,0,0,0c0,0,0.01-0.01,0.01-0.01c0.07-0.06,0.14-0.13,0.21-0.19c0.15-0.13,0.32-0.23,0.5-0.32
								c0.21-0.1,0.43-0.18,0.66-0.22c0.11-0.02,0.22-0.03,0.33-0.04c0.04,0,0.28-0.01,0.29,0c0.07,0.01,0.15,0.01,0.22,0.02
								c0.21,0.02,0.41,0.07,0.6,0.14c0.14,0.05,0.28,0.12,0.41,0.19c0.14,0.08,0.27,0.17,0.39,0.27
								C126.33,16.72,126.39,16.77,126.45,16.83C126.45,16.83,126.45,16.83,126.45,16.83z"/>
							<path class="st2" d="M123.45,17.63c-0.09-0.09-0.18-0.18-0.27-0.27c0.31-0.3,0.67-0.49,1.09-0.55
								c0.63-0.09,1.18,0.11,1.64,0.54c-0.09,0.09-0.18,0.18-0.27,0.27c-0.3-0.29-0.67-0.45-1.1-0.45
								C124.12,17.17,123.76,17.33,123.45,17.63z"/>
							<path class="st2" d="M125.38,17.9c-0.09,0.09-0.18,0.18-0.27,0.27c-0.15-0.15-0.34-0.23-0.56-0.23
								c-0.22,0-0.41,0.08-0.56,0.23c-0.09-0.09-0.18-0.18-0.27-0.27C124.14,17.45,124.91,17.42,125.38,17.9z"/>
						</g>
						<path class="st2" d="M124.79,18.4c0,0.13-0.11,0.24-0.24,0.24c-0.13,0-0.24-0.11-0.24-0.24c0-0.13,0.11-0.24,0.24-0.24
							C124.68,18.16,124.79,18.27,124.79,18.4z"/>
					</g>
					<g>
						<path class="st2" d="M109.91,17.34c0-0.39,0.31-0.7,0.7-0.7c0.39,0,0.7,0.31,0.7,0.7c0,0.39-0.31,0.7-0.7,0.7
							C110.22,18.04,109.91,17.73,109.91,17.34z"/>
						<path class="st2" d="M112.11,17.34c0-0.39,0.31-0.7,0.7-0.7c0.39,0,0.7,0.31,0.7,0.7c0,0.39-0.31,0.7-0.7,0.7
							C112.42,18.04,112.11,17.73,112.11,17.34z"/>
						<path class="st2" d="M114.31,17.34c0-0.39,0.31-0.7,0.7-0.7c0.39,0,0.7,0.31,0.7,0.7c0,0.39-0.31,0.7-0.7,0.7
							C114.62,18.04,114.31,17.73,114.31,17.34z"/>
						<path class="st2" d="M116.51,17.34c0-0.39,0.31-0.7,0.7-0.7c0.39,0,0.7,0.31,0.7,0.7c0,0.39-0.31,0.7-0.7,0.7
							C116.82,18.04,116.51,17.73,116.51,17.34z"/>
						<path class="st2" d="M118.71,17.34c0-0.39,0.31-0.7,0.7-0.7c0.39,0,0.7,0.31,0.7,0.7c0,0.39-0.31,0.7-0.7,0.7
							C119.02,18.04,118.71,17.73,118.71,17.34z"/>
					</g>
					<g>
						<path class="st2" d="M200.54,18.87h-5.69v-2.63h5.69V18.87z M195.15,18.58h5.11v-2.06h-5.11V18.58z"/>
						<rect x="195.33" y="16.68" class="st2" width="3.67" height="1.74"/>
						<rect x="200.55" y="16.85" class="st2" width="0.51" height="1.41"/>
					</g>
				</g>
				<polygon class="st1" points="119.05,209.89 118.25,209.89 118.25,213.57 116.75,213.57 116.75,211.69 114.1,211.69 
					114.1,213.57 112.6,213.57 112.6,209.89 111.8,209.89 115.42,206.14 				"/>
				<g>
					<rect x="190.95" y="206.14" class="st1" width="8.74" height="1.25"/>
					<rect x="190.95" y="209.23" class="st1" width="8.74" height="1.25"/>
					<rect x="190.95" y="212.32" class="st1" width="8.74" height="1.25"/>
				</g>
				<g>
					<g>
						<g>
							<path class="st7" d="M118.88,56.41c-0.51,0.32-1.08,0.56-1.7,0.71c-1.6,0.39-3.2,0.09-4.49-0.71
								c-1.27-0.78-2.24-2.04-2.62-3.6c-0.77-3.16,1.16-6.34,4.32-7.11c3.15-0.77,6.34,1.16,7.11,4.32
								C122.12,52.55,120.99,55.1,118.88,56.41z"/>
							<g>
								<path class="st2" d="M117.58,50.73c0,0.99-0.8,1.79-1.79,1.79c-0.99,0-1.79-0.8-1.79-1.79c0-0.99,0.8-1.79,1.79-1.79
									C116.78,48.94,117.58,49.74,117.58,50.73z"/>
								<path class="st2" d="M118.88,55.67v0.74c-0.51,0.32-1.08,0.56-1.7,0.71c-1.6,0.39-3.2,0.09-4.49-0.71v-0.74
									c0-1.7,1.38-3.09,3.09-3.09C117.5,52.57,118.88,53.96,118.88,55.67z"/>
							</g>
						</g>
					</g>
					<g>
						<rect x="129.04" y="45.86" class="st1" width="37.39" height="3.08"/>
						<rect x="129.04" y="51" class="st1" width="32.64" height="2.04"/>
						<rect x="129.04" y="54.93" class="st1" width="53.96" height="2.04"/>
					</g>
				</g>
				<g>
					
						<rect x="103.03" y="62.16" transform="matrix(-1 -1.224647e-16 1.224647e-16 -1 311.4685 198.128)" class="st1" width="105.41" height="73.81"/>
					<path class="st7" d="M115.35,83.14c0,4.82,3.91,8.73,8.73,8.73c4.82,0,8.73-3.91,8.73-8.73c0-4.82-3.91-8.73-8.73-8.73
						C119.26,74.41,115.35,78.32,115.35,83.14z"/>
					<polygon class="st8" points="149.83,119.91 208.45,119.91 179.14,80.19 					"/>
					<polygon class="st7" points="126.86,120.1 175.25,120.1 151.05,94.23 					"/>
					<rect x="103.03" y="120.07" class="st7" width="105.41" height="15.9"/>
				</g>
				<g>
					<g>
						<g>
							<path class="st7" d="M118.88,174.89c-0.51,0.32-1.08,0.56-1.7,0.71c-1.6,0.39-3.2,0.09-4.49-0.71
								c-1.27-0.78-2.24-2.04-2.62-3.6c-0.77-3.16,1.16-6.34,4.32-7.11c3.15-0.77,6.34,1.16,7.11,4.32
								C122.12,171.04,120.99,173.59,118.88,174.89z"/>
							<g>
								<path class="st2" d="M117.58,169.22c0,0.99-0.8,1.79-1.79,1.79c-0.99,0-1.79-0.8-1.79-1.79s0.8-1.79,1.79-1.79
									C116.78,167.43,117.58,168.23,117.58,169.22z"/>
								<path class="st2" d="M118.88,174.15v0.74c-0.51,0.32-1.08,0.56-1.7,0.71c-1.6,0.39-3.2,0.09-4.49-0.71v-0.74
									c0-1.7,1.38-3.09,3.09-3.09C117.5,171.06,118.88,172.45,118.88,174.15z"/>
							</g>
						</g>
					</g>
					<g>
						<rect x="129.04" y="164.35" class="st1" width="48.09" height="3.08"/>
						<rect x="129.04" y="169.49" class="st1" width="61.38" height="2.04"/>
						<rect x="129.04" y="173.42" class="st1" width="20.91" height="2.04"/>
					</g>
				</g>
				<g>
					<rect x="103.03" y="180.65" class="st1" width="105.41" height="18.03"/>
					<path class="st7" d="M132.3,198.68h-16.44c1.21-3.37,4.43-5.78,8.22-5.78C127.87,192.9,131.09,195.31,132.3,198.68z"/>
				</g>
				<g>
					<circle class="st1" cx="113.5" cy="143.79" r="3.49"/>
					<g id="xsrjP0_3_">
						<g>
							<path class="st3" d="M113.03,145.18c-0.09-0.06-0.17-0.14-0.3-0.13c-0.05,0-0.04-0.03-0.04-0.06c0-0.47,0-0.93,0-1.39
								c0-0.03,0-0.06,0.04-0.08c0.35-0.18,0.51-0.53,0.73-0.83c0.23-0.32,0.31-0.67,0.26-1.05c-0.01-0.1,0.03-0.15,0.13-0.17
								c0.11-0.03,0.23,0.01,0.27,0.08c0.1,0.19,0.18,0.39,0.2,0.61c0.02,0.18-0.04,0.35-0.06,0.52c-0.02,0.13-0.05,0.25-0.07,0.38
								c0.03,0.02,0.07,0.01,0.1,0.01c0.39,0,0.79,0,1.18,0c0.17,0,0.25,0.05,0.27,0.16c0.03,0.14-0.04,0.28-0.17,0.34
								c-0.03,0.01-0.08,0-0.09,0.05c0,0.05,0.05,0.04,0.08,0.06c0.14,0.1,0.12,0.3-0.05,0.41c-0.04,0.03-0.12,0.01-0.12,0.07
								c0,0.05,0.07,0.05,0.1,0.08c0.11,0.11,0.06,0.33-0.11,0.41c-0.02,0.01-0.05,0.01-0.07,0.03c-0.02,0.01-0.04,0.03,0,0.05
								c0.17,0.12,0.17,0.29,0,0.41c-0.02,0.01-0.03,0.02-0.05,0.04c-0.06,0.05-0.14,0.04-0.21,0.05c-0.62,0-1.23,0-1.85,0
								C113.13,145.23,113.07,145.22,113.03,145.18z"/>
							<path class="st3" d="M111.28,144.36c0-0.3,0-0.59,0-0.89c0-0.06,0.01-0.09,0.08-0.09c0.36,0,0.72,0,1.08,0
								c0.07,0,0.08,0.02,0.08,0.09c0,0.59,0,1.19,0,1.78c0,0.08-0.02,0.1-0.1,0.1c-0.35,0-0.7,0-1.05,0c-0.09,0-0.1-0.03-0.1-0.11
								C111.28,144.95,111.28,144.66,111.28,144.36z"/>
						</g>
					</g>
				</g>
				<g>
					<path class="st9" d="M117.44,144.62c-0.46-1.87,0.69-3.76,2.56-4.22c1.87-0.46,3.76,0.69,4.22,2.56
						c0.46,1.87-0.69,3.76-2.56,4.22C119.79,147.64,117.9,146.49,117.44,144.62z"/>
					<path class="st2" d="M122.61,144.23c-0.53,1.06-1.78,1.69-1.78,1.69s-1.25-0.63-1.78-1.69c-0.44-0.89-0.16-1.85,0.53-2.05
						c0.99-0.3,1.25,1.43,1.25,1.43s0.25-1.73,1.25-1.43C122.77,142.38,123.05,143.34,122.61,144.23z"/>
				</g>
				<rect x="129.62" y="143.34" class="st1" width="49.52" height="2.02"/>
				<polygon class="st1" points="103.03,155.37 116.21,155.26 129.38,155.22 155.73,155.15 182.09,155.22 195.26,155.26 
					208.44,155.37 195.26,155.47 182.09,155.51 155.73,155.58 129.38,155.51 116.21,155.47 				"/>
			</g>
		</g>
	</g>
	<g>
		
			<rect x="51.06" y="123.05" transform="matrix(0.9662 -0.2576 0.2576 0.9662 -34.0959 22.6706)" class="st10" width="36.8" height="36.8"/>
		<path class="st2" d="M67.17,146.09c-1.66,0.44-3.18,0.85-4.77,1.27c-0.5-1.86-0.97-3.62-1.46-5.47c1.55-0.41,3.06-0.82,4.68-1.25
			c-0.09-0.42-0.15-0.75-0.23-1.08c-0.35-1.45-0.79-2.88-1.04-4.34c-0.54-3.22,0.79-5.95,3.79-7.21c1.87-0.78,3.93-1.1,5.96-1.64
			c0.45,1.7,0.87,3.25,1.33,4.98c-0.72,0.19-1.45,0.37-2.16,0.58c-0.64,0.19-1.3,0.34-1.88,0.64c-0.83,0.43-1.27,1.19-1.06,2.14
			c0.32,1.41,0.73,2.8,1.14,4.32c1.8-0.48,3.56-0.95,5.44-1.45c0.25,1.85,0.5,3.57,0.68,5.29c0.02,0.17-0.34,0.48-0.58,0.55
			c-1.3,0.39-2.62,0.72-4.04,1.1c1.26,4.71,2.49,9.34,3.75,14.05c-1.95,0.52-3.8,1.01-5.79,1.54
			C69.67,155.46,68.43,150.83,67.17,146.09z"/>
	</g>
	<g>
		
			<rect x="220.25" y="159.6" transform="matrix(0.9951 0.0986 -0.0986 0.9951 18.7134 -22.6619)" class="st6" width="36.9" height="36.9"/>
		<g>
			<path class="st2" d="M252.95,171.93c0.35-3.68-1.71-6.28-5.35-6.68c-5.04-0.55-10.08-1.05-15.13-1.5
				c-3.57-0.32-6.11,1.82-6.52,5.37c-0.28,2.51-0.51,5.03-0.75,7.55c-0.24,2.46-0.5,4.93-0.73,7.39c-0.34,3.76,1.71,6.39,5.43,6.8
				c4.98,0.55,9.97,1.05,14.97,1.48c3.65,0.32,6.23-1.85,6.6-5.48C251.99,181.89,252.48,176.91,252.95,171.93z M249.05,186.67
				c-0.26,2.32-1.63,3.48-3.96,3.27c-4.99-0.46-9.98-0.96-14.96-1.48c-2.34-0.24-3.47-1.65-3.26-3.97c0.48-5.03,0.97-10.07,1.5-15.1
				c0.24-2.3,1.66-3.5,3.96-3.29c4.99,0.46,9.98,0.95,14.96,1.48c2.31,0.24,3.46,1.69,3.26,3.99c-0.22,2.52-0.49,5.03-0.74,7.55
				C249.56,181.64,249.33,184.16,249.05,186.67z"/>
			<path class="st2" d="M239.42,170.97c-3.85-0.39-7.31,2.42-7.73,6.28c-0.43,3.91,2.29,7.36,6.15,7.82
				c3.96,0.47,7.46-2.3,7.89-6.24C246.16,174.88,243.34,171.36,239.42,170.97z M238.17,182.72c-2.51-0.3-4.39-2.61-4.17-5.11
				c0.23-2.58,2.56-4.48,5.17-4.22c2.6,0.26,4.52,2.58,4.24,5.15C243.14,181.09,240.71,183.02,238.17,182.72z"/>
			<path class="st2" d="M248.6,171.71c-0.17,0.98-0.86,1.44-1.83,1.29c-1.06-0.16-1.54-0.87-1.36-1.91
				c0.17-0.98,0.86-1.37,1.85-1.33C248.24,170.02,248.78,170.65,248.6,171.71z"/>
		</g>
	</g>
	<g>
		
			<rect x="199.12" y="59.18" transform="matrix(0.9421 0.3352 -0.3352 0.9421 36.7553 -67.1358)" class="st10" width="27.44" height="27.44"/>
		<path class="st2" d="M200.72,75.79c2.11,0.79,4.19,0.96,6.38,0.27c-2.12-1.57-2.81-2.63-2.67-4.1c0.54,0.16,1.08,0.33,1.62,0.49
			c-1.62-1.39-2.27-3.04-1.68-5.15c0.52,0.36,1,0.69,1.49,1.02c-0.95-2.78-0.7-4.58,0.88-5.78c1.32,3.33,3.57,5.76,6.93,7.21
			c0.08-0.27,0.14-0.48,0.2-0.69c0.56-1.8,1.79-2.88,3.65-3.09c1.85-0.22,3.31,0.54,4.29,2.13c0.22,0.36,0.45,0.51,0.84,0.51
			c0.73-0.01,1.45-0.02,2.25-0.02c-0.6,0.75-1.38,1.19-2.28,1.45c0,0.04,0,0.09,0,0.13c0.72,0.07,1.43,0.13,2.15,0.2
			c0.02,0.04,0.03,0.07,0.05,0.11c-0.69,0.33-1.37,0.69-2.08,0.98c-0.37,0.15-0.6,0.32-0.74,0.73c-2.12,6.02-8.44,9.41-14.61,7.82
			c-2.49-0.64-4.63-1.89-6.35-3.83C200.92,76.05,200.82,75.92,200.72,75.79z"/>
	</g>
	<g>
		
			<rect x="267.39" y="18.96" transform="matrix(0.9486 -0.3163 0.3163 0.9486 4.5733 89.9408)" class="st6" width="23.85" height="23.85"/>
		<g>
			<path class="st2" d="M273.67,42.07c-0.07-1.42-0.15-2.74-0.2-4.05c-0.01-0.43-0.15-0.73-0.46-1.04
				c-4.21-4.23-2.91-11.48,2.5-14.05c4.97-2.36,10.67,0.08,12.28,5.28c1.32,4.26-1.05,9.1-5.23,10.7c-1.43,0.55-2.89,0.75-4.41,0.6
				c-0.26-0.03-0.59,0.06-0.82,0.2C276.13,40.46,274.96,41.23,273.67,42.07z M275.04,39.42c0.76-0.49,1.39-0.93,2.05-1.31
				c0.22-0.13,0.52-0.19,0.77-0.15c1.25,0.2,2.46,0.13,3.67-0.25c4.33-1.36,6.47-6.52,4.25-10.44c-1.54-2.71-3.95-4.02-7.05-3.72
				c-3.18,0.31-5.38,2.1-6.35,5.14c-0.95,2.97-0.14,5.56,2.15,7.68c0.2,0.19,0.34,0.51,0.38,0.78
				C274.99,37.87,275,38.6,275.04,39.42z"/>
			<path class="st2" d="M274.53,28.66c0.31-0.96,1.13-1.06,1.81-0.35c0.27,0.28,0.34,0.38,0.62,0.7c0.42,0.49,0.5,0.89,0.21,1.4
				c-0.21,0.37-0.1,0.59,0.21,0.83c0.96,0.74,2.04,1.18,3.25,1.3c0.37,0.04,0.57-0.07,0.71-0.43c0.44-1.12,0.46-1.12,1.66-0.97
				c0.14,0.02,0.28,0.03,0.41,0.05c0.92,0.12,1.28,0.79,0.85,1.64c-0.45,0.87-1.2,1.28-2.15,1.35c-2.43,0.18-4.5-0.7-6.37-2.17
				c-0.57-0.45-1.05-0.96-1.27-1.68C274.32,29.66,274.36,29.18,274.53,28.66z"/>
		</g>
	</g>
	<g>
		<g>
			<g>
				<g>
					<g>
						<path class="st11" d="M139.76,162.98c-5.76,18.78-12.83,42.4-17.09,58.39h38.71c0.65-2.58,1.36-5.36,2.11-8.32
							c1.02-4.01,2.12-8.31,3.27-12.77c3.09-12.05,6.5-25.22,9.47-36.68c4.46-17.17,7.94-30.51,7.94-30.51h-35.15
							C149.02,133.1,144.93,146.08,139.76,162.98z"/>
						<path class="st4" d="M168.71,171.11c1.81-6.11,3.61-12.21,5.39-18.32c0.9-3.09,1.77-6.18,2.64-9.28
							c0.43-1.53,0.25-2.2-0.09-0.99c-0.83,2.97-1.88,5.89-2.81,8.83c-0.94,3.01-1.87,6.02-2.8,9.03
							c-1.84,5.97-3.66,11.94-5.47,17.91c-3.63,11.95-7.25,23.9-10.85,35.85c-0.72,2.4-1.49,4.8-2.23,7.21h1.17
							c1.39-4.61,2.78-9.22,4.16-13.83C161.47,195.4,165.12,183.27,168.71,171.11z"/>
						<path class="st4" d="M153.01,133.1c2.44,18.88,7.09,54.28,10.48,79.96c7.93-31.12,20.68-79.96,20.68-79.96H153.01z"/>
					</g>
					<g>
						<path class="st11" d="M202.84,220.69c-0.73-16.11-1.95-38.54-2.99-56.67c-0.99-17.46-1.8-30.92-1.8-30.92h-47.9
							c0,0,0.81,16.82,4.66,30.14c0.31,1.1,0.64,2.18,1,3.22c0,0,4.01,1.45,10.13,5.21c0,0,0.41,13.53,0.81,28.62
							c0.19,7.1,0.38,14.54,0.53,21.08h32.28C200.73,221.37,201.83,221.13,202.84,220.69z"/>
						<path class="st4" d="M197.18,208.5c-1.03-23.12-1.84-46.26-2.61-69.4c-0.01-0.18-0.29-0.2-0.29-0.02
							c0.39,13.08,0.73,26.17,1.18,39.25c0.49,14.35,1.08,28.69,1.8,43.03h0.55C197.59,217.08,197.37,212.79,197.18,208.5z"/>
						<g>
							<path class="st4" d="M154.1,165.46c4.13,1.64,8.08,3.88,11.85,6.21c0.15,0.09,0.04,0.32-0.12,0.24
								c-4-1.94-8.08-3.82-11.97-5.98C153.55,165.76,153.78,165.33,154.1,165.46z"/>
						</g>
						<path class="st4" d="M151.62,146.85c0.33,1.78,0.76,3.54,1.15,5.3c0.36,1.66,0.63,3.35,1.06,4.99
							c0.43,1.59,1.1,3.05,2.32,4.18c0.65,0.6,1.37,1.14,2.06,1.69c0.37,0.3,0.78,0.59,1.17,0.89c-0.05-0.23-0.09-0.47-0.13-0.72
							c-0.12-0.67-0.23-1.35-0.35-2.02c-0.25-1.5-0.49-3-0.72-4.5c-0.45-2.95-0.87-5.93-1.48-8.85c-0.03-0.12,0.15-0.16,0.18-0.05
							c0.73,2.89,1.55,5.76,2.19,8.68c0.31,1.43,1.43,8.5,1.48,9c0.05,0.52,0.09,1.03,0.11,1.55c0.02,0.51,0.12,1.08,0,1.59
							c-0.03,0.13-0.19,0.11-0.24,0.02c0,0,0,0-0.01,0.01c-0.26-0.45-0.32-1.04-0.45-1.54c-0.13-0.5-0.24-1.02-0.33-1.53
							c-0.03-0.18-0.06-0.37-0.08-0.56c-0.7-0.42-1.34-0.98-1.99-1.45c-0.7-0.51-1.42-1-2.08-1.56c-1.27-1.07-2.06-2.38-2.54-3.97
							c-0.49-1.64-0.64-3.38-0.83-5.08c-0.22-2.01-0.39-4.03-0.67-6.03C151.42,146.78,151.6,146.73,151.62,146.85z"/>
					</g>
				</g>
				<g>
					<g>
						<g>
							<path class="st12" d="M157.96,86.38c-2.38,18.94-6.53,50.71-13.24,53.28c-1.16,0.45-6.11,1.43-9.49-2.38
								c-5.7-6.42-15.55-28.04-18.3-35c-1.22-3.08,18.89-13.15,20.61-10.05c2.41,4.34,4.94,10.88,5.42,10.66
								c0.8-0.36,2.17-8.43,7.54-19.75C157.17,69.07,158.85,79.34,157.96,86.38z"/>
							<g>
								<path class="st12" d="M111.09,94.8c1.98,4.25,9.43,11.37,11.89,12.39c2.46,1.02,14.97-11.24,14.65-13.95
									c-0.32-2.71-8.09-16.51-12.38-18.64C120.96,72.47,109.04,90.4,111.09,94.8z"/>
								<g>
									<path class="st12" d="M136.72,90.65c0,0-0.41-6.09,1.03-11.26c1.22-4.35,3.52-10.68,1.2-11.42
										c-4.76-1.52-10.48,14.25-10.48,14.25s-1.41,7.37,3.17,9.29C134.51,92.73,136.72,90.65,136.72,90.65z"/>
								</g>
								<g>
									<g>
										<g>
											<polygon class="st9" points="123.98,95.69 116.92,94.44 120.53,74.01 129.45,75.59 											"/>
											<polygon class="st9" points="129.45,75.59 127.37,83.26 123.98,95.69 116.92,94.45 120.52,74.01 											"/>
											<polygon class="st13" points="129.45,75.59 127.37,83.26 119.15,81.81 120.52,74.01 											"/>
										</g>
										
											<rect x="119.3" y="69.27" transform="matrix(0.9848 0.1736 -0.1736 0.9848 14.6636 -20.5705)" class="st9" width="11.28" height="8.57"/>
									</g>
									<g>
										<g>
											<polygon class="st9" points="139.22,68.54 130.44,67.88 132.85,54.23 141.32,56.61 											"/>
										</g>
										<polygon class="st9" points="128.88,50.74 125.33,70.89 110.55,70.07 74.71,76.52 83.23,28.13 114.71,46.46 										"/>
										
											<ellipse transform="matrix(0.1736 -0.9848 0.9848 0.1736 13.2134 120.132)" class="st9" cx="78.19" cy="52.19" rx="24.69" ry="7.94"/>
										
											<ellipse transform="matrix(0.1736 -0.9848 0.9848 0.1736 13.4217 119.4012)" class="st14" cx="77.85" cy="51.7" rx="21.92" ry="6.5"/>
										<path class="st9" d="M83.21,52.65c-0.28,1.59-0.6,3.12-0.97,4.6c-0.95,0.53-2.08,0.75-3.24,0.54
											c-2.66-0.47-4.44-3.01-3.97-5.68l0.4-2.28c0.47-2.67,3.01-4.45,5.68-3.98c1.13,0.2,2.11,0.78,2.82,1.59
											C83.77,49.11,83.53,50.86,83.21,52.65z"/>
										<g>
											<polygon class="st9" points="132.95,73.38 115.97,72.11 120.62,45.71 137.01,50.31 											"/>
											<polygon class="st14" points="132.95,73.38 115.97,72.11 120.62,45.71 137.01,50.31 											"/>
										</g>
										<path class="st14" d="M84.92,31.85c0.96,1.59,1.38,3.44,1.71,5.25c0.29,1.83,0.44,3.69,0.44,5.54
											c0.03,0.93-0.03,1.85-0.06,2.78c-0.08,0.92-0.13,1.85-0.22,2.77c-0.11,0.92-0.19,1.84-0.34,2.76
											c-0.15,0.91-0.27,1.83-0.43,2.74c-0.67,3.64-1.55,7.25-2.88,10.72c-0.68,1.73-1.44,3.42-2.41,5.01
											c-0.99,1.55-2.12,3.09-3.68,4.11c1.48-1.11,2.55-2.66,3.46-4.24c0.91-1.59,1.63-3.29,2.25-5.02
											c1.23-3.46,2.11-7.04,2.74-10.67c0.66-3.62,1.12-7.28,1.17-10.96c0.05-1.84-0.05-3.68-0.29-5.5
											C86.13,35.33,85.77,33.49,84.92,31.85z"/>
									</g>
								</g>
								<g>
									<path class="st12" d="M131.19,79.19c-0.27,2.47-3.03,0.74-3.03,0.74s3.37,3.45,2.11,5.89c-1.22,2.35-4.48,0.14-4.72-0.01
										c0.18,0.18,3.19,3.43,1.67,5.75c-1.58,2.41-4.47-0.37-4.66-0.55c0.11,0.23,1.55,3.24-0.01,4.74
										c-2.68,2.58-6.56-5.03-9.45-5.84c0,0-1.93,4.76-2.01,4.88c0,0-3.84-7.16-2.53-11.01c0.69-2.03,2.72-1.79,2.72-1.79
										s-1.49-2.17-0.35-4.04c0.59-0.96,2.64-0.87,2.64-0.87s-1.12-1.79-0.01-3.39c0.89-1.28,2.81-0.99,2.81-0.99
										s-0.28-2.22,1.05-3.23C120.09,67.46,131.76,73.9,131.19,79.19z"/>
									<g>
										<path class="st15" d="M116.67,72.73c-0.04-0.02-0.02-0.08,0.02-0.07c4.36,1.18,8.78,3.82,11.63,7.35
											c0.09,0.12-0.05,0.32-0.18,0.21C124.5,77.14,121.03,74.7,116.67,72.73z"/>
										<path class="st15" d="M113.51,77.05c-0.05-0.02-0.01-0.1,0.04-0.09c4.48,1.24,9.38,4.35,12.19,8.81
											c0.1,0.15,0.03,0.39-0.09,0.22C123.55,83.16,117.45,78.8,113.51,77.05z"/>
										<path class="st15" d="M122.65,91.39c-2.86-4.17-6.76-7.01-11.19-9.35c-0.06-0.03-0.01-0.11,0.05-0.1
											c2.48,0.55,5.15,2.34,7.11,3.9c1.88,1.5,3.27,3.23,4.18,5.44C122.83,91.38,122.71,91.48,122.65,91.39z"/>
									</g>
									<path class="st15" d="M128.24,79.93c0.11,0.14-0.21,0.15-0.11,0.29c0.45,0.6,2.87,4.45,1.81,5.68
										c-0.85,0.98-2.76,0.53-3.42,0.06l-1.67-1.17l1.17,1.68c0.51,0.73,0.94,1.58,1.18,2.43c0.24,0.85,0.26,1.76-0.18,2.43
										c-0.45,0.71-1.2,1.05-1.99,0.8c-0.79-0.21-1.57-0.78-2.17-1.39l-1.7-1.71l1.04,2.17c0.28,0.59,0.51,1.25,0.63,1.9
										c0.12,0.65,0.13,1.32-0.11,1.86c-0.23,0.53-0.76,0.94-1.32,0.94c-0.58,0.01-1.21-0.31-1.77-0.68
										c-1.14-0.76-2.13-1.78-3.17-2.74c-0.51-0.48-1.03-0.97-1.57-1.44c-0.54-0.45-1.11-0.93-1.8-1.12
										c0.66,0.26,1.16,0.78,1.67,1.26c0.5,0.5,0.97,1.02,1.45,1.54c0.95,1.05,1.92,2.09,3.09,2.97c0.59,0.41,1.25,0.84,2.1,0.88
										c0.88,0.03,1.66-0.56,2-1.31c0.35-0.76,0.32-1.57,0.2-2.3c-0.13-0.74-0.35-1.43-0.67-2.12l-0.66,0.45
										c0.71,0.73,1.5,1.36,2.55,1.67c0.52,0.15,1.13,0.15,1.67-0.09c0.54-0.24,0.94-0.64,1.23-1.1c0.6-0.97,0.52-2.13,0.23-3.08
										c-0.3-0.97-0.76-1.83-1.34-2.65l-0.51,0.51c0.86,0.56,2.94,1.3,4.45-0.06C132.25,84.42,128.91,80.59,128.24,79.93z"/>
									<path class="st15" d="M128.16,79.93c0.51,0.18,1.02,0.31,1.49,0.32c0.47,0.02,0.85-0.18,1.06-0.5
										c0.21-0.32,0.24-0.82,0.22-1.32c-0.04-0.5-0.1-1.02-0.19-1.56c0.34,0.43,0.59,0.93,0.72,1.48
										c0.13,0.54,0.18,1.17-0.17,1.77c-0.19,0.28-0.46,0.5-0.77,0.62c-0.32,0.11-0.64,0.12-0.94,0.05
										C129,80.67,128.53,80.34,128.16,79.93z"/>
								</g>
							</g>
							<g>
								<path class="st16" d="M115.35,109.11l21.98-17.68c0,0,5.33,11.01,5.64,10.97c0.31-0.04,3.8-14.66,9.58-23.76
									c5.78-9.1,7.18,0.77,5.95,8.29c-1.23,7.52-7.01,49.14-12.21,52.95c-5.2,3.82-10.09-0.96-12.19-2.99
									C131.21,134.1,115.35,109.11,115.35,109.11z"/>
								<path class="st17" d="M119.58,111.09c0.69-0.71,7.6-6.09,9.12-7.23c1.53-1.14,3.06-2.27,4.59-3.41
									c1.58-1.17,3.14-2.44,4.81-3.48c0.07-0.05,0.15,0.05,0.09,0.11c-1.45,1.33-3.08,2.5-4.63,3.71c-1.53,1.2-3.05,2.4-4.58,3.59
									c-1.53,1.19-8.48,6.37-9.32,6.83C119.58,111.24,119.53,111.14,119.58,111.09z"/>
								<path class="st17" d="M142.97,102.39c0.61,1.3,1.14,2.63,1.65,3.97c0.51,1.34,0.97,2.69,1.41,4.06
									c0.42,1.37,0.83,2.74,1.16,4.14c0.33,1.39,0.63,2.8,0.8,4.22c-0.21-0.69-0.39-1.38-0.61-2.06
									c-0.19-0.69-0.41-1.37-0.62-2.05l-1.28-4.08l-1.27-4.09l-0.63-2.05C143.38,103.77,143.16,103.08,142.97,102.39z"/>
							</g>
						</g>
					</g>
					<g>
						<path class="st16" d="M143.08,147.74c0.95,0.94,59.4-2.15,59.68-2.53c0.77-1.03-20.14-63.23-33.84-73.08
							c-2.95-2.12-10.86,0.72-12.89,2.76c-1.27,1.28-4.05,9.36-5.87,16.05C146.52,104.33,142.25,146.91,143.08,147.74z"/>
					</g>
					<polygon class="st10" points="182.3,98.45 187.08,146.28 199.97,145.49 182.3,92.6 					"/>
					<g>
						<g>
							<g>
								<path class="st12" d="M175.12,78.52c18.91,13.01,34.62,31.08,35.93,35.39c3.18,10.42,7.93,28.8,8.66,37.06
									c0.27,3.05-23.25,2.48-23.64-0.77c-1.23-10.19-5.61-32.35-5.72-32.73c-0.78-2.68-7.45-14.29-14.32-26.92
									C169.16,77.91,167.16,73.05,175.12,78.52z"/>
								<g>
									<path class="st12" d="M197.95,182.36c2.4,0.82,3.96-1.3,3.96-1.3s1.23,1.61,3.16,1.89c2.21,0.32,3.68-3,3.68-3
										s1.59,1.37,3.65,1.46c2.14,0.09,4.11-3.04,4.11-3.04s2.17,0.45,4.02-0.74c2.03-1.31,3.04-7.8,3-11.45
										c-0.03-3.65-3.55-13.97-4.02-16.01l-23.43,0.02c0,0-4.5,16.41-3.85,20.7C192.77,174.5,195.25,181.44,197.95,182.36z"/>
									<g>
										<path class="st15" d="M201.53,180.9c-1.5-3.7-1.83-7.64-2.38-11.56c-0.01-0.09,0.12-0.11,0.14-0.02
											c0.5,3.9,1.77,7.65,2.43,11.53C201.73,180.96,201.57,181,201.53,180.9z"/>
										<path class="st15" d="M208.44,179.87c-0.31-0.85-0.35-1.8-0.43-2.69c-0.09-0.96-0.16-1.92-0.21-2.89
											c-0.11-1.93-0.18-3.86-0.18-5.79c0-0.09,0.13-0.11,0.14-0.02c0.11,1.92,0.25,3.84,0.45,5.76c0.1,0.96,0.2,1.92,0.31,2.87
											c0.1,0.89,0.29,1.82,0.19,2.72C208.69,179.97,208.49,180,208.44,179.87z"/>
										<path class="st15" d="M216.5,178.28c-0.3-0.73-0.23-1.67-0.26-2.44c-0.03-0.88-0.07-1.76-0.11-2.64
											c-0.08-1.76-0.17-3.52-0.31-5.27c-0.01-0.09,0.13-0.11,0.14-0.02c0.16,1.78,0.34,3.56,0.47,5.34
											c0.07,0.88,0.13,1.75,0.19,2.63c0.05,0.74,0.2,1.67-0.04,2.39C216.57,178.32,216.51,178.32,216.5,178.28z"/>
									</g>
								</g>
							</g>
							<path class="st16" d="M194.96,150.45l25.7-2.07c0,0-5.66-27.69-8.73-35.17c-3.07-7.48-23.78-28.27-39.73-39.2
								c-10.85-7.44-4.77,1.25,0.24,11.1c5.01,9.86,16.81,32.4,17.37,34.18C190.37,121.07,194.96,150.45,194.96,150.45z"/>
							<path class="st17" d="M195.41,145.15c0.96-0.22,9.68-1.03,11.58-1.16c1.9-0.13,3.8-0.26,5.7-0.39
								c1.96-0.13,3.96-0.36,5.93-0.34c0.09,0,0.1,0.12,0.01,0.14c-1.94,0.34-3.94,0.44-5.9,0.62c-1.93,0.18-3.86,0.37-5.8,0.54
								c-1.93,0.18-10.58,0.78-11.53,0.72C195.32,145.27,195.34,145.16,195.41,145.15z"/>
						</g>
					</g>
					<path class="st12" d="M161.28,64.51l-6.79,15.72c0,0,10.2,2.23,13.77-2.86l-2.45-17.9c0,0,6.65,1.72,5.63-4.89
						c0,0-0.89-3.41-3.88-2.84c0,0-2.24-0.29-5.17-3.79c0,0-4.21,0.21-3.61-0.98c0,0-3.79-0.47-4.39,9.54
						C154.39,56.52,152.76,71.74,161.28,64.51z"/>
					<path class="st10" d="M166.33,51.77c-1.59,1.73-1.71,3.79-1.32,5.96c0.12,0.64,0.26,1.3,0.73,1.75
						c0.52,0.49,0.43,1.03,0.39,1.63c-0.31,4.41-1.65,8.71-4.02,12.36c-1.54,1.86-4.88,4.63-7.65,5.5
						c-5.89,1.86-10.65-3.19-10.63-7.61c0.01-2.9,0.87-5.21,3.16-6.99c0.27-0.21,0.51-0.48,0.8-0.67c2.46-1.61,4.71-3.44,6.34-5.94
						c0.75,0.47,1.5,0.95,2.27,1.4c0.72,0.42,1.45,0.84,2.3,0.99c1.78,0.32,2.85-0.29,3.42-2c0.74-2.23,0.59-4.49,0.03-6.72
						c-0.41-1.65-1.84-2.46-3.52-2.18c-1.08,0.18-2.07,0.63-3.1,0.97c0.3-3.3,2.92-5.19,6-4.32c1.11,0.31,2.11,0.81,3.01,1.55
						C165.89,48.61,166.6,49.97,166.33,51.77z"/>
					<path class="st10" d="M166.53,49.24c-0.64-2.61-3.34-4.13-5.87-5.02c-2.53-0.89-5.33-1.58-7.1-3.61
						c-1.6-1.84-2.21-4.63-4.38-5.75c-3.03-1.57-6.5-0.21-7.86,2.88c-3.39,7.68,8.47,13.05,14.4,12.26c1.1-0.15,2.18-0.47,3.29-0.53
						c1.11-0.07,2.31,0.16,3.1,0.94c0.94,0.93,1.67,2.88,3.4,2.14C166.7,52.04,166.79,50.33,166.53,49.24z"/>
					<path class="st12" d="M159.42,61.72c-0.61,1.1-1.91,1.61-3.06,1.14c-1.15-0.47-1.72-1.75-1.39-2.96L159.42,61.72z"/>
				</g>
			</g>
		</g>
	</g>
</g>
</svg>
