<?xml version="1.0" encoding="utf-8"?>
<!-- Generator: Adobe Illustrator 25.2.1, SVG Export Plug-In . SVG Version: 6.00 Build 0)  -->
<svg version="1.1" id="Layer_1" xmlns="http://www.w3.org/2000/svg" xmlns:xlink="http://www.w3.org/1999/xlink" x="0px" y="0px"
	 viewBox="0 0 347.18 240" style="enable-background:new 0 0 347.18 240;" xml:space="preserve">
<style type="text/css">
	.st0{fill:#C7C8DF;}
	.st1{fill:#FFFFFF;}
	.st2{fill:#414A8D;}
	.st3{fill:#20201E;}
	.st4{fill:#C9C8C8;}
	.st5{fill:#F7C751;}
	.st6{fill:#F0AA6E;}
	.st7{fill:#D8925C;}
	.st8{fill:#D85930;}
	.st9{fill:#B84423;}
	.st10{fill:#A7A7A7;}
	.st11{fill:#ECECEC;}
	.st12{fill:#192E35;}
	.st13{fill:#DCDCDC;}
	.st14{opacity:0.1;fill:#020203;}
	.st15{fill:none;stroke:#DDAA06;stroke-width:0.6701;stroke-linecap:round;stroke-linejoin:round;stroke-miterlimit:10;}
	.st16{fill:#DEA903;}
	.st17{fill:#E29E85;}
	.st18{fill:none;stroke:#20201E;stroke-width:0.6638;stroke-linecap:round;stroke-linejoin:round;stroke-miterlimit:10;}
	.st19{opacity:0.28;fill:#414A8D;}
	.st20{fill:#385A65;stroke:#FEC703;stroke-width:0.7488;stroke-miterlimit:10;}
</style>
<g>
	<g>
		<path class="st0" d="M338.94,52.92C335.23,33.73,317.5,10.01,298,4.06c-29.37-8.96-45.75,17.85-60.65,36.63
			c-11.44,14.42-26.2,27.6-44.88,31.08c-10.76,2.01-22.02,0.65-33.08-0.43c-28.07-2.74-56.74-3.57-83.48,3.56
			s-51.56,23.16-63.42,47.31c-2.98,6.08-5.13,12.63-5.7,19.44c-1.24,14.89,5.11,29.89,13.84,42.68
			c12.26,17.98,29.48,32.87,49.23,42.59c18.39,9.04,39.68,13.58,59.02,8.77c27.72-6.89,46.09-30.87,61.95-53.63
			c15.86-22.77,33.15-47.19,60.26-55.82c8.39-2.67,32.86,9.83,41.28,7.25c25.2-7.72,33.79-17.64,43.95-41.33
			C339.47,84.83,342.08,69.14,338.94,52.92z"/>
	</g>
	<g>
		<g>
			<rect x="188.76" y="90.96" class="st1" width="124.77" height="107.44"/>
			<g>
				<path class="st2" d="M242.32,120.86c1.05-1.6,1.64-3.4,1.64-5.3c0-6.71-7.37-12.15-16.45-12.15c-9.08,0-16.45,5.44-16.45,12.15
					c0,6.71,7.36,12.15,16.45,12.15c4.4,0,8.4-1.28,11.35-3.36l5.67,1.44L242.32,120.86z"/>
				<g>
					<path class="st1" d="M221.59,115.56c0,0.94-0.76,1.71-1.71,1.71c-0.94,0-1.71-0.76-1.71-1.71c0-0.94,0.76-1.71,1.71-1.71
						C220.82,113.86,221.59,114.62,221.59,115.56z"/>
					<path class="st1" d="M229.21,115.56c0,0.94-0.76,1.71-1.71,1.71c-0.94,0-1.71-0.76-1.71-1.71c0-0.94,0.76-1.71,1.71-1.71
						C228.45,113.86,229.21,114.62,229.21,115.56z"/>
					<path class="st1" d="M236.84,115.56c0,0.94-0.76,1.71-1.71,1.71c-0.94,0-1.71-0.76-1.71-1.71c0-0.94,0.76-1.71,1.71-1.71
						C236.07,113.86,236.84,114.62,236.84,115.56z"/>
				</g>
			</g>
			<g>
				<rect x="188.76" y="90.82" class="st3" width="124.77" height="7.04"/>
				<g>
					<path class="st4" d="M194.86,94.34c0,0.85-0.69,1.53-1.53,1.53c-0.85,0-1.53-0.69-1.53-1.53c0-0.85,0.69-1.53,1.53-1.53
						C194.18,92.81,194.86,93.49,194.86,94.34z"/>
					<path class="st1" d="M201.11,94.34c0,0.85-0.69,1.53-1.53,1.53c-0.85,0-1.53-0.69-1.53-1.53c0-0.85,0.69-1.53,1.53-1.53
						C200.43,92.81,201.11,93.49,201.11,94.34z"/>
					<path class="st5" d="M207.36,94.34c0,0.85-0.69,1.53-1.53,1.53c-0.85,0-1.53-0.69-1.53-1.53c0-0.85,0.69-1.53,1.53-1.53
						C206.68,92.81,207.36,93.49,207.36,94.34z"/>
				</g>
			</g>
		</g>
		<g>
			<g>
				<g>
					<g>
						<g>
							<g>
								<g>
									<path class="st6" d="M259.88,149.55c-12.46,12-27.16,24.43-34.27,23.61c-5.53-0.64-25.69-11.21-31.52-22.51
										c-1.29-2.5,18.45-10.2,19.71-8.67c3.7,4.49,15.23,10.94,16.12,10.56c1.18-0.49,15.3-7.35,24.87-11.51
										C267.7,135.42,266.33,143.34,259.88,149.55z"/>
								</g>
								<g>
									<path class="st6" d="M189.28,147.32c2.2,4.02,9.92,10.49,12.38,11.33c2.46,0.84,13.89-11.91,13.41-14.54
										c-0.48-2.63-8.94-15.6-13.26-17.4C197.49,124.92,187,143.16,189.28,147.32z"/>
									<g>
										<path class="st6" d="M214.02,141.65c0,0-0.79-5.91,0.29-11.05c0.91-4.32,2.75-10.64,0.45-11.22
											c-4.74-1.18-9.32,14.57-9.32,14.57s-0.91,7.28,3.68,8.87C212,143.81,214.02,141.65,214.02,141.65z"/>
									</g>
									<g>
										<path class="st6" d="M207.9,130.82c-1.28,2.07-2.91,0.91-2.91,0.91s3.51,3.15,2.43,5.61c-1.04,2.37-4.36,0.42-4.6,0.29
											c0.18,0.17,3.33,3.15,1.99,5.51c-1.39,2.45-4.39-0.07-4.58-0.24c0.12,0.21,1.71,3.06,0.29,4.63
											c-2.45,2.68-6.71-4.49-9.59-5.09c0,0-1.58,4.76-1.65,4.89c0,0-4.2-6.74-3.17-10.58c0.54-2.02,2.54-1.92,2.54-1.92
											s-1.59-2.02-0.6-3.92c0.51-0.97,2.52-1.01,2.52-1.01s-1.21-1.67-0.22-3.3c0.78-1.3,2.68-1.14,2.68-1.14
											s-7.75-7.13-6.12-9.38c2.81-3.88,18.55,12.3,20.63,11.97C208.57,127.88,208.46,129.92,207.9,130.82z"/>
										<g>
											<path class="st7" d="M193.33,125.44c-0.04-0.02-0.03-0.08,0.02-0.07c4.32,0.88,8.81,3.17,11.81,6.43
												c0.1,0.11,0.2,0.78,0.09,0.66C202.29,129.64,197.71,127.08,193.33,125.44z"/>
											<path class="st7" d="M190.52,129.85c-0.05-0.02-0.02-0.1,0.03-0.09c4.45,0.93,9.43,3.65,12.45,7.82
												c0.1,0.14,0.05,0.38-0.08,0.22C200.71,135.18,194.47,131.31,190.52,129.85z"/>
											<path class="st7" d="M200.35,143.27c-3.05-3.89-7.04-6.41-11.51-8.41c-0.06-0.03-0.02-0.11,0.04-0.1
												c2.45,0.38,5.17,1.95,7.18,3.35c1.93,1.34,3.39,2.94,4.43,5.04C200.53,143.24,200.42,143.35,200.35,143.27z"/>
										</g>
										<path class="st7" d="M205.08,131.73c0.12,0.13-0.42,0.17-0.31,0.3c1.23,1.45,3.3,4.15,2.35,5.41
											c-0.77,1.01-2.66,0.69-3.33,0.28l-1.7-1.03l1.24,1.56c0.54,0.68,1.02,1.48,1.31,2.29c0.29,0.81,0.36,1.7-0.02,2.38
											c-0.39,0.72-1.1,1.1-1.89,0.91c-0.78-0.15-1.58-0.66-2.21-1.22l-1.77-1.56l1.15,2.05c0.31,0.55,0.58,1.19,0.74,1.81
											c0.16,0.62,0.21,1.28,0.01,1.82c-0.2,0.53-0.68,0.96-1.22,1c-0.57,0.05-1.2-0.23-1.77-0.55c-1.16-0.67-2.19-1.6-3.26-2.47
											c-0.53-0.44-1.07-0.88-1.62-1.3c-0.56-0.4-1.14-0.83-1.83-0.97c0.66,0.21,1.18,0.69,1.71,1.12
											c0.52,0.45,1.01,0.93,1.51,1.41c0.99,0.96,2.01,1.91,3.2,2.7c0.6,0.37,1.27,0.74,2.1,0.73c0.86-0.02,1.58-0.65,1.86-1.41
											c0.29-0.77,0.21-1.55,0.05-2.26c-0.18-0.72-0.44-1.37-0.79-2.03l-0.61,0.48c0.74,0.67,1.55,1.23,2.6,1.47
											c0.51,0.11,1.12,0.07,1.62-0.19c0.51-0.27,0.87-0.68,1.13-1.15c0.52-0.98,0.37-2.11,0.03-3.02
											c-0.35-0.93-0.86-1.74-1.48-2.5l-0.46,0.53c0.88,0.49,2.95,1.09,4.34-0.34C209.27,135.86,205.76,132.33,205.08,131.73z"/>
									</g>
								</g>
							</g>
							<g>
								<path class="st8" d="M215.88,143.3l-16.35,18.8c0,0,19.68,12.34,27.35,11.77c7.67-0.57,25.61-15.05,34.34-25.32
									c8.93-10.5,0.69-11.27-6.08-7.96c-6.77,3.31-24.78,11.37-25.28,11.34C229.36,151.9,215.88,143.3,215.88,143.3z"/>
								<path class="st9" d="M212.73,155.05c1.09-1.3,2.19-2.6,3.29-3.9c1.1-1.28,2.16-2.63,3.35-3.84
									c0.05-0.05,0.16,0.01,0.11,0.08c-0.92,1.35-2,2.62-3.01,3.9c-1.08,1.36-2.16,2.72-3.25,4.07c-2.16,2.67-4.41,5.25-6.71,7.81
									c-0.06,0.06-0.14-0.02-0.09-0.08C208.46,160.36,210.54,157.67,212.73,155.05z"/>
								<path class="st9" d="M261.22,148.55c-8.73,10.26-26.67,24.75-34.33,25.32c-1.79,0.13-4.23-0.43-6.92-1.39l42.24-33.6
									C265.63,139.13,266.9,141.87,261.22,148.55z"/>
							</g>
						</g>
					</g>
					<g>
						<g>
							<path class="st8" d="M291.71,198.4h-50.06c-0.23-2.06,9.43-51.49,14.94-58.69c1.18-1.54,5.07-1.97,8.39-1.55
								c0.92,0.11,1.79,0.29,2.55,0.52c0.02,0.01,0.05,0.02,0.09,0.02c0.77,0.25,1.44,0.54,1.87,0.92
								C281.01,149.49,292.15,197.9,291.71,198.4z"/>
						</g>
					</g>
					<g>
						<path class="st8" d="M268.11,147.37c2.12,8.6,16.56,38.97,17.57,40.75c0,0,18.93,14.88,21.46,3.15
							c2.53-11.73-20.06-34.39-30.37-45.75C270.57,138.68,266.64,141.41,268.11,147.37z"/>
						<g>
							<path class="st9" d="M284.12,184.71c0,0-9.23-19.08-12.71-27.92"/>
							<path class="st9" d="M271.67,159.68c0,0,1.41,2.28,2.1,2.76"/>
						</g>
					</g>
					<g>
						<g>
							<path class="st6" d="M272.81,183.4c-2.59,1.17-12.92,18.77-8.74,18.91c19.65,0.66,37.97-4.58,40.87-7.17
								c3.8-3.4,2.53-9.64-0.02-11.79C301.22,180.23,275.37,182.25,272.81,183.4z"/>
							<g>
								<path class="st8" d="M272.81,183.4l-7.09,24.38c19.49-0.3,36.32-10.05,39.22-12.64c3.8-3.4,2.53-9.64-0.02-11.79
									C301.22,180.23,275.37,182.25,272.81,183.4z"/>
								<path class="st9" d="M274.85,194.54c0.53-1.78,1.07-3.55,1.62-5.32c0.55-1.76,1.04-3.57,1.71-5.29
									c0.03-0.08,0.16-0.06,0.14,0.03c-0.34,1.75-0.88,3.48-1.34,5.21c-0.49,1.83-1,3.65-1.51,5.48
									c-1.01,3.61-2.16,7.17-3.37,10.71c-0.03,0.09-0.15,0.04-0.13-0.04C272.85,201.7,273.78,198.11,274.85,194.54z"/>
							</g>
							<g>
								<path class="st9" d="M295.01,181.6c-10.89-0.49-21.51,1.52-21.53,1.52c-0.19,0.01-0.36,0.39-0.25,0.38
									c1.97-0.07,10.98-1.55,21.72-1.63C295.02,181.86,295.08,181.6,295.01,181.6z"/>
							</g>
						</g>
					</g>
					<g>
						<path class="st6" d="M263.34,126.79l-5.77,13.36c0,0-1,9.95,1.06,10.08c2.5,0.16,8.28-9.66,9.94-12.03l-1.38-15.69
							c0,0,5.65,1.46,4.79-4.15c0,0-0.75-2.9-3.3-2.41c0,0-1.91-0.25-4.4-3.22c0,0-3.58,0.17-3.07-0.84c0,0-3.22-0.4-3.73,8.11
							C257.49,119.99,256.1,132.93,263.34,126.79z"/>
						<g>
							<polygon class="st2" points="261.74,152.84 259.34,148.18 256.25,151.55 257.01,154.91 260.06,155.3 							"/>
							<polygon class="st2" points="261.52,189.61 256.53,198.4 254.42,198.4 251.52,189.68 257.01,154.91 260.06,155.3 							"/>
						</g>
						<g>
							<path class="st1" d="M256.91,139.09l2.78,7.7l9.74-9.19l2.54,3.16c0,0-9.75,14.82-9.78,14.13l-2.86-6.62l-4.66,4.35
								l0.8-11.34L256.91,139.09z"/>
						</g>
						<path class="st3" d="M267.63,115.96c-1.35,1.47-1.46,3.22-1.12,5.07c0.1,0.55,0.22,1.1,0.62,1.48
							c0.44,0.42,0.37,0.88,0.33,1.39c-0.26,3.74-1.68,7.07-3.69,10.17c-0.33,0.16-0.47,0.48-0.63,0.76
							c-1.28,2.19-3.24,3.51-5.59,4.25c-5.01,1.59-9.05-2.71-9.03-6.47c0.01-2.47,0.74-4.43,2.68-5.94
							c0.23-0.18,0.43-0.41,0.68-0.57c2.09-1.37,4-2.93,5.39-5.05c0.64,0.4,1.28,0.81,1.93,1.19c0.61,0.36,1.23,0.71,1.95,0.84
							c1.52,0.27,2.42-0.25,2.9-1.7c0.63-1.9,0.5-3.82,0.03-5.71c-0.35-1.4-1.56-2.09-2.99-1.85c-0.92,0.15-1.76,0.53-2.64,0.83
							c0.25-2.81,2.48-4.41,5.1-3.67c0.94,0.27,1.79,0.69,2.56,1.32C267.26,113.27,267.87,114.43,267.63,115.96z"/>
						<path class="st3" d="M267.8,113.8c-0.54-2.22-2.84-3.51-4.99-4.27c-2.15-0.76-4.53-1.34-6.03-3.07
							c-1.36-1.56-1.88-3.94-3.72-4.89c-2.58-1.33-5.53-0.17-6.68,2.45c-2.88,6.52,7.2,11.1,12.24,10.42
							c0.94-0.13,1.86-0.4,2.8-0.45c0.94-0.06,1.96,0.14,2.64,0.8c0.8,0.79,1.42,2.45,2.89,1.82
							C267.94,116.19,268.03,114.73,267.8,113.8z"/>
						<path class="st6" d="M261.76,124.41c-0.52,0.93-1.62,1.37-2.6,0.97c-0.98-0.4-1.46-1.49-1.18-2.51L261.76,124.41z"/>
					</g>
					<g>
						<g>
							<g>
								<rect x="253.44" y="194.5" class="st4" width="46.53" height="2.09"/>
								<rect x="253.44" y="194.5" class="st10" width="23.42" height="2.09"/>
							</g>
							<g>
								<polygon class="st4" points="274.34,196.58 229,196.58 223.07,165.79 268.41,165.79 								"/>
								<path class="st11" d="M251.46,181.19c0.13,1.52-0.99,2.76-2.52,2.76c-1.52,0-2.87-1.24-3-2.76
									c-0.13-1.52,0.99-2.76,2.52-2.76C249.99,178.43,251.33,179.66,251.46,181.19z"/>
							</g>
						</g>
						<g>
							<g>
								<path class="st6" d="M268.49,198.77c-3.24,1.75-7.17,5.95-9.87,6.42c-2.44,0.42-3.41-1.57-3.41-1.57s-1.21,2.78-3.73,2.8
									c-1.3,0.01-2.45-2.05-2.45-2.05s-1.07,2.19-3.31,2.07c-1.79-0.09-2.68-2.15-2.68-2.15s-2,1.62-3.79,0.94
									c-3.63-1.38-4.44-16.72,1.09-19.39c2.58-1.24,2.57,2.51,2.57,2.51s1.31-5.4,4.47-5.65c3.16-0.25,2.86,4.63,2.86,4.63
									s1.32-5.22,4.62-5.15c3.44,0.08,2.3,4.91,2.3,4.91s2.13-3.53,4.65-2.9c4.15,1.05-0.56,9.06,0.42,12.39h5.49L268.49,198.77z"
									/>
								<path class="st6" d="M263.82,201.77c3.22-1.39,4.75,0.9,8.11,0.46c3.73-0.48,2.52-4.86-4.03-5.64l-5.68,0L263.82,201.77z"/>
								<g>
									<path class="st7" d="M242.85,203.99c0.01,0.05-0.06,0.07-0.08,0.02c-1.5-4.98-1.61-10.91,0.11-15.85
										c0.06-0.16,0.34-0.14,0.32,0.05C242.4,193.64,242.12,198.52,242.85,203.99z"/>
									<path class="st7" d="M249,204.45c0.01,0.06-0.09,0.07-0.11,0.01c-1.51-5.14-1.46-11.82,1.19-17.29
										c0.09-0.19,0.36-0.26,0.27-0.04C248.87,190.9,248.32,199.53,249,204.45z"/>
									<path class="st7" d="M257.47,186.77c-2.34,5.33-2.74,10.88-2.33,16.64c0.01,0.07-0.1,0.07-0.12,0.01
										c-0.97-2.76-0.85-6.46-0.51-9.33c0.32-2.75,1.17-5.16,2.78-7.41C257.34,186.6,257.52,186.65,257.47,186.77z"/>
								</g>
							</g>
						</g>
					</g>
				</g>
			</g>
		</g>
	</g>
	<g>
		<g>
			<rect x="29.87" y="81.11" class="st1" width="124.77" height="104.5"/>
			<g>
				<rect x="29.87" y="80.97" class="st3" width="124.77" height="6.85"/>
				<g>
					<path class="st4" d="M35.97,84.4c0,0.82-0.69,1.49-1.53,1.49c-0.85,0-1.53-0.67-1.53-1.49c0-0.82,0.69-1.49,1.53-1.49
						C35.29,82.91,35.97,83.57,35.97,84.4z"/>
					<path class="st1" d="M42.22,84.4c0,0.82-0.69,1.49-1.53,1.49c-0.85,0-1.53-0.67-1.53-1.49c0-0.82,0.69-1.49,1.53-1.49
						C41.54,82.91,42.22,83.57,42.22,84.4z"/>
					<path class="st5" d="M48.47,84.4c0,0.82-0.69,1.49-1.53,1.49c-0.85,0-1.53-0.67-1.53-1.49c0-0.82,0.69-1.49,1.53-1.49
						C47.79,82.91,48.47,83.57,48.47,84.4z"/>
				</g>
			</g>
		</g>
		<g>
			<g>
				<g>
					<path class="st6" d="M85.05,144.13c4.03,7.45,19.39,31.26,27.79,32.1c5.52,0.56,27.03-4.02,30.19-9.59
						c1.38-2.43-3.16-17.75-5.99-16.8c-2.83,0.95-20.01,5.24-22.22,4.86c-2.2-0.38-20.37-17.04-26.89-20.95
						C76.7,127.01,82.88,140.12,85.05,144.13z"/>
					<g>
						<g>
							<path class="st5" d="M130.34,149.46l3.13,23.44c0,0-16.88,5.1-24.58,3.09c-9.35-2.44-24.84-29.6-27.02-34.09
								c-3.58-7.37-3.11-12.04,1.22-11.25c1.68,0.3,3.95,1.43,6.79,3.56c2.97,2.22,20.16,16.81,25.43,19.41
								C118.25,155.09,130.34,149.46,130.34,149.46z"/>
							<path class="st12" d="M128.99,172.41c-0.57-3.45-2.37-17.65-2.55-20.75c-0.01-0.21,0.12-0.27,0.16-0.05
								c1.95,10.3,2.14,17.36,2.52,20.78C129.13,172.47,129,172.5,128.99,172.41z"/>
						</g>
						<path class="st13" d="M78.4,131.51"/>
						<path class="st14" d="M126.28,174.74c-5.54,1.22-12.98,2.41-17.4,1.26c-9.34-2.44-24.84-29.6-27.02-34.09
							c-3.58-7.38-3.11-12.04,1.22-11.25c0.13,0.02,0.27,0.05,0.41,0.09L126.28,174.74z"/>
					</g>
				</g>
				<g>
					<g>
						<path class="st5" d="M123.34,187.46c-0.02-0.12-0.04-0.24-0.07-0.37c0.03,0.15,0.06,0.3,0.08,0.46
							C123.35,187.52,123.35,187.49,123.34,187.46z"/>
					</g>
				</g>
				<g>
					<path class="st5" d="M102.41,185.61l-1.24-7.25l-1.79-12.87c0,0,4.21-7.15,1.77-12.28c-1.23-2.6-12.05-18.76-16.6-21.97
						c-4.27-3.01-10.47,0.21-12.78,2.57c-8.89,9.1-13.09,27.17-16.28,51.79h38.25H102.41z"/>
					<g>
						<path class="st15" d="M84.92,138.75c0,0,7.84,14.25,8.47,19.23c0.55,4.39-3.5,8.4-3.5,8.4l1.99,19.23"/>
						<g>
							<path class="st16" d="M92.47,149.07c0.06,0.35-0.19,0.68-0.56,0.74c-0.36,0.05-0.7-0.19-0.76-0.54
								c-0.06-0.35,0.19-0.68,0.56-0.74S92.42,148.72,92.47,149.07z"/>
							<path class="st16" d="M89.63,143.59c0.06,0.35-0.19,0.68-0.56,0.74s-0.7-0.19-0.76-0.54c-0.06-0.35,0.19-0.68,0.56-0.74
								C89.23,142.99,89.57,143.24,89.63,143.59z"/>
							<path class="st16" d="M95.28,156.03c0.06,0.35-0.19,0.68-0.56,0.74c-0.36,0.05-0.7-0.19-0.76-0.54
								c-0.06-0.35,0.19-0.68,0.56-0.74C94.89,155.43,95.23,155.67,95.28,156.03z"/>
							<path class="st16" d="M95.06,163.03c0.06,0.35-0.19,0.68-0.56,0.74c-0.36,0.05-0.7-0.19-0.76-0.54
								c-0.06-0.35,0.19-0.68,0.56-0.74C94.66,162.44,95,162.68,95.06,163.03z"/>
							<path class="st16" d="M92.86,169.27c0.06,0.35-0.19,0.68-0.56,0.74c-0.36,0.05-0.7-0.19-0.76-0.54
								c-0.06-0.35,0.19-0.68,0.56-0.74C92.46,168.67,92.8,168.92,92.86,169.27z"/>
							<path class="st16" d="M93.63,175.89c0.06,0.35-0.19,0.68-0.56,0.74c-0.36,0.05-0.7-0.19-0.76-0.54
								c-0.06-0.35,0.19-0.68,0.56-0.74C93.24,175.3,93.58,175.54,93.63,175.89z"/>
							<path class="st16" d="M94.4,182.51c0.06,0.35-0.19,0.68-0.56,0.74c-0.36,0.05-0.7-0.19-0.76-0.54
								c-0.06-0.35,0.19-0.68,0.56-0.74C94.01,181.92,94.35,182.16,94.4,182.51z"/>
						</g>
					</g>
					<path class="st3" d="M74.97,107.3c-0.83,0.49-1.15,1.52-1.3,2.47c-0.08,0.5-0.16,1.06-0.56,1.37c-0.4,0.31-0.95,0.24-1.46,0.25
						c-1.48,0.03-2.93,0.86-3.7,2.13c-0.36,0.59-0.57,1.32-0.38,1.98c0.47,1.61,3.03,2.1,3.09,3.78c-0.83,0.15-1.7,0.1-2.52,0.33
						c-2.15,0.61-3.36,3.13-3.04,5.34c0.32,2.21,1.85,4.09,3.63,5.45c2.54,1.95,5.86,3.09,8.99,2.41c2.74-0.59,5-2.45,7.5-3.7
						c2.83-1.41,5.98-2.05,9-2.99c3.02-0.94,6.07-2.3,8.06-4.76c0.35-0.43,0.65-1.11,0.24-1.49c-0.21-0.2-0.54-0.2-0.83-0.18
						c-1.03,0.09-2.39,0.29-2.81-0.65c-0.44-0.97,0.68-1.87,1.61-2.37c2.77-1.48,5.42-3.18,7.91-5.08c1.1-0.84,2.23-1.8,2.65-3.12
						c0.42-1.32-0.22-3.07-1.58-3.32c-0.58-0.11-1.38-0.07-1.52-0.64c-0.09-0.33,0.15-0.66,0.38-0.92c0.76-0.86,1.59-1.68,2.17-2.67
						c0.58-0.99,0.88-2.22,0.48-3.3c-0.23-0.6-0.66-1.12-1.17-1.52c-1.68-1.32-4.11-1.37-6.08-0.53c-1.96,0.83-3.52,2.42-4.77,4.15
						s-2.27,3.61-3.51,5.35c-0.42,0.59-1.02,1.23-1.74,1.14c-0.37-1.03,1.32-2.2,0.62-3.05c-0.44-0.53-1.3-0.18-1.81,0.27
						c-1.87,1.64-3.04,4.37-5.47,4.89c-0.16-0.45,0.32-0.85,0.7-1.15c1.03-0.83,1.63-2.47,0.76-3.47c-0.78-0.91-2.3-0.74-3.28-0.04
						c-0.98,0.7-1.61,1.76-2.41,2.67c-0.43,0.49-0.93,0.92-1.52,1.21c-0.41,0.2-0.87,0.43-1.33,0.45c-0.46,0.02-0.93-0.16-1.36-0.29
						c-0.6-0.19-1.18-0.43-1.8-0.57C76.21,106.98,75.54,106.97,74.97,107.3z"/>
					<path class="st17" d="M76.56,114.29c-0.65,0.58-0.69,1.69-0.13,2.36c0.56,0.67,1.6,0.84,2.38,0.44
						c-0.59,5.98-2.32,11.79-3.49,17.68c-0.04,0.2-0.08,0.42-0.03,0.62c0.05,0.22,0.21,0.39,0.37,0.55
						c0.84,0.82,1.99,1.24,3.13,1.54c1.12,0.29,2.28,0.48,3.42,0.34c1.14-0.14,2.28-0.66,2.98-1.57c0.71-0.91,0.92-2.12,0.83-3.26
						s-0.49-2.24-0.9-3.31c-1.17-3.07-2.52-6.08-4.05-8.99c0.67,0.38,1.33,0.75,2.01,1.11c0.24,0.13,0.51,0.27,0.78,0.22
						c0.34-0.05,0.57-0.36,0.75-0.65c1.85-3.02,1.64-6.83,1.37-10.36c-0.02-0.25-0.05-0.53-0.24-0.7c-0.15-0.13-0.36-0.17-0.56-0.18
						c-1.4-0.11-2.81,0.35-3.94,1.17c-0.57,0.41-1.08,0.92-1.49,1.5c-0.2,0.28-0.37,0.58-0.52,0.89c-0.11,0.24-0.25,0.74-0.29,0.73
						c-0.18-0.03-0.87-0.46-1.25-0.49C77.29,113.91,76.87,114.02,76.56,114.29z"/>
					<path class="st18" d="M92.88,106.73c2.06-1.62,2.79-4.34,3.91-6.7c0.68-1.44,1.57-2.82,2.77-3.86c2.08-1.81,5.1-2.48,7.75-1.72
						c1.21,0.35,2.39,1.02,3.02,2.12c0.68,1.19,0.58,2.7,0.03,3.94"/>
					<path class="st18" d="M70.67,119.53c-3.05,0.01-5.88,1.39-7.23,3.5c-0.44,0.69-0.78,1.47-0.8,2.29
						c-0.02,0.87,0.31,1.71,0.77,2.44c1.01,1.6,2.63,2.77,4.44,3.35c1.8,0.57,3.76,0.57,5.6,0.14"/>
				</g>
				<g>
					<g>
						<g>
							<path class="st5" d="M123.27,187.09c0.03,0.15,0.06,0.3,0.08,0.46c-0.01-0.03-0.01-0.06-0.01-0.09
								C123.32,187.34,123.3,187.22,123.27,187.09z"/>
							<path class="st5" d="M123.27,187.09c0.03,0.15,0.06,0.3,0.08,0.46c-0.01-0.03-0.01-0.06-0.01-0.09
								C123.32,187.34,123.3,187.22,123.27,187.09z"/>
						</g>
					</g>
				</g>
				<path class="st13" d="M123.27,187.09c0.03,0.15,0.06,0.3,0.08,0.46c-0.01-0.03-0.01-0.06-0.01-0.09
					C123.32,187.34,123.3,187.22,123.27,187.09z"/>
				<g>
					<g>
						<polygon class="st11" points="130.3,172.75 103.22,177.54 109.72,140.56 136.8,135.77 						"/>
					</g>
					<g>
						<g>
							<path class="st6" d="M138.45,142.09c1.75,2.8,5.72,6.08,6.29,8.47c0.51,2.16-1.22,3.14-1.22,3.14s2.56,0.93,2.71,3.18
								c0.08,1.16-1.7,2.31-1.7,2.31s2.02,0.83,2.03,2.85c0.01,1.6-1.77,2.52-1.77,2.52s1.56,1.7,1.05,3.34
								c-1.03,3.32-14.71,4.89-17.4,0.1c-1.25-2.24,2.11-2.44,2.11-2.44s-4.9-0.88-5.3-3.69c-0.4-2.81,3.99-2.81,3.99-2.81
								s-4.75-0.89-4.86-3.85c-0.12-3.08,4.26-2.33,4.26-2.33s-3.28-1.71-2.85-4c0.71-3.77,6.99,0.15,9.92-0.91l1.09-5.15
								L138.45,142.09z"/>
							<path class="st6" d="M141.68,146.08c-1.42-2.8,1.78-6.83,0.81-9.7c-1.32-3.89-5.36,0.53-5.69,6.44l0.55,4.63L141.68,146.08z"
								/>
							<g>
								<path class="st7" d="M144.53,164.74c0.04-0.01,0.07,0.05,0.02,0.07c-4.37,1.61-9.67,2.04-14.19,0.78
									c-0.15-0.04-0.14-0.3,0.03-0.29C135.29,165.71,139.68,165.69,144.53,164.74z"/>
								<path class="st7" d="M144.6,159.21c0.05-0.01,0.07,0.08,0.02,0.1c-4.52,1.64-10.5,1.96-15.53-0.11
									c-0.17-0.07-0.26-0.31-0.05-0.24C132.49,160.08,140.24,160.09,144.6,159.21z"/>
								<path class="st7" d="M128.32,152.61c4.9,1.8,9.89,1.85,15.02,1.16c0.07-0.01,0.07,0.09,0.02,0.11
									c-2.42,1.02-5.73,1.12-8.32,0.97c-2.48-0.14-4.68-0.76-6.78-2.07C128.17,152.73,128.21,152.57,128.32,152.61z"/>
							</g>
						</g>
					</g>
				</g>
				<g>
					<g>
						<g>
							<path class="st6" d="M68.1,137.83c-13.23,14.94-28.06,40.05-21.54,45.31c5.96,4.8,27.46-0.07,40.95-5.52
								c2.57-1.04-3.4-23.97-6.25-23.18c-4.93,1.37-12.7,4.68-13.04,4.78c-0.74,0.21,2.81-8.7,7.18-19.51
								C80.28,127.66,75.67,129.29,68.1,137.83z"/>
							<g>
								<path class="st6" d="M110.05,153.81c-0.18,1.99-1.83,2.76-1.83,2.76s1.49,1.07,1.79,2.8c0.35,1.98-2.61,3.41-2.61,3.41
									s1.28,1.39,1.42,3.26c0.15,1.93-2.64,3.79-2.64,3.79s0.48,1.95-0.56,3.65c-1.77,2.9-18.89,5.12-21.21,5.32l-4.12-23.89
									c0,0,14.57-7.28,18.46-6.81C102.04,148.49,110.36,150.29,110.05,153.81z"/>
								<g>
									<path class="st7" d="M108.17,156.49c-3.38-1.26-7.06-1.7-10.62-2.09c-0.08-0.01-0.09,0.12-0.01,0.12
										c3.54,0.35,7.07,1.65,10.59,2.13C108.23,156.67,108.26,156.52,108.17,156.49z"/>
									<path class="st7" d="M107.33,162.5c-0.77-0.26-1.63-0.27-2.44-0.31c-0.87-0.05-1.74-0.09-2.61-0.11
										c-1.75-0.05-3.49-0.05-5.24-0.01c-0.08,0-0.09,0.12-0.01,0.12c1.74,0.05,3.48,0.12,5.21,0.24c0.87,0.06,1.74,0.13,2.6,0.2
										c0.81,0.07,1.65,0.21,2.46,0.1C107.43,162.73,107.45,162.54,107.33,162.5z"/>
									<path class="st7" d="M106.12,169.83c-0.66-0.25-1.51-0.16-2.21-0.16c-0.8,0-1.59-0.01-2.39-0.03
										c-1.59-0.03-3.18-0.05-4.77-0.13c-0.08,0-0.09,0.12-0.01,0.12c1.61,0.09,3.23,0.2,4.84,0.28c0.79,0.04,1.59,0.07,2.38,0.1
										c0.67,0.02,1.51,0.13,2.16-0.1C106.16,169.89,106.15,169.84,106.12,169.83z"/>
								</g>
							</g>
						</g>
					</g>
					<g>
						<path class="st5" d="M74.62,131.24c-9.63,5.94-34.39,40.89-29.83,50.51c4.56,9.62,35.6-0.97,35.6-0.97l-2.75-26.11
							c0,0-8.16,4.59-8.44,4.18c-0.27-0.41,4.49-12.34,6.43-17.19C77.58,136.8,79.75,128.08,74.62,131.24z"/>
						<g>
							<path class="st16" d="M76.46,179.3c-0.57-3.45-2.41-17.65-2.6-20.74c-0.01-0.21,0.12-0.28,0.16-0.05
								c1.97,10.29,2.18,17.36,2.57,20.77C76.61,179.36,76.48,179.39,76.46,179.3z"/>
							<path class="st16" d="M77.46,154.69c-0.9,0.29-1.78,0.78-2.62,1.21c-0.77,0.39-1.54,0.77-2.3,1.16
								c-1.66,0.86-3.29,1.76-4.92,2.67c-1.63,0.91-3.24,1.83-4.85,2.79c-1.6,0.95-3.15,1.99-4.75,2.94c-0.07,0.04,0,0.15,0.07,0.11
								c1.63-0.92,3.32-1.74,4.97-2.62c1.62-0.87,3.23-1.74,4.85-2.6c1.62-0.86,3.24-1.72,4.85-2.59c0.79-0.43,1.58-0.86,2.36-1.29
								c0.83-0.45,1.74-0.88,2.5-1.45C77.79,154.89,77.66,154.63,77.46,154.69z"/>
							<path class="st16" d="M74.72,147.19c-0.5,0.64-0.99,1.28-1.46,1.95c-0.09,0.12-0.16,0.25-0.25,0.38
								c0.13-0.34,0.25-0.68,0.38-1.03c0.45-1.19,0.98-2.39,1.29-3.63c0.01-0.06-0.07-0.08-0.1-0.03c-0.65,1.16-1.11,2.45-1.63,3.67
								c-0.51,1.2-1.03,2.4-1.52,3.61c-0.49,1.21-0.99,2.42-1.46,3.64c-0.45,1.19-0.97,2.41-1.24,3.65
								c-0.02,0.07,0.09,0.1,0.12,0.04c0.69-1.14,1.17-2.42,1.68-3.65c0.5-1.21,0.97-2.43,1.46-3.64c0.2-0.51,0.4-1.02,0.59-1.53
								c0.08-0.12,0.17-0.23,0.25-0.35c0.23-0.32,0.45-0.65,0.67-0.98c0.44-0.69,0.85-1.38,1.25-2.09
								C74.77,147.19,74.74,147.17,74.72,147.19z"/>
							<path class="st16" d="M80.45,180.2c-0.02-0.17-0.11-0.21-0.14-0.02c-0.02,0.1-0.03,0.29-0.04,0.39
								c-1.06,0.28-4.92,1.46-5.87,1.74c-1.98,0.59-3.98,1.11-6,1.55c-2.02,0.45-4.06,0.83-6.1,1.15c-2.03,0.32-4.1,0.65-6.15,0.79
								c-0.08,0.01-0.08,0.13,0.01,0.13c2.1-0.11,4.18-0.17,6.27-0.41c2.04-0.24,4.08-0.58,6.1-1c2.05-0.43,4.09-0.96,6.09-1.57
								c1-0.31,2-0.64,2.99-0.99c0.93-0.33,1.94-0.61,2.79-1.13c0.06-0.04,0.11-0.12,0.1-0.2C80.48,180.5,80.47,180.35,80.45,180.2z
								"/>
						</g>
					</g>
				</g>
				<g>
					<g>
						<g>
							<path class="st5" d="M86.16,130.79l-1.89,5.93l-7.92-6.62l-1.88,2.5c0,0,8.12,10.91,8.12,10.38l2.02-5.15l3.79,3.14l-1-8.6
								L86.16,130.79z"/>
							<path class="st16" d="M88.15,136.7c-0.21-1.41-0.39-2.85-0.67-4.25c-0.01-0.05-0.09-0.07-0.1,0
								c-0.18,1.4,0.67,6.81,0.77,8.11c-0.01,0-0.01-0.01-0.02-0.01c-0.16-0.14-3.5-2.75-3.53-2.7c-0.46,0.83-1.94,4.58-2.04,4.92
								c-1.28-1.73-6.18-8.01-7.66-9.63c-0.04-0.05-0.12,0-0.08,0.06c1.16,1.85,7.65,10.31,7.73,10.28
								c0.06,0.04,1.91-4.58,2.11-5.44c0.58,0.58,3.98,3.56,3.97,3.35C88.59,139.94,88.36,138.11,88.15,136.7z"/>
						</g>
					</g>
				</g>
			</g>
		</g>
	</g>
	<g>
		<path class="st3" d="M133.24,98.49c11.3-0.08,22.6-0.06,33.89-0.1c11.3,0.03,22.6,0.01,33.89,0.1c-11.3,0.09-22.6,0.06-33.89,0.1
			C155.84,98.55,144.54,98.57,133.24,98.49z"/>
		<path class="st3" d="M133.24,106.6c11.3-0.09,22.6-0.06,33.89-0.1c11.3,0.04,22.6,0.01,33.89,0.1c-11.3,0.09-22.6,0.06-33.89,0.1
			C155.84,106.66,144.54,106.68,133.24,106.6z"/>
		<path class="st3" d="M133.24,114.71c11.3-0.09,22.6-0.06,33.89-0.1c11.3,0.03,22.6,0.01,33.89,0.1c-11.3,0.09-22.6,0.06-33.89,0.1
			C155.84,114.77,144.54,114.8,133.24,114.71z"/>
		<path class="st3" d="M133.24,122.82c11.3-0.09,22.6-0.06,33.89-0.1c11.3,0.03,22.6,0.01,33.89,0.1c-11.3,0.09-22.6,0.06-33.89,0.1
			C155.84,122.89,144.54,122.91,133.24,122.82z"/>
		<path class="st3" d="M133.24,130.93c11.3-0.09,22.6-0.06,33.89-0.1c11.3,0.03,22.6,0.01,33.89,0.1c-11.3,0.09-22.6,0.06-33.89,0.1
			C155.84,131,144.54,131.02,133.24,130.93z"/>
		<path class="st3" d="M146.89,93.21c0.1,7.58,0.07,15.16,0.12,22.74c-0.04,7.58-0.02,15.16-0.12,22.74
			c-0.1-7.58-0.07-15.16-0.12-22.74C146.81,108.37,146.79,100.79,146.89,93.21z"/>
		<path class="st3" d="M158.61,93.21c0.1,7.58,0.07,15.16,0.12,22.74c-0.04,7.58-0.02,15.16-0.12,22.74
			c-0.1-7.58-0.07-15.16-0.12-22.74C158.54,108.37,158.51,100.79,158.61,93.21z"/>
		<path class="st3" d="M170.33,93.21c0.1,7.58,0.07,15.16,0.12,22.74c-0.04,7.58-0.02,15.16-0.12,22.74
			c-0.1-7.58-0.07-15.16-0.12-22.74C170.26,108.37,170.24,100.79,170.33,93.21z"/>
		<path class="st3" d="M182.06,93.21c0.1,7.58,0.07,15.16,0.12,22.74c-0.04,7.58-0.02,15.16-0.12,22.74
			c-0.1-7.58-0.07-15.16-0.12-22.74C181.98,108.37,181.96,100.79,182.06,93.21z"/>
		<path class="st3" d="M193.78,93.21c0.1,7.58,0.07,15.16,0.12,22.74c-0.04,7.58-0.02,15.16-0.12,22.74
			c-0.1-7.58-0.07-15.16-0.12-22.74C193.71,108.37,193.68,100.79,193.78,93.21z"/>
		<path class="st3" d="M201.03,138.69"/>
		<g>
			<path class="st19" d="M134.95,125.05c2.07,0,3.3-8.24,6.23-8.24c2.93,0,3.24,6.01,5.71,6.01c2.47,0,2.39-10.56,5.71-10.56
				c3.32,0,2.55,4.28,6.02,4.28c3.47,0,2.16-9.95,5.78-9.95c3.62,0,2.16,13.71,5.94,13.71c2.39,0,3.32-4.35,6.17-4.35
				c1.89,0,3,2.18,5.47,2.18c2.51,0,3.01-8.37,6.09-8.37s3.44,4.95,5.71,4.95c2.27,0,3.08-8.11,7.25-8.11v32.09h-66.08V125.05z"/>
			<path class="st2" d="M134.95,125.45v-0.79c0.63,0,1.49-1.92,2.12-3.33c1.08-2.41,2.2-4.91,4.11-4.91c1.83,0,2.75,1.83,3.55,3.44
				c0.63,1.26,1.28,2.57,2.16,2.57c0.77,0,1.44-2.54,1.93-4.39c0.8-3.03,1.63-6.17,3.78-6.17c1.92,0,2.67,1.23,3.34,2.32
				c0.65,1.06,1.2,1.97,2.68,1.97c1.33,0,1.86-2.32,2.36-4.57c0.59-2.64,1.21-5.38,3.42-5.38c2.2,0,2.76,3.44,3.35,7.09
				c0.48,2.95,1.08,6.62,2.58,6.62c0.9,0,1.64-0.9,2.41-1.86c0.95-1.17,2.02-2.49,3.76-2.49c1.04,0,1.85,0.54,2.64,1.06
				c0.82,0.55,1.68,1.11,2.83,1.11c0.86,0,1.64-1.99,2.26-3.59c0.92-2.35,1.87-4.78,3.83-4.78c1.94,0,2.9,1.58,3.74,2.97
				c0.62,1.02,1.2,1.98,1.96,1.98c0.65,0,1.39-1.54,2.04-2.9c1.11-2.32,2.5-5.21,5.21-5.21V107c-2.08,0-3.29,2.51-4.35,4.72
				c-0.91,1.9-1.63,3.39-2.9,3.39c-1.33,0-2.04-1.17-2.79-2.41c-0.76-1.25-1.54-2.55-2.92-2.55c-1.29,0-2.17,2.25-2.95,4.24
				c-0.87,2.22-1.62,4.13-3.14,4.13c-1.48,0-2.5-0.68-3.4-1.28c-0.72-0.48-1.35-0.9-2.07-0.9c-1.25,0-2.14,1.09-2.99,2.15
				c-0.88,1.08-1.79,2.2-3.18,2.2c-2.31,0-2.89-3.55-3.5-7.3c-0.46-2.85-1.04-6.4-2.43-6.4c-1.45,0-2.01,2.51-2.51,4.73
				c-0.6,2.68-1.17,5.21-3.27,5.21c-2.04,0-2.81-1.27-3.5-2.39c-0.62-1.02-1.16-1.89-2.52-1.89c-1.41,0-2.22,3.08-2.87,5.55
				c-0.74,2.8-1.32,5.01-2.83,5.01c-1.49,0-2.23-1.48-3.01-3.05c-0.73-1.45-1.47-2.96-2.7-2.96c-1.27,0-2.37,2.44-3.25,4.4
				C136.97,123.75,136.21,125.45,134.95,125.45z"/>
		</g>
		<path class="st20" d="M134.95,138.69"/>
		<path class="st3" d="M134.95,93.71c0.07,7.5,0.14,14.99,0.15,22.49l0.07,22.49l-0.22-0.19l33.04,0.05l16.52,0.04l16.52,0.1
			l-16.52,0.1l-16.52,0.04l-33.04,0.05l-0.22,0l0-0.19l0.07-22.49C134.81,108.7,134.87,101.2,134.95,93.71z"/>
		<g>
			<path class="st1" d="M148.15,122.76c0,0.69-0.56,1.26-1.26,1.26c-0.69,0-1.26-0.56-1.26-1.26c0-0.69,0.56-1.26,1.26-1.26
				C147.58,121.5,148.15,122.07,148.15,122.76z"/>
			<path class="st10" d="M148.15,122.76c0.03,0.67-0.54,1.31-1.26,1.35c-0.35,0.02-0.73-0.1-1-0.35c-0.27-0.25-0.43-0.62-0.44-1
				c0.01-0.38,0.17-0.75,0.44-1c0.27-0.25,0.65-0.37,1-0.35C147.61,121.45,148.18,122.09,148.15,122.76z M148.15,122.76
				c-0.01-0.33-0.15-0.65-0.39-0.87c-0.24-0.22-0.57-0.32-0.87-0.29c-0.62,0.05-1.1,0.6-1.07,1.16c-0.03,0.57,0.45,1.12,1.07,1.16
				c0.3,0.02,0.63-0.08,0.87-0.29C147.99,123.41,148.14,123.09,148.15,122.76z"/>
		</g>
		<g>
			<path class="st1" d="M159.87,116.49c0,0.69-0.56,1.26-1.26,1.26c-0.69,0-1.26-0.56-1.26-1.26c0-0.69,0.56-1.26,1.26-1.26
				C159.31,115.23,159.87,115.79,159.87,116.49z"/>
			<path class="st10" d="M159.87,116.49c0.03,0.67-0.54,1.31-1.26,1.35c-0.35,0.02-0.73-0.1-1-0.35c-0.27-0.25-0.43-0.62-0.44-1
				c0.01-0.38,0.17-0.75,0.44-1c0.27-0.25,0.65-0.37,1-0.35C159.33,115.18,159.9,115.82,159.87,116.49z M159.87,116.49
				c-0.01-0.33-0.15-0.65-0.39-0.87c-0.24-0.22-0.57-0.32-0.87-0.29c-0.62,0.05-1.1,0.6-1.07,1.16c-0.03,0.57,0.45,1.12,1.07,1.16
				c0.3,0.02,0.63-0.08,0.87-0.29C159.72,117.13,159.86,116.82,159.87,116.49z"/>
		</g>
		<g>
			<circle class="st1" cx="170.33" cy="120.24" r="1.26"/>
			<path class="st10" d="M171.59,120.24c0.03,0.67-0.54,1.31-1.26,1.35c-0.35,0.02-0.73-0.1-1-0.35c-0.27-0.25-0.43-0.62-0.44-1
				c0.01-0.38,0.17-0.75,0.44-1c0.27-0.25,0.65-0.37,1-0.35C171.05,118.93,171.62,119.58,171.59,120.24z M171.59,120.24
				c-0.01-0.33-0.15-0.65-0.39-0.87c-0.24-0.22-0.57-0.32-0.87-0.29c-0.62,0.05-1.1,0.6-1.07,1.16c-0.03,0.57,0.45,1.12,1.07,1.16
				c0.3,0.02,0.63-0.08,0.87-0.29C171.44,120.89,171.58,120.57,171.59,120.24z"/>
		</g>
		<g>
			<path class="st1" d="M183.32,118.06c0,0.69-0.56,1.26-1.26,1.26c-0.69,0-1.26-0.56-1.26-1.26c0-0.69,0.56-1.26,1.26-1.26
				C182.75,116.8,183.32,117.37,183.32,118.06z"/>
			<path class="st10" d="M183.32,118.06c0.03,0.67-0.54,1.31-1.26,1.35c-0.35,0.02-0.73-0.1-1-0.35c-0.27-0.25-0.43-0.62-0.44-1
				c0.01-0.38,0.17-0.75,0.44-1c0.27-0.25,0.65-0.37,1-0.35C182.78,116.75,183.34,117.4,183.32,118.06z M183.32,118.06
				c-0.01-0.33-0.15-0.65-0.39-0.87c-0.24-0.22-0.57-0.32-0.87-0.29c-0.62,0.05-1.1,0.6-1.07,1.16c-0.03,0.57,0.45,1.12,1.07,1.16
				c0.3,0.02,0.63-0.08,0.87-0.29C183.16,118.71,183.31,118.39,183.32,118.06z"/>
		</g>
		<g>
			<path class="st1" d="M194.92,114.61c0,0.69-0.56,1.26-1.26,1.26s-1.26-0.56-1.26-1.26c0-0.69,0.56-1.26,1.26-1.26
				S194.92,113.92,194.92,114.61z"/>
			<path class="st10" d="M194.92,114.61c0.03,0.67-0.54,1.31-1.26,1.35c-0.35,0.02-0.73-0.1-1-0.35c-0.27-0.25-0.43-0.62-0.44-1
				c0.01-0.38,0.17-0.75,0.44-1c0.27-0.25,0.65-0.37,1-0.35C194.38,113.3,194.95,113.95,194.92,114.61z M194.92,114.61
				c-0.01-0.33-0.15-0.65-0.39-0.87c-0.24-0.22-0.57-0.32-0.87-0.29c-0.62,0.05-1.1,0.6-1.07,1.16c-0.03,0.57,0.45,1.12,1.07,1.16
				c0.3,0.02,0.63-0.08,0.87-0.29C194.77,115.26,194.91,114.94,194.92,114.61z"/>
		</g>
	</g>
	<path class="st0" d="M140.91,49.43c4.39-4.88,8.22-11.38,5.51-17.44c-1.47-3.28-4.7-5.81-8.28-7.28
		c-3.59-1.46-7.52-1.97-11.39-2.15c-10.56-0.51-21.64,1.47-29.17,7.8c-3.51,2.95-6.21,7.19-5.31,11.57
		c1.02,4.97,6.2,8.48,11.26,10.78c5.47,2.49,11.33,4.23,17.3,5.16c2.8,0.44,9.47,1.54,13.5-1.95
		C136.67,53.89,138.86,51.71,140.91,49.43z"/>
</g>
</svg>
