<svg xmlns="http://www.w3.org/2000/svg" xmlns:xlink="http://www.w3.org/1999/xlink" viewBox="0 0 1507.25 789.99"><defs><style>.cls-1{isolation:isolate;}.cls-2{fill:#c6c8df;}.cls-3{fill:#edf0f7;}.cls-24,.cls-4{fill:#414b87;}.cls-5{fill:#4b5aa2;}.cls-6{fill:#6174ba;}.cls-7{fill:#e9ebf4;}.cls-8{fill:#efbb45;}.cls-9{fill:#f7c750;}.cls-10,.cls-61,.cls-72{fill:#fff;}.cls-11{fill:#b14b2e;}.cls-12{fill:#c45a3b;}.cls-13{fill:#d86c4c;}.cls-14{fill:#e47960;}.cls-15{fill:#20201d;}.cls-16{fill:#534e63;}.cls-17{fill:#cecece;}.cls-18{fill:#d85930;}.cls-19{fill:#52afe7;}.cls-20,.cls-21,.cls-22,.cls-23,.cls-25,.cls-26,.cls-34,.cls-36,.cls-41,.cls-44{fill:none;stroke-linecap:round;stroke-linejoin:round;}.cls-20,.cls-21,.cls-22,.cls-23,.cls-25,.cls-26{stroke:#fff;}.cls-21,.cls-22,.cls-23{stroke-width:2.08px;}.cls-22{stroke-dasharray:13.05 13.05;}.cls-23{stroke-dasharray:12.33 12.33;}.cls-24{opacity:0.75;}.cls-25{stroke-width:0.86px;}.cls-26{stroke-width:0.91px;}.cls-27{fill:#57699e;}.cls-28{opacity:0.1;}.cls-29{fill:#efaa6d;}.cls-30{fill:#c6814e;}.cls-31{fill:#b53d1d;}.cls-32,.cls-84{fill:#41498c;}.cls-33{fill:#282825;}.cls-34{stroke:#000;stroke-width:0.92px;}.cls-35{fill:#d3864c;}.cls-36{stroke:#a94a2e;}.cls-36,.cls-41,.cls-44{stroke-width:0.91px;}.cls-37{fill:#e5ab77;}.cls-38{fill:#4c5c88;}.cls-39{fill:#d89f87;}.cls-40{fill:#c48a76;}.cls-41{stroke:#b47964;}.cls-42{fill:#576a9c;}.cls-43{fill:#586a9d;}.cls-44{stroke:#20201d;}.cls-45{fill:#f3f5fa;}.cls-46{fill:#5568a2;}.cls-47,.cls-65{opacity:0.58;}.cls-48,.cls-49,.cls-65{fill:#666;}.cls-49{stroke:#666;stroke-miterlimit:10;stroke-width:0.5px;}.cls-50{fill:#efdec3;}.cls-51{fill:#2b2b2b;}.cls-52{fill:#dab04e;}.cls-53{fill:#e1a0a3;}.cls-54{fill:#cb6954;}.cls-55{fill:#6a5756;}.cls-56{fill:#908787;}.cls-57{fill:#b8b0af;}.cls-58{fill:#7b2f28;opacity:0.31;}.cls-59{fill:#f4f6fc;}.cls-60{fill:#f9f9f9;}.cls-61{font-size:31.13px;font-family:Georama-Bold, Georama;font-weight:700;}.cls-62{fill:#c9dafc;}.cls-63{fill:#fffefb;}.cls-64{fill:#9eaebc;}.cls-66{fill:#b76f58;}.cls-67,.cls-71{opacity:0.3;mix-blend-mode:multiply;}.cls-67{fill:url(#linear-gradient);}.cls-68{fill:#68ade1;}.cls-69,.cls-73{opacity:0.19;}.cls-69{fill:url(#linear-gradient-2);}.cls-70,.cls-72{mix-blend-mode:soft-light;}.cls-71{fill:url(#linear-gradient-3);}.cls-74{fill:url(#linear-gradient-4);}.cls-75{fill:url(#linear-gradient-5);}.cls-76{fill:url(#linear-gradient-6);}.cls-77{fill:url(#linear-gradient-7);}.cls-78{fill:url(#linear-gradient-8);}.cls-79{fill:url(#linear-gradient-9);}.cls-80{fill:url(#linear-gradient-10);}.cls-81{fill:url(#linear-gradient-11);}.cls-82{fill:url(#linear-gradient-12);}.cls-83{fill:url(#linear-gradient-13);}.cls-84{font-size:66.97px;font-family:MyriadHebrew-Regular, Myriad Hebrew;}</style><linearGradient id="linear-gradient" x1="843.8" y1="394.44" x2="879.17" y2="645.83" gradientUnits="userSpaceOnUse"><stop offset="0" stop-color="#444d87"/><stop offset="1" stop-color="#25274c"/></linearGradient><linearGradient id="linear-gradient-2" x1="873.09" y1="376.55" x2="899.14" y2="561.67" gradientUnits="userSpaceOnUse"><stop offset="0" stop-color="#fff"/><stop offset="1" stop-color="#ebeef1"/></linearGradient><linearGradient id="linear-gradient-3" x1="875.55" y1="645.27" x2="844.99" y2="720.45" xlink:href="#linear-gradient"/><linearGradient id="linear-gradient-4" x1="815.65" y1="686.48" x2="824.54" y2="686.48" xlink:href="#linear-gradient-2"/><linearGradient id="linear-gradient-5" x1="827.51" y1="694.52" x2="834.96" y2="694.52" xlink:href="#linear-gradient-2"/><linearGradient id="linear-gradient-6" x1="835.86" y1="685.17" x2="845.29" y2="685.17" xlink:href="#linear-gradient-2"/><linearGradient id="linear-gradient-7" x1="846.53" y1="687.81" x2="855.53" y2="687.81" xlink:href="#linear-gradient-2"/><linearGradient id="linear-gradient-8" x1="859.06" y1="698.67" x2="865.69" y2="698.67" xlink:href="#linear-gradient-2"/><linearGradient id="linear-gradient-9" x1="867.85" y1="693.37" x2="875.76" y2="693.37" xlink:href="#linear-gradient-2"/><linearGradient id="linear-gradient-10" x1="876.78" y1="689.38" x2="885.74" y2="689.38" xlink:href="#linear-gradient-2"/><linearGradient id="linear-gradient-11" x1="887.53" y1="693.02" x2="895.64" y2="693.02" xlink:href="#linear-gradient-2"/><linearGradient id="linear-gradient-12" x1="895.87" y1="687.83" x2="905.46" y2="687.83" xlink:href="#linear-gradient-2"/><linearGradient id="linear-gradient-13" x1="905.05" y1="686.28" x2="915.2" y2="686.28" xlink:href="#linear-gradient-2"/></defs><g class="cls-1"><g id="Layer_1" data-name="Layer 1"><path class="cls-2" d="M230.09,519.18c-20.58,8.41-44,8.11-64.78,16.19-20.46,8-34.37,22.54-43.14,36.45-13.67,21.68-17,43.95-13.12,63.82,6.94,35-18.25,41.93-47.17,58.07-7.49,4.18-30.52,22.75-36.49,29.22-7.37,8-11.84,16-14.11,24.36-2.6,9.54-3.2,24.74,5.61,32H486.55S252.19,510.15,230.09,519.18Z" transform="translate(-9.59 -4.88)"/><polygon class="cls-3" points="143.96 691.87 96.84 710.68 122.27 774.39 176.9 774.39 143.96 691.87"/><rect class="cls-4" x="114.21" y="708.9" width="43.68" height="24.87" transform="translate(520.21 1335.97) rotate(158.24)"/><rect class="cls-5" x="124.65" y="735.04" width="43.68" height="24.87" transform="translate(550.02 1382.53) rotate(158.24)"/><polygon class="cls-6" points="123.01 766.73 126.07 774.39 170.9 774.39 172.8 773.63 163.58 750.54 123.01 766.73"/><polygon class="cls-7" points="62.53 717.52 32.19 758.18 53.5 774.39 138.73 774.39 62.53 717.52"/><rect class="cls-8" x="48.21" y="740.07" width="43.68" height="24.87" transform="translate(705.43 1141.56) rotate(126.73)"/><polygon class="cls-9" points="60.1 774.39 92.59 774.39 106.04 754.4 86.11 739.53 60.1 774.39"/><polygon class="cls-10" points="92.72 677.73 49.83 704.81 93.77 774.39 153.77 774.39 92.72 677.73"/><rect class="cls-11" x="67.75" y="697.53" width="43.68" height="24.87" transform="translate(534.85 1257.54) rotate(147.73)"/><rect class="cls-12" x="82.78" y="721.34" width="43.68" height="24.87" transform="translate(575.3 1293.44) rotate(147.73)"/><polygon class="cls-13" points="85.79 755.15 97.94 774.39 101.89 774.39 135.99 752.85 122.72 731.83 85.79 755.15"/><polygon class="cls-14" points="137.62 756.49 109.28 774.39 148.93 774.39 137.62 756.49"/><path class="cls-2" d="M1465.05,555.75c-33.58-20.35-79-26.48-120.18-37.6s-81.08-29.84-91.87-65.48c-9.55-31.6,5-72.92-13.9-99.58-14.78-20.81-47.06-27.54-79.49-27.38s-38.31,2.29-70.59,2c-62.82-.49-94.54-26.93-92-67.48,2.14-34.3,61.75-68.91,48.51-119.59-17.67-67.61-182-129.54-244.91-135.31C749.27.65,684.29,31,651.47,75.09c-21.82,29.29-29.22,61.27-41.46,92.26s-32.93,64.81-67.85,83.13c-32.53,17.07-69.54,16.45-102.37,32.86-32.33,16.16-91.14,55.13-105,83.35-21.6,44,33.79,112.35-85.31,139.38-70.12,15.91,72.58,65.79,26.87,98.55-11.84,8.49-48.22,46.16-57.66,59.29-11.64,16.18-18.7,32.53-22.29,49.43-4.11,19.36-5.05,50.2,8.87,64.89H1440.15c33.38-.53,52.56-1.19,53-2C1533.33,709.08,1521.34,589.87,1465.05,555.75Z" transform="translate(-9.59 -4.88)"/><path class="cls-15" d="M574.82,489.17V756.61a6.72,6.72,0,0,1-6.67,6.76H172.6a6.72,6.72,0,0,1-6.68-6.76V489.17a6.72,6.72,0,0,1,6.68-6.76H568.15A6.72,6.72,0,0,1,574.82,489.17Z" transform="translate(-9.59 -4.88)"/><rect class="cls-10" x="168.14" y="499.61" width="385.29" height="221.35"/><path class="cls-16" d="M563.54,726.37H177.2V504H563.54Z" transform="translate(-9.59 -4.88)"/><rect class="cls-10" x="168.14" y="485.85" width="385.29" height="13.76"/><path class="cls-17" d="M563.54,505H177.2V490.2H563.54Z" transform="translate(-9.59 -4.88)"/><path class="cls-18" d="M194.89,500.79a3.18,3.18,0,1,1,3.18-3.18A3.19,3.19,0,0,1,194.89,500.79Z" transform="translate(-9.59 -4.88)"/><path class="cls-10" d="M205.51,500.79a3.18,3.18,0,1,1,3.18-3.18A3.19,3.19,0,0,1,205.51,500.79Z" transform="translate(-9.59 -4.88)"/><path class="cls-10" d="M216.13,500.79a3.18,3.18,0,1,1,3.18-3.18A3.19,3.19,0,0,1,216.13,500.79Z" transform="translate(-9.59 -4.88)"/><path d="M594.83,778.42H146.42v-21H594.83Z" transform="translate(-9.59 -4.88)"/><circle class="cls-19" cx="379.72" cy="592.46" r="10.92"/><rect class="cls-20" x="368.25" y="581.11" width="22.94" height="22.94"/><polygon class="cls-15" points="415.58 606.19 379.05 590.56 393.94 627.62 401.54 612.73 415.58 606.19"/><polyline class="cls-21" points="356.9 666.05 356.9 672.3 350.65 672.3"/><line class="cls-22" x1="337.6" y1="672.3" x2="239.71" y2="672.3"/><polyline class="cls-21" points="233.18 672.3 226.93 672.3 226.93 666.05"/><line class="cls-23" x1="226.93" y1="653.73" x2="226.93" y2="536.61"/><polyline class="cls-21" points="226.93 530.45 226.93 524.2 233.18 524.2"/><line class="cls-22" x1="246.23" y1="524.2" x2="344.12" y2="524.2"/><polyline class="cls-21" points="350.65 524.2 356.9 524.2 356.9 530.45"/><line class="cls-23" x1="356.9" y1="542.78" x2="356.9" y2="659.89"/><rect class="cls-10" x="216.1" y="601.27" width="87.15" height="106.54"/><circle class="cls-2" cx="259.3" cy="671.67" r="26.32"/><circle class="cls-24" cx="259.3" cy="644.97" r="26.32"/><rect class="cls-21" x="220.51" y="517.78" width="6.8" height="6.8"/><rect class="cls-21" x="356.14" y="517.78" width="6.8" height="6.8"/><rect class="cls-21" x="220.51" y="672.68" width="6.8" height="6.8"/><rect class="cls-21" x="356.14" y="672.68" width="6.8" height="6.8"/><rect class="cls-17" x="216.1" y="601.27" width="87.15" height="8.82"/><path class="cls-18" d="M231.79,613.72a2.92,2.92,0,1,1,2.92-2.92A2.91,2.91,0,0,1,231.79,613.72Z" transform="translate(-9.59 -4.88)"/><path class="cls-10" d="M241.54,613.72a2.92,2.92,0,1,1,2.92-2.92A2.92,2.92,0,0,1,241.54,613.72Z" transform="translate(-9.59 -4.88)"/><path class="cls-10" d="M251.29,613.72a2.92,2.92,0,1,1,2.92-2.92A2.92,2.92,0,0,1,251.29,613.72Z" transform="translate(-9.59 -4.88)"/><path class="cls-2" d="M188.84,662.15s-.4-4,5.29-4h10.53s4.55-.17,4.6,3.51v12.83s.58,3.91-4.25,4.14H192.87s-4,.17-4.14-3.85Z" transform="translate(-9.59 -4.88)"/><path class="cls-2" d="M188.84,630.87s-.4-4,5.29-4h10.53s4.55-.17,4.6,3.51v12.83s.58,3.91-4.25,4.14H192.87s-4,.17-4.14-3.86Z" transform="translate(-9.59 -4.88)"/><path class="cls-2" d="M188.84,599.19s-.4-4,5.29-4h10.53s4.55-.18,4.6,3.51V611.5s.58,3.91-4.25,4.14H192.87s-4,.18-4.14-3.85Z" transform="translate(-9.59 -4.88)"/><path class="cls-2" d="M188.84,567.91s-.4-4,5.29-4h10.53s4.55-.17,4.6,3.51v12.83s.58,3.91-4.25,4.14H192.87s-4,.17-4.14-3.85Z" transform="translate(-9.59 -4.88)"/><path class="cls-2" d="M188.84,536.43s-.4-4,5.29-4h10.53s4.55-.18,4.6,3.5v12.83s.58,3.91-4.25,4.14H192.87s-4,.18-4.14-3.85Z" transform="translate(-9.59 -4.88)"/><polygon class="cls-10" points="182.63 531.41 189.07 545.83 191.99 540 197.35 537.4 182.63 531.41"/><polygon class="cls-25" points="182.86 562.93 188.97 576.59 191.73 571.07 196.81 568.6 182.86 562.93"/><polyline class="cls-26" points="183.4 597.83 183.4 595.38 195.67 595.38 195.67 597.68"/><line class="cls-26" x1="189.53" y1="606.58" x2="189.53" y2="595.53"/><line class="cls-26" x1="188.15" y1="606.58" x2="190.91" y2="606.58"/><line class="cls-25" x1="196.28" y1="625.6" x2="182.78" y2="638.63"/><polygon class="cls-10" points="183.07 668.81 184.41 660.7 190.28 659.26 194.02 662.77 192.75 668.75 184.06 669.96 188.21 666.11 187.43 665.33 183.07 668.81"/><polygon class="cls-10" points="190.75 658.93 192.55 657.07 196.17 660.64 194.41 662.35 190.75 658.93"/><circle class="cls-2" cx="187.83" cy="665.62" r="1.01"/><path class="cls-2" d="M1081.93,261.43c-4.37-9-7.24-20.16-.71-27.9,3.53-4.2,9.34-6.55,15.21-7.18s11.86.29,17.61,1.65c15.7,3.71,31.11,11.29,39.49,23.74,3.9,5.8,6.07,13.16,2.9,19.21-3.58,6.86-12.66,9.82-21,11.05a102.06,102.06,0,0,1-27.55.27c-4.29-.54-14.54-1.73-19-8.56A114.38,114.38,0,0,1,1081.93,261.43Z" transform="translate(-9.59 -4.88)"/><path class="cls-27" d="M373.36,412.46h5.69a1.68,1.68,0,0,1,1.1,1.36c.33,1.44.7,2.87,1,4.3a.63.63,0,0,0,.43.52q1.06.41,2.1.87a.61.61,0,0,0,.64,0c1.12-.69,2.26-1.36,3.39-2a1.38,1.38,0,0,1,2,.25L393,421a1.39,1.39,0,0,1,.25,2c-.67,1.12-1.34,2.24-2,3.35a.64.64,0,0,0,0,.68c.31.69.6,1.39.88,2.09a.6.6,0,0,0,.47.42c1.51.36,3,.74,4.51,1.11a1.36,1.36,0,0,1,1.19,1.5v4.74a1.36,1.36,0,0,1-1.2,1.53c-1.51.38-3,.74-4.51,1.13a.73.73,0,0,0-.43.38c-.32.69-.59,1.4-.9,2.09a.58.58,0,0,0,0,.63c.67,1.1,1.33,2.21,2,3.32a1.38,1.38,0,0,1-.23,2l-3.26,3.26a1.41,1.41,0,0,1-2,.25c-1.08-.65-2.17-1.29-3.24-1.95a.65.65,0,0,0-.71,0c-.71.33-1.44.63-2.17.92a.62.62,0,0,0-.42.48c-.36,1.5-.73,3-1.11,4.51a1.34,1.34,0,0,1-1.5,1.18h-4.74a1.35,1.35,0,0,1-1.52-1.21c-.38-1.5-.74-3-1.13-4.5a.73.73,0,0,0-.38-.43c-.72-.33-1.46-.61-2.17-.94a.62.62,0,0,0-.63,0c-1.08.66-2.16,1.31-3.25,2a1.38,1.38,0,0,1-2-.24L359.51,448a1.39,1.39,0,0,1-.25-2c.64-1.06,1.26-2.13,1.91-3.17a.68.68,0,0,0,0-.75c-.31-.67-.59-1.36-.86-2a.67.67,0,0,0-.53-.48c-1.45-.34-2.89-.72-4.34-1.06a1.66,1.66,0,0,1-1.32-1.08v-5.69a1.66,1.66,0,0,1,1.32-1.08c1.45-.34,2.89-.72,4.34-1.06a.63.63,0,0,0,.52-.48c.22-.6.47-1.2.73-1.78a.58.58,0,0,0,0-.63c-.74-1.21-1.46-2.43-2.19-3.65a1.4,1.4,0,0,1,.24-2l3.25-3.26a1.4,1.4,0,0,1,2-.23c1.16.69,2.34,1.39,3.5,2.1a.63.63,0,0,0,.67,0c.73-.33,1.46-.65,2.21-.94a.69.69,0,0,0,.47-.53c.34-1.45.72-2.89,1.06-4.34A1.64,1.64,0,0,1,373.36,412.46Zm11.89,22.08a9,9,0,1,0-9.07,9A9.07,9.07,0,0,0,385.25,434.54Z" transform="translate(-9.59 -4.88)"/><path class="cls-27" d="M318.37,353.57l8.73-2a2.66,2.66,0,0,1,2.18,1.69c1,2.09,2.1,4.16,3.13,6.24a1,1,0,0,0,.85.63q1.78.25,3.54.6a.94.94,0,0,0,1-.28c1.48-1.46,3-2.89,4.49-4.33a2.16,2.16,0,0,1,3.15-.34l6.16,3.85a2.18,2.18,0,0,1,1.11,3c-.63,2-1.25,3.92-1.91,5.87a1,1,0,0,0,.2,1c.72.95,1.43,1.92,2.1,2.91a.94.94,0,0,0,.88.48c2.44,0,4.88.05,7.32.09a2.15,2.15,0,0,1,2.35,1.89c.57,2.42,1.13,4.85,1.69,7.27A2.15,2.15,0,0,1,364,385c-2.17,1.11-4.36,2.2-6.52,3.33a1.25,1.25,0,0,0-.53.75c-.24,1.17-.4,2.35-.63,3.53a.88.88,0,0,0,.3.94c1.42,1.45,2.83,2.92,4.24,4.39a2.16,2.16,0,0,1,.35,3.15l-3.84,6.17a2.23,2.23,0,0,1-3,1.12c-1.89-.61-3.79-1.21-5.68-1.85a1,1,0,0,0-1.09.21c-1,.76-2,1.49-3,2.19a.93.93,0,0,0-.47.88c0,2.44-.05,4.88-.09,7.32a2.14,2.14,0,0,1-1.89,2.35l-7.28,1.69a2.14,2.14,0,0,1-2.77-1.31c-1.11-2.17-2.2-4.36-3.33-6.52a1.19,1.19,0,0,0-.75-.52c-1.21-.25-2.45-.42-3.66-.66a.9.9,0,0,0-.95.27c-1.42,1.4-2.86,2.78-4.29,4.16a2.18,2.18,0,0,1-3.11.32L309.73,413a2.2,2.2,0,0,1-1.08-3c.59-1.85,1.18-3.7,1.81-5.54a1.08,1.08,0,0,0-.22-1.15c-.72-.93-1.41-1.88-2.06-2.86a1.06,1.06,0,0,0-1-.54c-2.35,0-4.7-.08-7.05-.08a2.6,2.6,0,0,1-2.41-1.19l-2-8.73a2.61,2.61,0,0,1,1.64-2.13c2.11-1,4.19-2.14,6.29-3.18a1,1,0,0,0,.64-.92c.12-1,.28-2,.48-3a.93.93,0,0,0-.27-1c-1.56-1.59-3.11-3.21-4.67-4.82a2.23,2.23,0,0,1-.36-3.21l3.84-6.16a2.19,2.19,0,0,1,3-1.09c2,.65,4.09,1.3,6.12,2a1,1,0,0,0,1-.2c1-.77,2-1.52,3.06-2.23a1,1,0,0,0,.54-1c0-2.35.08-4.7.08-7A2.6,2.6,0,0,1,318.37,353.57Zm27.54,29.34a15.72,15.72,0,1,0-11.81,18.83A15.76,15.76,0,0,0,345.91,382.91Z" transform="translate(-9.59 -4.88)"/><path class="cls-18" d="M1074.38,485.88c-8.21,8.39-31.82,41.39-32.82,43.36-2.61,5.17-2.8,29,10.84,24.16s25-45.86,28.25-59.71C1082.39,486.34,1081.08,479,1074.38,485.88Z" transform="translate(-9.59 -4.88)"/><path class="cls-28" d="M1057,550.43c11.55-10.87,20.76-44.47,23.67-56.75,1.06-4.47-.15-7.52-2.78-7.67Z" transform="translate(-9.59 -4.88)"/><path class="cls-29" d="M1017.36,515.07c-3.19-1.25-14.21,19.39-9.82,21.86,16.09,9,33.76,15.62,38.43,15.94,6.13.41,9.8-6,9.06-10.09C1054,537.05,1020.51,516.31,1017.36,515.07Z" transform="translate(-9.59 -4.88)"/><path class="cls-29" d="M1013.58,536.61c2.92-.85,5.93-20.1,3.44-22-2.24-1.7-19-13.31-17.52-7.89-3-.73-5.6-1.09-7.2-.73-5.33,1.17-3.11,25.63,1.86,28.08C999,536.46,1010.67,537.46,1013.58,536.61Z" transform="translate(-9.59 -4.88)"/><path class="cls-29" d="M1000.87,505.84c1.53,2.39-2.16,2.82-2.16,2.82s5.46.66,6.08,3.73-3.88,3.33-4.2,3.36c.29,0,5.29.77,5.6,3.92s-4.24,2.87-4.54,2.85c.27.12,3.7,1.77,3.39,4.22-.54,4.2-9.43.22-12.58,1.57,0,0,1.68,5.61,1.7,5.78,0,0-8.54-3.62-10.13-8a3,3,0,0,1,1.14-3.53s-2.88-.86-3.2-3.33c-.16-1.27,1.73-2.66,1.73-2.66a3.72,3.72,0,0,1-2.43-3c-.12-1.77,1.79-2.89,1.79-2.89s-1.84-1.77-1.38-3.62C982.61,503.34,997.59,500.73,1000.87,505.84Z" transform="translate(-9.59 -4.88)"/><path class="cls-30" d="M983.34,510.47c-.05,0-.08-.05,0-.07a26.25,26.25,0,0,1,15.59-1.78c.17,0,.18.32,0,.31A53.92,53.92,0,0,0,983.34,510.47Z" transform="translate(-9.59 -4.88)"/><path class="cls-30" d="M983.62,516.57c-.06,0-.09-.08,0-.1a24.72,24.72,0,0,1,17.14-.89c.19.07.3.32.07.26C996.92,514.83,988.37,515.31,983.62,516.57Z" transform="translate(-9.59 -4.88)"/><path class="cls-30" d="M1002,522.79c-5.52-1.67-11-1.4-16.63-.31-.08,0-.09-.09,0-.12,2.6-1.28,6.25-1.6,9.11-1.61a15.15,15.15,0,0,1,7.61,1.85C1002.15,522.65,1002.12,522.83,1002,522.79Z" transform="translate(-9.59 -4.88)"/><path class="cls-30" d="M998.78,508.6c.2,0-.09.28.11.33.83.21,5.73,1.91,5.67,3.76,0,1.48-2.07,2.44-3,2.5l-2.31.16,2.23.66a9.37,9.37,0,0,1,2.79,1.31,3.42,3.42,0,0,1,1.58,2.29,2,2,0,0,1-1.2,2.14,6,6,0,0,1-2.93.31l-2.73-.31,2.47,1.19a8.83,8.83,0,0,1,1.92,1.23,3.66,3.66,0,0,1,1.23,1.73,1.76,1.76,0,0,1-.5,1.78,3.88,3.88,0,0,1-2.06.66,30.61,30.61,0,0,1-4.77-.17c-.81-.06-1.61-.13-2.42-.15a5.58,5.58,0,0,0-2.4.29,6.15,6.15,0,0,1,2.38-.07c.8.08,1.59.21,2.39.33a25.28,25.28,0,0,0,4.87.43,4.52,4.52,0,0,0,2.5-.71,2.49,2.49,0,0,0,.83-2.6,4.5,4.5,0,0,0-1.47-2.19,10.31,10.31,0,0,0-2.11-1.4l-.27.87a6.79,6.79,0,0,0,3.47-.34,2.86,2.86,0,0,0,1.42-1.27,3.28,3.28,0,0,0,.3-1.86,4.29,4.29,0,0,0-2-2.9,10.34,10.34,0,0,0-3.08-1.4l-.09.82c1.17-.12,3.55-.95,3.92-3.23C1005.55,509.73,999.84,508.71,998.78,508.6Z" transform="translate(-9.59 -4.88)"/><path class="cls-30" d="M998.71,508.66a5.63,5.63,0,0,0,1.55-.78,1.31,1.31,0,0,0,.58-1.2,2.78,2.78,0,0,0-.75-1.33c-.39-.42-.82-.84-1.28-1.25a4.56,4.56,0,0,1,1.7.79,2.69,2.69,0,0,1,1.12,1.7,1.9,1.9,0,0,1-.24,1.1,2,2,0,0,1-.8.72A3,3,0,0,1,998.71,508.66Z" transform="translate(-9.59 -4.88)"/><path class="cls-29" d="M1007.76,499.21a14,14,0,0,1,2.1-3.66c1.06-1.25,2.77-2.22,4.3-1.64a1.45,1.45,0,0,1,.92.84,1.87,1.87,0,0,1,0,.91c-.5,3.11-1.48,6.18-1.46,9.34a17,17,0,0,0,3.37,9.75c.11.14.22.32.14.48a.46.46,0,0,1-.32.2,9.62,9.62,0,0,1-5.24,0,6.4,6.4,0,0,1-2.7-1.48,13.53,13.53,0,0,1-2.08-3,17.47,17.47,0,0,1-1.16-2.18,3.59,3.59,0,0,1-.14-1.87,26.91,26.91,0,0,1,.81-3.53,36.38,36.38,0,0,1,1.28-3.68Z" transform="translate(-9.59 -4.88)"/><path class="cls-18" d="M1022.23,516.52,1015,545.81s29.39,10.82,35.55,6.8c4.12-2.68,7.91-7.74,1.74-14.67S1022.23,516.52,1022.23,516.52Z" transform="translate(-9.59 -4.88)"/><path class="cls-31" d="M1028.63,520.61a35.75,35.75,0,0,1,4.86,2.56q2.37,1.38,4.63,2.91a80.52,80.52,0,0,1,8.64,6.86c1.53,1.37,3,2.81,4.5,4.21a0,0,0,1,1,0,.06c-1.32-1.26-2.74-2.43-4.16-3.57s-2.9-2.28-4.38-3.36c-2.92-2.13-5.88-4.2-8.9-6.18l-2.55-1.64c-.89-.55-1.8-1.09-2.65-1.71C1028.51,520.71,1028.54,520.58,1028.63,520.61Z" transform="translate(-9.59 -4.88)"/><path class="cls-31" d="M1027.47,521.6a23.34,23.34,0,0,0-.65,2.27c-.22.78-.43,1.56-.65,2.33q-.64,2.37-1.23,4.74c-.8,3.17-1.61,6.33-2.36,9.5-.2.88-.4,1.75-.58,2.63s-.32,1.86-.51,2.78c0,.06.07.07.08,0,.22-.78.51-1.54.73-2.32s.45-1.59.66-2.4c.42-1.57.82-3.16,1.2-4.74.77-3.12,1.54-6.24,2.24-9.38l.57-2.62c.21-.92.46-1.84.58-2.77C1027.56,521.58,1027.49,521.55,1027.47,521.6Z" transform="translate(-9.59 -4.88)"/><path class="cls-32" d="M1058.51,577.45,1038.88,683s-2.25,16.33,2.64,29.22S1061.9,770,1061.9,770s.43,7.68-7,9.17-8.93,6.2-9.77,11.65h46.92a79.87,79.87,0,0,0-1.91-25.53c-2.94-12.14-15.71-73.6-15.71-73.6l20.6-44.85s20.38,92.68,21,100.61,4,39.15,4,39.15,0,7.19,8.07,7.93,25.91,0,25.91,0,1.27-6.44-1.28-9.91S1142,768.51,1142,768.51s-6.42-186.82-9.81-195.69Z" transform="translate(-9.59 -4.88)"/><path class="cls-33" d="M1152.78,784.62c-2.55-3.47-10.83-16.11-10.83-16.11s-.08-15.64-.28-33a52.07,52.07,0,0,1-27.76-.08c1.22,6.18,2,10.57,2.14,12,.64,7.93,4,39.15,4,39.15s0,7.19,8.07,7.93,25.91,0,25.91,0S1155.33,788.09,1152.78,784.62Z" transform="translate(-9.59 -4.88)"/><path class="cls-33" d="M1061.9,770s.43,7.68-7,9.17-8.93,6.2-9.77,11.65h46.92a79.87,79.87,0,0,0-1.91-25.53c-1-4.23-3.25-14.47-5.71-26l-32.72,1.44C1056.91,755.57,1061.9,770,1061.9,770Z" transform="translate(-9.59 -4.88)"/><polygon class="cls-15" points="1085.44 641.96 1080.63 623.95 1080.63 652.44 1085.44 641.96"/><path class="cls-34" d="M1142,768.51s-5.94-5.94-12.31,0" transform="translate(-9.59 -4.88)"/><path class="cls-34" d="M1120.08,786.6s4.46,3.72,12.74,4.22,21.56.06,21.56.06" transform="translate(-9.59 -4.88)"/><line class="cls-34" x1="1036.48" y1="781.73" x2="1082.76" y2="781.73"/><path class="cls-18" d="M1137,581.84l-83,.6c-.38-3.46,16.16-91.73,25.42-103.81,2-2.58,8.51-3.3,14.07-2.6a24.7,24.7,0,0,1,4.28.87l.14,0a9.54,9.54,0,0,1,3.15,1.54C1120.41,495.05,1137.69,581,1137,581.84Z" transform="translate(-9.59 -4.88)"/><path class="cls-15" d="M1109,523.69c0,1.8,7.21,58.3,7.21,58.3l20.74-.15-21-65.51Z" transform="translate(-9.59 -4.88)"/><path class="cls-29" d="M1133.91,636.42a4.13,4.13,0,0,0,4.47-1.47,6.15,6.15,0,0,0,3.57,2.14c2.49.36,4.15-3.39,4.15-3.39a7.51,7.51,0,0,0,4.13,1.65c2.42.1,4.63-3.44,4.63-3.44a6.72,6.72,0,0,0,4.54-.83c2.3-1.48,3.43-8.8,3.39-12.92s-6.3-22.29-8-27l-23,9s-5.09,18.53-4.35,23.37C1128.06,627.55,1130.87,635.38,1133.91,636.42Z" transform="translate(-9.59 -4.88)"/><path class="cls-35" d="M1138,634.77c-1.7-4.18-2.07-8.63-2.69-13a.08.08,0,0,1,.15,0c.57,4.41,2,8.64,2.74,13A.1.1,0,0,1,1138,634.77Z" transform="translate(-9.59 -4.88)"/><path class="cls-35" d="M1145.76,633.61a11.42,11.42,0,0,1-.49-3c-.1-1.08-.17-2.17-.24-3.26q-.18-3.27-.2-6.54c0-.09.14-.12.15,0,.13,2.17.29,4.34.51,6.5.1,1.09.22,2.17.35,3.25a13.72,13.72,0,0,1,.21,3.07A.15.15,0,0,1,1145.76,633.61Z" transform="translate(-9.59 -4.88)"/><path class="cls-35" d="M1154.85,631.82a8.22,8.22,0,0,1-.29-2.76q0-1.48-.12-3c-.09-2-.19-4-.35-6a.08.08,0,0,1,.15,0c.18,2,.38,4,.54,6,.07,1,.15,2,.21,3a7.42,7.42,0,0,1,0,2.7S1154.87,631.86,1154.85,631.82Z" transform="translate(-9.59 -4.88)"/><path class="cls-18" d="M1127.07,600.43l32.14-2.59s-7.08-34.62-10.92-44-29.59-74.79-43.32-71.18c-5,1.33-10,20.56-3.79,32.88s18.77,43.68,19.46,45.9S1127.07,600.43,1127.07,600.43Z" transform="translate(-9.59 -4.88)"/><path class="cls-31" d="M1127.64,593.8c1.2-.28,12.11-1.28,14.48-1.45l7.12-.49c2.46-.17,5-.46,7.41-.42a.09.09,0,0,1,0,.17c-2.42.42-4.93.54-7.37.78l-7.25.68c-2.41.22-13.22,1-14.42.89C1127.53,594,1127.56,593.82,1127.64,593.8Z" transform="translate(-9.59 -4.88)"/><path class="cls-29" d="M1090.75,456.94l-9.69,22.43s-1.68,16.7,1.79,16.92c4.2.26,13.9-16.22,16.68-20.2l-2.32-26.33s9.48,2.44,8-7c0,0-1.26-4.86-5.53-4,0,0-3.2-.41-7.38-5.4,0,0-6,.29-5.15-1.4,0,0-5.4-.68-6.26,13.61C1080.92,445.54,1078.59,467.25,1090.75,456.94Z" transform="translate(-9.59 -4.88)"/><polygon class="cls-32" points="1078.46 495.79 1074.44 487.96 1069.26 493.63 1070.53 499.26 1075.65 499.92 1078.46 495.79"/><polygon class="cls-32" points="1078.1 557.51 1067.25 573.95 1061.31 557.62 1070.53 499.27 1075.65 499.92 1078.1 557.51"/><path class="cls-10" d="M1080,477.6l4.67,12.92L1101,475.09l4.26,5.31s-16.36,24.87-16.41,23.72L1084,493l-7.83,7.3,1.34-19Z" transform="translate(-9.59 -4.88)"/><path class="cls-15" d="M1098,438.76c-2.27,2.47-2.45,5.4-1.89,8.51a4.31,4.31,0,0,0,1,2.49c.74.7.61,1.47.55,2.32-.44,6.29-2.82,11.86-6.2,17.08a2.71,2.71,0,0,0-1.06,1.28,15.9,15.9,0,0,1-9.39,7.13c-8.41,2.66-15.19-4.55-15.16-10.86,0-4.14,1.25-7.44,4.51-10a14.21,14.21,0,0,1,1.13-.95,30.32,30.32,0,0,0,9-8.47c1.08.66,2.14,1.35,3.23,2a10.09,10.09,0,0,0,3.28,1.42c2.54.45,4.07-.42,4.88-2.85a16.88,16.88,0,0,0,0-9.58,4.15,4.15,0,0,0-5-3.11,29.81,29.81,0,0,0-4.42,1.39c.43-4.71,4.16-7.4,8.56-6.16a11.69,11.69,0,0,1,4.3,2.22A6.28,6.28,0,0,1,1098,438.76Z" transform="translate(-9.59 -4.88)"/><path class="cls-15" d="M1098.23,435.15c-.91-3.73-4.76-5.89-8.37-7.17s-7.61-2.25-10.13-5.14c-2.29-2.62-3.15-6.61-6.24-8.21a8.07,8.07,0,0,0-11.22,4.11c-4.83,10.95,12.08,18.63,20.54,17.5,1.57-.21,3.11-.67,4.7-.76a5.72,5.72,0,0,1,4.42,1.34c1.34,1.33,2.38,4.11,4.86,3.05C1098.47,439.15,1098.61,436.7,1098.23,435.15Z" transform="translate(-9.59 -4.88)"/><path class="cls-29" d="M1088.09,453a3.44,3.44,0,0,1-6.34-2.59Z" transform="translate(-9.59 -4.88)"/><path class="cls-18" d="M383.39,266.82s.32-21,8.1-22.44c0,0-6.34-7-13.38-.7,0,0-28.38,24.3-20.28,36.4C357.83,280.08,368.45,291.48,383.39,266.82Z" transform="translate(-9.59 -4.88)"/><path class="cls-36" d="M382.49,241.83S356,264.65,357.72,278.34" transform="translate(-9.59 -4.88)"/><path class="cls-37" d="M394.14,247.32s-4.11-6.85-8.9-3.08c0,0-17.48,9.93-.35,23.64Z" transform="translate(-9.59 -4.88)"/><path class="cls-27" d="M421.21,274.39s-17.13-28.78-27.07-27.07c0,0-12.93,9.19-10.75,19.5,0,0,7,23,40.9,49.71Z" transform="translate(-9.59 -4.88)"/><path class="cls-15" d="M415,288.16a67.93,67.93,0,0,0,2-9.36c.38-2.59.59-5.19,1.07-7.76.08-.41.18-.81.27-1.22,1.79,2.72,2.89,4.57,2.89,4.57l3.08,42.14A182.18,182.18,0,0,1,408,302.11,39.46,39.46,0,0,0,415,288.16Z" transform="translate(-9.59 -4.88)"/><polygon class="cls-37" points="463.01 366.81 458.56 384.28 436.97 384.28 440.74 361.67 463.01 366.81"/><path class="cls-18" d="M470.2,387.45s-20.9,2.4-23.3-5.14c0,0-6.16,7.19,1,13.36,0,0,27.75,25,38.72,15.42C486.65,411.09,496.58,399.1,470.2,387.45Z" transform="translate(-9.59 -4.88)"/><path class="cls-36" d="M445.53,391.56s26,23.3,39.4,19.87" transform="translate(-9.59 -4.88)"/><path class="cls-27" d="M490.76,237.39s-1.71,100-18.16,134.3c0,0-27.41.34-30.49-3.09L449,310.7s-19.7,18.38-32.72-1.15c0,0-2.06-23.09,7-62.91Z" transform="translate(-9.59 -4.88)"/><path class="cls-38" d="M460.27,257.6l5.14-.69L452.37,371c-4.95-.45-9.16-1.19-10.26-2.42L449,310.7C459.92,303.51,460.27,257.6,460.27,257.6Z" transform="translate(-9.59 -4.88)"/><path class="cls-15" d="M460.27,257.6c0-1.08-2.74,46.25-11.31,53.1l-1,8.8S461,315.84,460.27,257.6Z" transform="translate(-9.59 -4.88)"/><polygon class="cls-15" points="481.17 232.51 413.68 241.76 412.39 247.88 481.17 232.51"/><path class="cls-39" d="M508.11,151.11c.54.42,37.61-6.92,44.61-11.92l5.33-10.8s.81-2.55,2.49-2.12c0,0,3.61.18,3,2.86l-1.06,4.38,7.43-6.68s1.21-2,2.84-.7c0,0,4.18,2.05,2.24,4.59l-5.68,5.15,7.36-4.72a1.77,1.77,0,0,1,2.74-.2s3,3.18,1.28,4.72l-4.7,3.88,3.76-1.15a3.25,3.25,0,0,1,1.85,1.71s1.7,3-.59,4.15c0,0-10.13,7.2-17,8.59,0,0-39.92,33.29-64.64,29.87Z" transform="translate(-9.59 -4.88)"/><path class="cls-40" d="M499.41,182.72c24.72,3.42,64.64-29.87,64.64-29.87l.12,0-4.47-.17a8.76,8.76,0,0,0-2.05.07,9.48,9.48,0,0,0-2.79,1.22,146.65,146.65,0,0,1-52.46,17.92Z" transform="translate(-9.59 -4.88)"/><path class="cls-39" d="M369.84,221.71l53.05-47.54,9.49,30.54-48.38,31s-29.06,11.48-31.33,9.7c0,0-2.39-3.52-.62-5.07l4.17-2.88-13.63-1.22a2.22,2.22,0,0,1-1.32-2.41s.21-3.32,1.3-3.66L339.35,229A2.91,2.91,0,0,1,338,225.9s.78-2.87,2.08-3.13l.72-3.38s.11-1.66,2.49-1.54Z" transform="translate(-9.59 -4.88)"/><line class="cls-41" x1="345.23" y1="220.21" x2="330.54" y2="217.89"/><line class="cls-41" x1="347.32" y1="227.26" x2="332.12" y2="225"/><path class="cls-40" d="M414.22,207.84a84.64,84.64,0,0,1-7.54,13.34l25.7-16.47-9.49-30.54-4.21,3.77c.13,1.37.33,2.74.42,4a48.07,48.07,0,0,1-.69,12.39,59.22,59.22,0,0,1-3.57,12C414.64,206.88,414.43,207.36,414.22,207.84Z" transform="translate(-9.59 -4.88)"/><line class="cls-41" x1="345.23" y1="220.21" x2="330.54" y2="217.89"/><line class="cls-41" x1="347.32" y1="227.26" x2="332.12" y2="225"/><path class="cls-15" d="M461.75,125.78a4.6,4.6,0,0,0-2.29,3.08,2.83,2.83,0,0,1-1,1.75,3.3,3.3,0,0,1-2,0,6.18,6.18,0,0,0-5.47,2.11,3.52,3.52,0,0,0-.93,2.61c.3,2.29,3.67,3.5,3.4,5.79-1.16,0-2.33-.22-3.49-.08-3.05.37-5.23,3.54-5.26,6.61s1.66,5.95,3.78,8.17c3,3.19,7.3,5.43,11.7,5.18,3.84-.23,7.3-2.28,11-3.45,4.15-1.32,8.56-1.51,12.87-2.15s8.73-1.85,11.95-4.77c.57-.51,1.12-1.37.64-2a1.45,1.45,0,0,0-1.09-.41c-1.41-.1-3.3-.12-3.68-1.49s1.32-2.4,2.7-2.88a79.85,79.85,0,0,0,11.82-5.23c1.68-.91,3.41-2,4.26-3.68s.36-4.21-1.44-4.84c-.76-.27-1.85-.39-1.93-1.19a1.51,1.51,0,0,1,.71-1.17,24.66,24.66,0,0,0,3.52-3.17,5.41,5.41,0,0,0,1.35-4.38,4.92,4.92,0,0,0-1.26-2.3,8.41,8.41,0,0,0-8.15-2,16.56,16.56,0,0,0-7.36,4.62c-2.07,2.08-3.85,4.43-5.9,6.53-.7.71-1.64,1.46-2.6,1.17-.29-1.48,2.26-2.71,1.48-4-.48-.81-1.72-.52-2.52,0-2.89,1.84-5.05,5.3-8.47,5.48-.12-.65.62-1.08,1.2-1.41,1.58-.91,2.73-3,1.76-4.56s-3-1.49-4.44-.76a21.09,21.09,0,0,0-3.83,3.12,7.05,7.05,0,0,1-2.32,1.32,4.84,4.84,0,0,1-1.91.33,5.59,5.59,0,0,1-1.79-.69c-.77-.38-1.52-.83-2.32-1.15A3.47,3.47,0,0,0,461.75,125.78Z" transform="translate(-9.59 -4.88)"/><path class="cls-9" d="M461.16,157.25s-33.42,6-42.29,19.37l12.26,29.58,14.16-7.08L418,249.51l73.63-12.15-.15-42.65s18.76-6.41,21.16-10.41l-1.85-37s-25.52,18.55-42.64,8.09Z" transform="translate(-9.59 -4.88)"/><polygon class="cls-15" points="421.54 201.32 435.7 194.24 408.4 244.63 421.54 201.32"/><polygon class="cls-15" points="481.88 189.83 483.35 174.11 488.87 187.23 481.88 189.83"/><path class="cls-42" d="M500.47,159.89a6.41,6.41,0,0,0-3.3-.72,3.27,3.27,0,0,0-2.64,1.29,1.69,1.69,0,0,0,.81,2.48c1.36.3,2.3-1.58,3.69-1.72a5.92,5.92,0,0,0,1.46,0c.46-.18.6-1,.11-1.07" transform="translate(-9.59 -4.88)"/><path class="cls-42" d="M480.76,228.4a6.41,6.41,0,0,0-3.3-.72,3.28,3.28,0,0,0-2.64,1.29,1.69,1.69,0,0,0,.81,2.48c1.36.3,2.3-1.58,3.69-1.71a5.92,5.92,0,0,0,1.46-.05c.46-.18.6-1,.12-1.07" transform="translate(-9.59 -4.88)"/><path class="cls-43" d="M478.19,175.47a5.57,5.57,0,0,0-1,2c-.15.73.08,1.47.56,1.35s.71-.61,1-1.1a45.2,45.2,0,0,0,2.17-4.08c.23-.51.4-1.26-.11-1a5,5,0,0,0-1.27,1.16A17.3,17.3,0,0,0,478.19,175.47Z" transform="translate(-9.59 -4.88)"/><path class="cls-43" d="M459.68,225.92a5.57,5.57,0,0,0-1,2c-.15.73.08,1.47.56,1.35s.71-.61,1-1.09c.78-1.31,1.51-2.68,2.17-4.09.23-.51.4-1.26-.11-1a5,5,0,0,0-1.27,1.15A16,16,0,0,0,459.68,225.92Z" transform="translate(-9.59 -4.88)"/><path class="cls-43" d="M454.85,183.65a1.89,1.89,0,0,0-.48.74.74.74,0,0,0,.22.8,1.1,1.1,0,0,0,1-.05,13.05,13.05,0,0,0,5.8-4.85c.07-.12-.68-.16-.73-.16a4,4,0,0,0-.5.09,8,8,0,0,0-1.4.55,12.78,12.78,0,0,0-2.64,1.67A12.21,12.21,0,0,0,454.85,183.65Z" transform="translate(-9.59 -4.88)"/><circle class="cls-43" cx="438.6" cy="163.63" r="0.8"/><circle class="cls-43" cx="428.23" cy="186.43" r="1.88"/><circle class="cls-43" cx="462.23" cy="182.71" r="1.6"/><circle class="cls-43" cx="495.92" cy="168.66" r="1.6"/><circle class="cls-43" cx="456.4" cy="199.43" r="0.8"/><circle class="cls-43" cx="437.62" cy="233.42" r="0.8"/><circle class="cls-43" cx="441.67" cy="217.47" r="1.88"/><path class="cls-43" d="M432,180a2.87,2.87,0,0,0-1.18,1.08,1,1,0,0,0,.38,1.39,1.42,1.42,0,0,0,1.12-.2,27,27,0,0,0,5-3.55c.33-.27.75-.79.27-1.16-.33-.26-.9.06-1.24.18a21.07,21.07,0,0,0-2.79,1.35Z" transform="translate(-9.59 -4.88)"/><path class="cls-43" d="M447.88,207.53a10.4,10.4,0,0,0-3.5,3.85,1.62,1.62,0,0,0,.07,1.7,1.21,1.21,0,0,0,1.25.27,3,3,0,0,0,1.11-.75,17.1,17.1,0,0,0,2.06-2.65l3.11-4.56c.17-.25.44-.74,0-.93s-.47.06-.64.27a5.9,5.9,0,0,1-1,.85l-1.16.91Z" transform="translate(-9.59 -4.88)"/><path class="cls-43" d="M478,211.53a2.35,2.35,0,0,0-.61.95.92.92,0,0,0,.35,1,1.13,1.13,0,0,0,.85,0,6.64,6.64,0,0,0,2.89-1.91c.83-.83,1.57-1.73,2.32-2.63a1.75,1.75,0,0,0,.37-.61.59.59,0,0,0-.2-.64c-.29-.17-.77.24-1,.35-.45.2-.89.41-1.32.65a14.24,14.24,0,0,0-2.4,1.66A13.15,13.15,0,0,0,478,211.53Z" transform="translate(-9.59 -4.88)"/><path class="cls-43" d="M481.93,194.87a2,2,0,0,0,0,1.26.93.93,0,0,0,1,.63c.53-.1.76-.7.9-1.22a6.23,6.23,0,0,1,1.14-2.49,19.25,19.25,0,0,1,1.63-1.36c.39-.36.05-.51-.36-.52-1.15,0-2.38,1-3.12,1.77A5,5,0,0,0,481.93,194.87Z" transform="translate(-9.59 -4.88)"/><path class="cls-43" d="M433.3,233.46a6.14,6.14,0,0,0-1.23,1.55,1.44,1.44,0,0,0-.23.94,1.07,1.07,0,0,0,1,.75,2.37,2.37,0,0,0,1.27-.37,9.34,9.34,0,0,0,3.62-3.9c.17-.33.89-1.34.14-1.41a3.38,3.38,0,0,0-1.83.62A18,18,0,0,0,433.3,233.46Z" transform="translate(-9.59 -4.88)"/><path class="cls-39" d="M462.43,135.61a2.41,2.41,0,0,0-.68,3.17,2.76,2.76,0,0,0,3.14,1.11c-2.06,8-5.64,15.52-8.48,23.28a1.89,1.89,0,0,0-.17.84,1.72,1.72,0,0,0,.38.82,9.44,9.44,0,0,0,3.92,2.76,12.41,12.41,0,0,0,4.58,1.18,6.13,6.13,0,0,0,4.38-1.49,6.45,6.45,0,0,0,1.81-4.26,16.89,16.89,0,0,0-.52-4.69,111.33,111.33,0,0,0-3.6-13.07l2.49,1.94a1.8,1.8,0,0,0,1,.46,1.66,1.66,0,0,0,1.16-.72c3.15-3.71,3.67-8.93,4-13.79a1.35,1.35,0,0,0-.17-1,1.25,1.25,0,0,0-.73-.37,8.27,8.27,0,0,0-5.59.75,8.88,8.88,0,0,0-2.34,1.73,7.79,7.79,0,0,0-.89,1.1,8.84,8.84,0,0,1-.56.93,12,12,0,0,0-1.59-.93A2.08,2.08,0,0,0,462.43,135.61Z" transform="translate(-9.59 -4.88)"/><path class="cls-44" d="M486.19,128.79c3.14-1.76,4.71-5.3,6.74-8.27a15.78,15.78,0,0,1,4.58-4.66,11.65,11.65,0,0,1,10.89-.71,6.8,6.8,0,0,1,3.65,3.52,6.08,6.08,0,0,1-.8,5.36" transform="translate(-9.59 -4.88)"/><path class="cls-44" d="M453.32,141.49c-4.14-.63-8.29.64-10.57,3.21a6.33,6.33,0,0,0-1.56,2.94,6.16,6.16,0,0,0,.53,3.48,11.31,11.31,0,0,0,5.32,5.49,14.44,14.44,0,0,0,7.58,1.36" transform="translate(-9.59 -4.88)"/><path class="cls-41" d="M560.32,136.74a9.33,9.33,0,0,0,1,9.15" transform="translate(-9.59 -4.88)"/><rect class="cls-45" x="536.86" y="110.1" width="419.88" height="664.91" rx="10.79"/><rect class="cls-46" x="586.79" y="547.01" width="106.73" height="12.79"/><g class="cls-47"><rect class="cls-48" x="586.79" y="565.22" width="106.73" height="3.54"/></g><g class="cls-47"><rect class="cls-48" x="586.79" y="572.82" width="57.7" height="3.54"/></g><g class="cls-47"><path class="cls-48" d="M658.87,614.74c-5.24-1.81-7.49-7.56-4.46-11.71a52.69,52.69,0,0,1,9.21-9.49c3.17-2.58,7.67-1.58,10.36,1.56,2.83,3.31,3.07,8,.38,11-2.2,2.46-4.54,4.8-6.92,7.08a12.17,12.17,0,0,1-3.15,2.07l-.34-2.87c2.67-2.57,5.32-4.84,7.65-7.42,2.76-3.06,2.38-6.74-.6-8.8a4.89,4.89,0,0,0-6,0,89.67,89.67,0,0,0-7.32,7.27,5.34,5.34,0,0,0,.43,7.94C658.72,611.93,658.84,614.72,658.87,614.74Z" transform="translate(-9.59 -4.88)"/><path class="cls-48" d="M652.27,606.22l.3,2.74c-2.69,2.6-5.37,4.9-7.71,7.51-2.69,3-2.28,6.66.66,8.71a5.15,5.15,0,0,0,6.59-.4c2.15-1.94,4.24-4,6.19-6.09,1.52-1.65,2.66-3.6,1.91-6a5.82,5.82,0,0,0-1.42-2.29c-1.14-1.09-.91-2.32-.82-3.63,3.39.81,7.47,5.86,4.5,10.84-1.76,3-4.43,5.41-6.86,7.92a13.6,13.6,0,0,1-4.25,3,7.54,7.54,0,0,1-9-2.52c-2.44-3.06-3.07-7.21-.86-9.88a120.6,120.6,0,0,1,8.68-8.84A3.9,3.9,0,0,1,652.27,606.22Z" transform="translate(-9.59 -4.88)"/></g><g class="cls-47"><path class="cls-49" d="M608,593.66v4.65c0,.4,0,.8,0,1.2-.06,1.1-.37,1.42-1.48,1.45-1.36,0-2.72,0-4.08,0h-1.62v24.3c0,1.67.31,2,1.92,1.87,1.1-.07,2.21-.13,3.31-.13h16.92c1.31,0,2.62.07,3.92.12s1.55-.23,1.56-1.44c0-1.61,0-3.22,0-4.83V595.93c0-.35,0-.7,0-1,0-.71-.23-1.15-1-1.23-.6-.06-1.12-.35-1-1.06s.75-.71,1.33-.68a2.18,2.18,0,0,1,2.31,2.41c0,3,0,5.94,0,8.91q0,10.88,0,21.75v.91c-.07,2.15-.78,2.89-3,2.89-8.41,0-16.82,0-25.23,0-1.73,0-2.83-.79-2.82-2.87.06-8.46,0-16.92,0-25.38a2.19,2.19,0,0,1,.7-1.72q3.13-3.07,6.2-6.19a2.18,2.18,0,0,1,1.73-.74c1.31,0,2.62,0,3.93,0h.45c.55,0,1,.17,1,.84s-.41.87-1,.9c-.76,0-1.51,0-2.27,0Zm-5.62,5.51c1,0,2.1,0,3.23,0,.21,0,.56-.42.57-.66.06-1.08,0-2.18,0-3.25Z" transform="translate(-9.59 -4.88)"/><path class="cls-49" d="M619.24,593.07a4.24,4.24,0,0,0-.12,1.21c0,2.06,0,4.13,0,6.19a3.72,3.72,0,0,0,.29,1.31,1.9,1.9,0,0,0,2,1.34,2,2,0,0,0,1.82-1.57,5.72,5.72,0,0,0,.16-1.49c0-2.12.06-4.23,0-6.34a8.6,8.6,0,0,0-.35-2.37,3.46,3.46,0,0,0-6.78.19,9.32,9.32,0,0,0-.24,2.24c0,1.46,0,2.91,0,4.37,0,1.81-.57,1.72-.87,1.77-.5.09-.88-.45-.87-1,.05-2.51,0-4.87.25-7.36a5.32,5.32,0,0,1,1.66-3.15,4.84,4.84,0,0,1,6.9-.11,6.58,6.58,0,0,1,2.06,4.72c.08,2.41,0,4.83,0,7.24a6.81,6.81,0,0,1-.22,1.34,3.88,3.88,0,0,1-3.6,3.29,4.17,4.17,0,0,1-3.77-3.35,7,7,0,0,1-.23-1.64c0-2.21.07-4.43.22-6.63a2,2,0,0,1,2.34-2.14,1.74,1.74,0,0,1,1.69,1.27,5.57,5.57,0,0,1,.28,1.62c0,2.11,0,4.22,0,6.33,0,.26-.09,1.43-1,1.31-.67-.09-.7-1.29-.7-1.65,0-1.86,0-3.72,0-5.58,0-.51,0-1.37-.25-1.54A.54.54,0,0,0,619.24,593.07Z" transform="translate(-9.59 -4.88)"/><path class="cls-49" d="M623.62,611.23H605.74a1,1,0,1,1,0-2h17.88a1,1,0,1,1,0,2Z" transform="translate(-9.59 -4.88)"/><path class="cls-49" d="M623.62,615.48H605.74a1,1,0,0,1,0-2h17.88a1,1,0,1,1,0,2Z" transform="translate(-9.59 -4.88)"/><path class="cls-49" d="M623.62,619.72H605.74a1,1,0,1,1,0-2h17.88a1,1,0,1,1,0,2Z" transform="translate(-9.59 -4.88)"/><path class="cls-49" d="M614.83,606.89h-9.09a1,1,0,1,1,0-2h9.09a1,1,0,1,1,0,2Z" transform="translate(-9.59 -4.88)"/></g><polygon class="cls-15" points="473.21 639.91 602.06 660.08 580.64 740.02 451.79 719.85 473.21 639.91"/><path d="M485.49,659.2,600,676.54l1.09.16-15.29,60.45L470.68,720.08Zm113.16,19.14L487,661.44l-13.86,57,111.21,16.49Z" transform="translate(-9.59 -4.88)"/><polygon class="cls-10" points="486.41 602 607.56 650.29 599.22 665.77 478.07 617.48 486.41 602"/><polygon class="cls-10" points="471.63 645.81 473.14 638.39 602.06 660.08 600.48 665.98 471.63 645.81"/><polygon points="516.09 613.83 502.25 627.12 490.39 622.39 504.23 609.11 516.09 613.83"/><polygon points="543.12 624.61 529.27 637.89 517.41 633.16 531.25 619.88 543.12 624.61"/><polygon points="570.14 635.38 556.29 648.66 544.43 643.93 558.28 630.65 570.14 635.38"/><polygon points="596.99 646.08 583.15 659.37 571.29 654.64 585.13 641.36 596.99 646.08"/><polygon points="496.59 642.33 492.21 649.03 479.62 647.06 484.08 640.23 496.59 642.33"/><polygon points="525.09 647.13 520.91 653.52 508.31 651.55 512.58 645.02 525.09 647.13"/><polygon points="553.59 651.92 549.61 658.02 537.01 656.04 541.08 649.82 553.59 651.92"/><polygon points="581.91 656.69 578.13 662.48 565.53 660.51 569.4 654.58 581.91 656.69"/><rect x="537.11" y="639.74" width="1.99" height="89.36" transform="translate(-226.17 1113.62) rotate(-81.73)"/><rect x="534.86" y="655.04" width="1.99" height="89.35" transform="translate(-243.23 1124.52) rotate(-81.73)"/><rect x="532.61" y="670.35" width="1.99" height="89.36" transform="matrix(0.14, -0.99, 0.99, 0.14, -260.31, 1135.38)"/><polygon class="cls-50" points="451.53 396.71 423.04 446.18 438.49 495.9 471.04 487.6 486.43 451.18 451.53 396.71"/><polygon class="cls-51" points="470.59 426.46 451.53 396.71 434.35 426.54 470.59 426.46"/><polygon class="cls-9" points="422.13 773.5 423.04 446.18 438.46 467.19 452.3 450.95 469.72 473.63 486.43 451.18 485.77 773.5 422.13 773.5"/><polygon class="cls-52" points="469.72 473.63 464.57 766.34 485.62 731.29 486.43 451.18 469.72 473.63"/><path class="cls-53" d="M431.8,734.44h63.41l.15,43.94s-62.81.48-63.64,0Z" transform="translate(-9.59 -4.88)"/><path class="cls-54" d="M637.31,764.31c3.39.2,5.52,3.52,6.59,6.57.79,2.27,1.33,4.8.39,7s-3.85,3.83-6.1,2.72c-1.31-2.17-.75-4.87-.67-7.37s-.81-5.53-3.37-6.18a5.51,5.51,0,0,1-2.33-.68c-.92-.79-.38-2.36.69-2.95a6.3,6.3,0,0,1,3.64-.37" transform="translate(-9.59 -4.88)"/><path class="cls-55" d="M632.74,760.36a18.55,18.55,0,0,1-2.32,13.11,1.56,1.56,0,0,1-3-.47s.25-.39.61-1.1h0a18.31,18.31,0,0,0,1.7-12C629.91,758.68,632.49,758.9,632.74,760.36Z" transform="translate(-9.59 -4.88)"/><path class="cls-56" d="M635.78,760.84A18.65,18.65,0,0,1,633.47,774c-.52,1.22-2.89.77-3.05-.48a18.55,18.55,0,0,0,2.32-13.11C633.55,759.3,635.65,759.58,635.78,760.84Z" transform="translate(-9.59 -4.88)"/><path class="cls-55" d="M638.83,761.32a18.65,18.65,0,0,1-2.31,13.11c-.7,1.25-3,.48-3-.48a18.65,18.65,0,0,0,2.31-13.11C636.32,760,638.71,760.06,638.83,761.32Z" transform="translate(-9.59 -4.88)"/><path class="cls-57" d="M623.57,761.48s4.89,4.64,4.43,10.41h0c-.36.71-.61,1.1-.61,1.1l-16.12,9a46.1,46.1,0,0,0,3.49-6.42Z" transform="translate(-9.59 -4.88)"/><path class="cls-56" d="M617.41,747.13l12.29,12.75a18.31,18.31,0,0,1-1.7,12c.46-5.77-4.43-10.41-4.43-10.41l-8.81,14.1A43.84,43.84,0,0,0,617.41,747.13Z" transform="translate(-9.59 -4.88)"/><path class="cls-18" d="M510,786c13.14.15,26.29-.23,39.42-.39l41.44-.51c7.64-.1,18.94,1.87,23.77-5.3,2.55-3.8,3-9.07,3.64-13.4.27-1.85.62-3.87.89-6,1.12-5.88,1.16-11.84-2.11-16-2.49-3.17-6.38-4.51-10.26-5.55-6.85-1.83-13.93-3.09-20.91-4.42-30.12-5.72-60.68-9.45-90.2-17.69a3.25,3.25,0,0,0-4,1.59,92.25,92.25,0,0,0-10.18,47.5c.24,4.5.08,11,2.37,15,1.67,3,3.89,3.27,7.33,3.81A128.59,128.59,0,0,0,510,786Z" transform="translate(-9.59 -4.88)"/><path class="cls-45" d="M526.3,780c.28-17.8,1.31-32.51,6-49.85.47-1.71,2.88-1.37,2.89-1.37,11,1.14,25.9,4.77,31.88,6.41.6.16,1.21.64,1.07,1.29-3.26,15.42-5,28.56-6.8,44.2a1.24,1.24,0,0,1-1.36,1c-10.57,0-21.15,0-31.72-.05C527.07,781.63,526.28,781.1,526.3,780Z" transform="translate(-9.59 -4.88)"/><path class="cls-58" d="M510,786a128.59,128.59,0,0,1-18.81-1.28c-3.44-.54-5.66-.83-7.33-3.81-2.22-3.95-2.14-10.14-2.35-14.62l2.8.48c19.13,3.09,38.58,5.33,57.93,6.66,11.09.76,22.21,1.12,33.32.87,7-.17,14-.59,20.57-2.9,9.89-3.51,17.3-10.84,23.64-19a32.07,32.07,0,0,1-.61,8.09c-.27,2.08-.62,4.1-.89,6-.63,4.33-1.09,9.6-3.64,13.4-4.83,7.17-16.13,5.2-23.77,5.3l-41.44.51C536.3,785.75,523.15,786.13,510,786Z" transform="translate(-9.59 -4.88)"/><path class="cls-16" d="M955.54,115H557.24a10.79,10.79,0,0,0-10.79,10.79V142H966.33V125.77A10.79,10.79,0,0,0,955.54,115Z" transform="translate(-9.59 -4.88)"/><polygon class="cls-32" points="736.25 253.13 736.25 775.71 753.14 775.71 753.14 253.13 744.44 261.02 736.25 253.13"/><polygon class="cls-32" points="746.75 290.95 746.77 291.02 746.71 290.98 746.75 290.95"/><path class="cls-32" d="M764.09,310.17l0,.08c0-.05,0,24.18,0,24.13s0-24.3.06-24.32Z" transform="translate(-9.59 -4.88)"/><path class="cls-32" d="M764.2,308.56l-.09.13s.07,0,.07,0a.48.48,0,0,0,0-.12Z" transform="translate(-9.59 -4.88)"/><path class="cls-32" d="M759.08,301.6c-.08-.09-.2-.16-.22-.26a3.74,3.74,0,0,1-.08-2c.22,0,.26.17.26.33,0,.65,0,1.3,0,1.95Z" transform="translate(-9.59 -4.88)"/><path class="cls-32" d="M753.63,307.11a7.37,7.37,0,0,1,.27,2.18h0c-.09-.13-.24-.24-.26-.37a4,4,0,0,1,0-1.82Z" transform="translate(-9.59 -4.88)"/><path class="cls-32" d="M753.9,309.29a2,2,0,0,1,.05,1.1c-.19,0-.24-.19-.23-.33a6.86,6.86,0,0,1,.2-.78Z" transform="translate(-9.59 -4.88)"/><path class="cls-32" d="M763.21,336a2,2,0,0,1-.15.29s-.09,0-.14,0,0-.19.05-.2a.75.75,0,0,1,.26,0Z" transform="translate(-9.59 -4.88)"/><path class="cls-32" d="M753.56,305.83a1.89,1.89,0,0,1,.07,1.28l0,0c-.13-.43-.34-.88-.06-1.27Z" transform="translate(-9.59 -4.88)"/><path class="cls-32" d="M754,299l0,.07-.07-.15s.05,0,.08,0S754,298.93,754,299Z" transform="translate(-9.59 -4.88)"/><path class="cls-32" d="M759.05,301.61a4.91,4.91,0,0,1,0,.53.5.5,0,0,1-.1.17c0-.1-.12-.23-.1-.29a1.57,1.57,0,0,1,.18-.42Z" transform="translate(-9.59 -4.88)"/><path class="cls-32" d="M754.06,311.41l-.11.1a1.66,1.66,0,0,1-.06-.21s0,0,.06-.07A1.74,1.74,0,0,0,754.06,311.41Z" transform="translate(-9.59 -4.88)"/><path class="cls-32" d="M763.08,323.76s0,.07-.05.07,0,0-.06-.06Z" transform="translate(-9.59 -4.88)"/><path class="cls-32" d="M762.78,294.72l-.17-.09.18.1Z" transform="translate(-9.59 -4.88)"/><path class="cls-59" d="M798.17,469.86a1.65,1.65,0,1,1,2.46-1.44A2.87,2.87,0,0,1,798.17,469.86Zm2.82-1.52a3.18,3.18,0,0,0-5.64,0l-.05.08.05.08a3.18,3.18,0,0,0,5.64,0l0-.08Z" transform="translate(-9.59 -4.88)"/><path class="cls-59" d="M798.16,469.18a.8.8,0,0,1-.42-.13.7.7,0,0,1-.27-.34.74.74,0,0,1-.05-.44.83.83,0,0,1,.21-.39.79.79,0,0,1,.39-.21.74.74,0,0,1,.44.05.7.7,0,0,1,.34.27.75.75,0,0,1,.13.43.72.72,0,0,1-.06.29.69.69,0,0,1-.41.41A.8.8,0,0,1,798.16,469.18Zm0-1.83a1,1,0,0,0-.59.18,1,1,0,0,0-.39.49,1.09,1.09,0,0,0-.06.62,1,1,0,0,0,.3.54,1.14,1.14,0,0,0,.55.3,1.09,1.09,0,0,0,1.28-1.06,1,1,0,0,0-.09-.42.89.89,0,0,0-.23-.34,1.21,1.21,0,0,0-.35-.24A1,1,0,0,0,798.16,467.35Z" transform="translate(-9.59 -4.88)"/><path class="cls-59" d="M582.25,302.72a3.13,3.13,0,0,1-2.71-1.59,3.11,3.11,0,0,1,5.42,0A3.16,3.16,0,0,1,582.25,302.72Zm3.1-1.68a3.5,3.5,0,0,0-6.2,0l-.06.09.06.09a3.49,3.49,0,0,0,6.2,0l.06-.09Z" transform="translate(-9.59 -4.88)"/><path class="cls-59" d="M582.24,302a.83.83,0,0,1-.46-.14,1,1,0,0,1-.31-.38.87.87,0,0,1,0-.48.84.84,0,0,1,.66-.66.87.87,0,0,1,.48.05.84.84,0,0,1,.37.3.8.8,0,0,1,.15.47.71.71,0,0,1-.07.32.84.84,0,0,1-.18.28.8.8,0,0,1-.27.18A1,1,0,0,1,582.24,302Zm0-2a1.16,1.16,0,0,0-.65.2,1.17,1.17,0,0,0-.5,1.22,1.15,1.15,0,0,0,.33.6,1.1,1.1,0,0,0,.61.32,1.14,1.14,0,0,0,.68-.07,1.24,1.24,0,0,0,.53-.43,1.23,1.23,0,0,0,.1-1.12,1.22,1.22,0,0,0-.26-.38,1.19,1.19,0,0,0-.38-.25A1.22,1.22,0,0,0,582.24,300Z" transform="translate(-9.59 -4.88)"/><path class="cls-19" d="M720.93,391.61a7.66,7.66,0,0,1,7.66-7.67h54.85a7.67,7.67,0,0,1,0,15.34H728.59A7.67,7.67,0,0,1,720.93,391.61Z" transform="translate(-9.59 -4.88)"/><circle class="cls-60" cx="773.85" cy="386.73" r="6.49"/><path class="cls-19" d="M785.06,390.21a.7.7,0,0,1-.49-.2.75.75,0,0,1-.2-.5v-.93h-2.51a.47.47,0,0,0-.33.14.49.49,0,0,0-.13.33v5.12a.51.51,0,0,0,.13.33.47.47,0,0,0,.33.14h3.66a.45.45,0,0,0,.32-.14.46.46,0,0,0,.13-.33v-4Zm1.37,0v4a.92.92,0,0,1-.91.93h-3.66a.91.91,0,0,1-.65-.27,1,1,0,0,1-.27-.66v-5.12a.94.94,0,0,1,.27-.66.88.88,0,0,1,.65-.27h2.51Z" transform="translate(-9.59 -4.88)"/><path class="cls-19" d="M721.62,638.31a7.66,7.66,0,0,1,7.66-7.67h54.85a7.67,7.67,0,0,1,0,15.33H729.28A7.66,7.66,0,0,1,721.62,638.31Z" transform="translate(-9.59 -4.88)"/><circle class="cls-60" cx="774.54" cy="633.43" r="6.49"/><path class="cls-19" d="M785.75,636.91a.71.71,0,0,1-.49-.21.7.7,0,0,1-.2-.49v-.93h-2.51a.44.44,0,0,0-.46.46v5.13a.44.44,0,0,0,.46.46h3.66a.48.48,0,0,0,.32-.13.46.46,0,0,0,.13-.33v-4Zm1.37,0v4a1,1,0,0,1-.27.66.91.91,0,0,1-.64.27h-3.66a.91.91,0,0,1-.65-.27,1,1,0,0,1-.27-.66v-5.13a.93.93,0,0,1,.27-.65.88.88,0,0,1,.65-.28h2.51Z" transform="translate(-9.59 -4.88)"/><circle class="cls-18" cx="742.94" cy="455.41" r="22.95"/><text class="cls-61" transform="translate(733.27 465.7)">2</text><rect class="cls-62" x="566.68" y="259.46" width="98.57" height="31.3" rx="7.01"/><path class="cls-63" d="M601.35,273.74a.94.94,0,0,1-.47-.1.63.63,0,0,1-.28-.32,1.46,1.46,0,0,1-.08-.54V271H600v-.32l.53,0,.06-.73H601v.73h1V271h-1v1.78a.66.66,0,0,0,.11.44.5.5,0,0,0,.39.14l.28,0,.27-.07.07.37a2.22,2.22,0,0,1-.41.1Zm-4.16-.05v-3.08h.44v.27l.36-.18a1.54,1.54,0,0,1,.35-.1,1.61,1.61,0,0,1,.39,0,1.13,1.13,0,0,1,.47.09.65.65,0,0,1,.28.29.9.9,0,0,1,.1.46v2.29h-.47v-2.16a.57.57,0,0,0-.15-.42.54.54,0,0,0-.42-.15,1,1,0,0,0-.3,0,1.31,1.31,0,0,0-.28.09,2.38,2.38,0,0,0-.29.13v2.47Zm-2.63-1.82h.53l.47,0,.37,0,.21,0a1.49,1.49,0,0,0-.08-.52.5.5,0,0,0-.23-.28.75.75,0,0,0-.39-.09.93.93,0,0,0-.29,0,.52.52,0,0,0-.27.15.75.75,0,0,0-.21.29A1.71,1.71,0,0,0,594.56,271.87Zm.82,1.87a1.89,1.89,0,0,1-.56-.08,1.17,1.17,0,0,1-.42-.27,1.33,1.33,0,0,1-.26-.47,2.73,2.73,0,0,1-.08-.69,2.62,2.62,0,0,1,.1-.79,1.32,1.32,0,0,1,.3-.52,1.18,1.18,0,0,1,.45-.28,1.69,1.69,0,0,1,.56-.08,1.11,1.11,0,0,1,.87.31,1.42,1.42,0,0,1,.29,1v.1s0,.08,0,.12l-.33,0-.47,0a5.28,5.28,0,0,1-.59,0l-.67,0a.13.13,0,0,0,0,.06v.06a1.44,1.44,0,0,0,.1.6.77.77,0,0,0,.31.33,1.12,1.12,0,0,0,.5.1h.37l.37-.06.32-.07.07.36a1.79,1.79,0,0,1-.35.09,2.52,2.52,0,0,1-.41.06A3.24,3.24,0,0,1,595.38,273.74Zm-2.38-.05v-3.08h.48v3.08Zm.24-3.7a.46.46,0,0,1-.23-.05.28.28,0,0,1-.06-.2.29.29,0,0,1,.06-.21.33.33,0,0,1,.23-.06.35.35,0,0,1,.23.06.29.29,0,0,1,.07.21.28.28,0,0,1-.07.2A.44.44,0,0,1,593.24,270Zm-1.26-.55v3.4a.9.9,0,0,0,0,.31.22.22,0,0,0,.12.13.33.33,0,0,0,.17,0h.13l.16,0,0,.38a.79.79,0,0,1-.22.06,1,1,0,0,1-.25,0,.8.8,0,0,1-.36-.07.5.5,0,0,1-.24-.27,1.42,1.42,0,0,1-.08-.52v-3.44Zm-3.38,2.75a2.17,2.17,0,0,1,.17-.91,1.1,1.1,0,0,1,.49-.55,1.6,1.6,0,0,1,.78-.17h.31l.32,0a1.06,1.06,0,0,1,.28.06l-.06.4-.27,0-.27,0-.27,0a1,1,0,0,0-.54.14.88.88,0,0,0-.33.4,1.9,1.9,0,0,0-.11.68,1.67,1.67,0,0,0,.11.64.77.77,0,0,0,.34.37,1.13,1.13,0,0,0,.54.12h.27a2.58,2.58,0,0,0,.29,0l.28-.06.08.39a2.87,2.87,0,0,1-.49.09,3.23,3.23,0,0,1-.53,0,1.33,1.33,0,0,1-1-.38A1.69,1.69,0,0,1,588.6,272.19Z" transform="translate(-9.59 -4.88)"/><path class="cls-63" d="M601.35,282a.94.94,0,0,1-.47-.1.63.63,0,0,1-.28-.32,1.46,1.46,0,0,1-.08-.54v-1.81H600v-.32l.53,0,.06-.72H601v.72h1v.36h-1V281a.66.66,0,0,0,.11.44.47.47,0,0,0,.39.14l.28,0,.27-.07.07.37a2.22,2.22,0,0,1-.41.1Zm-4-1.54a2.19,2.19,0,0,1,.17-.92,1.13,1.13,0,0,1,.48-.55,1.74,1.74,0,0,1,.79-.17h.31l.31,0a1.14,1.14,0,0,1,.29.06l-.07.4-.26,0-.28,0-.26,0a1,1,0,0,0-.54.14.78.78,0,0,0-.33.4,1.71,1.71,0,0,0-.12.69,1.48,1.48,0,0,0,.12.63.72.72,0,0,0,.34.37,1,1,0,0,0,.53.13l.28,0a2.85,2.85,0,0,0,.29,0l.28-.06.07.39a2.87,2.87,0,0,1-.49.09,3.12,3.12,0,0,1-.52,0,1.35,1.35,0,0,1-1-.37A1.72,1.72,0,0,1,597.4,280.48Zm-2.45.71a.51.51,0,0,0,.12.37.45.45,0,0,0,.33.12,1.19,1.19,0,0,0,.32-.05,1.73,1.73,0,0,0,.31-.14,1.46,1.46,0,0,0,.28-.21v-.77l-.57.07a1.8,1.8,0,0,0-.43.11.69.69,0,0,0-.27.19A.5.5,0,0,0,595,281.19Zm-.49,0a.89.89,0,0,1,.11-.46.91.91,0,0,1,.35-.28,2.11,2.11,0,0,1,.58-.16,7.25,7.25,0,0,1,.81-.11v-.43a.48.48,0,0,0-.18-.4.85.85,0,0,0-.52-.14h-.26l-.29,0-.33.08-.08-.39a2.78,2.78,0,0,1,.5-.11,2.93,2.93,0,0,1,.49,0,1.48,1.48,0,0,1,.63.11.76.76,0,0,1,.39.31,1.06,1.06,0,0,1,.13.53v1.49a.44.44,0,0,0,.05.26.2.2,0,0,0,.15.06h.07l.09,0,.05.36a.64.64,0,0,1-.18.06.64.64,0,0,1-.2,0,.48.48,0,0,1-.33-.1.51.51,0,0,1-.15-.33,2.44,2.44,0,0,1-.31.22,2.57,2.57,0,0,1-.37.16,1.88,1.88,0,0,1-.43,0,.83.83,0,0,1-.32,0,.61.61,0,0,1-.24-.15.72.72,0,0,1-.16-.25A1.16,1.16,0,0,1,594.46,281.23Zm-1,.79a.94.94,0,0,1-.47-.1.68.68,0,0,1-.28-.32,1.71,1.71,0,0,1-.08-.54v-1.81h-.53v-.32l.53,0,.06-.72h.42v.72h1v.36h-1V281a.73.73,0,0,0,.11.44.47.47,0,0,0,.39.14l.28,0,.27-.07.07.37a2.13,2.13,0,0,1-.4.1Zm-4.16,0v-3.08h.44v.27a2,2,0,0,1,.36-.17,1.75,1.75,0,0,1,.35-.11,1.67,1.67,0,0,1,.39,0,1.09,1.09,0,0,1,.47.09.74.74,0,0,1,.29.29,1,1,0,0,1,.09.46V282h-.47v-2.16a.57.57,0,0,0-.15-.42.54.54,0,0,0-.42-.15,1,1,0,0,0-.3,0,1.52,1.52,0,0,0-.28.09,2.38,2.38,0,0,0-.29.13V282Zm-2.78-1.55a2.37,2.37,0,0,0,.09.73.69.69,0,0,0,.28.39,1.15,1.15,0,0,0,1,0,.63.63,0,0,0,.27-.39,2.37,2.37,0,0,0,.09-.73,2.72,2.72,0,0,0-.08-.71.64.64,0,0,0-.26-.38,1.14,1.14,0,0,0-1,0,.69.69,0,0,0-.27.38A2.72,2.72,0,0,0,586.57,280.42Zm-.49,0a3.52,3.52,0,0,1,.07-.7,1.12,1.12,0,0,1,.23-.49,1,1,0,0,1,.41-.3,1.93,1.93,0,0,1,.64-.09,1.91,1.91,0,0,1,.63.09,1,1,0,0,1,.42.3,1.11,1.11,0,0,1,.22.49,2.91,2.91,0,0,1,.07.7,3.17,3.17,0,0,1-.07.73,1.23,1.23,0,0,1-.24.5.94.94,0,0,1-.41.28,2.18,2.18,0,0,1-1.24,0,1,1,0,0,1-.42-.28,1.36,1.36,0,0,1-.23-.5A3.13,3.13,0,0,1,586.08,280.42Zm-2.7.06a2.19,2.19,0,0,1,.17-.92A1.13,1.13,0,0,1,584,279a1.74,1.74,0,0,1,.79-.17h.31l.31,0a1.14,1.14,0,0,1,.29.06l-.07.4-.26,0-.28,0-.26,0a1,1,0,0,0-.54.14.88.88,0,0,0-.33.4,1.71,1.71,0,0,0-.12.69,1.48,1.48,0,0,0,.12.63.77.77,0,0,0,.34.37,1,1,0,0,0,.54.13l.27,0a2.85,2.85,0,0,0,.29,0l.28-.06.07.39a2.75,2.75,0,0,1-.48.09,3.32,3.32,0,0,1-.53,0,1.35,1.35,0,0,1-1-.37A1.72,1.72,0,0,1,583.38,280.48Z" transform="translate(-9.59 -4.88)"/><path class="cls-63" d="M601.5,286.32v3.4a.9.9,0,0,0,0,.31.22.22,0,0,0,.12.13.35.35,0,0,0,.17,0H602l.15,0,0,.38a.71.71,0,0,1-.22.06,1,1,0,0,1-.24,0,.84.84,0,0,1-.37-.07.48.48,0,0,1-.23-.27,1.23,1.23,0,0,1-.08-.52v-3.44Zm-1.67,4.25v-3.08h.48v3.08Zm.24-3.7a.46.46,0,0,1-.23-.05.28.28,0,0,1-.06-.2.29.29,0,0,1,.06-.21.47.47,0,0,1,.46,0,.29.29,0,0,1,.07.21.28.28,0,0,1-.07.2A.41.41,0,0,1,600.07,286.87Zm-2.87,2.92a.53.53,0,0,0,.12.37.49.49,0,0,0,.34.12,1.25,1.25,0,0,0,.32,0,2.12,2.12,0,0,0,.31-.14,1.39,1.39,0,0,0,.27-.21v-.77l-.56.07a1.69,1.69,0,0,0-.43.11.73.73,0,0,0-.28.19A.5.5,0,0,0,597.2,289.79Zm-.48,0a.81.81,0,0,1,.11-.46.77.77,0,0,1,.35-.28,2.11,2.11,0,0,1,.58-.16,7.38,7.38,0,0,1,.8-.11v-.43a.48.48,0,0,0-.18-.4.8.8,0,0,0-.51-.14h-.26l-.3,0L597,288l-.09-.39a3.1,3.1,0,0,1,.51-.11,2.77,2.77,0,0,1,.49,0,1.67,1.67,0,0,1,.63.1.76.76,0,0,1,.38.32,1,1,0,0,1,.13.53v1.49a.54.54,0,0,0,.05.26.2.2,0,0,0,.15.06h.08l.08,0,.06.36a.6.6,0,0,1-.19.06.58.58,0,0,1-.19,0,.48.48,0,0,1-.33-.1.51.51,0,0,1-.15-.33l-.31.22a3.17,3.17,0,0,1-.37.16,1.88,1.88,0,0,1-.43.05.8.8,0,0,1-.32-.05.61.61,0,0,1-.24-.15.72.72,0,0,1-.16-.25A.9.9,0,0,1,596.72,289.83Zm-4.48.74v-3.08h.44v.27a2,2,0,0,1,.32-.17,1.73,1.73,0,0,1,.32-.11,1.47,1.47,0,0,1,.36,0,.94.94,0,0,1,.3.05.43.43,0,0,1,.22.12.65.65,0,0,1,.15.18,3.07,3.07,0,0,1,.31-.17,1.91,1.91,0,0,1,.36-.13,1.4,1.4,0,0,1,.41-.05,1,1,0,0,1,.31,0,.71.71,0,0,1,.23.12.9.9,0,0,1,.15.19.63.63,0,0,1,.08.23,1.09,1.09,0,0,1,0,.26v2.29h-.48v-2.16a1.23,1.23,0,0,0,0-.19,1.08,1.08,0,0,0-.08-.19.34.34,0,0,0-.16-.13.63.63,0,0,0-.26,0,1,1,0,0,0-.3,0,1.07,1.07,0,0,0-.27.09l-.22.12,0,.14c0,.05,0,.1,0,.15v2.18H594v-2.15a1.36,1.36,0,0,0,0-.2.49.49,0,0,0-.08-.18.34.34,0,0,0-.16-.13.5.5,0,0,0-.26-.06,1.09,1.09,0,0,0-.26,0L593,288l-.24.13v2.47Zm-2.63-1.82h.53l.47,0,.37,0,.21,0a1.49,1.49,0,0,0-.08-.52.48.48,0,0,0-.22-.28.82.82,0,0,0-.4-.09.93.93,0,0,0-.29,0,.52.52,0,0,0-.27.15.75.75,0,0,0-.21.29A1.71,1.71,0,0,0,589.61,288.75Zm.82,1.87a1.94,1.94,0,0,1-.56-.08,1.17,1.17,0,0,1-.42-.27,1.4,1.4,0,0,1-.26-.47,2.73,2.73,0,0,1-.08-.69,2.62,2.62,0,0,1,.1-.79,1.34,1.34,0,0,1,.31-.52,1.14,1.14,0,0,1,.44-.28,1.69,1.69,0,0,1,.56-.08,1.15,1.15,0,0,1,.88.31,1.47,1.47,0,0,1,.28,1v.1s0,.08,0,.12l-.33,0-.47,0a5.28,5.28,0,0,1-.59,0l-.67,0a.13.13,0,0,0,0,.06v.06a1.63,1.63,0,0,0,.1.6.77.77,0,0,0,.31.33,1.12,1.12,0,0,0,.5.1h.38l.36-.06.32-.07.07.36a1.79,1.79,0,0,1-.35.09,2.57,2.57,0,0,1-.4.06A3.46,3.46,0,0,1,590.43,290.62Z" transform="translate(-9.59 -4.88)"/><path class="cls-64" d="M606.43,291.46v.09h.64v-.09Zm0-1.81v.16h.64v-.16Zm0-1.82V288h.64v-.16Zm0-1.82v.16h.64V286Zm0-1.82v.16h.64v-.16Zm0-1.82v.16h.64v-.16Zm0-1.82v.17h.64v-.17Zm0-1.82v.17h.64v-.17Zm0-1.82v.17h.64v-.17Zm0-1.82v.17h.64v-.17Zm0-1.82v.17h.64v-.17Zm0-1.81v.16h.64v-.16Zm0-1.82v.16h.64v-.16Zm0-1.74V268h.64v-.08Zm.64,23.56a.32.32,0,0,0-.32-.31.31.31,0,0,0-.32.31Zm-.64-1.65a.32.32,0,0,0,.32.32.32.32,0,0,0,.32-.32Zm.64-.16a.32.32,0,0,0-.32-.32.32.32,0,0,0-.32.32Zm-.64-1.66a.32.32,0,0,0,.32.32.32.32,0,0,0,.32-.32Zm.64-.16a.32.32,0,0,0-.32-.32.32.32,0,0,0-.32.32Zm-.64-1.66a.32.32,0,0,0,.32.32.32.32,0,0,0,.32-.32Zm.64-.16a.32.32,0,0,0-.32-.32.32.32,0,0,0-.32.32Zm-.64-1.66a.32.32,0,0,0,.32.32.32.32,0,0,0,.32-.32Zm.64-.16a.32.32,0,0,0-.32-.32.32.32,0,0,0-.32.32Zm-.64-1.66a.32.32,0,0,0,.32.32.32.32,0,0,0,.32-.32Zm.64-.16a.32.32,0,0,0-.32-.32.32.32,0,0,0-.32.32Zm-.64-1.65a.31.31,0,0,0,.32.31.32.32,0,0,0,.32-.31Zm.64-.17a.32.32,0,0,0-.32-.32.32.32,0,0,0-.32.32Zm-.64-1.65a.31.31,0,0,0,.32.31.32.32,0,0,0,.32-.31Zm.64-.17a.33.33,0,0,0-.32-.32.32.32,0,0,0-.32.32Zm-.64-1.65a.32.32,0,0,0,.32.32.33.33,0,0,0,.32-.32Zm.64-.17a.33.33,0,0,0-.32-.32.32.32,0,0,0-.32.32Zm-.64-1.65a.32.32,0,0,0,.32.32.33.33,0,0,0,.32-.32Zm.64-.17a.33.33,0,0,0-.32-.32.32.32,0,0,0-.32.32Zm-.64-1.65a.32.32,0,0,0,.32.32.32.32,0,0,0,.32-.32Zm.64-.17a.32.32,0,0,0-.32-.31.31.31,0,0,0-.32.31Zm-.64-1.65a.32.32,0,0,0,.32.32.32.32,0,0,0,.32-.32Zm.64-.16a.32.32,0,0,0-.32-.32.32.32,0,0,0-.32.32Zm-.64-1.66a.32.32,0,0,0,.32.32.32.32,0,0,0,.32-.32Zm.64-.16a.32.32,0,0,0-.32-.32.32.32,0,0,0-.32.32Zm-.64-1.66a.32.32,0,0,0,.32.32.32.32,0,0,0,.32-.32Zm0,23.57a.32.32,0,0,0,.32.32.33.33,0,0,0,.32-.32Zm.64-23.65a.32.32,0,0,0-.32-.32.32.32,0,0,0-.32.32Z" transform="translate(-9.59 -4.88)"/><rect class="cls-32" x="566.31" y="184.63" width="152.67" height="10.54"/><rect class="cls-65" x="566.31" y="204.14" width="152.67" height="4.56"/><rect class="cls-65" x="566.31" y="212.39" width="152.67" height="4.56"/><rect class="cls-65" x="566.31" y="220.64" width="152.67" height="4.56"/><rect class="cls-65" x="566.31" y="228.89" width="152.67" height="4.56"/><rect class="cls-65" x="566.31" y="237.14" width="152.67" height="4.56"/><rect class="cls-65" x="566.31" y="245.4" width="50.89" height="4.56"/><rect class="cls-10" x="601.16" y="264.86" width="48.6" height="4.13"/><rect class="cls-10" x="601.16" y="274.02" width="38.05" height="4.13"/><rect class="cls-10" x="601.16" y="282.28" width="48.6" height="4.13"/><circle class="cls-18" cx="744.63" cy="710.28" r="22.95"/><text class="cls-61" transform="translate(733.07 721.05)">4</text><path class="cls-39" d="M565.74,115c2.9-2.41,6-7.4,8.61-8.41a3.22,3.22,0,0,1,3.73.89s.66-3,3.18-3.56c1.3-.27,2.87,1.57,2.87,1.57a3.83,3.83,0,0,1,2.91-2.73c1.81-.27,3.11,1.61,3.11,1.61s1.69-2,3.62-1.7c3.91.66,7.79,15.89,2.78,19.66-2.34,1.76-3.08-2-3.08-2s-.24,5.68-3.36,6.56-3.79-4.07-3.79-4.07-.28,5.5-3.6,6.08-3.29-4.46-3.29-4.46-1.43,4-4.08,3.83c-4.37-.22-1.45-10-3.1-13.18Z" transform="translate(-9.59 -4.88)"/><path class="cls-66" d="M590.4,104.67a0,0,0,0,1,.08,0,27.26,27.26,0,0,1,3,15.92c0,.17-.31.21-.32,0A55.88,55.88,0,0,0,590.4,104.67Z" transform="translate(-9.59 -4.88)"/><path class="cls-66" d="M584.15,105.44c0-.06.07-.09.1,0A25.48,25.48,0,0,1,586.51,123c-.06.21-.31.34-.27.09C587,119,585.81,110.24,584.15,105.44Z" transform="translate(-9.59 -4.88)"/><path class="cls-66" d="M579.18,124.86c1.29-5.82.58-11.46-1-17.15,0-.08.09-.1.12,0,1.53,2.57,2.15,6.31,2.38,9.25a15.75,15.75,0,0,1-1.3,8C579.34,125,579.15,125,579.18,124.86Z" transform="translate(-9.59 -4.88)"/><circle class="cls-18" cx="742.94" cy="322.92" r="22.95"/><text class="cls-61" transform="translate(733.27 333.23)">1</text><circle class="cls-18" cx="744.02" cy="553.81" r="22.95"/><text class="cls-61" transform="translate(734.36 564.12)">3</text><path class="cls-67" d="M794.53,306.55v110a4.29,4.29,0,0,0,4.8,4.26L893,409.7a5.19,5.19,0,0,0,4.41-6.45c-2.61-10.08-7.61-31.29-7.63-46.07a1.05,1.05,0,0,0-.56-.93L796.1,305.62A1.06,1.06,0,0,0,794.53,306.55Z" transform="translate(-9.59 -4.88)"/><path class="cls-68" d="M796.37,304.58,909.55,293a1.68,1.68,0,0,1,1.83,1.41c1.5,9.37,10.14,58.64,30.21,90.19a1.67,1.67,0,0,1-1.07,2.54L839.26,408.83a1.7,1.7,0,0,1-1.44-.36C833.6,404.9,810,382.1,794.89,306.59A1.68,1.68,0,0,1,796.37,304.58Z" transform="translate(-9.59 -4.88)"/><path class="cls-69" d="M905.49,355.35c-12.77-3.2-16.06-16.52-27.76-16.42s-14.07,13.17-24.38,12.56c-11.74-.7-14-17.95-29.22-22a27,27,0,0,0-14.71.53c8.53,40,28.17,67.83,28.17,67.83l92.93-19.11A136.7,136.7,0,0,1,919,354.7,24.68,24.68,0,0,1,905.49,355.35Z" transform="translate(-9.59 -4.88)"/><g class="cls-70"><path class="cls-10" d="M806.75,316.43a2.37,2.37,0,0,1-.23-4.72l96.09-9.3a2.37,2.37,0,0,1,.46,4.72L807,316.42Z" transform="translate(-9.59 -4.88)"/></g><g class="cls-70"><path class="cls-10" d="M843,322.23a2.37,2.37,0,0,1-.26-4.73l61.55-6.76a2.37,2.37,0,0,1,.52,4.71l-61.55,6.76Z" transform="translate(-9.59 -4.88)"/></g><path class="cls-71" d="M807.92,631.42V724a5.69,5.69,0,0,0,5.69,5.69h97.07a5.69,5.69,0,0,0,5.69-5.69V665.16Z" transform="translate(-9.59 -4.88)"/><path class="cls-18" d="M939.92,721.85H820.29c-7.88-17.09-14-51.77-12.37-90.43l120.73,5.7C926,673.17,930.65,707,939.92,721.85Z" transform="translate(-9.59 -4.88)"/><path class="cls-72" d="M922.28,648.7a2.81,2.81,0,0,0-2.68-2.61l-103.41-4.63a2.81,2.81,0,0,0-2.94,2.81v.6a2.81,2.81,0,0,0,2.7,2.81l103.41,4A2.82,2.82,0,0,0,922.28,648.7Z" transform="translate(-9.59 -4.88)"/><path class="cls-72" d="M875.7,655.14l-59.36-2a3,3,0,0,0-3.09,3v.35a3,3,0,0,0,2.9,3l59.36,1.66a3,3,0,0,0,.19-6Z" transform="translate(-9.59 -4.88)"/><g class="cls-73"><polygon class="cls-74" points="824.54 702.6 818.63 702.59 815.65 670.36 821.45 670.45 824.54 702.6"/><polygon class="cls-75" points="834.96 702.62 829.11 702.61 827.51 686.42 833.32 686.47 834.96 702.62"/><polygon class="cls-76" points="845.29 702.64 839.49 702.63 835.86 667.7 841.56 667.8 845.29 702.64"/><polygon class="cls-77" points="855.53 702.67 849.78 702.65 846.53 672.95 852.19 673.03 855.53 702.67"/><polygon class="cls-78" points="865.69 702.69 859.99 702.68 859.06 694.65 864.74 694.68 865.69 702.69"/><polygon class="cls-79" points="875.76 702.71 870.1 702.7 867.85 684.02 873.46 684.08 875.76 702.71"/><polygon class="cls-80" points="885.74 702.73 880.14 702.72 876.78 676.03 882.31 676.11 885.74 702.73"/><polygon class="cls-81" points="895.64 702.76 890.09 702.74 887.53 683.29 893.04 683.35 895.64 702.76"/><polygon class="cls-82" points="905.46 702.78 899.95 702.76 895.87 672.88 901.3 672.96 905.46 702.78"/><polygon class="cls-83" points="915.2 702.8 909.73 702.79 905.05 669.77 910.43 669.85 915.2 702.8"/></g><polygon class="cls-72" points="915.95 707.95 819.13 707.95 818.81 704.44 915.46 704.58 915.95 707.95"/><rect class="cls-46" x="586.79" y="316.14" width="106.73" height="12.79"/><g class="cls-47"><rect class="cls-48" x="586.79" y="334.34" width="106.73" height="3.54"/></g><g class="cls-47"><rect class="cls-48" x="586.79" y="341.94" width="57.7" height="3.54"/></g><g class="cls-47"><path class="cls-48" d="M658.87,383.86c-5.24-1.81-7.49-7.56-4.46-11.71a52.69,52.69,0,0,1,9.21-9.49c3.17-2.58,7.67-1.58,10.36,1.56,2.83,3.32,3.07,8,.38,11-2.2,2.46-4.54,4.8-6.92,7.08a12.17,12.17,0,0,1-3.15,2.07l-.34-2.87c2.67-2.57,5.32-4.84,7.65-7.42,2.76-3.06,2.38-6.74-.6-8.8a4.89,4.89,0,0,0-6,0,89.67,89.67,0,0,0-7.32,7.27,5.34,5.34,0,0,0,.43,7.94C658.72,381.05,658.84,383.85,658.87,383.86Z" transform="translate(-9.59 -4.88)"/><path class="cls-48" d="M652.27,375.34l.3,2.74c-2.69,2.6-5.37,4.9-7.71,7.51-2.69,3-2.28,6.66.66,8.71a5.15,5.15,0,0,0,6.59-.4c2.15-1.94,4.24-4,6.19-6.09,1.52-1.65,2.66-3.6,1.91-6a5.82,5.82,0,0,0-1.42-2.29c-1.14-1.09-.91-2.32-.82-3.63,3.39.81,7.47,5.87,4.5,10.84-1.76,3-4.43,5.42-6.86,7.92a13.6,13.6,0,0,1-4.25,3,7.54,7.54,0,0,1-9-2.52c-2.44-3.06-3.07-7.21-.86-9.88a120.6,120.6,0,0,1,8.68-8.84A3.9,3.9,0,0,1,652.27,375.34Z" transform="translate(-9.59 -4.88)"/></g><g class="cls-47"><path class="cls-49" d="M608,362.78v4.65c0,.4,0,.8,0,1.21-.06,1.09-.37,1.41-1.48,1.44-1.36,0-2.72,0-4.08,0h-1.62v24.3c0,1.68.31,2,1.92,1.87,1.1-.07,2.21-.13,3.31-.13h16.92c1.31,0,2.62.07,3.92.12s1.55-.23,1.56-1.44c0-1.61,0-3.22,0-4.83V365.05c0-.35,0-.7,0-1.05,0-.7-.23-1.15-1-1.23-.6-.06-1.12-.35-1-1.06s.75-.71,1.33-.68a2.18,2.18,0,0,1,2.31,2.41c0,3,0,5.94,0,8.91q0,10.88,0,21.75V395c-.07,2.15-.78,2.89-3,2.89-8.41,0-16.82,0-25.23,0-1.73,0-2.83-.79-2.82-2.87.06-8.46,0-16.92,0-25.38a2.19,2.19,0,0,1,.7-1.72q3.13-3.07,6.2-6.19a2.18,2.18,0,0,1,1.73-.74c1.31.05,2.62,0,3.93,0h.45c.55,0,1,.17,1,.84s-.41.88-1,.9c-.76,0-1.51,0-2.27,0Zm-5.62,5.51c1,0,2.1,0,3.23,0,.21,0,.56-.42.57-.66.06-1.08,0-2.17,0-3.24Z" transform="translate(-9.59 -4.88)"/><path class="cls-49" d="M619.24,362.19a4.24,4.24,0,0,0-.12,1.21c0,2.07,0,4.13,0,6.19a3.72,3.72,0,0,0,.29,1.31,1.9,1.9,0,0,0,2,1.34,2,2,0,0,0,1.82-1.57,5.72,5.72,0,0,0,.16-1.49c0-2.11.06-4.23,0-6.34a8.6,8.6,0,0,0-.35-2.37,3.46,3.46,0,0,0-6.78.19,9.32,9.32,0,0,0-.24,2.24c0,1.46,0,2.92,0,4.37,0,1.81-.57,1.72-.87,1.77-.5.09-.88-.45-.87-1,.05-2.51,0-4.87.25-7.36a5.32,5.32,0,0,1,1.66-3.15,4.84,4.84,0,0,1,6.9-.11,6.58,6.58,0,0,1,2.06,4.72c.08,2.41,0,4.83,0,7.24a6.81,6.81,0,0,1-.22,1.34,3.88,3.88,0,0,1-3.6,3.29,4.17,4.17,0,0,1-3.77-3.35,7,7,0,0,1-.23-1.64c0-2.21.07-4.42.22-6.63a2,2,0,0,1,2.34-2.14,1.74,1.74,0,0,1,1.69,1.27,5.62,5.62,0,0,1,.28,1.62c0,2.11,0,4.22,0,6.34,0,.25-.09,1.42-1,1.3-.67-.09-.7-1.29-.7-1.65,0-1.86,0-3.72,0-5.58,0-.51,0-1.37-.25-1.54A.54.54,0,0,0,619.24,362.19Z" transform="translate(-9.59 -4.88)"/><path class="cls-49" d="M623.62,380.36H605.74a1,1,0,0,1,0-2h17.88a1,1,0,0,1,0,2Z" transform="translate(-9.59 -4.88)"/><path class="cls-49" d="M623.62,384.6H605.74a1,1,0,1,1,0-2h17.88a1,1,0,1,1,0,2Z" transform="translate(-9.59 -4.88)"/><path class="cls-49" d="M623.62,388.84H605.74a1,1,0,1,1,0-2h17.88a1,1,0,1,1,0,2Z" transform="translate(-9.59 -4.88)"/><path class="cls-49" d="M614.83,376h-9.09a1,1,0,1,1,0-2h9.09a1,1,0,1,1,0,2Z" transform="translate(-9.59 -4.88)"/></g><text class="cls-84" transform="translate(734.87 231.76)">START</text><path class="cls-18" d="M914.83,134a5.38,5.38,0,1,1,5.37-5.37A5.38,5.38,0,0,1,914.83,134Z" transform="translate(-9.59 -4.88)"/><path class="cls-10" d="M932.78,134a5.38,5.38,0,1,1,5.37-5.37A5.38,5.38,0,0,1,932.78,134Z" transform="translate(-9.59 -4.88)"/><path class="cls-10" d="M950.73,134a5.38,5.38,0,1,1,5.37-5.37A5.39,5.39,0,0,1,950.73,134Z" transform="translate(-9.59 -4.88)"/><rect class="cls-46" x="796.96" y="447.81" width="106.73" height="12.79"/><g class="cls-47"><rect class="cls-48" x="796.96" y="466.01" width="106.73" height="3.54"/></g><g class="cls-47"><rect class="cls-48" x="796.96" y="473.61" width="57.7" height="3.54"/></g><g class="cls-47"><path class="cls-48" d="M869,515.53c-5.24-1.81-7.49-7.56-4.46-11.7a52.36,52.36,0,0,1,9.21-9.49c3.17-2.58,7.67-1.59,10.36,1.55,2.83,3.32,3.07,8,.37,11-2.19,2.45-4.53,4.79-6.91,7.08a12.07,12.07,0,0,1-3.15,2.06l-.34-2.87c2.67-2.56,5.32-4.84,7.65-7.41,2.76-3.06,2.38-6.74-.6-8.81a4.88,4.88,0,0,0-6,0,89.55,89.55,0,0,0-7.32,7.26,5.35,5.35,0,0,0,.43,7.95C868.89,512.73,869,515.52,869,515.53Z" transform="translate(-9.59 -4.88)"/><path class="cls-48" d="M862.44,507l.3,2.73c-2.69,2.6-5.37,4.91-7.71,7.51-2.69,3-2.28,6.67.66,8.72a5.17,5.17,0,0,0,6.59-.41c2.15-1.94,4.24-4,6.19-6.09,1.52-1.64,2.66-3.59,1.91-6a5.68,5.68,0,0,0-1.42-2.29c-1.14-1.1-.91-2.33-.82-3.64,3.39.82,7.47,5.87,4.5,10.84-1.76,3-4.43,5.42-6.86,7.93a13.57,13.57,0,0,1-4.25,3,7.53,7.53,0,0,1-8.95-2.52c-2.44-3.06-3.07-7.2-.86-9.88a120.6,120.6,0,0,1,8.68-8.84A3.86,3.86,0,0,1,862.44,507Z" transform="translate(-9.59 -4.88)"/></g><g class="cls-47"><path class="cls-49" d="M818.12,494.45v4.65c0,.4,0,.81,0,1.21-.06,1.09-.37,1.42-1.48,1.45-1.36,0-2.72,0-4.08,0h-1.62v24.3c0,1.67.31,1.95,1.92,1.86,1.1-.06,2.21-.12,3.31-.13h16.92c1.31,0,2.62.07,3.92.12s1.54-.22,1.56-1.43c0-1.62,0-3.23,0-4.84V496.73c0-.36,0-.71,0-1.06,0-.7-.23-1.15-1-1.22-.6-.07-1.12-.35-1-1.07s.75-.71,1.33-.68a2.18,2.18,0,0,1,2.31,2.41c0,3,0,5.94,0,8.91q0,10.88,0,21.75c0,.31,0,.61,0,.91-.06,2.15-.77,2.89-3,2.9H812.05c-1.73,0-2.83-.79-2.82-2.88.06-8.45,0-16.91,0-25.37a2.21,2.21,0,0,1,.7-1.73q3.13-3.08,6.2-6.19a2.17,2.17,0,0,1,1.73-.73c1.31,0,2.62,0,3.93,0h.45c.55,0,1,.17,1,.84s-.41.88-1,.9c-.76,0-1.52,0-2.27,0ZM812.5,500c1,0,2.1,0,3.23,0a.88.88,0,0,0,.57-.65c.06-1.09,0-2.18,0-3.25Z" transform="translate(-9.59 -4.88)"/><path class="cls-49" d="M829.41,493.86a4.32,4.32,0,0,0-.12,1.22q0,3.09,0,6.18a3.72,3.72,0,0,0,.29,1.31,1.92,1.92,0,0,0,2,1.35,2.06,2.06,0,0,0,1.82-1.57,5.8,5.8,0,0,0,.16-1.5c0-2.11.06-4.22,0-6.34a8.53,8.53,0,0,0-.35-2.36,3.46,3.46,0,0,0-6.78.18,9.32,9.32,0,0,0-.24,2.24c0,1.46,0,2.92,0,4.38,0,1.8-.57,1.71-.87,1.77-.5.08-.88-.45-.87-1,0-2.51,0-4.86.25-7.36a5.35,5.35,0,0,1,1.66-3.15,4.83,4.83,0,0,1,6.9-.1,6.56,6.56,0,0,1,2.06,4.72c.08,2.41,0,4.82,0,7.24a6.84,6.84,0,0,1-.22,1.33,3.87,3.87,0,0,1-3.6,3.29,4.17,4.17,0,0,1-3.77-3.35,7,7,0,0,1-.23-1.64c0-2.21.07-4.42.22-6.63a2,2,0,0,1,2.34-2.14,1.74,1.74,0,0,1,1.69,1.27,6,6,0,0,1,.28,1.62c0,2.11,0,4.23,0,6.34,0,.25-.09,1.42-1,1.3-.67-.08-.7-1.29-.7-1.64,0-1.86,0-3.73,0-5.59,0-.51,0-1.37-.25-1.54A.54.54,0,0,0,829.41,493.86Z" transform="translate(-9.59 -4.88)"/><path class="cls-49" d="M833.79,512H815.91a1,1,0,1,1,0-2h17.88a1,1,0,1,1,0,2Z" transform="translate(-9.59 -4.88)"/><path class="cls-49" d="M833.79,516.27H815.91a1,1,0,1,1,0-2h17.88a1,1,0,1,1,0,2Z" transform="translate(-9.59 -4.88)"/><path class="cls-49" d="M833.79,520.51H815.91a1,1,0,1,1,0-2h17.88a1,1,0,1,1,0,2Z" transform="translate(-9.59 -4.88)"/><path class="cls-49" d="M825,507.68h-9.09a1,1,0,1,1,0-2H825a1,1,0,1,1,0,2Z" transform="translate(-9.59 -4.88)"/></g></g></g></svg>